<svg width="428" height="133" viewBox="0 0 428 133" fill="none" xmlns="http://www.w3.org/2000/svg">
<path fill-rule="evenodd" clip-rule="evenodd" d="M327.683 16.4056C361.055 18 393.448 18 410.167 18H428V133H0V0L9.15527e-05 18L17.8334 14.13C20.0626 13.6463 22.5704 13.1021 25.322 12.5163C44.5834 8.4158 75.7917 2.27858 107 0.585449C111.458 0.343628 115.917 0.192505 120.375 0.120728C151.583 -0.381683 182.792 3.0042 214 6.39046L214.028 6.39343C218.485 6.877 222.942 7.36057 227.399 7.84035C258.599 11.1989 289.8 14.3723 321 16.065C323.229 16.1859 325.458 16.2993 327.683 16.4056Z" fill="#D9D9D9"/>
</svg>
