<svg width="1079" height="704" viewBox="0 0 1079 704" fill="none" xmlns="http://www.w3.org/2000/svg">
<path fill-rule="evenodd" clip-rule="evenodd" d="M0.00109863 41.31C175.791 53.8841 351.581 65.6615 527.37 59.3577C711.247 52.7622 895.124 26.3819 987.063 13.191L1079 0V41.2299V304.537V399.463V662.77V704L987.063 690.809C895.124 677.618 711.247 651.238 527.37 644.642C351.581 638.338 175.791 650.116 0.00109863 662.69V41.31Z" fill="url(#paint0_linear_30_160)"/>
<mask id="mask0_30_160" style="mask-type:alpha" maskUnits="userSpaceOnUse" x="0" y="0" width="1080" height="704">
<path fill-rule="evenodd" clip-rule="evenodd" d="M0.00109863 41.31C175.791 53.8841 351.581 65.6615 527.37 59.3577C711.247 52.7622 895.124 26.3819 987.063 13.191L1079 0V41.2299V304.537V399.463V662.77V704L987.063 690.809C895.124 677.618 711.247 651.238 527.37 644.642C351.581 638.338 175.791 650.116 0.00109863 662.69V41.31Z" fill="url(#paint1_linear_30_160)"/>
</mask>
<g mask="url(#mask0_30_160)">
<path d="M1079 28.9451C1062.67 30.1401 1036.15 38.6648 1000.61 34.6813C965.067 30.6978 946.814 9.426 908.389 9.82435C869.963 10.2227 854.592 38.5851 816.166 36.5934C777.74 34.6016 762.37 -3.52033 723.944 0.263983C685.518 4.0483 670.148 51.5713 631.722 54.7581C593.296 57.9449 577.926 12.7721 539.5 15.5606C501.074 18.349 485.703 70.7319 447.277 68.1426C408.852 65.5533 393.481 5.72136 355.055 3.13209C316.629 0.542827 301.259 56.1125 262.833 55.7141C224.407 55.3158 209.037 -0.373375 170.611 1.22002C132.185 2.81341 113.933 57.5864 78.3886 63.3624C42.8447 69.1385 16.3307 36.1154 -0.000267029 28.9451" stroke="white" stroke-opacity="0.2" stroke-width="2" stroke-linecap="round"/>
<path d="M1079 664.713C1062.67 665.908 1036.15 674.432 1000.61 670.449C965.067 666.465 946.814 645.194 908.389 645.592C869.963 645.99 854.592 674.353 816.166 672.361C777.74 670.369 762.37 632.247 723.944 636.032C685.518 639.816 670.148 687.339 631.722 690.526C593.296 693.712 577.926 648.54 539.5 651.328C501.074 654.117 485.703 706.499 447.277 703.91C408.852 701.321 393.481 641.489 355.055 638.9C316.629 636.31 301.259 691.88 262.833 691.482C224.407 691.083 209.037 635.394 170.611 636.988C132.185 638.581 113.933 693.354 78.3886 699.13C42.8447 704.906 16.3307 671.883 -0.000267029 664.713" stroke="white" stroke-opacity="0.2" stroke-width="2" stroke-linecap="round"/>
<path d="M1079 631.248C1062.67 632.443 1036.15 640.967 1000.61 636.984C965.067 633 946.814 611.728 908.389 612.127C869.963 612.525 854.592 640.888 816.166 638.896C777.74 636.904 762.37 598.782 723.944 602.566C685.518 606.351 670.148 653.874 631.722 657.061C593.296 660.247 577.926 615.075 539.5 617.863C501.074 620.652 485.703 673.034 447.277 670.445C408.852 667.856 393.481 608.024 355.055 605.435C316.629 602.845 301.259 658.415 262.833 658.017C224.407 657.618 209.037 601.929 170.611 603.523C132.185 605.116 113.933 659.889 78.3886 665.665C42.8447 671.441 16.3307 638.418 -0.000267029 631.248" stroke="white" stroke-opacity="0.2" stroke-width="2" stroke-linecap="round"/>
<path d="M1079 597.787C1062.67 598.982 1036.15 607.506 1000.61 603.523C965.067 599.539 946.814 578.268 908.389 578.666C869.963 579.064 854.592 607.427 816.166 605.435C777.74 603.443 762.37 565.321 723.944 569.106C685.518 572.89 670.148 620.413 631.722 623.6C593.296 626.786 577.926 581.614 539.5 584.402C501.074 587.191 485.703 639.573 447.277 636.984C408.852 634.395 393.481 574.563 355.055 571.974C316.629 569.384 301.259 624.954 262.833 624.556C224.407 624.157 209.037 568.468 170.611 570.062C132.185 571.655 113.933 626.428 78.3886 632.204C42.8447 637.98 16.3307 604.957 -0.000267029 597.787" stroke="white" stroke-opacity="0.2" stroke-width="2" stroke-linecap="round"/>
<path d="M1079 564.326C1062.67 565.521 1036.15 574.045 1000.61 570.062C965.067 566.078 946.814 544.806 908.389 545.205C869.963 545.603 854.592 573.966 816.166 571.974C777.74 569.982 762.37 531.86 723.944 535.644C685.518 539.429 670.148 586.952 631.722 590.139C593.296 593.325 577.926 548.153 539.5 550.941C501.074 553.73 485.703 606.112 447.277 603.523C408.852 600.934 393.481 541.102 355.055 538.513C316.629 535.923 301.259 591.493 262.833 591.095C224.407 590.696 209.037 535.007 170.611 536.601C132.185 538.194 113.933 592.967 78.3886 598.743C42.8447 604.519 16.3307 571.496 -0.000267029 564.326" stroke="white" stroke-opacity="0.2" stroke-width="2" stroke-linecap="round"/>
<path d="M1079 530.865C1062.67 532.06 1036.15 540.584 1000.61 536.601C965.067 532.617 946.814 511.345 908.389 511.744C869.963 512.142 854.592 540.505 816.166 538.513C777.74 536.521 762.37 498.399 723.944 502.183C685.518 505.968 670.148 553.491 631.722 556.678C593.296 559.864 577.926 514.692 539.5 517.48C501.074 520.268 485.703 572.651 447.277 570.062C408.852 567.473 393.481 507.641 355.055 505.052C316.629 502.462 301.259 558.032 262.833 557.634C224.407 557.235 209.037 501.546 170.611 503.139C132.185 504.733 113.933 559.506 78.3886 565.282C42.8447 571.058 16.3307 538.035 -0.000267029 530.865" stroke="white" stroke-opacity="0.2" stroke-width="2" stroke-linecap="round"/>
<path d="M1079 497.404C1062.67 498.599 1036.15 507.123 1000.61 503.14C965.067 499.156 946.814 477.884 908.389 478.283C869.963 478.681 854.592 507.044 816.166 505.052C777.74 503.06 762.37 464.938 723.944 468.722C685.518 472.507 670.148 520.03 631.722 523.217C593.296 526.403 577.926 481.231 539.5 484.019C501.074 486.808 485.703 539.19 447.277 536.601C408.852 534.012 393.481 474.18 355.055 471.591C316.629 469.001 301.259 524.571 262.833 524.173C224.407 523.774 209.037 468.085 170.611 469.679C132.185 471.272 113.933 526.045 78.3886 531.821C42.8447 537.597 16.3307 504.574 -0.000267029 497.404" stroke="white" stroke-opacity="0.2" stroke-width="2" stroke-linecap="round"/>
<path d="M1079 463.943C1062.67 465.138 1036.15 473.662 1000.61 469.679C965.067 465.695 946.814 444.423 908.389 444.822C869.963 445.22 854.592 473.583 816.166 471.591C777.74 469.599 762.37 431.477 723.944 435.261C685.518 439.046 670.148 486.569 631.722 489.756C593.296 492.942 577.926 447.77 539.5 450.558C501.074 453.346 485.703 505.729 447.277 503.14C408.852 500.551 393.481 440.719 355.055 438.13C316.629 435.54 301.259 491.11 262.833 490.712C224.407 490.313 209.037 434.624 170.611 436.217C132.185 437.811 113.933 492.584 78.3886 498.36C42.8447 504.136 16.3307 471.113 -0.000267029 463.943" stroke="white" stroke-opacity="0.2" stroke-width="2" stroke-linecap="round"/>
<path d="M1079 430.477C1062.67 431.672 1036.15 440.197 1000.61 436.214C965.067 432.23 946.814 410.958 908.389 411.357C869.963 411.755 854.592 440.117 816.166 438.126C777.74 436.134 762.37 398.012 723.944 401.796C685.518 405.581 670.148 453.104 631.722 456.29C593.296 459.477 577.926 414.304 539.5 417.093C501.074 419.881 485.703 472.264 447.277 469.675C408.852 467.086 393.481 407.254 355.055 404.664C316.629 402.075 301.259 457.645 262.833 457.246C224.407 456.848 209.037 401.159 170.611 402.752C132.185 404.346 113.933 459.119 78.3886 464.895C42.8447 470.671 16.3307 437.648 -0.000267029 430.477" stroke="white" stroke-opacity="0.2" stroke-width="2" stroke-linecap="round"/>
<path d="M1079 397.021C1062.67 398.216 1036.15 406.74 1000.61 402.757C965.067 398.773 946.814 377.501 908.389 377.9C869.963 378.298 854.592 406.661 816.166 404.669C777.74 402.677 762.37 364.555 723.944 368.339C685.518 372.124 670.148 419.647 631.722 422.834C593.296 426.02 577.926 380.848 539.5 383.636C501.074 386.424 485.703 438.807 447.277 436.218C408.852 433.629 393.481 373.797 355.055 371.208C316.629 368.618 301.259 424.188 262.833 423.79C224.407 423.391 209.037 367.702 170.611 369.295C132.185 370.889 113.933 425.662 78.3886 431.438C42.8447 437.214 16.3307 404.191 -0.000267029 397.021" stroke="white" stroke-opacity="0.2" stroke-width="2" stroke-linecap="round"/>
<path d="M1079 363.559C1062.67 364.755 1036.15 373.279 1000.61 369.296C965.067 365.312 946.814 344.04 908.389 344.439C869.963 344.837 854.592 373.2 816.166 371.208C777.74 369.216 762.37 331.094 723.944 334.878C685.518 338.663 670.148 386.186 631.722 389.372C593.296 392.559 577.926 347.387 539.5 350.175C501.074 352.963 485.703 405.346 447.277 402.757C408.852 400.168 393.481 340.336 355.055 337.746C316.629 335.157 301.259 390.727 262.833 390.329C224.407 389.93 209.037 334.241 170.611 335.834C132.185 337.428 113.933 392.201 78.3886 397.977C42.8447 403.753 16.3307 370.73 -0.000267029 363.559" stroke="white" stroke-opacity="0.2" stroke-width="2" stroke-linecap="round"/>
<path d="M1079 330.094C1062.67 331.289 1036.15 339.814 1000.61 335.831C965.067 331.847 946.814 310.575 908.389 310.974C869.963 311.372 854.592 339.734 816.166 337.743C777.74 335.751 762.37 297.629 723.944 301.413C685.518 305.198 670.148 352.721 631.722 355.907C593.296 359.094 577.926 313.921 539.5 316.71C501.074 319.498 485.703 371.881 447.277 369.292C408.852 366.703 393.481 306.871 355.055 304.281C316.629 301.692 301.259 357.262 262.833 356.863C224.407 356.465 209.037 300.776 170.611 302.369C132.185 303.963 113.933 358.736 78.3886 364.512C42.8447 370.288 16.3307 337.265 -0.000267029 330.094" stroke="white" stroke-opacity="0.2" stroke-width="2" stroke-linecap="round"/>
<path d="M1079 296.637C1062.67 297.832 1036.15 306.357 1000.61 302.374C965.067 298.39 946.814 277.118 908.389 277.517C869.963 277.915 854.592 306.277 816.166 304.286C777.74 302.294 762.37 264.172 723.944 267.956C685.518 271.741 670.148 319.264 631.722 322.45C593.296 325.637 577.926 280.464 539.5 283.253C501.074 286.041 485.703 338.424 447.277 335.835C408.852 333.246 393.481 273.414 355.055 270.824C316.629 268.235 301.259 323.805 262.833 323.406C224.407 323.008 209.037 267.319 170.611 268.912C132.185 270.506 113.933 325.279 78.3886 331.055C42.8447 336.831 16.3307 303.808 -0.000267029 296.637" stroke="white" stroke-opacity="0.2" stroke-width="2" stroke-linecap="round"/>
<path d="M1079 263.172C1062.67 264.367 1036.15 272.892 1000.61 268.908C965.067 264.925 946.814 243.653 908.389 244.052C869.963 244.45 854.592 272.812 816.166 270.821C777.74 268.829 762.37 230.707 723.944 234.491C685.518 238.275 670.148 285.798 631.722 288.985C593.296 292.172 577.926 246.999 539.5 249.788C501.074 252.576 485.703 304.959 447.277 302.37C408.852 299.781 393.481 239.949 355.055 237.359C316.629 234.77 301.259 290.34 262.833 289.941C224.407 289.543 209.037 233.854 170.611 235.447C132.185 237.041 113.933 291.814 78.3886 297.59C42.8447 303.366 16.3307 270.343 -0.000267029 263.172" stroke="white" stroke-opacity="0.2" stroke-width="2" stroke-linecap="round"/>
<path d="M1079 229.711C1062.67 230.906 1036.15 239.431 1000.61 235.447C965.067 231.464 946.814 210.192 908.389 210.59C869.963 210.989 854.592 239.351 816.166 237.359C777.74 235.368 762.37 197.246 723.944 201.03C685.518 204.814 670.148 252.337 631.722 255.524C593.296 258.711 577.926 213.538 539.5 216.327C501.074 219.115 485.703 271.498 447.277 268.909C408.852 266.319 393.481 206.487 355.055 203.898C316.629 201.309 301.259 256.879 262.833 256.48C224.407 256.082 209.037 200.393 170.611 201.986C132.185 203.58 113.933 258.352 78.3886 264.129C42.8447 269.905 16.3307 236.881 -0.000267029 229.711" stroke="white" stroke-opacity="0.2" stroke-width="2" stroke-linecap="round"/>
<path d="M1079 196.254C1062.67 197.449 1036.15 205.974 1000.61 201.99C965.067 198.007 946.814 176.735 908.389 177.133C869.963 177.532 854.592 205.894 816.166 203.902C777.74 201.911 762.37 163.789 723.944 167.573C685.518 171.357 670.148 218.88 631.722 222.067C593.296 225.254 577.926 180.081 539.5 182.87C501.074 185.658 485.703 238.041 447.278 235.452C408.852 232.862 393.481 173.03 355.055 170.441C316.629 167.852 301.259 223.422 262.833 223.023C224.407 222.625 209.037 166.936 170.611 168.529C132.185 170.122 113.933 224.895 78.3887 230.671C42.8447 236.448 16.3308 203.424 -0.000228737 196.254" stroke="white" stroke-opacity="0.2" stroke-width="2" stroke-linecap="round"/>
<path d="M1079 162.789C1062.67 163.984 1036.15 172.509 1000.61 168.526C965.067 164.542 946.814 143.27 908.389 143.669C869.963 144.067 854.592 172.429 816.166 170.438C777.74 168.446 762.37 130.324 723.944 134.108C685.518 137.893 670.148 185.416 631.722 188.602C593.296 191.789 577.926 146.616 539.5 149.405C501.074 152.193 485.703 204.576 447.277 201.987C408.852 199.398 393.481 139.566 355.055 136.976C316.629 134.387 301.259 189.957 262.833 189.558C224.407 189.16 209.037 133.471 170.611 135.064C132.185 136.658 113.933 191.431 78.3886 197.207C42.8447 202.983 16.3307 169.96 -0.000267029 162.789" stroke="white" stroke-opacity="0.2" stroke-width="2" stroke-linecap="round"/>
<path d="M1079 129.328C1062.67 130.523 1036.15 139.048 1000.61 135.064C965.067 131.081 946.814 109.809 908.389 110.207C869.963 110.606 854.592 138.968 816.166 136.976C777.74 134.985 762.37 96.8627 723.944 100.647C685.518 104.431 670.148 151.954 631.722 155.141C593.296 158.328 577.926 113.155 539.5 115.944C501.074 118.732 485.703 171.115 447.277 168.526C408.852 165.936 393.481 106.104 355.055 103.515C316.629 100.926 301.259 156.496 262.833 156.097C224.407 155.699 209.037 100.01 170.611 101.603C132.185 103.196 113.933 157.969 78.3886 163.745C42.8447 169.522 16.3307 136.498 -0.000267029 129.328" stroke="white" stroke-opacity="0.2" stroke-width="2" stroke-linecap="round"/>
<path d="M1079 95.8672C1062.67 97.0623 1036.15 105.587 1000.61 101.603C965.067 97.6199 946.814 76.3481 908.389 76.7465C869.963 77.1448 854.592 105.507 816.166 103.516C777.74 101.524 762.37 63.4018 723.944 67.1861C685.518 70.9704 670.148 118.493 631.722 121.68C593.296 124.867 577.926 79.6943 539.5 82.4827C501.074 85.2711 485.703 137.654 447.277 135.065C408.852 132.475 393.481 72.6435 355.055 70.0542C316.629 67.4649 301.259 123.035 262.833 122.636C224.407 122.238 209.037 66.5487 170.611 68.1421C132.185 69.7355 113.933 124.508 78.3886 130.285C42.8447 136.061 16.3307 103.037 -0.000267029 95.8672" stroke="white" stroke-opacity="0.2" stroke-width="2" stroke-linecap="round"/>
<path d="M1079 62.4082C1062.67 63.6033 1036.15 72.1279 1000.61 68.1444C965.067 64.161 946.814 42.8891 908.389 43.2875C869.963 43.6858 854.592 72.0483 816.166 70.0565C777.74 68.0648 762.37 29.9428 723.944 33.7271C685.518 37.5114 670.148 85.0344 631.722 88.2212C593.296 91.408 577.926 46.2353 539.5 49.0237C501.074 51.8121 485.703 104.195 447.277 101.606C408.852 99.0165 393.481 39.1845 355.055 36.5952C316.629 34.006 301.259 89.5756 262.833 89.1773C224.407 88.7789 209.037 33.0898 170.611 34.6832C132.185 36.2765 113.933 91.0495 78.3886 96.8256C42.8447 102.602 16.3307 69.5785 -0.000267029 62.4082" stroke="white" stroke-opacity="0.2" stroke-width="2" stroke-linecap="round"/>
</g>
<defs>
<linearGradient id="paint0_linear_30_160" x1="1079" y1="352" x2="0.000980582" y2="352" gradientUnits="userSpaceOnUse">
<stop stop-color="#BC3B39"/>
<stop offset="0.765079" stop-color="#BC3B39"/>
<stop offset="1" stop-color="#BC3B39" stop-opacity="0"/>
</linearGradient>
<linearGradient id="paint1_linear_30_160" x1="1079" y1="352" x2="0.000980582" y2="352" gradientUnits="userSpaceOnUse">
<stop stop-color="#BC3B39"/>
<stop offset="1" stop-color="#BC3B39" stop-opacity="0"/>
</linearGradient>
</defs>
</svg>
