<svg width="1728" height="943" viewBox="0 0 1728 943" fill="none" xmlns="http://www.w3.org/2000/svg">
<mask id="mask0_133_2433" style="mask-type:alpha" maskUnits="userSpaceOnUse" x="0" y="0" width="1728" height="943">
<path fill-rule="evenodd" clip-rule="evenodd" d="M0 942.794V58.4995C0 58.4995 249.164 56.2163 427.952 19.7925C606.172 -16.5161 739.259 5.08351 880.696 28.0386H880.714C983.79 44.7671 1091.3 62.2163 1223.96 58.4995C1422.86 52.9253 1728 19.7925 1728 19.7925V942.794L1656 927.513C1584 912.232 1440 881.671 1296 874.031C1152 866.392 1008 881.671 864 896.953L863.889 896.964C719.926 912.24 575.963 927.515 432 935.154C288 942.794 144 942.794 72 942.794H0Z" fill="#FCFDFC"/>
</mask>
<g mask="url(#mask0_133_2433)">
<path d="M1366.81 -192.021C1827.03 24.2118 2517.32 376.238 2566.61 623.693C2615.89 871.147 1980.81 796.363 1603.37 995.76C1225.92 1195.16 1078.7 1646.09 754.853 1580.8C431.005 1515.5 131.67 1097.99 48.8929 682.362C-33.8841 266.733 82.9584 -232.061 357.524 -414.224C632.089 -596.387 906.581 -408.254 1366.81 -192.021ZM1366.81 -192.021C1827.03 24.2118 2517.32 376.238 2566.61 623.693" stroke="white" stroke-width="2"/>
<path d="M1352.56 -158.797C1791.86 47.6071 2450.78 383.633 2497.82 619.839C2544.87 856.045 1938.66 784.661 1578.36 974.994C1218.07 1165.33 1077.55 1595.76 768.421 1533.44C459.293 1471.11 173.564 1072.58 94.5496 675.841C15.5352 279.104 127.067 -197.017 389.152 -370.9C651.237 -544.783 913.252 -365.201 1352.56 -158.797ZM1352.56 -158.797C1791.86 47.6071 2450.78 383.633 2497.82 619.839" stroke="white" stroke-width="2"/>
<path d="M1338.3 -125.574C1756.69 71.0016 2384.23 391.026 2429.03 615.984C2473.83 840.943 1896.49 772.957 1553.36 954.227C1210.22 1135.5 1076.39 1545.43 781.983 1486.08C487.575 1426.72 215.453 1047.16 140.201 669.32C64.9492 291.475 171.17 -161.974 420.775 -327.577C670.379 -493.179 919.918 -322.149 1338.3 -125.574ZM1338.3 -125.574C1756.69 71.0016 2384.23 391.026 2429.03 615.984" stroke="white" stroke-width="2"/>
<path d="M1324.05 -92.3478C1721.52 94.3986 2317.68 398.422 2360.25 612.132C2402.81 825.843 1854.33 761.257 1528.36 933.463C1202.38 1105.67 1075.24 1495.11 795.55 1438.72C515.862 1382.33 257.346 1021.75 185.856 662.801C114.367 303.849 215.277 -126.928 452.401 -284.251C689.526 -441.573 926.587 -279.094 1324.05 -92.3478ZM1324.05 -92.3478C1721.52 94.3986 2317.68 398.422 2360.25 612.132" stroke="white" stroke-width="2"/>
<path d="M1309.8 -59.1256C1686.35 117.792 2251.14 405.814 2291.46 608.276C2331.78 810.739 1812.17 749.552 1503.35 912.695C1194.53 1075.84 1074.08 1444.78 809.114 1391.36C544.147 1337.94 299.237 996.339 231.51 656.279C163.783 316.219 259.382 -91.8857 484.026 -240.928C708.671 -389.971 933.255 -236.043 1309.8 -59.1256ZM1309.8 -59.1256C1686.35 117.792 2251.14 405.814 2291.46 608.276" stroke="white" stroke-width="2"/>
<path d="M1295.55 -25.9003C1651.18 141.189 2184.59 413.209 2222.67 604.424C2260.75 795.638 1770.01 737.851 1478.35 891.93C1186.68 1046.01 1072.93 1394.46 822.679 1344C572.433 1293.55 341.129 970.927 277.165 649.759C213.201 328.591 303.488 -56.8405 515.652 -197.603C727.816 -338.365 939.924 -192.989 1295.55 -25.9003ZM1295.55 -25.9003C1651.18 141.189 2184.59 413.209 2222.67 604.424" stroke="white" stroke-width="2"/>
<path d="M1281.31 7.32842C1616.02 164.589 2118.05 420.608 2153.89 600.575C2189.73 780.541 1727.86 726.153 1453.35 871.169C1178.84 1016.18 1071.78 1344.13 836.251 1296.65C600.725 1249.17 383.027 945.519 322.825 643.243C262.624 340.968 347.6 -21.7917 547.284 -154.274C746.968 -286.756 946.598 -149.932 1281.31 7.32842ZM1281.31 7.32842C1616.02 164.589 2118.05 420.608 2153.89 600.575" stroke="white" stroke-width="2"/>
<path d="M1267.06 40.5563C1580.85 187.988 2051.5 428.006 2085.1 596.725C2118.71 765.444 1685.7 714.454 1428.35 850.407C1171 986.359 1070.62 1293.81 849.816 1249.29C629.01 1204.78 424.918 920.11 368.479 636.727C312.041 353.343 391.706 13.2562 578.91 -110.946C766.113 -235.148 953.267 -106.875 1267.06 40.5563ZM1267.06 40.5563C1580.85 187.988 2051.5 428.006 2085.1 596.725" stroke="white" stroke-width="2"/>
<path d="M1252.8 73.7779C1545.68 211.381 1984.95 435.398 2016.31 592.868C2047.68 750.339 1643.54 702.75 1403.34 829.638C1163.15 956.527 1069.47 1243.48 863.38 1201.93C657.294 1160.38 466.808 894.695 414.132 630.203C361.456 365.712 435.81 48.2977 610.533 -67.6243C785.257 -183.546 959.934 -63.8247 1252.8 73.7779ZM1252.8 73.7779C1545.68 211.381 1984.95 435.398 2016.31 592.868" stroke="white" stroke-width="2"/>
<path d="M1238.56 107.002C1510.51 234.776 1918.41 442.792 1947.53 589.015C1976.65 735.238 1601.38 691.047 1378.34 808.872C1155.3 926.698 1068.31 1193.16 876.948 1154.58C685.583 1115.99 508.703 869.282 459.79 623.683C410.876 378.084 479.919 83.3421 642.162 -24.2998C804.406 -131.942 966.605 -20.7717 1238.56 107.002ZM1238.56 107.002C1510.51 234.776 1918.41 442.792 1947.53 589.015" stroke="white" stroke-width="2"/>
<path d="M1224.31 140.227C1475.34 258.173 1851.86 450.187 1878.74 585.162C1905.62 720.137 1559.22 679.346 1353.34 788.108C1147.46 896.869 1067.16 1142.83 890.513 1107.22C713.869 1071.61 550.595 843.87 505.444 617.164C460.293 390.457 524.025 118.387 673.788 19.0257C823.551 -80.336 973.274 22.2824 1224.31 140.227ZM1224.31 140.227C1475.34 258.173 1851.86 450.187 1878.74 585.162" stroke="white" stroke-width="2"/>
<path d="M1210.06 173.454C1440.17 281.57 1785.32 457.584 1809.96 581.311C1834.6 705.038 1517.06 667.646 1328.34 767.344C1139.61 867.042 1066.01 1092.51 904.081 1059.86C742.157 1027.22 592.489 818.46 551.101 610.645C509.712 402.831 568.133 153.434 705.416 62.3522C842.699 -28.7294 979.945 65.3376 1210.06 173.454ZM1210.06 173.454C1440.17 281.57 1785.32 457.584 1809.96 581.311" stroke="white" stroke-width="2"/>
<path d="M1195.81 206.675C1405 304.963 1718.77 464.975 1741.17 577.454C1763.57 689.933 1474.9 655.941 1303.33 746.576C1131.76 837.21 1064.85 1042.18 917.644 1012.5C770.44 982.823 634.379 793.045 596.753 604.122C559.127 415.2 612.238 188.475 737.04 105.674C861.843 22.8724 986.612 108.388 1195.81 206.675ZM1195.81 206.675C1405 304.963 1718.77 464.975 1741.17 577.454" stroke="white" stroke-width="2"/>
<path d="M1181.56 239.901C1369.83 328.36 1652.22 472.371 1672.38 573.602C1692.54 674.833 1432.74 644.24 1278.33 725.811C1123.92 807.383 1063.69 991.854 931.211 965.144C798.727 938.434 676.272 767.634 642.409 597.603C608.546 427.573 656.345 223.521 768.667 149C880.989 74.4786 993.281 151.442 1181.56 239.901ZM1181.56 239.901C1369.83 328.36 1652.22 472.371 1672.38 573.602" stroke="white" stroke-width="2"/>
<path d="M1603.6 569.75C1621.52 659.734 1390.58 632.539 1253.33 705.047C1116.07 777.555 1062.54 941.53 944.777 917.788C827.014 894.046 718.165 742.222 688.064 591.085C657.964 439.947 700.452 258.567 800.294 192.326C900.136 126.085 999.951 194.497 1167.31 273.127" stroke="white" stroke-width="2"/>
<path d="M1153.05 306.351C1299.49 375.152 1519.13 487.16 1534.81 565.896C1550.49 644.631 1348.42 620.836 1228.32 684.281C1108.22 747.725 1061.38 891.203 958.339 870.429C855.297 849.654 760.054 716.809 733.716 584.563C707.378 452.318 744.555 293.61 831.916 235.649C919.278 177.689 1006.62 237.549 1153.05 306.351ZM1153.05 306.351C1299.49 375.152 1519.13 487.16 1534.81 565.896" stroke="white" stroke-width="2"/>
<path d="M1138.8 339.574C1264.32 398.547 1452.58 494.554 1466.02 562.042C1479.46 629.529 1306.26 609.134 1203.32 663.515C1100.38 717.895 1060.23 840.877 971.907 823.07C883.585 805.263 801.948 691.396 779.372 578.043C756.797 464.689 788.663 328.654 863.544 278.974C938.426 229.293 1013.29 280.602 1138.8 339.574ZM1138.8 339.574C1264.32 398.547 1452.58 494.554 1466.02 562.042" stroke="white" stroke-width="2"/>
<path d="M1124.56 372.803C1229.16 421.947 1386.04 501.953 1397.24 558.193C1408.44 614.432 1264.11 597.436 1178.32 642.753C1092.54 688.071 1059.08 790.555 985.478 775.716C911.876 760.877 843.846 665.988 825.033 571.527C806.22 477.065 832.775 363.703 895.176 322.302C957.578 280.902 1019.96 323.659 1124.56 372.803ZM1124.56 372.803C1229.16 421.947 1386.04 501.953 1397.24 558.193" stroke="white" stroke-width="2"/>
<path d="M1110.31 406.031C1193.99 445.346 1319.49 509.351 1328.45 554.343C1337.41 599.334 1221.95 585.737 1153.32 621.991C1084.69 658.245 1057.93 740.232 999.044 728.361C940.162 716.49 885.737 640.579 870.687 565.01C855.637 489.441 876.881 398.751 926.802 365.631C976.723 332.51 1026.63 366.716 1110.31 406.031ZM1110.31 406.031C1193.99 445.346 1319.49 509.351 1328.45 554.343" stroke="white" stroke-width="2"/>
<path d="M1096.06 439.251C1158.81 468.737 1252.95 516.741 1259.67 550.484C1266.39 584.228 1179.78 574.03 1128.31 601.221C1076.84 628.411 1056.77 689.902 1012.61 680.998C968.447 672.095 927.629 615.161 916.341 558.485C905.053 501.808 920.986 433.791 958.427 408.95C995.868 384.11 1033.3 409.764 1096.06 439.251ZM1096.06 439.251C1158.81 468.737 1252.95 516.741 1259.67 550.484" stroke="white" stroke-width="2"/>
<path d="M1081.81 472.477C1123.65 492.135 1186.4 524.137 1190.88 546.633C1195.36 569.129 1137.63 562.33 1103.31 580.457C1069 598.584 1055.62 639.578 1026.18 633.642C996.735 627.707 969.523 589.751 961.997 551.966C954.472 514.182 965.094 468.837 990.055 452.277C1015.02 435.716 1039.97 452.819 1081.81 472.477ZM1081.81 472.477C1123.65 492.135 1186.4 524.137 1190.88 546.633" stroke="white" stroke-width="2"/>
<path d="M1067.56 505.702C1088.48 515.531 1119.85 531.532 1122.09 542.78C1124.33 554.028 1095.47 550.629 1078.31 559.692C1061.15 568.756 1054.46 589.252 1039.74 586.285C1025.02 583.317 1011.41 564.339 1007.65 545.447C1003.89 526.555 1009.2 503.882 1021.68 495.602C1034.16 487.322 1046.64 495.873 1067.56 505.702ZM1067.56 505.702C1088.48 515.531 1119.85 531.532 1122.09 542.78" stroke="white" stroke-width="2"/>
</g>
</svg>
