<svg width="3161" height="3130" viewBox="0 0 3161 3130" fill="none" xmlns="http://www.w3.org/2000/svg">
<path d="M1893.81 833.979C2354.03 1050.21 3044.32 1402.24 3093.61 1649.69C3142.89 1897.15 2507.81 1822.36 2130.37 2021.76C1752.92 2221.16 1605.7 2672.09 1281.85 2606.8C958.005 2541.5 658.67 2123.99 575.893 1708.36C493.116 1292.73 609.958 793.939 884.524 611.776C1159.09 429.613 1433.58 617.746 1893.81 833.979ZM1893.81 833.979C2354.03 1050.21 3044.32 1402.24 3093.61 1649.69" stroke="white" stroke-width="2"/>
<path d="M1879.56 867.203C2318.86 1073.61 2977.78 1409.63 3024.82 1645.84C3071.87 1882.05 2465.66 1810.66 2105.36 2000.99C1745.07 2191.33 1604.55 2621.76 1295.42 2559.44C986.293 2497.11 700.564 2098.58 621.55 1701.84C542.535 1305.1 654.067 828.983 916.152 655.1C1178.24 481.217 1440.25 660.799 1879.56 867.203ZM1879.56 867.203C2318.86 1073.61 2977.78 1409.63 3024.82 1645.84" stroke="white" stroke-width="2"/>
<path d="M1865.3 900.427C2283.69 1097 2911.23 1417.03 2956.03 1641.98C3000.83 1866.94 2423.49 1798.96 2080.36 1980.23C1737.22 2161.5 1603.39 2571.43 1308.98 2512.08C1014.58 2452.72 742.453 2073.16 667.201 1695.32C591.949 1317.48 698.17 864.026 947.775 698.424C1197.38 532.821 1446.92 703.851 1865.3 900.427ZM1865.3 900.427C2283.69 1097 2911.23 1417.03 2956.03 1641.98" stroke="white" stroke-width="2"/>
<path d="M1851.05 933.652C2248.52 1120.4 2844.68 1424.42 2887.25 1638.13C2929.81 1851.84 2381.33 1787.26 2055.36 1959.46C1729.38 2131.67 1602.24 2521.11 1322.55 2464.72C1042.86 2408.33 784.346 2047.75 712.856 1688.8C641.367 1329.85 742.277 899.072 979.401 741.75C1216.53 584.427 1453.59 746.906 1851.05 933.652ZM1851.05 933.652C2248.52 1120.4 2844.68 1424.42 2887.25 1638.13" stroke="white" stroke-width="2"/>
<path d="M1836.8 966.874C2213.35 1143.79 2778.14 1431.81 2818.46 1634.28C2858.78 1836.74 2339.17 1775.55 2030.35 1938.69C1721.53 2101.84 1601.08 2470.78 1336.11 2417.36C1071.15 2363.94 826.237 2022.34 758.51 1682.28C690.783 1342.22 786.382 934.114 1011.03 785.072C1235.67 636.029 1460.26 789.957 1836.8 966.874ZM1836.8 966.874C2213.35 1143.79 2778.14 1431.81 2818.46 1634.28" stroke="white" stroke-width="2"/>
<path d="M1822.55 1000.1C2178.18 1167.19 2711.59 1439.21 2749.67 1630.42C2787.75 1821.64 2297.01 1763.85 2005.35 1917.93C1713.68 2072.01 1599.93 2420.46 1349.68 2370C1099.43 2319.55 868.129 1996.93 804.165 1675.76C740.201 1354.59 830.488 969.16 1042.65 828.397C1254.82 687.635 1466.92 833.011 1822.55 1000.1ZM1822.55 1000.1C2178.18 1167.19 2711.59 1439.21 2749.67 1630.42" stroke="white" stroke-width="2"/>
<path d="M1808.31 1033.33C2143.02 1190.59 2645.05 1446.61 2680.89 1626.57C2716.73 1806.54 2254.86 1752.15 1980.35 1897.17C1705.84 2042.18 1598.78 2370.13 1363.25 2322.65C1127.72 2275.17 910.027 1971.52 849.825 1669.24C789.624 1366.97 874.6 1004.21 1074.28 871.726C1273.97 739.244 1473.6 876.068 1808.31 1033.33ZM1808.31 1033.33C2143.02 1190.59 2645.05 1446.61 2680.89 1626.57" stroke="white" stroke-width="2"/>
<path d="M1794.06 1066.56C2107.85 1213.99 2578.5 1454.01 2612.1 1622.72C2645.71 1791.44 2212.7 1740.45 1955.35 1876.41C1698 2012.36 1597.62 2319.81 1376.82 2275.29C1156.01 2230.78 951.918 1946.11 895.479 1662.73C839.041 1379.34 918.706 1039.26 1105.91 915.054C1293.11 790.852 1480.27 919.125 1794.06 1066.56ZM1794.06 1066.56C2107.85 1213.99 2578.5 1454.01 2612.1 1622.72" stroke="white" stroke-width="2"/>
<path d="M1779.8 1099.78C2072.68 1237.38 2511.95 1461.4 2543.31 1618.87C2574.68 1776.34 2170.54 1728.75 1930.34 1855.64C1690.15 1982.53 1596.47 2269.48 1390.38 2227.93C1184.29 2186.38 993.808 1920.69 941.132 1656.2C888.456 1391.71 962.81 1074.3 1137.53 958.376C1312.26 842.454 1486.93 962.175 1779.8 1099.78ZM1779.8 1099.78C2072.68 1237.38 2511.95 1461.4 2543.31 1618.87" stroke="white" stroke-width="2"/>
<path d="M1765.56 1133C2037.51 1260.78 2445.41 1468.79 2474.53 1615.01C2503.65 1761.24 2128.38 1717.05 1905.34 1834.87C1682.3 1952.7 1595.31 2219.16 1403.95 2180.58C1212.58 2141.99 1035.7 1895.28 986.79 1649.68C937.876 1404.08 1006.92 1109.34 1169.16 1001.7C1331.41 894.059 1493.61 1005.23 1765.56 1133ZM1765.56 1133C2037.51 1260.78 2445.41 1468.79 2474.53 1615.01" stroke="white" stroke-width="2"/>
<path d="M1751.31 1166.23C2002.34 1284.17 2378.86 1476.19 2405.74 1611.16C2432.62 1746.14 2086.22 1705.35 1880.34 1814.11C1674.46 1922.87 1594.16 2168.83 1417.51 2133.22C1240.87 2097.61 1077.6 1869.87 1032.44 1643.16C987.293 1416.46 1051.03 1144.39 1200.79 1045.03C1350.55 945.664 1500.27 1048.28 1751.31 1166.23ZM1751.31 1166.23C2002.34 1284.17 2378.86 1476.19 2405.74 1611.16" stroke="white" stroke-width="2"/>
<path d="M1737.06 1199.45C1967.17 1307.57 2312.32 1483.58 2336.96 1607.31C2361.6 1731.04 2044.06 1693.65 1855.34 1793.34C1666.61 1893.04 1593.01 2118.51 1431.08 2085.86C1269.16 2053.22 1119.49 1844.46 1078.1 1636.65C1036.71 1428.83 1095.13 1179.43 1232.42 1088.35C1369.7 997.271 1506.94 1091.34 1737.06 1199.45ZM1737.06 1199.45C1967.17 1307.57 2312.32 1483.58 2336.96 1607.31" stroke="white" stroke-width="2"/>
<path d="M1722.81 1232.68C1932 1330.96 2245.77 1490.97 2268.17 1603.45C2290.57 1715.93 2001.9 1681.94 1830.33 1772.58C1658.76 1863.21 1591.85 2068.18 1444.64 2038.5C1297.44 2008.82 1161.38 1819.04 1123.75 1630.12C1086.13 1441.2 1139.24 1214.48 1264.04 1131.67C1388.84 1048.87 1513.61 1134.39 1722.81 1232.68ZM1722.81 1232.68C1932 1330.96 2245.77 1490.97 2268.17 1603.45" stroke="white" stroke-width="2"/>
<path d="M1708.56 1265.9C1896.83 1354.36 2179.22 1498.37 2199.38 1599.6C2219.54 1700.83 1959.74 1670.24 1805.33 1751.81C1650.92 1833.38 1590.69 2017.85 1458.21 1991.14C1325.73 1964.43 1203.27 1793.63 1169.41 1623.6C1135.55 1453.57 1183.34 1249.52 1295.67 1175C1407.99 1100.48 1520.28 1177.44 1708.56 1265.9ZM1708.56 1265.9C1896.83 1354.36 2179.22 1498.37 2199.38 1599.6" stroke="white" stroke-width="2"/>
<path d="M2130.6 1595.75C2148.52 1685.73 1917.58 1658.54 1780.33 1731.05C1643.07 1803.56 1589.54 1967.53 1471.78 1943.79C1354.01 1920.05 1245.17 1768.22 1215.06 1617.08C1184.96 1465.95 1227.45 1284.57 1327.29 1218.33C1427.14 1152.08 1526.95 1220.5 1694.31 1299.13" stroke="white" stroke-width="2"/>
<path d="M1680.05 1332.35C1826.49 1401.15 2046.13 1513.16 2061.81 1591.9C2077.49 1670.63 1875.42 1646.84 1755.32 1710.28C1635.22 1773.73 1588.38 1917.2 1485.34 1896.43C1382.3 1875.65 1287.05 1742.81 1260.72 1610.56C1234.38 1478.32 1271.55 1319.61 1358.92 1261.65C1446.28 1203.69 1533.62 1263.55 1680.05 1332.35ZM1680.05 1332.35C1826.49 1401.15 2046.13 1513.16 2061.81 1591.9" stroke="white" stroke-width="2"/>
<path d="M1665.8 1365.57C1791.32 1424.55 1979.58 1520.55 1993.02 1588.04C2006.46 1655.53 1833.26 1635.13 1730.32 1689.51C1627.38 1743.9 1587.23 1866.88 1498.91 1849.07C1410.58 1831.26 1328.95 1717.4 1306.37 1604.04C1283.8 1490.69 1315.66 1354.65 1390.54 1304.97C1465.43 1255.29 1540.29 1306.6 1665.8 1365.57ZM1665.8 1365.57C1791.32 1424.55 1979.58 1520.55 1993.02 1588.04" stroke="white" stroke-width="2"/>
<path d="M1651.56 1398.8C1756.16 1447.95 1913.04 1527.95 1924.24 1584.19C1935.44 1640.43 1791.11 1623.44 1705.32 1668.75C1619.54 1714.07 1586.08 1816.55 1512.48 1801.72C1438.88 1786.88 1370.85 1691.99 1352.03 1597.53C1333.22 1503.07 1359.78 1389.7 1422.18 1348.3C1484.58 1306.9 1546.96 1349.66 1651.56 1398.8ZM1651.56 1398.8C1756.16 1447.95 1913.04 1527.95 1924.24 1584.19" stroke="white" stroke-width="2"/>
<path d="M1637.31 1432.03C1720.99 1471.35 1846.49 1535.35 1855.45 1580.34C1864.41 1625.33 1748.95 1611.74 1680.32 1647.99C1611.69 1684.25 1584.93 1766.23 1526.04 1754.36C1467.16 1742.49 1412.74 1666.58 1397.69 1591.01C1382.64 1515.44 1403.88 1424.75 1453.8 1391.63C1503.72 1358.51 1553.63 1392.72 1637.31 1432.03ZM1637.31 1432.03C1720.99 1471.35 1846.49 1535.35 1855.45 1580.34" stroke="white" stroke-width="2"/>
<path d="M1623.06 1465.25C1685.81 1494.74 1779.95 1542.74 1786.67 1576.48C1793.39 1610.23 1706.78 1600.03 1655.31 1627.22C1603.84 1654.41 1583.77 1715.9 1539.61 1707C1495.45 1698.09 1454.63 1641.16 1443.34 1584.48C1432.05 1527.81 1447.99 1459.79 1485.43 1434.95C1522.87 1410.11 1560.3 1435.76 1623.06 1465.25ZM1623.06 1465.25C1685.81 1494.74 1779.95 1542.74 1786.67 1576.48" stroke="white" stroke-width="2"/>
<path d="M1608.81 1498.48C1650.65 1518.13 1713.4 1550.14 1717.88 1572.63C1722.36 1595.13 1664.63 1588.33 1630.31 1606.46C1596 1624.58 1582.62 1665.58 1553.18 1659.64C1523.73 1653.71 1496.52 1615.75 1489 1577.97C1481.47 1540.18 1492.09 1494.84 1517.05 1478.28C1542.02 1461.72 1566.97 1478.82 1608.81 1498.48ZM1608.81 1498.48C1650.65 1518.13 1713.4 1550.14 1717.88 1572.63" stroke="white" stroke-width="2"/>
<path d="M1594.56 1531.7C1615.48 1541.53 1646.85 1557.53 1649.09 1568.78C1651.33 1580.03 1622.47 1576.63 1605.31 1585.69C1588.15 1594.76 1581.46 1615.25 1566.74 1612.28C1552.02 1609.32 1538.41 1590.34 1534.65 1571.45C1530.89 1552.55 1536.2 1529.88 1548.68 1521.6C1561.16 1513.32 1573.64 1521.87 1594.56 1531.7ZM1594.56 1531.7C1615.48 1541.53 1646.85 1557.53 1649.09 1568.78" stroke="white" stroke-width="2"/>
</svg>
