<svg width="20" height="20" viewBox="0 0 20 20" fill="none" xmlns="http://www.w3.org/2000/svg">
    <mask id="mask0_886_41432" style="mask-type:alpha" maskUnits="userSpaceOnUse" x="0" y="0" width="20" height="20">
        <rect width="20" height="20" fill="#D9D9D9" />
    </mask>
    <g mask="url(#mask0_886_41432)">
        <path
            d="M15 18.3307C14.3056 18.3307 13.7153 18.0877 13.2292 17.6016C12.7431 17.1154 12.5 16.5252 12.5 15.8307C12.5 15.7335 12.5069 15.6327 12.5208 15.5282C12.5347 15.4243 12.5556 15.3307 12.5833 15.2474L6.70833 11.8307C6.47222 12.0391 6.20833 12.2021 5.91667 12.3199C5.625 12.4382 5.31944 12.4974 5 12.4974C4.30556 12.4974 3.71528 12.2543 3.22917 11.7682C2.74306 11.2821 2.5 10.6918 2.5 9.99739C2.5 9.30295 2.74306 8.71267 3.22917 8.22656C3.71528 7.74045 4.30556 7.4974 5 7.4974C5.31944 7.4974 5.625 7.55628 5.91667 7.67406C6.20833 7.79239 6.47222 7.95573 6.70833 8.16406L12.5833 4.7474C12.5556 4.66406 12.5347 4.57045 12.5208 4.46656C12.5069 4.36212 12.5 4.26128 12.5 4.16406C12.5 3.46962 12.7431 2.87934 13.2292 2.39323C13.7153 1.90712 14.3056 1.66406 15 1.66406C15.6944 1.66406 16.2847 1.90712 16.7708 2.39323C17.2569 2.87934 17.5 3.46962 17.5 4.16406C17.5 4.85851 17.2569 5.44878 16.7708 5.9349C16.2847 6.42101 15.6944 6.66406 15 6.66406C14.6806 6.66406 14.375 6.6049 14.0833 6.48656C13.7917 6.36878 13.5278 6.20573 13.2917 5.9974L7.41667 9.41406C7.44444 9.49739 7.46528 9.59101 7.47917 9.69489C7.49306 9.79934 7.5 9.90017 7.5 9.99739C7.5 10.0946 7.49306 10.1952 7.47917 10.2991C7.46528 10.4035 7.44444 10.4974 7.41667 10.5807L13.2917 13.9974C13.5278 13.7891 13.7917 13.6257 14.0833 13.5074C14.375 13.3896 14.6806 13.3307 15 13.3307C15.6944 13.3307 16.2847 13.5738 16.7708 14.0599C17.2569 14.546 17.5 15.1363 17.5 15.8307C17.5 16.5252 17.2569 17.1154 16.7708 17.6016C16.2847 18.0877 15.6944 18.3307 15 18.3307ZM15 4.9974C15.2361 4.9974 15.4339 4.91767 15.5933 4.75823C15.7533 4.59823 15.8333 4.40017 15.8333 4.16406C15.8333 3.92795 15.7533 3.7299 15.5933 3.5699C15.4339 3.41045 15.2361 3.33073 15 3.33073C14.7639 3.33073 14.5661 3.41045 14.4067 3.5699C14.2467 3.7299 14.1667 3.92795 14.1667 4.16406C14.1667 4.40017 14.2467 4.59823 14.4067 4.75823C14.5661 4.91767 14.7639 4.9974 15 4.9974ZM5 10.8307C5.23611 10.8307 5.43417 10.7507 5.59417 10.5907C5.75361 10.4313 5.83333 10.2335 5.83333 9.99739C5.83333 9.76128 5.75361 9.56323 5.59417 9.40323C5.43417 9.24378 5.23611 9.16406 5 9.16406C4.76389 9.16406 4.56583 9.24378 4.40583 9.40323C4.24639 9.56323 4.16667 9.76128 4.16667 9.99739C4.16667 10.2335 4.24639 10.4313 4.40583 10.5907C4.56583 10.7507 4.76389 10.8307 5 10.8307ZM15 16.6641C15.2361 16.6641 15.4339 16.5841 15.5933 16.4241C15.7533 16.2646 15.8333 16.0668 15.8333 15.8307C15.8333 15.5946 15.7533 15.3968 15.5933 15.2374C15.4339 15.0774 15.2361 14.9974 15 14.9974C14.7639 14.9974 14.5661 15.0774 14.4067 15.2374C14.2467 15.3968 14.1667 15.5946 14.1667 15.8307C14.1667 16.0668 14.2467 16.2646 14.4067 16.4241C14.5661 16.5841 14.7639 16.6641 15 16.6641Z"
            fill="white" />
    </g>
</svg>