<svg width="658" height="496" viewBox="0 0 658 496" fill="none" xmlns="http://www.w3.org/2000/svg">
<path fill-rule="evenodd" clip-rule="evenodd" d="M255.191 232.054C255.705 231.662 256 231.09 256 230.489L256 0.845963C256.955 1.45254 257.91 2.0598 258.866 2.6675C300.798 29.3177 344.055 56.8102 391.228 64.6937C423.48 70.0837 456.903 58.702 489.392 47.6386C529.995 33.8121 569.137 20.4829 602.708 41.0106C664.324 78.6874 662.473 159.856 653.114 224.831C644.885 281.955 606.919 331.302 555.642 367.741C524.621 389.785 486.768 395.214 447.894 400.79C429.024 403.497 409.914 406.238 391.228 410.931C356.778 419.583 322.578 435.602 288.795 451.427C221.497 482.95 155.854 513.697 93.1991 483.88C5.48872 442.138 2.58945 336.566 0.675342 246.584C15.5334 251.325 29.8878 256.142 43.6567 260.94C115.248 285.888 196.843 276.59 255.191 232.054Z" fill="#F4F8FB"/>
</svg>
