<svg width="1728" height="515" viewBox="0 0 1728 515" fill="none" xmlns="http://www.w3.org/2000/svg">
<path fill-rule="evenodd" clip-rule="evenodd" d="M1727.19 232.054C1668.84 276.59 1587.25 285.888 1515.66 260.94C1419.04 227.273 1293.61 192.692 1167.62 190H1136.36C1028.78 192.294 920.776 217.688 812.85 243.064C733.79 261.653 654.773 280.232 576 289.712C384.48 312.761 191.52 282.029 96.4801 266.663L4.11865 251.952C1.73514 251.573 0 249.729 0 247.575V515H421.5H850.5H1305.5H1728V230.51C1727.99 231.104 1727.7 231.667 1727.19 232.054Z" fill="#FCFDFC"/>
<path fill-rule="evenodd" clip-rule="evenodd" d="M1727.32 229.643C1727.32 230.245 1727.03 230.816 1726.52 231.208C1668.17 275.744 1586.57 285.042 1514.98 260.094C1501.21 255.296 1486.86 250.479 1472 245.739C1473.91 335.72 1476.81 441.292 1564.52 483.034C1616.96 507.988 1671.49 490.523 1727.32 465.685V229.643ZM1727.32 0.154037H1727.57C1727.49 0.102687 1727.41 0.051341 1727.32 0L1727.32 0.154037Z" fill="#F4F8FB"/>
</svg>
