<svg width="24" height="16" viewBox="0 0 24 16" fill="none" xmlns="http://www.w3.org/2000/svg">
<path d="M23.4502 0.463017C23.2915 0.316303 23.1026 0.199852 22.8945 0.120383C22.6864 0.0409142 22.4632 0 22.2378 0C22.0123 0 21.7891 0.0409142 21.581 0.120383C21.3729 0.199852 21.184 0.316303 21.0253 0.463017L8.30279 12.1403L2.95763 7.22517C2.7928 7.07922 2.59822 6.96446 2.385 6.88744C2.17179 6.81042 1.94411 6.77265 1.71497 6.77629C1.48582 6.77992 1.2597 6.82489 1.04952 6.90862C0.839339 6.99236 0.649207 7.11322 0.489982 7.2643C0.330757 7.41539 0.205558 7.59374 0.121531 7.78918C0.0375047 7.98462 -0.00370326 8.19331 0.000261141 8.40335C0.00422555 8.61338 0.0532845 8.82064 0.144636 9.0133C0.235988 9.20596 0.367844 9.38023 0.532675 9.52618L7.09031 15.537C7.24906 15.6837 7.43794 15.8001 7.64604 15.8796C7.85414 15.9591 8.07735 16 8.30279 16C8.52822 16 8.75143 15.9591 8.95953 15.8796C9.16763 15.8001 9.35651 15.6837 9.51526 15.537L23.4502 2.76403C23.6236 2.61745 23.7619 2.43955 23.8565 2.24154C23.9511 2.04352 24 1.8297 24 1.61352C24 1.39735 23.9511 1.18352 23.8565 0.985509C23.7619 0.787497 23.6236 0.609597 23.4502 0.463017Z" fill="#15284C"/>
</svg>
