<svg width="1728" height="514" viewBox="0 0 1728 514" fill="none" xmlns="http://www.w3.org/2000/svg">
<path fill-rule="evenodd" clip-rule="evenodd" d="M1556.91 54.4084C1618.44 62.8966 1677.97 41.068 1728 4.25537L1728 514H0V115.666C0.00531006 115.62 0.0238953 115.576 0.0546875 115.536C44.4624 57.8844 126.282 32.7592 209.143 60.5442C275.765 82.8842 353.882 104.205 431.999 90.683C489.599 80.7125 547.199 66.7539 604.799 52.7953C691.198 31.8573 777.598 10.9194 863.998 3.44153C891.997 1.01831 919.995 0.00854492 947.994 0C948.232 0 948.471 0 948.71 0C1016.47 0.0206299 1084.24 5.88538 1152 11.7502C1200 15.9047 1248 20.0591 1296 22.1362C1366.62 25.1921 1436.15 35.9865 1497.18 45.4595C1518.2 48.7228 1538.21 51.8292 1556.91 54.4084Z" fill="#F4F8FB"/>
</svg>
