<svg width="905" height="748" viewBox="0 0 905 748" fill="none" xmlns="http://www.w3.org/2000/svg">
<g opacity="0.32">
<g opacity="0.37" filter="url(#filter0_f_2_6)">
<path d="M754.964 722.138L756.241 734.325C756.955 741.149 763.936 746.042 772.106 745.445L770.83 733.259C770.115 726.434 763.134 721.541 754.964 722.138Z" fill="white"/>
<path d="M754.964 722.138L756.241 734.325C756.955 741.149 763.936 746.042 772.106 745.445L770.83 733.259C770.115 726.434 763.134 721.541 754.964 722.138Z" stroke="white" stroke-width="0.733986"/>
</g>
<path opacity="0.64" d="M24.264 111.797L46.3162 102.002C58.6654 96.5174 63.2092 84.1029 56.643 73.7875L34.5908 83.5818C22.2416 89.0666 17.6979 101.481 24.264 111.797Z" fill="white" stroke="white" stroke-width="1.25174"/>
<g opacity="0.38" filter="url(#filter1_f_2_6)">
<path d="M711.875 209.388L714.224 221.773C715.539 228.708 723.095 233.294 731.398 232.196L729.05 219.811C727.735 212.876 720.178 208.29 711.875 209.388Z" fill="white"/>
<path d="M711.875 209.388L714.224 221.773C715.539 228.708 723.095 233.294 731.398 232.196L729.05 219.811C727.735 212.876 720.178 208.29 711.875 209.388Z" stroke="white" stroke-width="0.752329"/>
</g>
<g opacity="0.53" filter="url(#filter2_f_2_6)">
<path d="M233.067 200.654L252.259 206.808C263.006 210.254 274.692 205.908 278.817 196.93L259.625 190.777C248.878 187.331 237.192 191.677 233.067 200.654Z" fill="white"/>
<path d="M233.067 200.654L252.259 206.808C263.006 210.254 274.692 205.908 278.817 196.93L259.625 190.777C248.878 187.331 237.192 191.677 233.067 200.654Z" stroke="white" stroke-width="1.03029"/>
</g>
<g opacity="0.41" filter="url(#filter3_f_2_6)">
<path d="M640.923 337.209L645.837 349.843C648.589 356.918 657.407 360.671 665.877 358.372L660.963 345.738C658.211 338.663 649.393 334.91 640.923 337.209Z" fill="white"/>
<path d="M640.923 337.209L645.837 349.843C648.589 356.918 657.407 360.671 665.877 358.372L660.963 345.738C658.211 338.663 649.393 334.91 640.923 337.209Z" stroke="white" stroke-width="0.797078"/>
</g>
<g opacity="0.4" filter="url(#filter4_f_2_6)">
<path d="M772.328 121.902L776.361 134.475C778.62 141.517 787.017 145.567 795.447 143.68L791.414 131.106C789.155 124.065 780.757 120.015 772.328 121.902Z" fill="white"/>
<path d="M772.328 121.902L776.361 134.475C778.62 141.517 787.017 145.567 795.447 143.68L791.414 131.106C789.155 124.065 780.757 120.015 772.328 121.902Z" stroke="white" stroke-width="0.781021"/>
</g>
<g opacity="0.54" filter="url(#filter5_f_2_6)">
<path d="M10.1835 266.388L30.3747 271.225C41.6818 273.933 53.1134 268.64 56.3556 259.195L36.1644 254.359C24.8574 251.65 13.4258 256.943 10.1835 266.388Z" fill="white"/>
<path d="M10.1835 266.388L30.3747 271.225C41.6818 273.933 53.1134 268.64 56.3556 259.195L36.1644 254.359C24.8574 251.65 13.4258 256.943 10.1835 266.388Z" stroke="white" stroke-width="1.05274"/>
</g>
<g opacity="0.5" filter="url(#filter6_f_2_6)">
<path d="M348.121 229.761L364.389 238.586C373.499 243.528 385.306 241.432 391.222 233.822L374.954 224.997C365.843 220.055 354.037 222.152 348.121 229.761Z" fill="white"/>
<path d="M348.121 229.761L364.389 238.586C373.499 243.528 385.306 241.432 391.222 233.822L374.954 224.997C365.843 220.055 354.037 222.152 348.121 229.761Z" stroke="white" stroke-width="0.972185"/>
</g>
<g opacity="0.54" filter="url(#filter7_f_2_6)">
<path d="M162.244 499.039L182.251 504.148C193.455 507.009 204.95 501.904 208.376 492.545L188.368 487.436C177.164 484.574 165.669 489.68 162.244 499.039Z" fill="white"/>
<path d="M162.244 499.039L182.251 504.148C193.455 507.009 204.95 501.904 208.376 492.545L188.368 487.436C177.164 484.574 165.669 489.68 162.244 499.039Z" stroke="white" stroke-width="1.04856"/>
</g>
<g opacity="0.53" filter="url(#filter8_f_2_6)">
<path d="M720.156 34.6891L739.966 40.0659C751.06 43.0769 762.609 38.1615 766.214 28.8946L746.403 23.5178C735.309 20.5068 723.76 25.4222 720.156 34.6891Z" fill="white"/>
<path d="M720.156 34.6891L739.966 40.0659C751.06 43.0769 762.609 38.1615 766.214 28.8946L746.403 23.5178C735.309 20.5068 723.76 25.4222 720.156 34.6891Z" stroke="white" stroke-width="1.04398"/>
</g>
<g opacity="0.36" filter="url(#filter9_f_2_6)">
<path d="M864.746 221.851L864.255 233.587C863.98 240.159 869.946 245.503 877.814 245.733L878.305 233.997C878.579 227.425 872.613 222.081 864.746 221.851Z" fill="white"/>
<path d="M864.746 221.851L864.255 233.587C863.98 240.159 869.946 245.503 877.814 245.733L878.305 233.997C878.579 227.425 872.613 222.081 864.746 221.851Z" stroke="white" stroke-width="0.704575"/>
</g>
<g opacity="0.58" filter="url(#filter10_f_2_6)">
<path d="M224.426 112.615L247.161 111.287C259.892 110.543 269.196 101.603 268.305 90.9685L245.571 92.2964C232.839 93.04 223.536 101.98 224.426 112.615Z" fill="white"/>
<path d="M224.426 112.615L247.161 111.287C259.892 110.543 269.196 101.603 268.305 90.9685L245.571 92.2964C232.839 93.04 223.536 101.98 224.426 112.615Z" stroke="white" stroke-width="1.14221"/>
</g>
<g opacity="0.48" filter="url(#filter11_f_2_6)">
<path d="M390.833 725.287L405.748 735.02C414.1 740.471 425.789 739.272 432.314 732.295L417.4 722.562C409.048 717.111 397.358 718.31 390.833 725.287Z" fill="white"/>
<path d="M390.833 725.287L405.748 735.02C414.1 740.471 425.789 739.272 432.314 732.295L417.4 722.562C409.048 717.111 397.358 718.31 390.833 725.287Z" stroke="white" stroke-width="0.948576"/>
</g>
<g opacity="0.51" filter="url(#filter12_f_2_6)">
<path d="M280.231 423.976L298.24 431.313C308.324 435.422 320.113 432.031 325.032 423.607L307.023 416.27C296.938 412.162 285.15 415.552 280.231 423.976Z" fill="white"/>
<path d="M280.231 423.976L298.24 431.313C308.324 435.422 320.113 432.031 325.032 423.607L307.023 416.27C296.938 412.162 285.15 415.552 280.231 423.976Z" stroke="white" stroke-width="1.0042"/>
</g>
<g opacity="0.36" filter="url(#filter13_f_2_6)">
<path d="M874.348 455.896L873.86 467.586C873.586 474.132 879.529 479.456 887.366 479.684L887.854 467.994C888.128 461.448 882.185 456.125 874.348 455.896Z" fill="white"/>
<path d="M874.348 455.896L873.86 467.586C873.586 474.132 879.529 479.456 887.366 479.684L887.854 467.994C888.128 461.448 882.185 456.125 874.348 455.896Z" stroke="white" stroke-width="0.701826"/>
</g>
<g opacity="0.42" filter="url(#filter14_f_2_6)">
<path d="M591.351 237.064L598.021 249.577C601.756 256.584 611.282 259.639 619.67 256.519L613.001 244.006C609.266 236.999 599.74 233.944 591.351 237.064Z" fill="white"/>
<path d="M591.351 237.064L598.021 249.577C601.756 256.584 611.282 259.639 619.67 256.519L613.001 244.006C609.266 236.999 599.74 233.944 591.351 237.064Z" stroke="white" stroke-width="0.821822"/>
</g>
<g opacity="0.45" filter="url(#filter15_f_2_6)">
<path d="M509.377 339.047L519.366 350.963C524.959 357.636 535.631 359.208 543.62 354.535L533.631 342.619C528.037 335.946 517.365 334.374 509.377 339.047Z" fill="white"/>
<path d="M509.377 339.047L519.366 350.963C524.959 357.636 535.631 359.208 543.62 354.535L533.631 342.619C528.037 335.946 517.365 334.374 509.377 339.047Z" stroke="white" stroke-width="0.872818"/>
</g>
<g opacity="0.53" filter="url(#filter16_f_2_6)">
<path d="M181.447 284.687L201.247 290.061C212.335 293.071 223.878 288.158 227.481 278.896L207.681 273.522C196.593 270.512 185.05 275.425 181.447 284.687Z" fill="white"/>
<path d="M181.447 284.687L201.247 290.061C212.335 293.071 223.878 288.158 227.481 278.896L207.681 273.522C196.593 270.512 185.05 275.425 181.447 284.687Z" stroke="white" stroke-width="1.04343"/>
</g>
<g opacity="0.42" filter="url(#filter17_f_2_6)">
<path d="M599.733 533.064L606.402 545.577C610.137 552.584 619.663 555.639 628.052 552.519L621.382 540.006C617.647 532.999 608.122 529.944 599.733 533.064Z" fill="white"/>
<path d="M599.733 533.064L606.402 545.577C610.137 552.584 619.663 555.639 628.052 552.519L621.382 540.006C617.647 532.999 608.122 529.944 599.733 533.064Z" stroke="white" stroke-width="0.821822"/>
</g>
<g opacity="0.49" filter="url(#filter18_f_2_6)">
<path d="M373.674 622.857L389.18 632.267C397.863 637.537 409.642 635.978 415.95 628.725L400.445 619.315C391.762 614.046 379.983 615.604 373.674 622.857Z" fill="white"/>
<path d="M373.674 622.857L389.18 632.267C397.863 637.537 409.642 635.978 415.95 628.725L400.445 619.315C391.762 614.046 379.983 615.604 373.674 622.857Z" stroke="white" stroke-width="0.960556"/>
</g>
<g opacity="0.4" filter="url(#filter19_f_2_6)">
<path d="M876.813 120.254L881.707 132.836C884.448 139.882 893.229 143.619 901.664 141.33L896.77 128.747C894.029 121.701 885.248 117.964 876.813 120.254Z" fill="white"/>
<path d="M876.813 120.254L881.707 132.836C884.448 139.882 893.229 143.619 901.664 141.33L896.77 128.747C894.029 121.701 885.248 117.964 876.813 120.254Z" stroke="white" stroke-width="0.793778"/>
</g>
<g opacity="0.54" filter="url(#filter20_f_2_6)">
<path d="M595.612 36.441L616.291 40.4291C627.872 42.6624 639.072 36.8165 641.746 27.143L621.066 23.1549C609.485 20.9216 598.285 26.7675 595.612 36.441Z" fill="white"/>
<path d="M595.612 36.441L616.291 40.4291C627.872 42.6624 639.072 36.8165 641.746 27.143L621.066 23.1549C609.485 20.9216 598.285 26.7675 595.612 36.441Z" stroke="white" stroke-width="1.06372"/>
</g>
<g opacity="0.54" filter="url(#filter21_f_2_6)">
<path d="M3.00134 362.388L23.1925 367.225C34.4996 369.933 45.9312 364.64 49.1734 355.195L28.9823 350.359C17.6752 347.65 6.24359 352.943 3.00134 362.388Z" fill="white"/>
<path d="M3.00134 362.388L23.1925 367.225C34.4996 369.933 45.9312 364.64 49.1734 355.195L28.9823 350.359C17.6752 347.65 6.24359 352.943 3.00134 362.388Z" stroke="white" stroke-width="1.05274"/>
</g>
<g opacity="0.44" filter="url(#filter22_f_2_6)">
<path d="M649.04 119.455L658.111 131.58C663.19 138.371 673.569 140.372 681.698 136.129L672.627 124.003C667.547 117.213 657.169 115.212 649.04 119.455Z" fill="white"/>
<path d="M649.04 119.455L658.111 131.58C663.19 138.371 673.569 140.372 681.698 136.129L672.627 124.003C667.547 117.213 657.169 115.212 649.04 119.455Z" stroke="white" stroke-width="0.85789"/>
</g>
<g opacity="0.54" filter="url(#filter23_f_2_6)">
<path d="M137.084 600.388L157.274 605.224C168.581 607.932 180.012 602.64 183.254 593.195L163.064 588.359C151.757 585.651 140.326 590.944 137.084 600.388Z" fill="white"/>
<path d="M137.084 600.388L157.274 605.224C168.581 607.932 180.012 602.64 183.254 593.195L163.064 588.359C151.757 585.651 140.326 590.944 137.084 600.388Z" stroke="white" stroke-width="1.05267"/>
</g>
<g opacity="0.48" filter="url(#filter24_f_2_6)">
<path d="M384.848 333.287L399.762 343.02C408.114 348.471 419.804 347.272 426.329 340.295L411.415 330.562C403.063 325.111 391.373 326.31 384.848 333.287Z" fill="white"/>
<path d="M384.848 333.287L399.762 343.02C408.114 348.471 419.804 347.272 426.329 340.295L411.415 330.562C403.063 325.111 391.373 326.31 384.848 333.287Z" stroke="white" stroke-width="0.948576"/>
</g>
<g opacity="0.4" filter="url(#filter25_f_2_6)">
<path d="M654.719 622.015L659.037 634.594C661.455 641.638 669.981 645.585 678.414 643.566L674.096 630.987C671.678 623.943 663.152 619.995 654.719 622.015Z" fill="white"/>
<path d="M654.719 622.015L659.037 634.594C661.455 641.638 669.981 645.585 678.414 643.566L674.096 630.987C671.678 623.943 663.152 619.995 654.719 622.015Z" stroke="white" stroke-width="0.785132"/>
</g>
<g opacity="0.54" filter="url(#filter26_f_2_6)">
<path d="M20.9744 641.734L41.3196 646.288C52.7129 648.838 64.0634 643.364 67.1162 633.847L46.771 629.293C35.3778 626.743 24.0272 632.217 20.9744 641.734Z" fill="white"/>
<path d="M20.9744 641.734L41.3196 646.288C52.7129 648.838 64.0634 643.364 67.1162 633.847L46.771 629.293C35.3778 626.743 24.0272 632.217 20.9744 641.734Z" stroke="white" stroke-width="1.05564"/>
</g>
<g opacity="0.54" filter="url(#filter27_f_2_6)">
<path d="M19.7774 738.734L40.1226 743.288C51.5158 745.838 62.8664 740.364 65.9192 730.847L45.574 726.293C34.1807 723.743 22.8302 729.217 19.7774 738.734Z" fill="white"/>
<path d="M19.7774 738.734L40.1226 743.288C51.5158 745.838 62.8664 740.364 65.9192 730.847L45.574 726.293C34.1807 723.743 22.8302 729.217 19.7774 738.734Z" stroke="white" stroke-width="1.05564"/>
</g>
<g opacity="0.53" filter="url(#filter28_f_2_6)">
<path d="M849.565 33.3336L869.114 38.9563C880.061 42.105 891.625 37.394 895.394 28.2495L875.845 22.6268C864.898 19.4781 853.334 24.1891 849.565 33.3336Z" fill="white"/>
<path d="M849.565 33.3336L869.114 38.9563C880.061 42.105 891.625 37.394 895.394 28.2495L875.845 22.6268C864.898 19.4781 853.334 24.1891 849.565 33.3336Z" stroke="white" stroke-width="1.03622"/>
</g>
<path opacity="0.65" d="M260.291 42.0231L281.824 30.7837C293.882 24.4897 297.436 11.6302 289.901 1.5576L268.368 12.797C256.31 19.091 252.756 31.9505 260.291 42.0231Z" fill="white" stroke="white" stroke-width="1.27257"/>
</g>
<defs>
<filter id="filter0_f_2_6" x="752.603" y="719.766" width="21.8651" height="28.0516" filterUnits="userSpaceOnUse" color-interpolation-filters="sRGB">
<feFlood flood-opacity="0" result="BackgroundImageFix"/>
<feBlend mode="normal" in="SourceGraphic" in2="BackgroundImageFix" result="shape"/>
<feGaussianBlur stdDeviation="0.978648" result="effect1_foregroundBlur_2_6"/>
</filter>
<filter id="filter1_f_2_6" x="709.426" y="206.848" width="24.421" height="27.889" filterUnits="userSpaceOnUse" color-interpolation-filters="sRGB">
<feFlood flood-opacity="0" result="BackgroundImageFix"/>
<feBlend mode="normal" in="SourceGraphic" in2="BackgroundImageFix" result="shape"/>
<feGaussianBlur stdDeviation="1.0031" result="effect1_foregroundBlur_2_6"/>
</filter>
<filter id="filter2_f_2_6" x="230.988" y="187.731" width="49.9089" height="22.122" filterUnits="userSpaceOnUse" color-interpolation-filters="sRGB">
<feFlood flood-opacity="0" result="BackgroundImageFix"/>
<feBlend mode="normal" in="SourceGraphic" in2="BackgroundImageFix" result="shape"/>
<feGaussianBlur stdDeviation="0.686859" result="effect1_foregroundBlur_2_6"/>
</filter>
<filter id="filter3_f_2_6" x="638.268" y="334.024" width="30.2638" height="27.5338" filterUnits="userSpaceOnUse" color-interpolation-filters="sRGB">
<feFlood flood-opacity="0" result="BackgroundImageFix"/>
<feBlend mode="normal" in="SourceGraphic" in2="BackgroundImageFix" result="shape"/>
<feGaussianBlur stdDeviation="1.06277" result="effect1_foregroundBlur_2_6"/>
</filter>
<filter id="filter4_f_2_6" x="769.745" y="118.977" width="28.2852" height="27.6286" filterUnits="userSpaceOnUse" color-interpolation-filters="sRGB">
<feFlood flood-opacity="0" result="BackgroundImageFix"/>
<feBlend mode="normal" in="SourceGraphic" in2="BackgroundImageFix" result="shape"/>
<feGaussianBlur stdDeviation="1.04136" result="effect1_foregroundBlur_2_6"/>
</filter>
<filter id="filter5_f_2_6" x="8.09708" y="251.736" width="50.345" height="22.1103" filterUnits="userSpaceOnUse" color-interpolation-filters="sRGB">
<feFlood flood-opacity="0" result="BackgroundImageFix"/>
<feBlend mode="normal" in="SourceGraphic" in2="BackgroundImageFix" result="shape"/>
<feGaussianBlur stdDeviation="0.701825" result="effect1_foregroundBlur_2_6"/>
</filter>
<filter id="filter6_f_2_6" x="346.099" y="220.581" width="47.1449" height="22.4217" filterUnits="userSpaceOnUse" color-interpolation-filters="sRGB">
<feFlood flood-opacity="0" result="BackgroundImageFix"/>
<feBlend mode="normal" in="SourceGraphic" in2="BackgroundImageFix" result="shape"/>
<feGaussianBlur stdDeviation="0.648123" result="effect1_foregroundBlur_2_6"/>
</filter>
<filter id="filter7_f_2_6" x="160.158" y="484.737" width="50.3041" height="22.111" filterUnits="userSpaceOnUse" color-interpolation-filters="sRGB">
<feFlood flood-opacity="0" result="BackgroundImageFix"/>
<feBlend mode="normal" in="SourceGraphic" in2="BackgroundImageFix" result="shape"/>
<feGaussianBlur stdDeviation="0.69904" result="effect1_foregroundBlur_2_6"/>
</filter>
<filter id="filter8_f_2_6" x="718.071" y="20.7382" width="50.228" height="22.1073" filterUnits="userSpaceOnUse" color-interpolation-filters="sRGB">
<feFlood flood-opacity="0" result="BackgroundImageFix"/>
<feBlend mode="normal" in="SourceGraphic" in2="BackgroundImageFix" result="shape"/>
<feGaussianBlur stdDeviation="0.695985" result="effect1_foregroundBlur_2_6"/>
</filter>
<filter id="filter9_f_2_6" x="862.015" y="219.61" width="18.5305" height="28.3636" filterUnits="userSpaceOnUse" color-interpolation-filters="sRGB">
<feFlood flood-opacity="0" result="BackgroundImageFix"/>
<feBlend mode="normal" in="SourceGraphic" in2="BackgroundImageFix" result="shape"/>
<feGaussianBlur stdDeviation="0.939433" result="effect1_foregroundBlur_2_6"/>
</filter>
<filter id="filter10_f_2_6" x="222.272" y="88.8431" width="48.1882" height="25.8972" filterUnits="userSpaceOnUse" color-interpolation-filters="sRGB">
<feFlood flood-opacity="0" result="BackgroundImageFix"/>
<feBlend mode="normal" in="SourceGraphic" in2="BackgroundImageFix" result="shape"/>
<feGaussianBlur stdDeviation="0.761476" result="effect1_foregroundBlur_2_6"/>
</filter>
<filter id="filter11_f_2_6" x="388.847" y="717.451" width="45.4529" height="22.6794" filterUnits="userSpaceOnUse" color-interpolation-filters="sRGB">
<feFlood flood-opacity="0" result="BackgroundImageFix"/>
<feBlend mode="normal" in="SourceGraphic" in2="BackgroundImageFix" result="shape"/>
<feGaussianBlur stdDeviation="0.632384" result="effect1_foregroundBlur_2_6"/>
</filter>
<filter id="filter12_f_2_6" x="278.174" y="412.717" width="48.915" height="22.1496" filterUnits="userSpaceOnUse" color-interpolation-filters="sRGB">
<feFlood flood-opacity="0" result="BackgroundImageFix"/>
<feBlend mode="normal" in="SourceGraphic" in2="BackgroundImageFix" result="shape"/>
<feGaussianBlur stdDeviation="0.66947" result="effect1_foregroundBlur_2_6"/>
</filter>
<filter id="filter13_f_2_6" x="871.628" y="453.664" width="18.4582" height="28.2529" filterUnits="userSpaceOnUse" color-interpolation-filters="sRGB">
<feFlood flood-opacity="0" result="BackgroundImageFix"/>
<feBlend mode="normal" in="SourceGraphic" in2="BackgroundImageFix" result="shape"/>
<feGaussianBlur stdDeviation="0.935768" result="effect1_foregroundBlur_2_6"/>
</filter>
<filter id="filter14_f_2_6" x="588.582" y="233.263" width="33.8587" height="27.0565" filterUnits="userSpaceOnUse" color-interpolation-filters="sRGB">
<feFlood flood-opacity="0" result="BackgroundImageFix"/>
<feBlend mode="normal" in="SourceGraphic" in2="BackgroundImageFix" result="shape"/>
<feGaussianBlur stdDeviation="1.09576" result="effect1_foregroundBlur_2_6"/>
</filter>
<filter id="filter15_f_2_6" x="506.392" y="333.634" width="40.2124" height="26.3144" filterUnits="userSpaceOnUse" color-interpolation-filters="sRGB">
<feFlood flood-opacity="0" result="BackgroundImageFix"/>
<feBlend mode="normal" in="SourceGraphic" in2="BackgroundImageFix" result="shape"/>
<feGaussianBlur stdDeviation="1.16376" result="effect1_foregroundBlur_2_6"/>
</filter>
<filter id="filter16_f_2_6" x="179.363" y="270.744" width="50.2017" height="22.0958" filterUnits="userSpaceOnUse" color-interpolation-filters="sRGB">
<feFlood flood-opacity="0" result="BackgroundImageFix"/>
<feBlend mode="normal" in="SourceGraphic" in2="BackgroundImageFix" result="shape"/>
<feGaussianBlur stdDeviation="0.695621" result="effect1_foregroundBlur_2_6"/>
</filter>
<filter id="filter17_f_2_6" x="596.963" y="529.263" width="33.8587" height="27.0565" filterUnits="userSpaceOnUse" color-interpolation-filters="sRGB">
<feFlood flood-opacity="0" result="BackgroundImageFix"/>
<feBlend mode="normal" in="SourceGraphic" in2="BackgroundImageFix" result="shape"/>
<feGaussianBlur stdDeviation="1.09576" result="effect1_foregroundBlur_2_6"/>
</filter>
<filter id="filter18_f_2_6" x="371.668" y="614.477" width="46.2889" height="22.6291" filterUnits="userSpaceOnUse" color-interpolation-filters="sRGB">
<feFlood flood-opacity="0" result="BackgroundImageFix"/>
<feBlend mode="normal" in="SourceGraphic" in2="BackgroundImageFix" result="shape"/>
<feGaussianBlur stdDeviation="0.640371" result="effect1_foregroundBlur_2_6"/>
</filter>
<filter id="filter19_f_2_6" x="874.169" y="117.082" width="30.1385" height="27.4198" filterUnits="userSpaceOnUse" color-interpolation-filters="sRGB">
<feFlood flood-opacity="0" result="BackgroundImageFix"/>
<feBlend mode="normal" in="SourceGraphic" in2="BackgroundImageFix" result="shape"/>
<feGaussianBlur stdDeviation="1.05837" result="effect1_foregroundBlur_2_6"/>
</filter>
<filter id="filter20_f_2_6" x="593.529" y="20.7406" width="50.2987" height="22.1028" filterUnits="userSpaceOnUse" color-interpolation-filters="sRGB">
<feFlood flood-opacity="0" result="BackgroundImageFix"/>
<feBlend mode="normal" in="SourceGraphic" in2="BackgroundImageFix" result="shape"/>
<feGaussianBlur stdDeviation="0.709145" result="effect1_foregroundBlur_2_6"/>
</filter>
<filter id="filter21_f_2_6" x="0.914893" y="347.736" width="50.345" height="22.1103" filterUnits="userSpaceOnUse" color-interpolation-filters="sRGB">
<feFlood flood-opacity="0" result="BackgroundImageFix"/>
<feBlend mode="normal" in="SourceGraphic" in2="BackgroundImageFix" result="shape"/>
<feGaussianBlur stdDeviation="0.701825" result="effect1_foregroundBlur_2_6"/>
</filter>
<filter id="filter22_f_2_6" x="646.115" y="114.548" width="38.5074" height="26.4876" filterUnits="userSpaceOnUse" color-interpolation-filters="sRGB">
<feFlood flood-opacity="0" result="BackgroundImageFix"/>
<feBlend mode="normal" in="SourceGraphic" in2="BackgroundImageFix" result="shape"/>
<feGaussianBlur stdDeviation="1.14385" result="effect1_foregroundBlur_2_6"/>
</filter>
<filter id="filter23_f_2_6" x="134.998" y="585.737" width="50.3419" height="22.109" filterUnits="userSpaceOnUse" color-interpolation-filters="sRGB">
<feFlood flood-opacity="0" result="BackgroundImageFix"/>
<feBlend mode="normal" in="SourceGraphic" in2="BackgroundImageFix" result="shape"/>
<feGaussianBlur stdDeviation="0.701782" result="effect1_foregroundBlur_2_6"/>
</filter>
<filter id="filter24_f_2_6" x="382.862" y="325.451" width="45.4529" height="22.6794" filterUnits="userSpaceOnUse" color-interpolation-filters="sRGB">
<feFlood flood-opacity="0" result="BackgroundImageFix"/>
<feBlend mode="normal" in="SourceGraphic" in2="BackgroundImageFix" result="shape"/>
<feGaussianBlur stdDeviation="0.632384" result="effect1_foregroundBlur_2_6"/>
</filter>
<filter id="filter25_f_2_6" x="652.116" y="619.013" width="28.9004" height="27.5554" filterUnits="userSpaceOnUse" color-interpolation-filters="sRGB">
<feFlood flood-opacity="0" result="BackgroundImageFix"/>
<feBlend mode="normal" in="SourceGraphic" in2="BackgroundImageFix" result="shape"/>
<feGaussianBlur stdDeviation="1.04684" result="effect1_foregroundBlur_2_6"/>
</filter>
<filter id="filter26_f_2_6" x="18.8906" y="626.747" width="50.3094" height="22.0875" filterUnits="userSpaceOnUse" color-interpolation-filters="sRGB">
<feFlood flood-opacity="0" result="BackgroundImageFix"/>
<feBlend mode="normal" in="SourceGraphic" in2="BackgroundImageFix" result="shape"/>
<feGaussianBlur stdDeviation="0.703762" result="effect1_foregroundBlur_2_6"/>
</filter>
<filter id="filter27_f_2_6" x="17.6936" y="723.747" width="50.3094" height="22.0874" filterUnits="userSpaceOnUse" color-interpolation-filters="sRGB">
<feFlood flood-opacity="0" result="BackgroundImageFix"/>
<feBlend mode="normal" in="SourceGraphic" in2="BackgroundImageFix" result="shape"/>
<feGaussianBlur stdDeviation="0.703762" result="effect1_foregroundBlur_2_6"/>
</filter>
<filter id="filter28_f_2_6" x="847.488" y="19.7714" width="49.9831" height="22.0403" filterUnits="userSpaceOnUse" color-interpolation-filters="sRGB">
<feFlood flood-opacity="0" result="BackgroundImageFix"/>
<feBlend mode="normal" in="SourceGraphic" in2="BackgroundImageFix" result="shape"/>
<feGaussianBlur stdDeviation="0.690815" result="effect1_foregroundBlur_2_6"/>
</filter>
</defs>
</svg>
