<svg width="424" height="328" viewBox="0 0 424 328" fill="none" xmlns="http://www.w3.org/2000/svg">
<g opacity="0.32">
<g opacity="0.54" filter="url(#filter0_f_2_38)">
<path d="M64.205 10.1937L73.8207 8.09523C79.2055 6.92009 84.6496 9.21678 86.1937 13.315L76.5779 15.4135C71.1931 16.5886 65.749 14.2919 64.205 10.1937Z" fill="white"/>
<path d="M64.4406 10.32L73.8825 8.25941C79.1379 7.1125 84.3781 9.3157 85.958 13.1887L76.5161 15.2493C71.2607 16.3962 66.0205 14.193 64.4406 10.32Z" stroke="white" stroke-width="0.350891"/>
</g>
<g opacity="0.59" filter="url(#filter1_f_2_38)">
<path d="M171.432 305.877L182.293 306.601C188.376 307.006 192.737 310.961 192.205 315.59L181.343 314.867C175.26 314.462 170.899 310.507 171.432 305.877Z" fill="white"/>
<path d="M171.603 306.08L182.271 306.791C188.214 307.186 192.409 310.988 192.033 315.388L181.365 314.677C175.422 314.282 171.228 310.48 171.603 306.08Z" stroke="white" stroke-width="0.382462"/>
</g>
<g opacity="0.4" filter="url(#filter2_f_2_38)">
<path d="M313.015 132.724L315.072 127.266C316.224 124.209 320.284 122.496 324.3 123.373L322.244 128.831C321.092 131.888 317.032 133.601 313.015 132.724Z" fill="white"/>
<path d="M313.19 132.629L315.2 127.294C316.305 124.362 320.195 122.665 324.126 123.468L322.116 128.803C321.011 131.736 317.121 133.433 313.19 132.629Z" stroke="white" stroke-width="0.261711"/>
</g>
<g opacity="0.46" filter="url(#filter3_f_2_38)">
<path d="M210.947 94.6039L216.852 89.7843C220.159 87.0853 225.544 86.9422 229.091 89.459L223.185 94.2786C219.878 96.9776 214.493 97.1207 210.947 94.6039Z" fill="white"/>
<path d="M211.19 94.5949L216.976 89.8722C220.178 87.2593 225.368 87.0889 228.848 89.468L223.061 94.1908C219.86 96.8036 214.67 96.974 211.19 94.5949Z" stroke="white" stroke-width="0.303735"/>
</g>
<g opacity="0.54" filter="url(#filter4_f_2_38)">
<path d="M6.6239 90.3218L16.3135 88.3458C21.7397 87.2392 27.1456 89.6146 28.5995 93.7443L18.9099 95.7203C13.4837 96.8268 8.07785 94.4515 6.6239 90.3218Z" fill="white"/>
<path d="M6.8571 90.4521L16.372 88.5117C21.6685 87.4316 26.8713 89.7109 28.3663 93.614L18.8514 95.5543C13.5549 96.6344 8.3521 94.3552 6.8571 90.4521Z" stroke="white" stroke-width="0.351881"/>
</g>
<g opacity="0.37" filter="url(#filter5_f_2_38)">
<path d="M363.884 153.116L364.245 147.872C364.447 144.935 367.638 142.749 371.497 142.902L371.135 148.147C370.933 151.083 367.742 153.27 363.884 153.116Z" fill="white"/>
<path d="M364.013 152.999L364.366 147.877C364.559 145.065 367.598 142.916 371.367 143.019L371.014 148.142C370.821 150.954 367.782 153.102 364.013 152.999Z" stroke="white" stroke-width="0.24204"/>
</g>
<g opacity="0.54" filter="url(#filter6_f_2_38)">
<path d="M74.4764 151.807L84.0052 149.589C89.3413 148.348 94.8158 150.563 96.4472 154.624L86.9184 156.842C81.5823 158.083 76.1078 155.868 74.4764 151.807Z" fill="white"/>
<path d="M74.7141 151.929L84.0703 149.752C89.2774 148.54 94.5474 150.665 96.2095 154.502L86.8533 156.679C81.6462 157.891 76.3763 155.766 74.7141 151.929Z" stroke="white" stroke-width="0.34952"/>
</g>
<g opacity="0.45" filter="url(#filter7_f_2_38)">
<path d="M239.804 10.3422L244.561 5.17135C247.225 2.2757 252.308 1.59363 256.112 3.62118L251.355 8.79199C248.691 11.6876 243.608 12.3697 239.804 10.3422Z" fill="white"/>
<path d="M240.031 10.3026L244.689 5.23977C247.261 2.44463 252.155 1.7483 255.885 3.6607L251.227 8.72358C248.655 11.5187 243.761 12.215 240.031 10.3026Z" stroke="white" stroke-width="0.290939"/>
</g>
<g opacity="0.54" filter="url(#filter8_f_2_38)">
<path d="M150.301 267.667L159.835 265.448C165.174 264.206 170.652 266.423 172.284 270.486L162.75 272.705C157.411 273.947 151.933 271.73 150.301 267.667Z" fill="white"/>
<path d="M150.538 267.789L159.9 265.611C165.11 264.398 170.383 266.524 172.046 270.364L162.685 272.542C157.475 273.755 152.202 271.629 150.538 267.789Z" stroke="white" stroke-width="0.349723"/>
</g>
<g opacity="0.52" filter="url(#filter9_f_2_38)">
<path d="M123.736 6.61447L132.536 3.63269C137.464 1.96289 143.06 3.59767 145.254 7.3481L136.454 10.3299C131.526 11.9997 125.93 10.3649 123.736 6.61447Z" fill="white"/>
<path d="M123.984 6.70539L132.621 3.77851C137.424 2.15114 142.814 3.71302 145.006 7.25718L136.369 10.1841C131.566 11.8114 126.176 10.2495 123.984 6.70539Z" stroke="white" stroke-width="0.337887"/>
</g>
<g opacity="0.55" filter="url(#filter10_f_2_38)">
<path d="M224.982 307.256L234.927 305.648C240.495 304.747 245.801 307.369 246.984 311.607L237.04 313.216C231.471 314.117 226.166 311.495 224.982 307.256Z" fill="white"/>
<path d="M225.209 307.399L234.975 305.819C240.412 304.94 245.517 307.457 246.758 311.464L236.992 313.044C231.555 313.924 226.45 311.406 225.209 307.399Z" stroke="white" stroke-width="0.356615"/>
</g>
<g opacity="0.46" filter="url(#filter11_f_2_38)">
<path d="M219.178 221.946L224.779 217.042C227.916 214.296 233.215 214.014 236.824 216.401L231.222 221.305C228.086 224.051 222.786 224.333 219.178 221.946Z" fill="white"/>
<path d="M219.416 221.929L224.904 217.124C227.938 214.468 233.045 214.162 236.585 216.418L231.098 221.222C228.063 223.879 222.956 224.185 219.416 221.929Z" stroke="white" stroke-width="0.299487"/>
</g>
<g opacity="0.45" filter="url(#filter12_f_2_38)">
<path d="M240.943 54.1679L245.701 48.9971C248.365 46.1014 253.447 45.4193 257.252 47.4469L252.495 52.6177C249.831 55.5134 244.748 56.1954 240.943 54.1679Z" fill="white"/>
<path d="M241.171 54.1284L245.829 49.0655C248.401 46.2703 253.295 45.574 257.024 47.4864L252.366 52.5493C249.795 55.3444 244.901 56.0408 241.171 54.1284Z" stroke="white" stroke-width="0.290939"/>
</g>
<g opacity="0.48" filter="url(#filter13_f_2_38)">
<path d="M189.289 135.143L196.004 130.7C199.764 128.212 205.287 128.506 208.556 131.368L201.841 135.811C198.081 138.298 192.558 138.005 189.289 135.143Z" fill="white"/>
<path d="M189.538 135.158L196.121 130.803C199.769 128.389 205.094 128.646 208.307 131.352L201.724 135.708C198.076 138.121 192.752 137.865 189.538 135.158Z" stroke="white" stroke-width="0.312105"/>
</g>
<g opacity="0.44" filter="url(#filter14_f_2_38)">
<path d="M252.705 134.279L257.036 129.004C259.461 126.05 264.416 125.18 268.297 127.025L263.966 132.3C261.541 135.254 256.586 136.124 252.705 134.279Z" fill="white"/>
<path d="M252.926 134.228L257.165 129.066C259.503 126.218 264.272 125.337 268.075 127.076L263.837 132.238C261.498 135.086 256.73 135.967 252.926 134.228Z" stroke="white" stroke-width="0.286662"/>
</g>
<g opacity="0.36" filter="url(#filter15_f_2_38)">
<path d="M415.335 75.4963L415.102 70.4236C414.972 67.583 417.802 65.273 421.535 65.1738L421.767 70.2465C421.898 73.0872 419.067 75.3971 415.335 75.4963Z" fill="white"/>
<path d="M415.446 75.3756L415.219 70.4205C415.094 67.701 417.783 65.4373 421.423 65.2945L421.65 70.2496C421.775 72.9692 419.087 75.2328 415.446 75.3756Z" stroke="white" stroke-width="0.233942"/>
</g>
<g opacity="0.59" filter="url(#filter16_f_2_38)">
<path d="M56.3915 265.2L67.3171 266.221C73.4354 266.792 77.6524 270.9 76.9012 275.557L65.9756 274.536C59.8572 273.964 55.6402 269.856 56.3915 265.2Z" fill="white"/>
<path d="M56.5557 265.409L67.2863 266.411C73.2632 266.97 77.3202 270.917 76.7369 275.348L66.0063 274.345C60.0295 273.787 55.9725 269.839 56.5557 265.409Z" stroke="white" stroke-width="0.386124"/>
</g>
<g opacity="0.54" filter="url(#filter17_f_2_38)">
<path d="M49.9335 230.042L59.6427 228.062C65.0798 226.954 70.4966 229.334 71.9535 233.472L62.2442 235.452C56.8071 236.561 51.3904 234.181 49.9335 230.042Z" fill="white"/>
<path d="M50.1671 230.173L59.7012 228.229C65.0084 227.146 70.2218 229.43 71.7198 233.341L62.1857 235.286C56.8785 236.368 51.6652 234.084 50.1671 230.173Z" stroke="white" stroke-width="0.352592"/>
</g>
<g opacity="0.54" filter="url(#filter18_f_2_38)">
<path d="M1.48523 247.555L11.1015 245.456C16.4867 244.281 21.9311 246.578 23.4753 250.676L13.859 252.775C8.47383 253.95 3.02939 251.653 1.48523 247.555Z" fill="white"/>
<path d="M1.72086 247.681L11.1634 245.62C16.4191 244.473 21.6596 246.677 23.2396 250.55L13.7971 252.611C8.54138 253.758 3.30089 251.554 1.72086 247.681Z" stroke="white" stroke-width="0.350912"/>
</g>
<g opacity="0.37" filter="url(#filter19_f_2_38)">
<path d="M367.876 53.7462L368.237 48.5019C368.439 45.5651 371.63 43.3786 375.489 43.5325L375.128 48.7768C374.925 51.7135 371.735 53.9001 367.876 53.7462Z" fill="white"/>
<path d="M368.005 53.6295L368.358 48.5067C368.552 45.6951 371.591 43.5465 375.359 43.6492L375.007 48.7719C374.813 51.5836 371.774 53.7322 368.005 53.6295Z" stroke="white" stroke-width="0.24204"/>
</g>
<g opacity="0.52" filter="url(#filter20_f_2_38)">
<path d="M126.016 185.828L134.816 182.846C139.744 181.177 145.34 182.811 147.534 186.562L138.734 189.544C133.806 191.213 128.21 189.579 126.016 185.828Z" fill="white"/>
<path d="M126.264 185.919L134.902 182.992C139.704 181.365 145.094 182.927 147.286 186.471L138.649 189.398C133.846 191.025 128.456 189.463 126.264 185.919Z" stroke="white" stroke-width="0.337887"/>
</g>
<path opacity="0.69" d="M66.9355 302.028L74.8851 309.499C79.2785 313.629 78.5408 319.492 73.1975 322.91L65.248 315.439C60.8545 311.31 61.5922 305.446 66.9355 302.028Z" fill="white" stroke="white" stroke-width="0.452369"/>
<g opacity="0.54" filter="url(#filter21_f_2_38)">
<path d="M12.326 130.243L22.0157 128.267C27.4419 127.16 32.8477 129.536 34.3016 133.665L24.612 135.641C19.1858 136.748 13.78 134.373 12.326 130.243Z" fill="white"/>
<path d="M12.5593 130.373L22.0741 128.433C27.3706 127.353 32.5735 129.632 34.0684 133.535L24.5536 135.475C19.2571 136.556 14.0542 134.276 12.5593 130.373Z" stroke="white" stroke-width="0.351881"/>
</g>
<g opacity="0.51" filter="url(#filter22_f_2_38)">
<path d="M138.197 95.411L146.459 91.9255C151.086 89.9736 156.736 91.2067 159.301 94.728L151.039 98.2135C146.412 100.165 140.762 98.9323 138.197 95.411Z" fill="white"/>
<path d="M138.449 95.4798L146.557 92.0594C151.061 90.1593 156.506 91.3308 159.049 94.6593L150.941 98.0796C146.437 99.9797 140.992 98.8082 138.449 95.4798Z" stroke="white" stroke-width="0.331363"/>
</g>
<g opacity="0.54" filter="url(#filter23_f_2_38)">
<path d="M40.8427 181.295L50.6048 179.443C56.0716 178.405 61.4379 180.859 62.8009 185.02L53.0388 186.872C47.572 187.91 42.2057 185.456 40.8427 181.295Z" fill="white"/>
<path d="M41.0734 181.429L50.6597 179.61C55.9966 178.598 61.1609 180.953 62.5702 184.885L52.9839 186.704C47.647 187.717 42.4827 185.362 41.0734 181.429Z" stroke="white" stroke-width="0.352918"/>
</g>
<g opacity="0.36" filter="url(#filter24_f_2_38)">
<path d="M414.766 179.207L414.534 174.134C414.403 171.293 417.234 168.984 420.966 168.884L421.199 173.957C421.329 176.798 418.499 179.108 414.766 179.207Z" fill="white"/>
<path d="M414.878 179.086L414.651 174.131C414.526 171.411 417.214 169.148 420.855 169.005L421.082 173.96C421.207 176.68 418.518 178.943 414.878 179.086Z" stroke="white" stroke-width="0.233942"/>
</g>
<g opacity="0.52" filter="url(#filter25_f_2_38)">
<path d="M113.404 50.1511L122.412 47.3813C127.457 45.8301 133.021 47.6279 135.059 51.467L126.052 54.2369C121.007 55.788 115.442 53.9903 113.404 50.1511Z" fill="white"/>
<path d="M113.649 50.2509L122.492 47.5318C127.41 46.0195 132.77 47.7395 134.815 51.3673L125.972 54.0864C121.053 55.5987 115.694 53.8787 113.649 50.2509Z" stroke="white" stroke-width="0.340793"/>
</g>
<g opacity="0.46" filter="url(#filter26_f_2_38)">
<path d="M253.464 265.452L258.945 260.481C262.014 257.697 267.3 257.345 270.958 259.681L265.477 264.653C262.408 267.437 257.122 267.788 253.464 265.452Z" fill="white"/>
<path d="M253.702 265.432L259.071 260.561C262.039 257.869 267.132 257.495 270.721 259.702L265.351 264.572C262.383 267.264 257.29 267.639 253.702 265.432Z" stroke="white" stroke-width="0.299117"/>
</g>
<g opacity="0.37" filter="url(#filter27_f_2_38)">
<path d="M359.048 198.196L359.656 192.908C359.996 189.946 363.321 187.823 367.212 188.082L366.604 193.37C366.263 196.332 362.939 198.455 359.048 198.196Z" fill="white"/>
<path d="M359.184 198.082L359.778 192.916C360.104 190.08 363.274 187.992 367.076 188.196L366.482 193.362C366.156 196.198 362.986 198.287 359.184 198.082Z" stroke="white" stroke-width="0.244662"/>
</g>
<g opacity="0.41" filter="url(#filter28_f_2_38)">
<path d="M296.75 12.007L299.09 6.5245C300.401 3.45431 304.601 1.82582 308.635 2.82338L306.294 8.30587C304.983 11.3761 300.784 13.0046 296.75 12.007Z" fill="white"/>
<path d="M296.931 11.9159L299.219 6.55639C300.478 3.60947 304.504 1.99385 308.453 2.9145L306.165 8.27398C304.907 11.2209 300.881 12.8365 296.931 11.9159Z" stroke="white" stroke-width="0.265693"/>
</g>
<g opacity="0.37" filter="url(#filter29_f_2_38)">
<path d="M355.627 99.6916L356.235 94.4034C356.575 91.4421 359.9 89.3189 363.791 89.5779L363.183 94.8661C362.843 97.8274 359.518 99.9506 355.627 99.6916Z" fill="white"/>
<path d="M355.763 99.5774L356.357 94.4115C356.683 91.5759 359.853 89.4873 363.655 89.6921L363.061 94.8579C362.735 97.6936 359.565 99.7822 355.763 99.5774Z" stroke="white" stroke-width="0.244662"/>
</g>
<g opacity="0.49" filter="url(#filter30_f_2_38)">
<path d="M200.835 266.444L208.215 262.363C212.349 260.078 217.955 260.754 220.958 263.899L213.578 267.98C209.445 270.266 203.838 269.59 200.835 266.444Z" fill="white"/>
<path d="M201.087 266.482L208.326 262.479C212.342 260.259 217.747 260.887 220.706 263.862L213.467 267.865C209.452 270.085 204.046 269.456 201.087 266.482Z" stroke="white" stroke-width="0.320011"/>
</g>
<path opacity="0.71" d="M13.3011 305.897L20.1542 314.244C23.9348 318.848 22.2356 324.746 16.2214 327.72L9.36831 319.373C5.58778 314.769 7.28695 308.871 13.3011 305.897Z" fill="white" stroke="white" stroke-width="0.46345"/>
<g opacity="0.36" filter="url(#filter31_f_2_38)">
<path d="M414.766 17.7834L414.534 12.7107C414.403 9.87002 417.234 7.56011 420.966 7.46091L421.199 12.5336C421.329 15.3742 418.499 17.6842 414.766 17.7834Z" fill="white"/>
<path d="M414.878 17.6627L414.651 12.7076C414.526 9.98803 417.214 7.72435 420.855 7.5816L421.082 12.5367C421.207 15.2562 418.518 17.5199 414.878 17.6627Z" stroke="white" stroke-width="0.233942"/>
</g>
</g>
<defs>
<filter id="filter0_f_2_38" x="62.8014" y="6.3847" width="24.7958" height="10.7393" filterUnits="userSpaceOnUse" color-interpolation-filters="sRGB">
<feFlood flood-opacity="0" result="BackgroundImageFix"/>
<feBlend mode="normal" in="SourceGraphic" in2="BackgroundImageFix" result="shape"/>
<feGaussianBlur stdDeviation="0.701782" result="effect1_foregroundBlur_2_38"/>
</filter>
<filter id="filter1_f_2_38" x="169.858" y="304.348" width="23.9208" height="12.7727" filterUnits="userSpaceOnUse" color-interpolation-filters="sRGB">
<feFlood flood-opacity="0" result="BackgroundImageFix"/>
<feBlend mode="normal" in="SourceGraphic" in2="BackgroundImageFix" result="shape"/>
<feGaussianBlur stdDeviation="0.764923" result="effect1_foregroundBlur_2_38"/>
</filter>
<filter id="filter2_f_2_38" x="310.922" y="121.05" width="15.4722" height="13.9967" filterUnits="userSpaceOnUse" color-interpolation-filters="sRGB">
<feFlood flood-opacity="0" result="BackgroundImageFix"/>
<feBlend mode="normal" in="SourceGraphic" in2="BackgroundImageFix" result="shape"/>
<feGaussianBlur stdDeviation="1.04684" result="effect1_foregroundBlur_2_38"/>
</filter>
<filter id="filter3_f_2_38" x="209.732" y="86.4468" width="20.5733" height="11.1693" filterUnits="userSpaceOnUse" color-interpolation-filters="sRGB">
<feFlood flood-opacity="0" result="BackgroundImageFix"/>
<feBlend mode="normal" in="SourceGraphic" in2="BackgroundImageFix" result="shape"/>
<feGaussianBlur stdDeviation="0.607469" result="effect1_foregroundBlur_2_38"/>
</filter>
<filter id="filter4_f_2_38" x="5.21638" y="86.6671" width="24.7906" height="10.7318" filterUnits="userSpaceOnUse" color-interpolation-filters="sRGB">
<feFlood flood-opacity="0" result="BackgroundImageFix"/>
<feBlend mode="normal" in="SourceGraphic" in2="BackgroundImageFix" result="shape"/>
<feGaussianBlur stdDeviation="0.703762" result="effect1_foregroundBlur_2_38"/>
</filter>
<filter id="filter5_f_2_38" x="361.947" y="140.958" width="11.4855" height="14.1016" filterUnits="userSpaceOnUse" color-interpolation-filters="sRGB">
<feFlood flood-opacity="0" result="BackgroundImageFix"/>
<feBlend mode="normal" in="SourceGraphic" in2="BackgroundImageFix" result="shape"/>
<feGaussianBlur stdDeviation="0.968158" result="effect1_foregroundBlur_2_38"/>
</filter>
<filter id="filter6_f_2_38" x="73.0784" y="147.847" width="24.7669" height="10.7371" filterUnits="userSpaceOnUse" color-interpolation-filters="sRGB">
<feFlood flood-opacity="0" result="BackgroundImageFix"/>
<feBlend mode="normal" in="SourceGraphic" in2="BackgroundImageFix" result="shape"/>
<feGaussianBlur stdDeviation="0.69904" result="effect1_foregroundBlur_2_38"/>
</filter>
<filter id="filter7_f_2_38" x="237.476" y="0.128373" width="20.9638" height="13.7066" filterUnits="userSpaceOnUse" color-interpolation-filters="sRGB">
<feFlood flood-opacity="0" result="BackgroundImageFix"/>
<feBlend mode="normal" in="SourceGraphic" in2="BackgroundImageFix" result="shape"/>
<feGaussianBlur stdDeviation="1.16376" result="effect1_foregroundBlur_2_38"/>
</filter>
<filter id="filter8_f_2_38" x="148.902" y="263.705" width="24.7813" height="10.7433" filterUnits="userSpaceOnUse" color-interpolation-filters="sRGB">
<feFlood flood-opacity="0" result="BackgroundImageFix"/>
<feBlend mode="normal" in="SourceGraphic" in2="BackgroundImageFix" result="shape"/>
<feGaussianBlur stdDeviation="0.699446" result="effect1_foregroundBlur_2_38"/>
</filter>
<filter id="filter9_f_2_38" x="122.385" y="1.62772" width="24.2204" height="10.7071" filterUnits="userSpaceOnUse" color-interpolation-filters="sRGB">
<feFlood flood-opacity="0" result="BackgroundImageFix"/>
<feBlend mode="normal" in="SourceGraphic" in2="BackgroundImageFix" result="shape"/>
<feGaussianBlur stdDeviation="0.675773" result="effect1_foregroundBlur_2_38"/>
</filter>
<filter id="filter10_f_2_38" x="223.556" y="304.044" width="24.8551" height="10.7751" filterUnits="userSpaceOnUse" color-interpolation-filters="sRGB">
<feFlood flood-opacity="0" result="BackgroundImageFix"/>
<feBlend mode="normal" in="SourceGraphic" in2="BackgroundImageFix" result="shape"/>
<feGaussianBlur stdDeviation="0.71323" result="effect1_foregroundBlur_2_38"/>
</filter>
<filter id="filter11_f_2_38" x="216.782" y="212.385" width="22.4379" height="13.577" filterUnits="userSpaceOnUse" color-interpolation-filters="sRGB">
<feFlood flood-opacity="0" result="BackgroundImageFix"/>
<feBlend mode="normal" in="SourceGraphic" in2="BackgroundImageFix" result="shape"/>
<feGaussianBlur stdDeviation="1.19795" result="effect1_foregroundBlur_2_38"/>
</filter>
<filter id="filter12_f_2_38" x="238.616" y="43.9541" width="20.9638" height="13.7066" filterUnits="userSpaceOnUse" color-interpolation-filters="sRGB">
<feFlood flood-opacity="0" result="BackgroundImageFix"/>
<feBlend mode="normal" in="SourceGraphic" in2="BackgroundImageFix" result="shape"/>
<feGaussianBlur stdDeviation="1.16376" result="effect1_foregroundBlur_2_38"/>
</filter>
<filter id="filter13_f_2_38" x="188.041" y="127.763" width="21.7642" height="10.9842" filterUnits="userSpaceOnUse" color-interpolation-filters="sRGB">
<feFlood flood-opacity="0" result="BackgroundImageFix"/>
<feBlend mode="normal" in="SourceGraphic" in2="BackgroundImageFix" result="shape"/>
<feGaussianBlur stdDeviation="0.62421" result="effect1_foregroundBlur_2_38"/>
</filter>
<filter id="filter14_f_2_38" x="250.412" y="123.765" width="20.1782" height="13.7738" filterUnits="userSpaceOnUse" color-interpolation-filters="sRGB">
<feFlood flood-opacity="0" result="BackgroundImageFix"/>
<feBlend mode="normal" in="SourceGraphic" in2="BackgroundImageFix" result="shape"/>
<feGaussianBlur stdDeviation="1.14665" result="effect1_foregroundBlur_2_38"/>
</filter>
<filter id="filter15_f_2_38" x="413.226" y="63.3023" width="10.4169" height="14.0655" filterUnits="userSpaceOnUse" color-interpolation-filters="sRGB">
<feFlood flood-opacity="0" result="BackgroundImageFix"/>
<feBlend mode="normal" in="SourceGraphic" in2="BackgroundImageFix" result="shape"/>
<feGaussianBlur stdDeviation="0.935768" result="effect1_foregroundBlur_2_38"/>
</filter>
<filter id="filter16_f_2_38" x="54.7604" y="263.655" width="23.7718" height="13.4461" filterUnits="userSpaceOnUse" color-interpolation-filters="sRGB">
<feFlood flood-opacity="0" result="BackgroundImageFix"/>
<feBlend mode="normal" in="SourceGraphic" in2="BackgroundImageFix" result="shape"/>
<feGaussianBlur stdDeviation="0.772248" result="effect1_foregroundBlur_2_38"/>
</filter>
<filter id="filter17_f_2_38" x="48.5231" y="226.38" width="24.8407" height="10.7535" filterUnits="userSpaceOnUse" color-interpolation-filters="sRGB">
<feFlood flood-opacity="0" result="BackgroundImageFix"/>
<feBlend mode="normal" in="SourceGraphic" in2="BackgroundImageFix" result="shape"/>
<feGaussianBlur stdDeviation="0.705184" result="effect1_foregroundBlur_2_38"/>
</filter>
<filter id="filter18_f_2_38" x="0.0815796" y="243.746" width="24.7973" height="10.7399" filterUnits="userSpaceOnUse" color-interpolation-filters="sRGB">
<feFlood flood-opacity="0" result="BackgroundImageFix"/>
<feBlend mode="normal" in="SourceGraphic" in2="BackgroundImageFix" result="shape"/>
<feGaussianBlur stdDeviation="0.701825" result="effect1_foregroundBlur_2_38"/>
</filter>
<filter id="filter19_f_2_38" x="365.94" y="41.5885" width="11.4855" height="14.1016" filterUnits="userSpaceOnUse" color-interpolation-filters="sRGB">
<feFlood flood-opacity="0" result="BackgroundImageFix"/>
<feBlend mode="normal" in="SourceGraphic" in2="BackgroundImageFix" result="shape"/>
<feGaussianBlur stdDeviation="0.968158" result="effect1_foregroundBlur_2_38"/>
</filter>
<filter id="filter20_f_2_38" x="124.665" y="180.841" width="24.2204" height="10.7071" filterUnits="userSpaceOnUse" color-interpolation-filters="sRGB">
<feFlood flood-opacity="0" result="BackgroundImageFix"/>
<feBlend mode="normal" in="SourceGraphic" in2="BackgroundImageFix" result="shape"/>
<feGaussianBlur stdDeviation="0.675773" result="effect1_foregroundBlur_2_38"/>
</filter>
<filter id="filter21_f_2_38" x="10.9185" y="126.588" width="24.7906" height="10.7318" filterUnits="userSpaceOnUse" color-interpolation-filters="sRGB">
<feFlood flood-opacity="0" result="BackgroundImageFix"/>
<feBlend mode="normal" in="SourceGraphic" in2="BackgroundImageFix" result="shape"/>
<feGaussianBlur stdDeviation="0.703762" result="effect1_foregroundBlur_2_38"/>
</filter>
<filter id="filter22_f_2_38" x="136.872" y="89.6753" width="23.7549" height="10.7885" filterUnits="userSpaceOnUse" color-interpolation-filters="sRGB">
<feFlood flood-opacity="0" result="BackgroundImageFix"/>
<feBlend mode="normal" in="SourceGraphic" in2="BackgroundImageFix" result="shape"/>
<feGaussianBlur stdDeviation="0.662725" result="effect1_foregroundBlur_2_38"/>
</filter>
<filter id="filter23_f_2_38" x="39.431" y="177.793" width="24.7816" height="10.7278" filterUnits="userSpaceOnUse" color-interpolation-filters="sRGB">
<feFlood flood-opacity="0" result="BackgroundImageFix"/>
<feBlend mode="normal" in="SourceGraphic" in2="BackgroundImageFix" result="shape"/>
<feGaussianBlur stdDeviation="0.705836" result="effect1_foregroundBlur_2_38"/>
</filter>
<filter id="filter24_f_2_38" x="412.658" y="167.013" width="10.4169" height="14.0655" filterUnits="userSpaceOnUse" color-interpolation-filters="sRGB">
<feFlood flood-opacity="0" result="BackgroundImageFix"/>
<feBlend mode="normal" in="SourceGraphic" in2="BackgroundImageFix" result="shape"/>
<feGaussianBlur stdDeviation="0.935768" result="effect1_foregroundBlur_2_38"/>
</filter>
<filter id="filter25_f_2_38" x="112.041" y="45.4618" width="24.3816" height="10.6946" filterUnits="userSpaceOnUse" color-interpolation-filters="sRGB">
<feFlood flood-opacity="0" result="BackgroundImageFix"/>
<feBlend mode="normal" in="SourceGraphic" in2="BackgroundImageFix" result="shape"/>
<feGaussianBlur stdDeviation="0.681586" result="effect1_foregroundBlur_2_38"/>
</filter>
<filter id="filter26_f_2_38" x="251.071" y="255.744" width="22.2805" height="13.6459" filterUnits="userSpaceOnUse" color-interpolation-filters="sRGB">
<feFlood flood-opacity="0" result="BackgroundImageFix"/>
<feBlend mode="normal" in="SourceGraphic" in2="BackgroundImageFix" result="shape"/>
<feGaussianBlur stdDeviation="1.19647" result="effect1_foregroundBlur_2_38"/>
</filter>
<filter id="filter27_f_2_38" x="357.09" y="186.104" width="12.0787" height="14.071" filterUnits="userSpaceOnUse" color-interpolation-filters="sRGB">
<feFlood flood-opacity="0" result="BackgroundImageFix"/>
<feBlend mode="normal" in="SourceGraphic" in2="BackgroundImageFix" result="shape"/>
<feGaussianBlur stdDeviation="0.978648" result="effect1_foregroundBlur_2_38"/>
</filter>
<filter id="filter28_f_2_38" x="294.624" y="0.404946" width="16.136" height="14.0205" filterUnits="userSpaceOnUse" color-interpolation-filters="sRGB">
<feFlood flood-opacity="0" result="BackgroundImageFix"/>
<feBlend mode="normal" in="SourceGraphic" in2="BackgroundImageFix" result="shape"/>
<feGaussianBlur stdDeviation="1.06277" result="effect1_foregroundBlur_2_38"/>
</filter>
<filter id="filter29_f_2_38" x="353.67" y="87.5993" width="12.0787" height="14.071" filterUnits="userSpaceOnUse" color-interpolation-filters="sRGB">
<feFlood flood-opacity="0" result="BackgroundImageFix"/>
<feBlend mode="normal" in="SourceGraphic" in2="BackgroundImageFix" result="shape"/>
<feGaussianBlur stdDeviation="0.978648" result="effect1_foregroundBlur_2_38"/>
</filter>
<filter id="filter30_f_2_38" x="199.555" y="259.731" width="22.6836" height="10.8823" filterUnits="userSpaceOnUse" color-interpolation-filters="sRGB">
<feFlood flood-opacity="0" result="BackgroundImageFix"/>
<feBlend mode="normal" in="SourceGraphic" in2="BackgroundImageFix" result="shape"/>
<feGaussianBlur stdDeviation="0.640023" result="effect1_foregroundBlur_2_38"/>
</filter>
<filter id="filter31_f_2_38" x="412.658" y="5.58937" width="10.4169" height="14.0655" filterUnits="userSpaceOnUse" color-interpolation-filters="sRGB">
<feFlood flood-opacity="0" result="BackgroundImageFix"/>
<feBlend mode="normal" in="SourceGraphic" in2="BackgroundImageFix" result="shape"/>
<feGaussianBlur stdDeviation="0.935768" result="effect1_foregroundBlur_2_38"/>
</filter>
</defs>
</svg>
