<svg width="1728" height="600" viewBox="0 0 1728 600" fill="none" xmlns="http://www.w3.org/2000/svg">
<path fill-rule="evenodd" clip-rule="evenodd" d="M72.0002 70.794H0.000190735V300H72.0002H432H864H1296H1656H1728V70.794L1656 55.5136C1584 40.2332 1440 9.67239 1296 2.03219C1152 -5.60801 1008 9.67239 864 24.9528C720 40.2332 576 55.5136 432 63.1538C288 70.794 144 70.794 72.0002 70.794ZM0 300V529.206L72 544.486C144 559.767 288 590.328 432 597.968C576 605.608 720 590.328 864 575.047C1008 559.767 1152 544.486 1296 536.846C1440 529.206 1584 529.206 1656 529.206H1728V300H1656H1296H864H432H72H0Z" fill="white"/>
</svg>
