<svg width="428" height="300" viewBox="0 0 428 300" fill="none" xmlns="http://www.w3.org/2000/svg">
<path fill-rule="evenodd" clip-rule="evenodd" d="M17.8333 35.3967H0V149.999H17.8333H107H214H321H410.166H428V35.3967L410.166 27.7566C392.333 20.1164 356.666 4.83616 321 1.01609C285.333 -2.80398 249.666 4.83616 214 12.4763C178.333 20.1164 142.667 27.7566 107 31.5766C71.3333 35.3967 35.6666 35.3967 17.8333 35.3967ZM410.167 264.603H428V150.001H410.167H321H214H107H17.8338H0.00046949V264.603L17.8338 272.243C35.6671 279.884 71.3337 295.164 107 298.984C142.667 302.804 178.334 295.164 214 287.524C249.667 279.884 285.333 272.243 321 268.423C356.667 264.603 392.333 264.603 410.167 264.603Z" fill="white"/>
</svg>
