<svg width="1728" height="660" viewBox="0 0 1728 660" fill="white" xmlns="http://www.w3.org/2000/svg">
<path fill-rule="evenodd" clip-rule="evenodd" d="M1728 285.504V0H1656C1584 0 1440 0 1296 6.18327C1152.04 12.365 1008.07 24.7267 864.111 37.0885L864 37.098C720 49.4646 576 61.8295 432 55.6478C288 49.4646 144 24.7331 72 12.3665L0 0L-0.00012207 38.653V285.503V374.497V621.347L0 660L72 647.633C144 635.267 288 610.535 432 604.352C576 598.17 720 610.535 864 622.902L864.111 622.911C1008.07 635.273 1152.04 647.635 1296 653.817C1440 660 1584 660 1656 660H1728V579.367V466.778V285.504Z" fill="white"/>
</svg>
