<svg width="428" height="601" viewBox="0 0 428 601" fill="none" xmlns="http://www.w3.org/2000/svg">
<path fill-rule="evenodd" clip-rule="evenodd" d="M327.683 598.98C361.055 600.574 393.448 600.574 410.167 600.574L428 600.574L428 511.228L428 466.957L428 454.499L428 431.723L428 419.266L428 374.996L428 374.994L428 322.803L428 287.569L428 285.649L428 285.648L428 230.843L428 230.841L428 181.883L428 146.649L428 141.496L428 141.494L428 89.9204L428 0.574242L410.167 0.574244C392.333 0.574245 356.667 0.574235 321 2.50919C285.344 4.44367 249.687 8.312 214.031 12.1803L214.028 12.1808L214 12.1838C178.333 16.0538 142.667 19.9233 107 17.9888C71.3333 16.0538 35.6666 8.31418 17.8333 4.44421L-2.15234e-05 0.574219L-2.81311e-05 89.9204L-3.54547e-05 195.02L-1.58115e-05 230.841L-2.3135e-05 335.94L-3.20916e-06 374.994L-3.07592e-06 406.128L-1.05327e-05 480.094L1.50983e-05 511.228L3.09303e-05 600.574L17.8334 596.704C20.0625 596.22 22.5703 595.676 25.322 595.09C44.5834 590.99 75.7917 584.853 107 583.16C111.458 582.918 115.917 582.767 120.375 582.695C151.583 582.193 182.792 585.578 214 588.965L214.028 588.968C218.485 589.451 222.942 589.935 227.399 590.415C258.599 593.773 289.8 596.946 321 598.639C323.229 598.76 325.458 598.874 327.683 598.98ZM161.568 302.263C154.51 302.341 147.453 302.722 140.395 303.354C147.453 303.132 154.51 302.753 161.568 302.263Z" fill="#CADEED"/>
</svg>
