<svg width="1728" height="943" viewBox="0 0 1728 943" fill="#FCFDFC" xmlns="http://www.w3.org/2000/svg">
<path fill-rule="evenodd" clip-rule="evenodd" d="M0 942.794V58.4995C0 58.4995 249.164 56.2163 427.952 19.7925C606.172 -16.5161 739.259 5.08351 880.696 28.0386H880.714C983.79 44.7671 1091.3 62.2163 1223.96 58.4995C1422.86 52.9253 1728 19.7925 1728 19.7925V942.794L1656 927.513C1584 912.232 1440 881.671 1296 874.031C1152 866.392 1008 881.671 864 896.953L863.889 896.964C719.926 912.24 575.963 927.515 432 935.154C288 942.794 144 942.794 72 942.794H0Z" fill="white"/>
</svg>
