<svg width="1728" height="938" viewBox="0 0 1728 938" fill="none" xmlns="http://www.w3.org/2000/svg">
<path fill-rule="evenodd" clip-rule="evenodd" d="M-4.94163e-06 880.909L72 898.182C144 915.455 288 950 432 932.727C576 915.454 720 889.545 864 898.182C1008 906.818 1169.27 932.727 1313.27 932.727C1457.27 932.727 1584 936.864 1656 893.682L1728 850.5L1728 -0.000151067L1656 -0.000144772C1584 -0.000138478 1440 -0.000125889 1296 -0.0001133C1152 -0.000100711 1008 -8.81222e-05 864 -7.55333e-05C720 -6.29444e-05 576 -5.03555e-05 432 -3.77666e-05C288 -2.51778e-05 144 -1.25889e-05 72 -6.29444e-06L-3.21222e-05 0L-4.94163e-06 880.909Z" fill="white"/>
</svg>
