<svg width="428" height="420" viewBox="0 0 428 420" fill="none" xmlns="http://www.w3.org/2000/svg">
<path fill-rule="evenodd" clip-rule="evenodd" d="M-1.22641e-06 394.675L17.8333 402.413C35.6667 410.152 71.3333 425.63 107 417.891C142.667 410.152 178.333 398.544 214 402.413C249.667 406.283 289.612 417.891 325.278 417.891C360.945 417.891 392.333 419.744 410.167 400.397L428 381.051L428 1.14944e-05L410.167 1.43089e-05C392.333 1.71234e-05 356.667 2.27524e-05 321 2.83814e-05C285.333 3.40104e-05 249.667 3.96394e-05 214 4.52684e-05C178.333 5.08974e-05 142.667 5.65265e-05 107 6.21555e-05C71.3333 6.77845e-05 35.6667 7.34135e-05 17.8333 7.6228e-05L-7.99659e-06 7.90425e-05L-1.22641e-06 394.675Z" fill="white"/>
</svg>
