<svg width="32" height="32" viewBox="0 0 32 32" fill="none" xmlns="http://www.w3.org/2000/svg">
<rect width="32" height="32" rx="16" fill="white"/>
<path fill-rule="evenodd" clip-rule="evenodd" d="M15.9968 8C13.8254 8 13.5524 8.00952 12.6984 8.04762C11.8476 8.08571 11.2667 8.22222 10.7587 8.41905C10.2317 8.62222 9.7873 8.89841 9.34286 9.34286C8.89841 9.7873 8.6254 10.2349 8.41905 10.7587C8.22222 11.2667 8.08571 11.8476 8.04762 12.7016C8.00952 13.5524 8 13.8254 8 15.9968C8 18.1682 8.00952 18.4413 8.04762 19.2952C8.08571 20.146 8.22222 20.727 8.41905 21.2381C8.62222 21.7651 8.89841 22.2095 9.34286 22.654C9.7873 23.0984 10.2349 23.3714 10.7587 23.5778C11.2667 23.7746 11.8476 23.9111 12.7016 23.9492C13.5556 23.9873 13.8254 23.9968 16 23.9968C18.1746 23.9968 18.4444 23.9873 19.2984 23.9492C20.1492 23.9111 20.7302 23.7746 21.2413 23.5778C21.7683 23.3746 22.2127 23.0984 22.6571 22.654C23.1016 22.2095 23.3746 21.7619 23.581 21.2381C23.7778 20.7301 23.9143 20.1492 23.9524 19.2952C23.9905 18.4413 24 18.1714 24 15.9968C24 13.8222 23.9905 13.5524 23.9524 12.6984C23.9143 11.8476 23.7778 11.2667 23.581 10.7556C23.3778 10.2286 23.1016 9.78413 22.6571 9.33968C22.2127 8.89524 21.7651 8.62222 21.2413 8.41587C20.7333 8.21905 20.1524 8.08254 19.2984 8.04444C18.4413 8.00952 18.1683 8 15.9968 8ZM15.9968 11.892C13.7301 11.892 11.8888 13.7301 11.8888 16C11.8888 18.2698 13.7269 20.1079 15.9968 20.1079C18.2666 20.1079 20.1047 18.2698 20.1047 16C20.1047 13.7301 18.2666 11.892 15.9968 11.892ZM15.9968 18.6634C14.5237 18.6634 13.3301 17.4698 13.3301 15.9968C13.3301 14.5238 14.5237 13.3301 15.9968 13.3301C17.4698 13.3301 18.6634 14.5238 18.6634 15.9968C18.6634 17.4698 17.4698 18.6634 15.9968 18.6634ZM21.2254 11.727C21.2254 12.2565 20.7962 12.6857 20.2667 12.6857C19.7372 12.6857 19.3079 12.2565 19.3079 11.727C19.3079 11.1975 19.7372 10.7682 20.2667 10.7682C20.7962 10.7682 21.2254 11.1975 21.2254 11.727Z" fill="#18181B"/>
</svg>
