<svg width="20" height="23" viewBox="0 0 20 23" fill="none" xmlns="http://www.w3.org/2000/svg">
<path d="M12.1128 7.544L12.1122 7.54341C11.5278 6.98332 10.8146 6.7 10 6.7C9.18542 6.7 8.47245 6.98334 7.88873 7.54371C7.30374 8.1053 7 8.79945 7 9.6C7 10.4005 7.3037 11.0943 7.88882 11.6552C8.4724 12.2162 9.18534 12.5 10 12.5C10.8148 12.5 11.5281 12.2161 12.1125 11.6551C12.6969 11.0941 13 10.4003 13 9.6C13 8.79974 12.6969 8.10567 12.1128 7.544ZM2.89375 16.0764L2.89364 16.0763C1.27147 13.7756 0.5 11.7007 0.5 9.84C0.5 6.96447 1.45729 4.71775 3.34766 3.04439L3.34774 3.04432C5.26779 1.34398 7.47828 0.5 10 0.5C12.5217 0.5 14.7322 1.34398 16.6523 3.04432L16.6523 3.04439C18.5427 4.71775 19.5 6.96447 19.5 9.84C19.5 11.7007 18.7289 13.7757 17.1076 16.0763C15.9154 17.7677 14.2637 19.5759 12.1429 21.5005C10.9254 22.6054 9.07464 22.6054 7.85719 21.5005C5.73653 19.5759 4.08524 17.7677 2.89375 16.0764Z" stroke="white"/>
</svg>
