<svg width="16" height="16" viewBox="0 0 16 16" fill="none" xmlns="http://www.w3.org/2000/svg">
<g clip-path="url(#clip0_123_124)">
<path d="M5.15193 7.70246L2.26581 9.43554C2.25567 9.44161 2.24794 9.45121 2.24396 9.46255L0.22755 15.2284C0.14911 15.4528 0.3835 15.6568 0.585337 15.5399L3.98054 13.5739C3.99299 13.5667 4.00185 13.5544 4.00489 13.54L5.22595 7.75785C5.23523 7.71408 5.18951 7.67992 5.15193 7.70246Z" fill="#7AADD3"/>
<path d="M7.92532 15.8374L4.03202 13.583C4.01289 13.5719 4.00301 13.5493 4.00768 13.5272L5.23462 7.71732C5.24198 7.68236 5.28097 7.66561 5.31032 7.68485L7.97665 9.43154C7.9911 9.441 7.99983 9.45737 7.99983 9.47497V15.7925C7.99983 15.8319 7.95864 15.8567 7.92532 15.8374Z" fill="#CADEED"/>
<path d="M7.92532 15.8374L4.03202 13.583C4.01289 13.5719 4.00301 13.5493 4.00768 13.5272L5.23462 7.71732C5.24198 7.68236 5.28097 7.66561 5.31032 7.68485L7.97665 9.43154C7.9911 9.441 7.99983 9.45737 7.99983 9.47497V15.7925C7.99983 15.8319 7.95864 15.8567 7.92532 15.8374Z" fill="#7AADD3"/>
<path d="M7.92532 15.8374L4.03202 13.583C4.01289 13.5719 4.00301 13.5493 4.00768 13.5272L5.23462 7.71732C5.24198 7.68236 5.28097 7.66561 5.31032 7.68485L7.97665 9.43154C7.9911 9.441 7.99983 9.45737 7.99983 9.47497V15.7925C7.99983 15.8319 7.95864 15.8567 7.92532 15.8374Z" fill="black" fill-opacity="0.1"/>
<path d="M11.9673 13.583L8.07397 15.8374C8.04064 15.8567 7.99945 15.8319 7.99945 15.7925V9.47497C7.99945 9.45737 8.00818 9.441 8.02263 9.43154L10.689 7.68485C10.7183 7.66561 10.7573 7.68236 10.7647 7.71732L11.9916 13.5272C11.9963 13.5493 11.9864 13.5719 11.9673 13.583Z" fill="#7AADD3"/>
<path d="M13.734 9.43554L10.8479 7.70246C10.8103 7.67992 10.7646 7.71408 10.7739 7.75785L11.9949 13.54C11.998 13.5544 12.0068 13.5667 12.0193 13.5739L15.4145 15.5399C15.6163 15.6568 15.8507 15.4528 15.7723 15.2284L13.7558 9.46255C13.7519 9.45121 13.7441 9.44161 13.734 9.43554Z" fill="#CADEED"/>
<path d="M13.734 9.43554L10.8479 7.70246C10.8103 7.67992 10.7646 7.71408 10.7739 7.75785L11.9949 13.54C11.998 13.5544 12.0068 13.5667 12.0193 13.5739L15.4145 15.5399C15.6163 15.6568 15.8507 15.4528 15.7723 15.2284L13.7558 9.46255C13.7519 9.45121 13.7441 9.44161 13.734 9.43554Z" fill="#7AADD3"/>
<path d="M13.734 9.43554L10.8479 7.70246C10.8103 7.67992 10.7646 7.71408 10.7739 7.75785L11.9949 13.54C11.998 13.5544 12.0068 13.5667 12.0193 13.5739L15.4145 15.5399C15.6163 15.6568 15.8507 15.4528 15.7723 15.2284L13.7558 9.46255C13.7519 9.45121 13.7441 9.44161 13.734 9.43554Z" fill="black" fill-opacity="0.1"/>
<path d="M14.7431 15.0899L12.4992 8.67334L13.8817 9.43579C13.8929 9.44195 13.9014 9.4523 13.9055 9.46473L15.7831 15.2173C15.8572 15.4441 15.6168 15.643 15.4175 15.52L14.7645 15.1166C14.7546 15.1105 14.7471 15.1011 14.7431 15.0899Z" fill="#CADEED"/>
<path d="M14.7431 15.0899L12.4992 8.67334L13.8817 9.43579C13.8929 9.44195 13.9014 9.4523 13.9055 9.46473L15.7831 15.2173C15.8572 15.4441 15.6168 15.643 15.4175 15.52L14.7645 15.1166C14.7546 15.1105 14.7471 15.1011 14.7431 15.0899Z" fill="#7AADD3"/>
<path d="M14.7431 15.0899L12.4992 8.67334L13.8817 9.43579C13.8929 9.44195 13.9014 9.4523 13.9055 9.46473L15.7831 15.2173C15.8572 15.4441 15.6168 15.643 15.4175 15.52L14.7645 15.1166C14.7546 15.1105 14.7471 15.1011 14.7431 15.0899Z" fill="black" fill-opacity="0.2"/>
<path fill-rule="evenodd" clip-rule="evenodd" d="M5.4703 7.53697L7.62001 11.1325C7.79569 11.4263 8.20858 11.4322 8.39199 11.1434L10.2318 8.24634C11.3229 6.52831 12.3458 4.53248 11.7597 2.57058C11.3644 1.24736 10.3642 -0.00132538 7.9972 -0.00048786C4.97864 0.000582293 4.22086 1.86256 4.12279 3.44787C4.03185 4.91805 4.72017 6.28238 5.4703 7.53697ZM10.2834 4.23481C10.2834 5.53429 9.26006 6.58775 7.9977 6.58775C6.73535 6.58775 5.71199 5.53429 5.71199 4.23481C5.71199 2.93531 6.73535 1.88186 7.9977 1.88186C9.26006 1.88186 10.2834 2.93531 10.2834 4.23481ZM7.9977 5.64657C8.75514 5.64657 9.36913 5.01452 9.36913 4.23481C9.36913 3.45511 8.75514 2.82304 7.9977 2.82304C7.24031 2.82304 6.62627 3.45511 6.62627 4.23481C6.62627 5.01452 7.24031 5.64657 7.9977 5.64657Z" fill="#15284C"/>
<path fill-rule="evenodd" clip-rule="evenodd" d="M5.4703 7.53697L7.62001 11.1325C7.79569 11.4263 8.20858 11.4322 8.39199 11.1434L10.2318 8.24634C11.3229 6.52831 12.3458 4.53248 11.7597 2.57058C11.3644 1.24736 10.3642 -0.00132538 7.9972 -0.00048786C4.97864 0.000582293 4.22086 1.86256 4.12279 3.44787C4.03185 4.91805 4.72017 6.28238 5.4703 7.53697ZM10.2834 4.23481C10.2834 5.53429 9.26006 6.58775 7.9977 6.58775C6.73535 6.58775 5.71199 5.53429 5.71199 4.23481C5.71199 2.93531 6.73535 1.88186 7.9977 1.88186C9.26006 1.88186 10.2834 2.93531 10.2834 4.23481ZM7.9977 5.64657C8.75514 5.64657 9.36913 5.01452 9.36913 4.23481C9.36913 3.45511 8.75514 2.82304 7.9977 2.82304C7.24031 2.82304 6.62627 3.45511 6.62627 4.23481C6.62627 5.01452 7.24031 5.64657 7.9977 5.64657Z" fill="white" fill-opacity="0.2"/>
<path d="M7.99945 5.64384C8.75689 5.64384 9.37088 5.01179 9.37088 4.23208C9.37088 3.45238 8.75689 2.82031 7.99945 2.82031C7.99945 2.82031 8.91643 3.61519 8.91643 4.23208C8.91643 4.84897 7.99945 5.64384 7.99945 5.64384Z" fill="#7AADD3"/>
<path d="M7.99945 5.64384C8.75689 5.64384 9.37088 5.01179 9.37088 4.23208C9.37088 3.45238 8.75689 2.82031 7.99945 2.82031C7.99945 2.82031 8.91643 3.61519 8.91643 4.23208C8.91643 4.84897 7.99945 5.64384 7.99945 5.64384Z" fill="#15284C"/>
<path d="M11.8013 5.03791C12.0824 3.57812 12.3516 -0.00185021 8.22791 -0.000487893C8.22791 -0.000487893 11.206 0.159512 10.9708 3.99951C10.8114 6.60041 8.45648 11.0583 8.45648 11.0583L10.285 8.23481L11.3638 6.19899C11.5585 5.83156 11.7222 5.4485 11.8013 5.03791Z" fill="#7AADD3"/>
<path d="M11.8013 5.03791C12.0824 3.57812 12.3516 -0.00185021 8.22791 -0.000487893C8.22791 -0.000487893 11.206 0.159512 10.9708 3.99951C10.8114 6.60041 8.45648 11.0583 8.45648 11.0583L10.285 8.23481L11.3638 6.19899C11.5585 5.83156 11.7222 5.4485 11.8013 5.03791Z" fill="#15284C"/>
</g>
<defs>
<clipPath id="clip0_123_124">
<rect width="16" height="16" fill="white"/>
</clipPath>
</defs>
</svg>
