<svg width="60" height="56" viewBox="0 0 60 56" fill="none" xmlns="http://www.w3.org/2000/svg">
<path fill-rule="evenodd" clip-rule="evenodd" d="M57.4715 2.29503L59.7258 7.1201C60.3523 8.46121 59.8752 10.059 58.6158 10.8369C52.2693 14.7571 48.0941 21.3937 47.3076 28.8118L47.2042 29.7875H53.5897C56.6128 29.7875 59.0635 32.2382 59.0635 35.2613V50.4684C59.0635 53.4916 56.6128 55.9423 53.5897 55.9423H39.7619C36.7388 55.9423 34.2881 53.4916 34.2881 50.4685V29.7875C34.2881 29.7875 34.483 21.4024 38.0455 14.194C40.9587 8.2993 47.7253 3.29802 51.9722 0.58776C53.9411 -0.668787 56.4828 0.178845 57.4715 2.29503ZM23.1834 2.34971L25.4377 7.17479C26.0643 8.5159 25.5871 10.1137 24.3277 10.8916C17.9812 14.8118 13.806 21.4484 13.0195 28.8665L12.9161 29.8421H19.3016C22.3247 29.8421 24.7754 32.2929 24.7754 35.316V50.5231C24.7754 53.5462 22.3247 55.997 19.3016 55.997H5.47381C2.45071 55.997 0 53.5462 0 50.5231V29.8421C0 29.8421 0.19489 21.4571 3.7574 14.2487C6.67061 8.35398 13.4372 3.35271 17.6841 0.642448C19.6531 -0.6141 22.1948 0.233533 23.1834 2.34971Z" fill="#CADEED"/>
</svg>
