<svg width="32" height="32" viewBox="0 0 32 32" fill="none" xmlns="http://www.w3.org/2000/svg">
<rect width="32" height="32" rx="16" fill="white"/>
<path d="M13.02 22.6673C19.0617 22.6673 22.3653 17.5364 22.3653 13.0897C22.3653 12.9431 22.3653 12.7965 22.3584 12.6568C22.9987 12.1822 23.5573 11.5888 24 10.9116C23.4142 11.1769 22.7808 11.3584 22.1132 11.4422C22.7944 11.0233 23.312 10.3671 23.5573 9.57831C22.9238 9.96226 22.2222 10.2415 21.473 10.3951C20.8736 9.73887 20.0221 9.33398 19.0754 9.33398C17.2635 9.33398 15.7923 10.8418 15.7923 12.6987C15.7923 12.964 15.8195 13.2223 15.8808 13.4666C13.1494 13.327 10.7314 11.9867 9.11026 9.9483C8.83099 10.4439 8.66752 11.0233 8.66752 11.6376C8.66752 12.8034 9.24649 13.8366 10.132 14.437C9.59387 14.423 9.08983 14.2694 8.64708 14.0181C8.64708 14.0321 8.64708 14.046 8.64708 14.06C8.64708 15.6935 9.77778 17.0478 11.2831 17.3619C11.0106 17.4387 10.7178 17.4806 10.4181 17.4806C10.2069 17.4806 10.0026 17.4596 9.79821 17.4178C10.2137 18.7581 11.4261 19.7284 12.8633 19.7563C11.7395 20.6568 10.3227 21.1944 8.78331 21.1944C8.51767 21.1944 8.25883 21.1804 8 21.1455C9.43721 22.1089 11.1673 22.6673 13.02 22.6673Z" fill="#18181B"/>
</svg>
