<svg width="1728" height="1470" viewBox="0 0 1728 1470" fill="none" xmlns="http://www.w3.org/2000/svg">
<path fill-rule="evenodd" clip-rule="evenodd" d="M1728 5.8932C1728 53 1729.12 63.9929 1728 5.8932C1678.48 56.3509 1612.58 86.6371 1543.28 72.6687C1472.54 58.41 1385.13 35.9973 1296 30.6558C1152 22.0259 1008 -12.4936 864 4.76615C720 22.0259 576 91.0649 432 125.584C353.884 144.31 275.767 114.784 209.145 83.8459C126.284 45.3673 44.4644 80.1625 0.0566406 160.003C0.0197754 160.069 0.000366211 160.144 0.000366211 160.22V1469C0.000366211 1469.55 0.44812 1470 1.00037 1470H97.5004C169.5 1470 313.5 1470 457.5 1470C601.5 1470 745.5 1470 889.5 1470C1033.5 1470 1177.5 1470 1321.5 1470C1465.5 1470 1609.5 1470 1681.5 1470H1727C1727.55 1470 1728 1469.55 1728 1469L1728 5.8932Z" fill="white"/>
</svg>
