<svg width="425" height="293" viewBox="0 0 425 293" fill="none" xmlns="http://www.w3.org/2000/svg">
<path d="M1 280.035C7.40224 279.542 17.7965 276.018 31.7308 277.664C45.6651 279.311 52.8205 288.104 67.8846 287.939C82.9487 287.774 88.9744 276.051 104.038 276.874C119.103 277.697 125.128 293.455 140.192 291.891C155.256 290.327 161.282 270.683 176.346 269.366C191.41 268.048 197.436 286.721 212.5 285.568C227.564 284.415 233.59 262.763 248.654 263.833C263.718 264.903 269.744 289.635 284.808 290.705C299.872 291.776 305.897 268.806 320.962 268.97C336.026 269.135 342.051 292.154 357.115 291.496C372.179 290.837 379.335 268.197 393.269 265.809C407.204 263.421 417.598 277.072 424 280.035" stroke="white" stroke-opacity="0.12" stroke-width="2" stroke-linecap="round"/>
<path d="M1 17.2406C7.40224 16.7466 17.7965 13.2229 31.7308 14.8695C45.6651 16.5161 52.8205 25.3088 67.8846 25.1442C82.9487 24.9795 88.9744 13.2558 104.038 14.0791C119.103 14.9024 125.128 30.6602 140.192 29.096C155.256 27.5317 161.282 7.88796 176.346 6.57069C191.41 5.25342 197.436 23.9257 212.5 22.7731C227.564 21.6205 233.59 -0.0321094 248.654 1.03817C263.718 2.10845 269.744 26.8401 284.808 27.9104C299.872 28.9807 305.897 6.01085 320.962 6.17551C336.026 6.34017 342.051 29.3594 357.115 28.7008C372.179 28.0421 379.335 5.40162 393.269 3.01407C407.204 0.626524 417.598 14.2767 424 17.2406" stroke="white" stroke-opacity="0.12" stroke-width="2" stroke-linecap="round"/>
<path d="M1 31.072C7.40224 30.578 17.7965 27.0543 31.7308 28.7009C45.6651 30.3475 52.8205 39.1402 67.8846 38.9756C82.9487 38.8109 88.9744 27.0872 104.038 27.9105C119.103 28.7338 125.128 44.4916 140.192 42.9274C155.256 41.3631 161.282 21.7194 176.346 20.4021C191.41 19.0848 197.436 37.7571 212.5 36.6045C227.564 35.4519 233.59 13.7993 248.654 14.8696C263.718 15.9399 269.744 40.6716 284.808 41.7418C299.872 42.8121 305.897 19.8423 320.962 20.0069C336.026 20.1716 342.051 43.1908 357.115 42.5322C372.179 41.8736 379.335 19.233 393.269 16.8455C407.204 14.4579 417.598 28.1081 424 31.072" stroke="white" stroke-opacity="0.12" stroke-width="2" stroke-linecap="round"/>
<path d="M1 44.9014C7.40224 44.4074 17.7965 40.8837 31.7308 42.5303C45.6651 44.1769 52.8205 52.9696 67.8846 52.805C82.9487 52.6403 88.9744 40.9167 104.038 41.7399C119.103 42.5632 125.128 58.321 140.192 56.7568C155.256 55.1925 161.282 35.5488 176.346 34.2315C191.41 32.9143 197.436 51.5865 212.5 50.4339C227.564 49.2813 233.59 27.6287 248.654 28.699C263.718 29.7693 269.744 54.501 284.808 55.5712C299.872 56.6415 305.897 33.6717 320.962 33.8363C336.026 34.001 342.051 57.0202 357.115 56.3616C372.179 55.703 379.335 33.0624 393.269 30.6749C407.204 28.2874 417.598 41.9375 424 44.9014" stroke="white" stroke-opacity="0.12" stroke-width="2" stroke-linecap="round"/>
<path d="M1 58.7328C7.40224 58.2388 17.7965 54.7151 31.7308 56.3617C45.6651 58.0083 52.8205 66.8011 67.8846 66.6364C82.9487 66.4717 88.9744 54.7481 104.038 55.5714C119.103 56.3947 125.128 72.1525 140.192 70.5882C155.256 69.024 161.282 49.3802 176.346 48.0629C191.41 46.7457 197.436 65.4179 212.5 64.2653C227.564 63.1127 233.59 41.4601 248.654 42.5304C263.718 43.6007 269.744 68.3324 284.808 69.4027C299.872 70.4729 305.897 47.5031 320.962 47.6678C336.026 47.8324 342.051 70.8517 357.115 70.193C372.179 69.5344 379.335 46.8939 393.269 44.5063C407.204 42.1188 417.598 55.769 424 58.7328" stroke="white" stroke-opacity="0.12" stroke-width="2" stroke-linecap="round"/>
<path d="M1 72.5662C7.40224 72.0722 17.7965 68.5486 31.7308 70.1951C45.6651 71.8417 52.8205 80.6345 67.8846 80.4698C82.9487 80.3052 88.9744 68.5815 104.038 69.4048C119.103 70.2281 125.128 85.9859 140.192 84.4216C155.256 82.8574 161.282 63.2136 176.346 61.8964C191.41 60.5791 197.436 79.2514 212.5 78.0987C227.564 76.9461 233.59 55.2936 248.654 56.3638C263.718 57.4341 269.744 82.1658 284.808 83.2361C299.872 84.3064 305.897 61.3365 320.962 61.5012C336.026 61.6658 342.051 84.6851 357.115 84.0264C372.179 83.3678 379.335 60.7273 393.269 58.3397C407.204 55.9522 417.598 69.6024 424 72.5662" stroke="white" stroke-opacity="0.12" stroke-width="2" stroke-linecap="round"/>
<path d="M1 86.3956C7.40224 85.9017 17.7965 82.378 31.7308 84.0246C45.6651 85.6711 52.8205 94.4639 67.8846 94.2992C82.9487 94.1346 88.9744 82.4109 104.038 83.2342C119.103 84.0575 125.128 99.8153 140.192 98.2511C155.256 96.6868 161.282 77.043 176.346 75.7258C191.41 74.4085 197.436 93.0808 212.5 91.9282C227.564 90.7756 233.59 69.123 248.654 70.1933C263.718 71.2635 269.744 95.9952 284.808 97.0655C299.872 98.1358 305.897 75.1659 320.962 75.3306C336.026 75.4953 342.051 98.5145 357.115 97.8559C372.179 97.1972 379.335 74.5567 393.269 72.1692C407.204 69.7816 417.598 83.4318 424 86.3956" stroke="white" stroke-opacity="0.12" stroke-width="2" stroke-linecap="round"/>
<path d="M1 100.227C7.40224 99.7331 17.7965 96.2094 31.7308 97.856C45.6651 99.5026 52.8205 108.295 67.8846 108.131C82.9487 107.966 88.9744 96.2423 104.038 97.0656C119.103 97.8889 125.128 113.647 140.192 112.082C155.256 110.518 161.282 90.8745 176.346 89.5572C191.41 88.2399 197.436 106.912 212.5 105.76C227.564 104.607 233.59 82.9544 248.654 84.0247C263.718 85.0949 269.744 109.827 284.808 110.897C299.872 111.967 305.897 88.9973 320.962 89.162C336.026 89.3267 342.051 112.346 357.115 111.687C372.179 111.029 379.335 88.3881 393.269 86.0006C407.204 83.613 417.598 97.2632 424 100.227" stroke="white" stroke-opacity="0.12" stroke-width="2" stroke-linecap="round"/>
<path d="M1 114.058C7.40224 113.564 17.7965 110.041 31.7308 111.687C45.6651 113.334 52.8205 122.127 67.8846 121.962C82.9487 121.797 88.9744 110.074 104.038 110.897C119.103 111.72 125.128 127.478 140.192 125.914C155.256 124.35 161.282 104.706 176.346 103.389C191.41 102.071 197.436 120.744 212.5 119.591C227.564 118.438 233.59 96.7858 248.654 97.8561C263.718 98.9264 269.744 123.658 284.808 124.728C299.872 125.799 305.897 102.829 320.962 102.993C336.026 103.158 342.051 126.177 357.115 125.519C372.179 124.86 379.335 102.22 393.269 99.832C407.204 97.4444 417.598 111.095 424 114.058" stroke="white" stroke-opacity="0.12" stroke-width="2" stroke-linecap="round"/>
<path d="M1 127.89C7.40224 127.396 17.7965 123.872 31.7308 125.519C45.6651 127.165 52.8205 135.958 67.8846 135.793C82.9487 135.629 88.9744 123.905 104.038 124.728C119.103 125.552 125.128 141.31 140.192 139.745C155.256 138.181 161.282 118.537 176.346 117.22C191.41 115.903 197.436 134.575 212.5 133.422C227.564 132.27 233.59 110.617 248.654 111.688C263.718 112.758 269.744 137.489 284.808 138.56C299.872 139.63 305.897 116.66 320.962 116.825C336.026 116.99 342.051 140.009 357.115 139.35C372.179 138.691 379.335 116.051 393.269 113.663C407.204 111.276 417.598 124.926 424 127.89" stroke="white" stroke-opacity="0.12" stroke-width="2" stroke-linecap="round"/>
<path d="M1 141.723C7.40224 141.229 17.7965 137.706 31.7308 139.352C45.6651 140.999 52.8205 149.792 67.8846 149.627C82.9487 149.462 88.9744 137.739 104.038 138.562C119.103 139.385 125.128 155.143 140.192 153.579C155.256 152.014 161.282 132.371 176.346 131.053C191.41 129.736 197.436 148.408 212.5 147.256C227.564 146.103 233.59 124.451 248.654 125.521C263.718 126.591 269.744 151.323 284.808 152.393C299.872 153.463 305.897 130.494 320.962 130.658C336.026 130.823 342.051 153.842 357.115 153.184C372.179 152.525 379.335 129.884 393.269 127.497C407.204 125.109 417.598 138.759 424 141.723" stroke="white" stroke-opacity="0.12" stroke-width="2" stroke-linecap="round"/>
<path d="M1 155.555C7.40224 155.061 17.7965 151.537 31.7308 153.184C45.6651 154.83 52.8205 163.623 67.8846 163.458C82.9487 163.294 88.9744 151.57 104.038 152.393C119.103 153.217 125.128 168.974 140.192 167.41C155.256 165.846 161.282 146.202 176.346 144.885C191.41 143.568 197.436 162.24 212.5 161.087C227.564 159.935 233.59 138.282 248.654 139.352C263.718 140.423 269.744 165.154 284.808 166.225C299.872 167.295 305.897 144.325 320.962 144.49C336.026 144.654 342.051 167.674 357.115 167.015C372.179 166.356 379.335 143.716 393.269 141.328C407.204 138.941 417.598 152.591 424 155.555" stroke="white" stroke-opacity="0.12" stroke-width="2" stroke-linecap="round"/>
<path d="M1 169.386C7.40224 168.892 17.7965 165.368 31.7308 167.015C45.6651 168.662 52.8205 177.454 67.8846 177.29C82.9487 177.125 88.9744 165.401 104.038 166.225C119.103 167.048 125.128 182.806 140.192 181.242C155.256 179.677 161.282 160.034 176.346 158.716C191.41 157.399 197.436 176.071 212.5 174.919C227.564 173.766 233.59 152.113 248.654 153.184C263.718 154.254 269.744 178.986 284.808 180.056C299.872 181.126 305.897 158.156 320.962 158.321C336.026 158.486 342.051 181.505 357.115 180.846C372.179 180.188 379.335 157.547 393.269 155.16C407.204 152.772 417.598 166.422 424 169.386" stroke="white" stroke-opacity="0.12" stroke-width="2" stroke-linecap="round"/>
<path d="M1 183.216C7.40224 182.722 17.7965 179.198 31.7308 180.844C45.6651 182.491 52.8205 191.284 67.8846 191.119C82.9487 190.955 88.9744 179.231 104.038 180.054C119.103 180.877 125.128 196.635 140.192 195.071C155.256 193.507 161.282 173.863 176.346 172.546C191.41 171.228 197.436 189.901 212.5 188.748C227.564 187.595 233.59 165.943 248.654 167.013C263.718 168.083 269.744 192.815 284.808 193.885C299.872 194.956 305.897 171.986 320.962 172.151C336.026 172.315 342.051 195.334 357.115 194.676C372.179 194.017 379.335 171.377 393.269 168.989C407.204 166.602 417.598 180.252 424 183.216" stroke="white" stroke-opacity="0.12" stroke-width="2" stroke-linecap="round"/>
<path d="M1 197.049C7.40224 196.555 17.7965 193.031 31.7308 194.678C45.6651 196.324 52.8205 205.117 67.8846 204.953C82.9487 204.788 88.9744 193.064 104.038 193.888C119.103 194.711 125.128 210.469 140.192 208.904C155.256 207.34 161.282 187.696 176.346 186.379C191.41 185.062 197.436 203.734 212.5 202.582C227.564 201.429 233.59 179.776 248.654 180.847C263.718 181.917 269.744 206.649 284.808 207.719C299.872 208.789 305.897 185.819 320.962 185.984C336.026 186.149 342.051 209.168 357.115 208.509C372.179 207.851 379.335 185.21 393.269 182.822C407.204 180.435 417.598 194.085 424 197.049" stroke="white" stroke-opacity="0.12" stroke-width="2" stroke-linecap="round"/>
<path d="M1 210.88C7.40224 210.386 17.7965 206.863 31.7308 208.509C45.6651 210.156 52.8205 218.949 67.8846 218.784C82.9487 218.619 88.9744 206.896 104.038 207.719C119.103 208.542 125.128 224.3 140.192 222.736C155.256 221.172 161.282 201.528 176.346 200.211C191.41 198.893 197.436 217.566 212.5 216.413C227.564 215.26 233.59 193.608 248.654 194.678C263.718 195.748 269.744 220.48 284.808 221.55C299.872 222.621 305.897 199.651 320.962 199.815C336.026 199.98 342.051 222.999 357.115 222.341C372.179 221.682 379.335 199.041 393.269 196.654C407.204 194.266 417.598 207.917 424 210.88" stroke="white" stroke-opacity="0.12" stroke-width="2" stroke-linecap="round"/>
<path d="M1 224.71C7.40224 224.216 17.7965 220.692 31.7308 222.339C45.6651 223.985 52.8205 232.778 67.8846 232.613C82.9487 232.449 88.9744 220.725 104.038 221.548C119.103 222.372 125.128 238.129 140.192 236.565C155.256 235.001 161.282 215.357 176.346 214.04C191.41 212.723 197.436 231.395 212.5 230.242C227.564 229.09 233.59 207.437 248.654 208.507C263.718 209.578 269.744 234.309 284.808 235.38C299.872 236.45 305.897 213.48 320.962 213.645C336.026 213.809 342.051 236.829 357.115 236.17C372.179 235.511 379.335 212.871 393.269 210.483C407.204 208.096 417.598 221.746 424 224.71" stroke="white" stroke-opacity="0.12" stroke-width="2" stroke-linecap="round"/>
<path d="M1 238.541C7.40224 238.047 17.7965 234.524 31.7308 236.17C45.6651 237.817 52.8205 246.609 67.8846 246.445C82.9487 246.28 88.9744 234.556 104.038 235.38C119.103 236.203 125.128 251.961 140.192 250.397C155.256 248.832 161.282 229.189 176.346 227.871C191.41 226.554 197.436 245.226 212.5 244.074C227.564 242.921 233.59 221.269 248.654 222.339C263.718 223.409 269.744 248.141 284.808 249.211C299.872 250.281 305.897 227.312 320.962 227.476C336.026 227.641 342.051 250.66 357.115 250.001C372.179 249.343 379.335 226.702 393.269 224.315C407.204 221.927 417.598 235.577 424 238.541" stroke="white" stroke-opacity="0.12" stroke-width="2" stroke-linecap="round"/>
<path d="M1 252.373C7.40224 251.879 17.7965 248.355 31.7308 250.002C45.6651 251.648 52.8205 260.441 67.8846 260.276C82.9487 260.112 88.9744 248.388 104.038 249.211C119.103 250.034 125.128 265.792 140.192 264.228C155.256 262.664 161.282 243.02 176.346 241.703C191.41 240.386 197.436 259.058 212.5 257.905C227.564 256.753 233.59 235.1 248.654 236.17C263.718 237.241 269.744 261.972 284.808 263.043C299.872 264.113 305.897 241.143 320.962 241.308C336.026 241.472 342.051 264.492 357.115 263.833C372.179 263.174 379.335 240.534 393.269 238.146C407.204 235.759 417.598 249.409 424 252.373" stroke="white" stroke-opacity="0.12" stroke-width="2" stroke-linecap="round"/>
<path d="M1 266.202C7.40224 265.708 17.7965 262.184 31.7308 263.831C45.6651 265.478 52.8205 274.27 67.8846 274.106C82.9487 273.941 88.9744 262.217 104.038 263.041C119.103 263.864 125.128 279.622 140.192 278.057C155.256 276.493 161.282 256.849 176.346 255.532C191.41 254.215 197.436 272.887 212.5 271.735C227.564 270.582 233.59 248.929 248.654 250C263.718 251.07 269.744 275.802 284.808 276.872C299.872 277.942 305.897 254.972 320.962 255.137C336.026 255.302 342.051 278.321 357.115 277.662C372.179 277.004 379.335 254.363 393.269 251.976C407.204 249.588 417.598 263.238 424 266.202" stroke="white" stroke-opacity="0.12" stroke-width="2" stroke-linecap="round"/>
</svg>
