<svg width="1002" height="662" viewBox="0 0 1002 662" opacity="0.4" fill="none" xmlns="http://www.w3.org/2000/svg">
<path d="M1.00024 28.136C16.1356 29.2564 40.7082 37.2482 73.6497 33.5137C106.591 29.7792 123.507 9.83688 159.12 10.2103C194.732 10.5838 208.977 37.1736 244.59 35.3063C280.202 33.439 294.447 -2.30031 330.06 1.24748C365.672 4.79528 379.917 49.3481 415.53 52.3357C451.142 55.3233 465.387 12.9739 501 15.588C536.612 18.2022 550.857 67.3111 586.47 64.8837C622.082 62.4562 636.327 6.36377 671.94 3.93634C707.552 1.5089 721.797 53.6054 757.41 53.232C793.022 52.8585 807.267 0.649961 842.88 2.14377C878.492 3.63758 895.408 54.9872 928.35 60.4023C961.291 65.8173 985.864 34.8582 1001 28.136" stroke="white" stroke-opacity="0.2" stroke-width="2" stroke-linecap="round"/>
<path d="M1.00024 624.165C16.1356 625.286 40.7082 633.278 73.6497 629.543C106.591 625.809 123.507 605.866 159.12 606.24C194.732 606.613 208.977 633.203 244.59 631.336C280.202 629.468 294.447 593.729 330.06 597.277C365.672 600.825 379.917 645.377 415.53 648.365C451.142 651.353 465.387 609.003 501 611.617C536.612 614.231 550.857 663.34 586.47 660.913C622.082 658.486 636.327 602.393 671.94 599.966C707.552 597.538 721.797 649.635 757.41 649.261C793.022 648.888 807.267 596.679 842.88 598.173C878.492 599.667 895.408 651.017 928.35 656.432C961.291 661.847 985.864 630.887 1001 624.165" stroke="white" stroke-opacity="0.2" stroke-width="2" stroke-linecap="round"/>
<path d="M1.00024 592.796C16.1356 593.917 40.7082 601.908 73.6497 598.174C106.591 594.439 123.507 574.497 159.12 574.87C194.732 575.244 208.977 601.834 244.59 599.966C280.202 598.099 294.447 562.36 330.06 565.908C365.672 569.455 379.917 614.008 415.53 616.996C451.142 619.983 465.387 577.634 501 580.248C536.612 582.862 550.857 631.971 586.47 629.544C622.082 627.116 636.327 571.024 671.94 568.596C707.552 566.169 721.797 618.266 757.41 617.892C793.022 617.519 807.267 565.31 842.88 566.804C878.492 568.298 895.408 619.647 928.35 625.062C961.291 630.477 985.864 599.518 1001 592.796" stroke="white" stroke-opacity="0.2" stroke-width="2" stroke-linecap="round"/>
<path d="M1.00024 561.425C16.1356 562.545 40.7082 570.537 73.6497 566.803C106.591 563.068 123.507 543.126 159.12 543.499C194.732 543.873 208.977 570.463 244.59 568.595C280.202 566.728 294.447 530.989 330.06 534.537C365.672 538.084 379.917 582.637 415.53 585.625C451.142 588.612 465.387 546.263 501 548.877C536.612 551.491 550.857 600.6 586.47 598.173C622.082 595.745 636.327 539.653 671.94 537.225C707.552 534.798 721.797 586.895 757.41 586.521C793.022 586.148 807.267 533.939 842.88 535.433C878.492 536.927 895.408 588.276 928.35 593.691C961.291 599.106 985.864 568.147 1001 561.425" stroke="white" stroke-opacity="0.2" stroke-width="2" stroke-linecap="round"/>
<path d="M1.00024 530.056C16.1356 531.176 40.7082 539.168 73.6497 535.434C106.591 531.699 123.507 511.757 159.12 512.13C194.732 512.504 208.977 539.093 244.59 537.226C280.202 535.359 294.447 499.62 330.06 503.167C365.672 506.715 379.917 551.268 415.53 554.256C451.142 557.243 465.387 514.894 501 517.508C536.612 520.122 550.857 569.231 586.47 566.804C622.082 564.376 636.327 508.284 671.94 505.856C707.552 503.429 721.797 555.525 757.41 555.152C793.022 554.778 807.267 502.57 842.88 504.064C878.492 505.557 895.408 556.907 928.35 562.322C961.291 567.737 985.864 536.778 1001 530.056" stroke="white" stroke-opacity="0.2" stroke-width="2" stroke-linecap="round"/>
<path d="M1.00024 498.685C16.1356 499.805 40.7082 507.797 73.6497 504.063C106.591 500.328 123.507 480.386 159.12 480.759C194.732 481.133 208.977 507.722 244.59 505.855C280.202 503.988 294.447 468.249 330.06 471.796C365.672 475.344 379.917 519.897 415.53 522.885C451.142 525.872 465.387 483.523 501 486.137C536.612 488.751 550.857 537.86 586.47 535.433C622.082 533.005 636.327 476.913 671.94 474.485C707.552 472.058 721.797 524.154 757.41 523.781C793.022 523.407 807.267 471.199 842.88 472.693C878.492 474.186 895.408 525.536 928.35 530.951C961.291 536.366 985.864 505.407 1001 498.685" stroke="white" stroke-opacity="0.2" stroke-width="2" stroke-linecap="round"/>
<path d="M1.00024 467.316C16.1356 468.436 40.7082 476.428 73.6497 472.693C106.591 468.959 123.507 449.017 159.12 449.39C194.732 449.763 208.977 476.353 244.59 474.486C280.202 472.619 294.447 436.879 330.06 440.427C365.672 443.975 379.917 488.528 415.53 491.515C451.142 494.503 465.387 452.154 501 454.768C536.612 457.382 550.857 506.491 586.47 504.063C622.082 501.636 636.327 445.543 671.94 443.116C707.552 440.689 721.797 492.785 757.41 492.412C793.022 492.038 807.267 439.83 842.88 441.323C878.492 442.817 895.408 494.167 928.35 499.582C961.291 504.997 985.864 474.038 1001 467.316" stroke="white" stroke-opacity="0.2" stroke-width="2" stroke-linecap="round"/>
<path d="M1.00024 435.945C16.1356 437.065 40.7082 445.057 73.6497 441.322C106.591 437.588 123.507 417.645 159.12 418.019C194.732 418.392 208.977 444.982 244.59 443.115C280.202 441.248 294.447 405.508 330.06 409.056C365.672 412.604 379.917 457.157 415.53 460.144C451.142 463.132 465.387 420.782 501 423.397C536.612 426.011 550.857 475.12 586.47 472.692C622.082 470.265 636.327 414.172 671.94 411.745C707.552 409.317 721.797 461.414 757.41 461.041C793.022 460.667 807.267 408.459 842.88 409.952C878.492 411.446 895.408 462.796 928.35 468.211C961.291 473.626 985.864 442.667 1001 435.945" stroke="white" stroke-opacity="0.2" stroke-width="2" stroke-linecap="round"/>
<path d="M1.00024 404.575C16.1356 405.696 40.7082 413.688 73.6497 409.953C106.591 406.219 123.507 386.276 159.12 386.65C194.732 387.023 208.977 413.613 244.59 411.746C280.202 409.878 294.447 374.139 330.06 377.687C365.672 381.235 379.917 425.788 415.53 428.775C451.142 431.763 465.387 389.413 501 392.027C536.612 394.642 550.857 443.751 586.47 441.323C622.082 438.896 636.327 382.803 671.94 380.376C707.552 377.948 721.797 430.045 757.41 429.671C793.022 429.298 807.267 377.089 842.88 378.583C878.492 380.077 895.408 431.427 928.35 436.842C961.291 442.257 985.864 411.298 1001 404.575" stroke="white" stroke-opacity="0.2" stroke-width="2" stroke-linecap="round"/>
<path d="M1.00024 373.206C16.1356 374.327 40.7082 382.319 73.6497 378.584C106.591 374.85 123.507 354.907 159.12 355.281C194.732 355.654 208.977 382.244 244.59 380.377C280.202 378.509 294.447 342.77 330.06 346.318C365.672 349.866 379.917 394.418 415.53 397.406C451.142 400.394 465.387 358.044 501 360.658C536.612 363.273 550.857 412.381 586.47 409.954C622.082 407.527 636.327 351.434 671.94 349.007C707.552 346.579 721.797 398.676 757.41 398.302C793.022 397.929 807.267 345.72 842.88 347.214C878.492 348.708 895.408 400.058 928.35 405.473C961.291 410.888 985.864 379.928 1001 373.206" stroke="white" stroke-opacity="0.2" stroke-width="2" stroke-linecap="round"/>
<path d="M1.00024 341.835C16.1356 342.956 40.7082 350.947 73.6497 347.213C106.591 343.478 123.507 323.536 159.12 323.91C194.732 324.283 208.977 350.873 244.59 349.006C280.202 347.138 294.447 311.399 330.06 314.947C365.672 318.494 379.917 363.047 415.53 366.035C451.142 369.023 465.387 326.673 501 329.287C536.612 331.901 550.857 381.01 586.47 378.583C622.082 376.155 636.327 320.063 671.94 317.636C707.552 315.208 721.797 367.305 757.41 366.931C793.022 366.558 807.267 314.349 842.88 315.843C878.492 317.337 895.408 368.686 928.35 374.101C961.291 379.517 985.864 348.557 1001 341.835" stroke="white" stroke-opacity="0.2" stroke-width="2" stroke-linecap="round"/>
<path d="M1.00024 310.466C16.1356 311.586 40.7082 319.578 73.6497 315.844C106.591 312.109 123.507 292.167 159.12 292.54C194.732 292.914 208.977 319.504 244.59 317.636C280.202 315.769 294.447 280.03 330.06 283.578C365.672 287.125 379.917 331.678 415.53 334.666C451.142 337.653 465.387 295.304 501 297.918C536.612 300.532 550.857 349.641 586.47 347.214C622.082 344.786 636.327 288.694 671.94 286.266C707.552 283.839 721.797 335.936 757.41 335.562C793.022 335.189 807.267 282.98 842.88 284.474C878.492 285.968 895.408 337.317 928.35 342.732C961.291 348.147 985.864 317.188 1001 310.466" stroke="white" stroke-opacity="0.2" stroke-width="2" stroke-linecap="round"/>
<path d="M1.00024 279.095C16.1356 280.215 40.7082 288.207 73.6497 284.473C106.591 280.738 123.507 260.796 159.12 261.169C194.732 261.543 208.977 288.133 244.59 286.265C280.202 284.398 294.447 248.659 330.06 252.206C365.672 255.754 379.917 300.307 415.53 303.295C451.142 306.282 465.387 263.933 501 266.547C536.612 269.161 550.857 318.27 586.47 315.843C622.082 313.415 636.327 257.323 671.94 254.895C707.552 252.468 721.797 304.564 757.41 304.191C793.022 303.818 807.267 251.609 842.88 253.103C878.492 254.597 895.408 305.946 928.35 311.361C961.291 316.776 985.864 285.817 1001 279.095" stroke="white" stroke-opacity="0.2" stroke-width="2" stroke-linecap="round"/>
<path d="M1.00024 247.726C16.1356 248.846 40.7082 256.838 73.6497 253.104C106.591 249.369 123.507 229.427 159.12 229.8C194.732 230.174 208.977 256.763 244.59 254.896C280.202 253.029 294.447 217.29 330.06 220.837C365.672 224.385 379.917 268.938 415.53 271.926C451.142 274.913 465.387 232.564 501 235.178C536.612 237.792 550.857 286.901 586.47 284.474C622.082 282.046 636.327 225.954 671.94 223.526C707.552 221.099 721.797 273.195 757.41 272.822C793.022 272.448 807.267 220.24 842.88 221.734C878.492 223.227 895.408 274.577 928.35 279.992C961.291 285.407 985.864 254.448 1001 247.726" stroke="white" stroke-opacity="0.2" stroke-width="2" stroke-linecap="round"/>
<path d="M1.00024 216.355C16.1356 217.475 40.7082 225.467 73.6497 221.732C106.591 217.998 123.507 198.056 159.12 198.429C194.732 198.803 208.977 225.392 244.59 223.525C280.202 221.658 294.447 185.918 330.06 189.466C365.672 193.014 379.917 237.567 415.53 240.554C451.142 243.542 465.387 201.193 501 203.807C536.612 206.421 550.857 255.53 586.47 253.102C622.082 250.675 636.327 194.583 671.94 192.155C707.552 189.728 721.797 241.824 757.41 241.451C793.022 241.077 807.267 188.869 842.88 190.363C878.492 191.856 895.408 243.206 928.35 248.621C961.291 254.036 985.864 223.077 1001 216.355" stroke="white" stroke-opacity="0.2" stroke-width="2" stroke-linecap="round"/>
<path d="M1.00024 184.986C16.1356 186.106 40.7082 194.098 73.6497 190.363C106.591 186.629 123.507 166.686 159.12 167.06C194.732 167.433 208.977 194.023 244.59 192.156C280.202 190.289 294.447 154.549 330.06 158.097C365.672 161.645 379.917 206.198 415.53 209.185C451.142 212.173 465.387 169.823 501 172.438C536.612 175.052 550.857 224.161 586.47 221.733C622.082 219.306 636.327 163.213 671.94 160.786C707.552 158.359 721.797 210.455 757.41 210.082C793.022 209.708 807.267 157.5 842.88 158.993C878.492 160.487 895.408 211.837 928.35 217.252C961.291 222.667 985.864 191.708 1001 184.986" stroke="white" stroke-opacity="0.2" stroke-width="2" stroke-linecap="round"/>
<path d="M1.00024 153.616C16.1356 154.737 40.7082 162.729 73.6497 158.994C106.591 155.26 123.507 135.317 159.12 135.691C194.732 136.064 208.977 162.654 244.59 160.787C280.202 158.92 294.447 123.18 330.06 126.728C365.672 130.276 379.917 174.829 415.53 177.816C451.142 180.804 465.387 138.454 501 141.069C536.612 143.683 550.857 192.792 586.47 190.364C622.082 187.937 636.327 131.844 671.94 129.417C707.552 126.989 721.797 179.086 757.41 178.712C793.022 178.339 807.267 126.13 842.88 127.624C878.492 129.118 895.408 180.468 928.35 185.883C961.291 191.298 985.864 160.339 1001 153.616" stroke="white" stroke-opacity="0.2" stroke-width="2" stroke-linecap="round"/>
<path d="M1.00024 122.245C16.1356 123.366 40.7082 131.358 73.6497 127.623C106.591 123.889 123.507 103.946 159.12 104.32C194.732 104.693 208.977 131.283 244.59 129.416C280.202 127.548 294.447 91.8091 330.06 95.3569C365.672 98.9047 379.917 143.457 415.53 146.445C451.142 149.433 465.387 107.083 501 109.697C536.612 112.312 550.857 161.42 586.47 158.993C622.082 156.566 636.327 100.473 671.94 98.0457C707.552 95.6183 721.797 147.715 757.41 147.341C793.022 146.968 807.267 94.7593 842.88 96.2531C878.492 97.747 895.408 149.097 928.35 154.512C961.291 159.927 985.864 128.968 1001 122.245" stroke="white" stroke-opacity="0.2" stroke-width="2" stroke-linecap="round"/>
<path d="M1.00024 90.8763C16.1356 91.9966 40.7082 99.9885 73.6497 96.254C106.591 92.5194 123.507 72.5771 159.12 72.9506C194.732 73.324 208.977 99.9138 244.59 98.0465C280.202 96.1793 294.447 60.4399 330.06 63.9877C365.672 67.5355 379.917 112.088 415.53 115.076C451.142 118.064 465.387 75.7141 501 78.3283C536.612 80.9424 550.857 130.051 586.47 127.624C622.082 125.196 636.327 69.104 671.94 66.6766C707.552 64.2491 721.797 116.346 757.41 115.972C793.022 115.599 807.267 63.3902 842.88 64.884C878.492 66.3778 895.408 117.727 928.35 123.142C961.291 128.558 985.864 97.5984 1001 90.8763" stroke="white" stroke-opacity="0.2" stroke-width="2" stroke-linecap="round"/>
<path d="M1.00024 59.5071C16.1356 60.6275 40.7082 68.6193 73.6497 64.8848C106.591 61.1503 123.507 41.208 159.12 41.5814C194.732 41.9549 208.977 68.5446 244.59 66.6774C280.202 64.8101 294.447 29.0708 330.06 32.6186C365.672 36.1664 379.917 80.7192 415.53 83.7068C451.142 86.6944 465.387 44.345 501 46.9591C536.612 49.5733 550.857 98.6822 586.47 96.2548C622.082 93.8273 636.327 37.7349 671.94 35.3074C707.552 32.88 721.797 84.9765 757.41 84.6031C793.022 84.2296 807.267 32.0211 842.88 33.5149C878.492 35.0087 895.408 86.3583 928.35 91.7734C961.291 97.1884 985.864 66.2292 1001 59.5071" stroke="white" stroke-opacity="0.2" stroke-width="2" stroke-linecap="round"/>
</svg>
