<svg width="16" height="14" viewBox="0 0 16 14" fill="none" xmlns="http://www.w3.org/2000/svg">
<path d="M5.02001 13.6667C11.0617 13.6667 14.3653 8.53582 14.3653 4.08905C14.3653 3.94245 14.3653 3.79585 14.3584 3.65624C14.9987 3.18154 15.5573 2.58817 16 1.91104C15.4142 2.17631 14.7808 2.35781 14.1132 2.44158C14.7944 2.02273 15.312 1.36653 15.5573 0.577702C14.9238 0.961646 14.2222 1.24088 13.473 1.39446C12.8736 0.73826 12.0221 0.333374 11.0754 0.333374C9.26352 0.333374 7.79225 1.84123 7.79225 3.69812C7.79225 3.96339 7.8195 4.22168 7.8808 4.46601C5.14943 4.32639 2.73137 2.98608 1.11026 0.947685C0.830992 1.44332 0.667518 2.02273 0.667518 2.63704C0.667518 3.80283 1.24649 4.83599 2.13197 5.43634C1.59387 5.42238 1.08983 5.2688 0.647084 5.01749C0.647084 5.03145 0.647084 5.04542 0.647084 5.05938C0.647084 6.69289 1.77778 8.04716 3.2831 8.3613C3.01064 8.43809 2.71775 8.47997 2.41805 8.47997C2.2069 8.47997 2.00255 8.45903 1.79821 8.41714C2.21371 9.75746 3.42614 10.7278 4.86335 10.7557C3.73946 11.6562 2.32269 12.1938 0.783312 12.1938C0.517667 12.1938 0.258834 12.1798 0 12.1449C1.43721 13.1082 3.1673 13.6667 5.02001 13.6667Z" fill="#18181B"/>
</svg>
