<svg width="28" height="28" viewBox="0 0 28 28" fill="none" xmlns="http://www.w3.org/2000/svg">
<mask id="mask0_3201_1595" style="mask-type:alpha" maskUnits="userSpaceOnUse" x="0" y="0" width="28" height="28">
<rect width="28" height="28" fill="#D9D9D9"/>
</mask>
<g mask="url(#mask0_3201_1595)">
<path d="M12.3673 19.3666L20.5923 11.1416L18.959 9.50825L12.3673 16.0999L9.04232 12.7749L7.40898 14.4083L12.3673 19.3666ZM14.0007 25.6666C12.3868 25.6666 10.8701 25.3601 9.45065 24.7473C8.03121 24.1351 6.79648 23.3041 5.74648 22.2541C4.69648 21.2041 3.86543 19.9694 3.25332 18.5499C2.64043 17.1305 2.33398 15.6138 2.33398 13.9999C2.33398 12.386 2.64043 10.8694 3.25332 9.44992C3.86543 8.03048 4.69648 6.79575 5.74648 5.74575C6.79648 4.69575 8.03121 3.86431 9.45065 3.25142C10.8701 2.63931 12.3868 2.33325 14.0007 2.33325C15.6145 2.33325 17.1312 2.63931 18.5507 3.25142C19.9701 3.86431 21.2048 4.69575 22.2548 5.74575C23.3048 6.79575 24.1359 8.03048 24.748 9.44992C25.3609 10.8694 25.6673 12.386 25.6673 13.9999C25.6673 15.6138 25.3609 17.1305 24.748 18.5499C24.1359 19.9694 23.3048 21.2041 22.2548 22.2541C21.2048 23.3041 19.9701 24.1351 18.5507 24.7473C17.1312 25.3601 15.6145 25.6666 14.0007 25.6666Z" fill="#15284C"/>
</g>
</svg>
