<svg width="1080" height="704" viewBox="0 0 1080 704" fill="none" xmlns="http://www.w3.org/2000/svg">
<mask id="mask0_1593_47676" style="mask-type:alpha" maskUnits="userSpaceOnUse" x="0" y="0" width="1080" height="704">
<path fill-rule="evenodd" clip-rule="evenodd" d="M0.00390625 41.31C175.794 53.8841 351.583 65.6615 527.373 59.3577C711.25 52.7622 895.127 26.3819 987.065 13.191L1079 0V41.2299V304.537V399.463V662.77V704L987.065 690.809C895.127 677.618 711.25 651.238 527.373 644.642C351.583 638.338 175.794 650.116 0.00390625 662.69V41.31Z" fill="url(#paint0_linear_1593_47676)"/>
</mask>
<g mask="url(#mask0_1593_47676)">
<g opacity="0.2">
<path opacity="0.05" d="M450.508 -639.495C-107.02 -876.152 -750.834 -616.034 -987.491 -58.5062C-1224.15 499.022 -964.029 1142.84 -406.502 1379.49C151.026 1616.15 794.84 1356.03 1031.5 798.503C1268.15 240.975 1008.04 -402.839 450.508 -639.495Z" stroke="white" stroke-width="11" stroke-linecap="round" stroke-dasharray="11 55"/>
<path opacity="0.1" d="M497.261 -562.731C-17.87 -825.203 -648.243 -620.383 -910.715 -105.251C-1173.19 409.88 -968.367 1040.25 -453.236 1302.73C61.8957 1565.2 692.268 1360.38 954.741 845.246C1217.21 330.114 1012.39 -300.258 497.261 -562.731Z" stroke="white" stroke-width="11" stroke-linecap="round" stroke-dasharray="42 38"/>
<path opacity="0.14" d="M-718.887 -297.106C-1087.32 112.08 -1054.28 742.466 -645.097 1110.9C-235.91 1479.33 394.475 1446.3 762.908 1037.11C1131.34 627.922 1098.3 -2.46334 689.118 -370.897C279.931 -739.33 -350.454 -706.293 -718.887 -297.106Z" stroke="white" stroke-width="10" stroke-linecap="round" stroke-dasharray="43 54"/>
<path opacity="0.19" d="M121.01 -571.939C-399.209 -626.616 -865.254 -249.22 -919.931 270.999C-974.608 791.217 -597.212 1257.26 -76.9937 1311.94C443.225 1366.62 909.27 989.221 963.947 469.002C1018.62 -51.2164 641.228 -517.262 121.01 -571.939Z" stroke="white" stroke-width="10" stroke-linecap="round" stroke-dasharray="52 18"/>
<path opacity="0.23" d="M-40.5836 -525.088C-534.93 -490.52 -907.654 -61.7504 -873.086 432.596C-838.518 926.942 -409.748 1299.67 84.5984 1265.1C578.945 1230.53 951.668 801.76 917.1 307.414C882.532 -186.932 453.763 -559.656 -40.5836 -525.088Z" stroke="white" stroke-width="10" stroke-linecap="round" stroke-dasharray="24 52"/>
<path opacity="0.28" d="M783.666 741.492C988.834 320.836 814.146 -186.494 393.49 -391.662C-27.1657 -596.83 -534.496 -422.142 -739.664 -1.48591C-944.831 419.17 -770.143 926.5 -349.487 1131.67C71.1687 1336.84 578.499 1162.15 783.666 741.492Z" stroke="white" stroke-width="10" stroke-linecap="round" stroke-dasharray="19 22"/>
<path opacity="0.32" d="M-717.491 71.2171C-882.502 479.634 -685.183 944.489 -276.766 1109.5C131.651 1274.51 596.507 1077.19 761.518 668.775C926.529 260.358 729.21 -204.497 320.793 -369.508C-87.6243 -534.519 -552.48 -337.2 -717.491 71.2171Z" stroke="white" stroke-width="9" stroke-linecap="round" stroke-dasharray="50 26"/>
<path opacity="0.37" d="M384.516 1023.98C745.7 823.77 876.198 368.672 675.99 7.48828C475.783 -353.696 20.6848 -484.193 -340.499 -283.985C-701.683 -83.7778 -832.18 371.32 -631.973 732.504C-431.765 1093.69 23.3325 1224.18 384.516 1023.98Z" stroke="white" stroke-width="9" stroke-linecap="round" stroke-dasharray="28 25"/>
<path opacity="0.41" d="M-605.247 64.0668C-774.209 410.489 -630.348 828.291 -283.926 997.252C62.4965 1166.21 480.298 1022.35 649.259 675.931C818.221 329.508 674.36 -88.2932 327.938 -257.255C-18.4845 -426.216 -436.286 -282.356 -605.247 64.0668Z" stroke="white" stroke-width="9" stroke-linecap="round" stroke-dasharray="31 26"/>
<path opacity="0.46" d="M336.185 936.785C649.211 763.272 762.309 368.854 588.796 55.8277C415.283 -257.198 20.8646 -370.296 -292.161 -196.783C-605.188 -23.2696 -718.285 371.148 -544.772 684.174C-371.259 997.201 23.1593 1110.3 336.185 936.785Z" stroke="white" stroke-width="8" stroke-linecap="round" stroke-dasharray="16 28"/>
<path opacity="0.5" d="M-449.364 738.277C-245.969 998.611 129.958 1044.77 390.292 841.374C650.627 637.978 696.785 262.051 493.389 1.71699C289.994 -258.617 -85.9332 -304.775 -346.268 -101.38C-606.602 102.015 -652.76 477.943 -449.364 738.277Z" stroke="white" stroke-width="8" stroke-linecap="round" stroke-dasharray="26 25"/>
<path opacity="0.55" d="M-522.237 436.827C-485.33 737.408 -211.742 951.158 88.8387 914.251C389.42 877.344 603.17 603.757 566.263 303.176C529.356 2.59492 255.769 -211.155 -44.8122 -174.249C-345.393 -137.342 -559.143 136.246 -522.237 436.827Z" stroke="white" stroke-width="8" stroke-linecap="round" stroke-dasharray="32 11"/>
<path opacity="0.59" d="M-180.744 825.392C70.7617 937.37 365.423 824.26 477.401 572.754C589.378 321.248 476.268 26.5865 224.763 -85.3911C-26.7431 -197.369 -321.405 -84.2588 -433.382 167.247C-545.36 418.753 -432.25 713.414 -180.744 825.392Z" stroke="white" stroke-width="8" stroke-linecap="round" stroke-dasharray="27 36"/>
<path opacity="0.64" d="M-181.671 -29.7429C-402.441 82.7454 -490.222 352.905 -377.733 573.676C-265.245 794.446 4.91456 882.227 225.685 769.738C446.456 657.25 534.236 387.09 421.748 166.32C309.26 -54.4509 39.0998 -142.231 -181.671 -29.7429Z" stroke="white" stroke-width="7" stroke-linecap="round" stroke-dasharray="23 19"/>
<path opacity="0.68" d="M91.2578 762.732C308.158 724.487 452.986 517.65 414.741 300.751C376.495 83.8507 169.659 -60.9775 -47.2407 -22.7322C-264.141 15.5131 -408.969 222.349 -370.723 439.249C-332.478 656.149 -125.642 800.977 91.2578 762.732Z" stroke="white" stroke-width="7" stroke-linecap="round" stroke-dasharray="38 23"/>
<path opacity="0.73" d="M34.193 21.2633C-158.405 14.5377 -319.988 165.217 -326.714 357.815C-333.44 550.412 -182.76 711.996 9.83726 718.722C202.435 725.447 364.019 574.768 370.744 382.17C377.47 189.573 226.791 27.989 34.193 21.2633Z" stroke="white" stroke-width="7" stroke-linecap="round" stroke-dasharray="11 35"/>
<path opacity="0.77" d="M73.9503 664.547C236.625 635.863 345.246 480.736 316.562 318.061C287.878 155.386 132.751 46.7648 -29.9236 75.4488C-192.599 104.133 -301.22 259.26 -272.536 421.935C-243.852 584.61 -88.7247 693.231 73.9503 664.547Z" stroke="white" stroke-width="6" stroke-linecap="round" stroke-dasharray="48 12"/>
<path opacity="0.82" d="M271.095 361.302C266.291 223.732 150.874 116.104 13.3046 120.908C-124.265 125.712 -231.893 241.129 -227.089 378.699C-222.285 516.269 -106.868 623.897 30.7016 619.093C168.271 614.289 275.899 498.872 271.095 361.302Z" stroke="white" stroke-width="6" stroke-linecap="round" stroke-dasharray="33 31"/>
<path opacity="0.86" d="M15.0508 170.729C-95.0051 174.573 -181.107 266.906 -177.264 376.962C-173.421 487.018 -81.0875 573.12 28.9684 569.277C139.024 565.434 225.127 473.1 221.283 363.044C217.44 252.989 125.107 166.886 15.0508 170.729Z" stroke="white" stroke-width="6" stroke-linecap="round" stroke-dasharray="21 23"/>
<path opacity="0.91" d="M-85.5644 266.119C-142.938 325.531 -141.285 420.204 -81.8734 477.578C-22.4615 534.951 72.2117 533.298 129.585 473.887C186.958 414.475 185.306 319.802 125.894 262.428C66.4822 205.055 -28.191 206.707 -85.5644 266.119Z" stroke="white" stroke-width="6" stroke-linecap="round" stroke-dasharray="39 33"/>
<path opacity="0.95" d="M42.7412 467.522C96.5995 456.074 130.98 403.133 119.532 349.275C108.084 295.416 55.1429 261.036 1.28463 272.484C-52.5736 283.932 -86.954 336.873 -75.5061 390.731C-64.0581 444.59 -11.117 478.97 42.7412 467.522Z" stroke="white" stroke-width="5" stroke-linecap="round" stroke-dasharray="38 12"/>
<path d="M-26.7525 380.367C-21.0285 407.296 5.44202 424.487 32.3711 418.763C59.3003 413.039 76.4905 386.568 70.7665 359.639C65.0425 332.71 38.572 315.52 11.6428 321.244C-15.2863 326.968 -32.4765 353.438 -26.7525 380.367Z" stroke="white" stroke-width="5" stroke-linecap="round" stroke-dasharray="36 22"/>
</g>
</g>
<defs>
<linearGradient id="paint0_linear_1593_47676" x1="1079" y1="352" x2="0.00403234" y2="352" gradientUnits="userSpaceOnUse">
<stop stop-color="#BC3B39"/>
<stop offset="1" stop-color="#BC3B39" stop-opacity="0"/>
</linearGradient>
</defs>
</svg>
