<svg width="1728" height="228" viewBox="0 0 1728 228" fill="none" xmlns="http://www.w3.org/2000/svg">
<path fill-rule="evenodd" clip-rule="evenodd" d="M1544.71 70.9424C1613.19 84.3025 1678.44 54.8423 1728 5.73047L1728 228H0V155.796C0 155.722 0.0194092 155.649 0.0562744 155.585C44.464 77.949 126.284 44.1147 209.144 81.5308C275.767 111.615 353.884 140.326 432 122.117C489.6 108.69 547.2 89.8933 604.8 71.0959C691.2 42.9001 777.6 14.7043 864 4.63452C960 -6.5542 1056 4.63452 1152 15.8232C1200 21.4177 1248 27.0122 1296 29.8093C1366.62 33.9246 1436.16 48.4609 1497.18 61.2178C1513.7 64.6702 1529.59 67.9924 1544.71 70.9424Z" fill="#FCFDFC"/>
</svg>
