<svg width="1726" height="151" viewBox="0 0 1726 151" fill="none" xmlns="http://www.w3.org/2000/svg">
<path fill-rule="evenodd" clip-rule="evenodd" d="M1542.71 70.9424C1611.19 84.3025 1676.44 54.8423 1726 5.73047L1726 151H0.752686C45.7224 76.6299 125.933 44.8596 207.145 81.5308C273.767 111.615 351.884 140.326 430 122.117C487.6 108.69 545.2 89.8933 602.8 71.0959C689.2 42.9001 775.6 14.7043 862 4.63452C958 -6.5542 1054 4.63452 1150 15.8232C1198 21.4177 1246 27.0122 1294 29.8093C1364.62 33.9246 1434.16 48.4609 1495.18 61.2178C1511.7 64.6702 1527.59 67.9924 1542.71 70.9424Z" fill="#FEFEFE"/>
</svg>
