<svg width="428" height="1563" viewBox="0 0 428 1563" fill="none" xmlns="http://www.w3.org/2000/svg">
<path fill-rule="evenodd" clip-rule="evenodd" d="M427.877 1.32106C427.877 11.8809 428.154 14.3451 427.877 1.32106C415.604 12.6429 399.449 19.4345 382.491 16.3545C364.913 13.1617 343.126 8.0775 320.908 6.87201C285.251 4.93748 249.595 -2.80065 213.938 1.06841C178.282 4.93748 142.626 20.4138 106.969 28.1519C87.6264 32.3496 68.2837 25.7308 51.787 18.7955C31.2696 10.1699 11.0099 17.9698 0.013916 35.8673C0.00477912 35.8822 -3.05176e-05 35.8989 -3.05176e-05 35.916L0.247589 132C0.247589 132.124 0.110836 329.526 0.247589 329.526H24.1423C41.9705 329.526 77.6269 329.526 113.283 329.526C148.94 329.526 184.596 329.526 220.252 329.526C255.909 329.526 291.565 329.526 327.222 329.526C362.878 329.526 398.534 329.526 416.363 329.526H427.629C427.766 329.526 427.877 329.425 427.877 329.302L427.877 1.32106Z" fill="white"/>
<path d="M1.74623e-10 190.094H427.877V1410.93C427.877 1410.93 357.905 1392.31 311.754 1387.5C230.258 1379 193.555 1404.78 113.584 1421.38C72.8096 1429.84 0 1430 0 1430L1.74623e-10 190.094Z" fill="white"/>
<path fill-rule="evenodd" clip-rule="evenodd" d="M427.877 1352.5C427.877 1333.5 348.058 1369.03 327.9 1389C307.641 1409.07 287.46 1436.51 294.392 1464.17C300.958 1490.38 337.66 1491.46 358.02 1509.22C375.541 1524.5 380.496 1553.35 403.06 1558.95C429.086 1565.41 427.877 1565.5 427.877 1544.5C427.877 1520.5 427.877 1511 427.877 1479C427.877 1450.5 427.877 1462 427.877 1430C427.877 1405 427.877 1387.5 427.877 1352.5Z" fill="white"/>
</svg>
