<svg width="1729" height="1430" viewBox="0 0 1729 1430" fill="none" xmlns="http://www.w3.org/2000/svg">
<path fill-rule="evenodd" clip-rule="evenodd" d="M1728 5.73048C1728 51.5366 1729.12 62.226 1728 5.73048V5.73048C1678.44 54.8422 1613.19 84.3025 1544.71 70.9423C1473.72 57.0926 1385.73 35.0384 1296 29.8093C1152 21.4177 1008 -12.1486 864 4.63455C720 21.4177 576 88.5505 432 122.117C353.884 140.326 275.767 111.615 209.144 81.5308C126.284 44.1147 44.464 77.9491 0.0562744 155.585C0.0193746 155.649 0 155.722 0 155.796V1428.44C0 1428.98 0.447715 1429.41 1 1429.41H97.5C169.5 1429.41 313.5 1429.41 457.5 1429.41C601.5 1429.41 745.5 1429.41 889.5 1429.41C1033.5 1429.41 1177.5 1429.41 1321.5 1429.41C1465.5 1429.41 1609.5 1429.41 1681.5 1429.41H1727C1727.55 1429.41 1728 1428.98 1728 1428.44L1728 5.73048Z" fill="white"/>
</svg>
