<svg width="1728" height="2045" viewBox="0 0 1728 2045" fill="none" xmlns="http://www.w3.org/2000/svg" preserveAspectRatio="none">
<path fill-rule="evenodd" clip-rule="evenodd" d="M1728 5.73053C1678.44 54.8422 1613.2 84.3025 1544.71 70.9423C1529.59 67.9923 1513.7 64.67 1497.18 61.2173C1436.16 48.4607 1366.62 33.9247 1296 29.8094C1248 27.0122 1200 21.4178 1152 15.8234C1056 4.63459 960 -6.55419 864 4.6346C777.6 14.7045 691.2 42.9003 604.8 71.096C547.2 89.8932 489.6 108.69 432 122.117C353.884 140.326 275.767 111.615 209.145 81.5309C126.284 44.1147 44.4644 77.9491 0.0566406 155.585C0.0197449 155.649 0.000366211 155.722 0.000366211 155.796L0 824.586V1448.04C-28.8715 1466.26 -43.0655 1501.74 -57.6967 1538.32C-70.7223 1570.89 -84.0944 1604.32 -108.478 1627.2C-134.26 1651.4 -170.864 1663.76 -206.456 1675.78C-256.991 1692.84 -305.485 1709.22 -318.063 1757.8C-339.891 1842.11 -266.871 1924.06 -199.699 1979.55C-138.343 2030.24 -55.0424 2058.07 22.2291 2038.93C62.691 2028.9 84.0812 1993.71 106.138 1957.43C120.602 1933.64 135.352 1909.37 155.955 1891.42C179.149 1871.21 209.487 1858.28 239.172 1845.63C286.854 1825.31 332.854 1805.71 344.868 1757.8C358.18 1704.72 337.809 1651.93 305.481 1605.14C360.433 1599.79 414.282 1592.51 458.713 1582.6C560.708 1559.86 645.276 1533.15 723.617 1508.4C846.336 1469.64 953.776 1435.7 1088.99 1429.41H1180.45C1205.53 1430.53 1231.65 1432.57 1259.03 1435.63C1445.42 1456.51 1728 1537.3 1728 1537.3V1428.47C1728 1428.46 1728 1428.45 1728 1428.44L1728 5.73053Z" fill="#FCFDFC"/>
</svg>
