<svg width="1728" height="1218" viewBox="0 0 1728 1218" fill="none" xmlns="http://www.w3.org/2000/svg">
<path fill-rule="evenodd" clip-rule="evenodd" d="M-0.000854492 623C81.5035 601.725 185.532 654.6 245.38 713.835C305.529 773.368 365.446 854.746 344.868 936.803C325.373 1014.54 216.403 1017.75 155.955 1070.42C103.933 1115.75 91.2485 1217.93 22.2282 1217.93C-0.000911713 1217.93 1.77879 1216.59 1.77926 1137C1.77966 1068.45 1.77874 1104.09 1.77887 1017C1.77899 936.803 -0.000854492 883.5 -0.000854492 793.5C-0.000854492 727.5 -0.000854492 694 -0.000854492 623Z" fill="white"/>
<path d="M0 0.585938H1728V713.298C1728 713.298 1445.42 632.507 1259.03 611.633C929.907 574.772 781.68 686.589 458.713 758.6C294.045 795.315 0 796 0 796V0.585938Z" fill="white"/>
</svg>
