<svg width="1728" height="600" viewBox="0 0 1728 600" fill="none" xmlns="http://www.w3.org/2000/svg">
<path fill-rule="evenodd" clip-rule="evenodd" d="M0.00012207 70.794H72.0001C144 70.794 288 70.794 432 63.1538C576 55.5136 720 40.2332 864 24.9528C1008 9.67239 1152 -5.60801 1296 2.03219C1440 9.67239 1584 40.2332 1656 55.5136L1728 70.794V300H1656C1584 300 1440 300 1296 300C1152 300 1008 300 864 300C720 300 576 300 432 300C288 300 144 300 72.0001 300H0.00012207V70.794Z" fill="#FDFCFC"/>
<path fill-rule="evenodd" clip-rule="evenodd" d="M1728 529.206H1656C1584 529.206 1440 529.206 1296 536.846C1152 544.486 1008 559.767 864 575.047C720 590.328 576 605.608 432 597.968C288 590.328 144 559.767 71.9999 544.486L-0.00012207 529.206V300H71.9999C144 300 288 300 432 300C576 300 720 300 864 300C1008 300 1152 300 1296 300C1440 300 1584 300 1656 300H1728V529.206Z" fill="#FDFCFC"/>
</svg>
