<svg width="536" height="400" viewBox="0 0 536 400" fill="none" xmlns="http://www.w3.org/2000/svg">
<path fill-rule="evenodd" clip-rule="evenodd" d="M22.3333 47.1956H0V199.998H22.3333H134H268H402H513.666H535.999V47.1956L513.666 37.0088C491.333 26.8219 446.666 6.44821 402 1.35478C357.333 -3.73865 312.666 6.44821 268 16.6351C223.333 26.8219 178.666 37.0088 134 42.1022C89.3332 47.1956 44.6666 47.1956 22.3333 47.1956ZM513.667 352.804H536V200.002H513.667H402H268H134H22.3339H0.00058796V352.804L22.3339 362.991C44.6672 373.178 89.3339 393.552 134 398.645C178.667 403.739 223.334 393.552 268 383.365C312.667 373.178 357.334 362.991 402 357.898C446.667 352.804 491.333 352.804 513.667 352.804Z" fill="#FCFDFC"/>
</svg>
