<svg width="1728" height="300" viewBox="0 0 1728 300" fill="none" xmlns="http://www.w3.org/2000/svg">
<path fill-rule="evenodd" clip-rule="evenodd" d="M1728 229.206H1656C1584 229.206 1440 229.206 1296 236.846C1152 244.486 1008 259.767 864 275.047C720 290.328 576 305.608 432 297.968C288 290.328 144 259.767 71.9999 244.486L-0.00012207 229.206V3.05176e-05H71.9999C144 3.05176e-05 288 3.05176e-05 432 3.05176e-05C576 3.05176e-05 720 3.05176e-05 864 3.05176e-05C1008 3.05176e-05 1152 3.05176e-05 1296 3.05176e-05C1440 3.05176e-05 1584 3.05176e-05 1656 3.05176e-05H1728V229.206Z" fill="#FCFDFC"/>
</svg>
