<svg width="1728" height="142" viewBox="0 0 1728 142" fill="none" xmlns="http://www.w3.org/2000/svg">
<path fill-rule="evenodd" clip-rule="evenodd" d="M0.00012207 70.794H72.0001C144 70.794 288.001 70.794 432 63.1538C576 55.5136 720.001 40.2332 864 24.9528C1008 9.67239 1152 -5.60801 1296 2.03219C1440 9.67239 1584 40.2332 1656 55.5136L1728 70.794V141.5L1642 141.5C1570 141.5 1430 141.5 1286 141.5C1142 141.5 1008 141.5 864 141.5C720.001 141.5 576 141.5 432 141.5C288.001 141.5 144 141.5 72.0001 141.5H0.00012207V70.794Z" fill="#FCFDFC"/>
</svg>
