<svg width="3415" height="2675" viewBox="0 0 3415 2675" fill="none" xmlns="http://www.w3.org/2000/svg">
<path d="M2046.16 713.081C2543.37 897.807 3289.12 1198.54 3342.37 1409.94C3395.61 1621.34 2709.51 1557.45 2301.73 1727.8C1893.95 1898.14 1734.91 2283.37 1385.03 2227.59C1035.16 2171.81 711.777 1815.13 622.349 1460.06C532.921 1104.99 659.152 678.875 955.779 523.254C1252.41 367.633 1548.95 528.355 2046.16 713.081ZM2046.16 713.081C2543.37 897.807 3289.12 1198.54 3342.37 1409.94" stroke="#008340" stroke-opacity="0.08" stroke-width="2"/>
<path d="M2030.77 741.464C2505.37 917.794 3217.23 1204.86 3268.06 1406.65C3318.88 1608.44 2663.96 1547.45 2274.72 1710.06C1885.48 1872.66 1733.66 2240.37 1399.69 2187.13C1065.73 2133.89 757.038 1793.42 671.674 1454.49C586.311 1115.56 706.804 708.813 989.948 560.266C1273.09 411.719 1556.16 565.135 2030.77 741.464ZM2030.77 741.464C2505.37 917.794 3217.23 1204.86 3268.06 1406.65" stroke="#008340" stroke-opacity="0.08" stroke-width="2"/>
<path d="M2015.37 769.846C2467.37 937.779 3145.33 1211.17 3193.74 1403.35C3242.14 1595.54 2618.41 1537.46 2247.7 1692.31C1876.99 1847.17 1732.41 2197.38 1414.34 2146.67C1096.28 2095.96 802.292 1771.71 720.993 1448.92C639.695 1126.13 754.45 738.749 1024.11 597.276C1293.77 455.802 1563.36 601.913 2015.37 769.846ZM2015.37 769.846C2467.37 937.779 3145.33 1211.17 3193.74 1403.35" stroke="#008340" stroke-opacity="0.08" stroke-width="2"/>
<path d="M1999.97 798.231C2429.38 957.767 3073.44 1217.49 3119.42 1400.06C3165.41 1582.64 2572.86 1527.46 2220.69 1674.58C1868.52 1821.69 1731.16 2154.39 1429 2106.21C1126.84 2058.04 847.55 1750 770.316 1443.35C693.083 1136.7 802.101 768.689 1058.28 634.289C1314.46 499.889 1570.57 638.694 1999.97 798.231ZM1999.97 798.231C2429.38 957.767 3073.44 1217.49 3119.42 1400.06" stroke="#008340" stroke-opacity="0.08" stroke-width="2"/>
<path d="M1984.58 826.614C2391.38 977.754 3001.55 1223.81 3045.11 1396.77C3088.67 1569.73 2527.31 1517.46 2193.68 1656.83C1860.04 1796.21 1729.91 2111.39 1443.66 2065.76C1157.4 2020.12 892.808 1728.29 819.64 1437.78C746.471 1147.27 849.751 798.627 1092.45 671.301C1335.14 543.975 1577.77 675.474 1984.58 826.614ZM1984.58 826.614C2391.38 977.754 3001.55 1223.81 3045.11 1396.77" stroke="#008340" stroke-opacity="0.08" stroke-width="2"/>
<path d="M1969.18 854.997C2353.39 997.741 2929.65 1230.13 2970.8 1393.48C3011.94 1556.83 2481.77 1507.47 2166.66 1639.09C1851.56 1770.72 1728.67 2068.4 1458.31 2025.3C1187.96 1982.2 938.067 1706.58 868.963 1432.21C799.859 1157.84 897.402 828.565 1126.61 708.313C1355.83 588.06 1584.98 712.254 1969.18 854.997ZM1969.18 854.997C2353.39 997.741 2929.65 1230.13 2970.8 1393.48" stroke="#008340" stroke-opacity="0.08" stroke-width="2"/>
<path d="M1953.79 883.384C2315.4 1017.73 2857.77 1236.45 2896.49 1390.19C2935.21 1543.94 2436.22 1497.47 2139.66 1621.36C1843.09 1745.24 1727.42 2025.41 1472.97 1984.84C1218.52 1944.28 983.331 1684.88 918.292 1426.64C853.254 1168.41 945.058 858.507 1160.79 745.328C1376.52 632.149 1592.19 749.038 1953.79 883.384ZM1953.79 883.384C2315.4 1017.73 2857.77 1236.45 2896.49 1390.19" stroke="#008340" stroke-opacity="0.08" stroke-width="2"/>
<path d="M1938.4 911.77C2277.4 1037.72 2785.87 1242.77 2822.17 1386.9C2858.48 1531.04 2390.68 1487.48 2112.65 1603.62C1834.62 1719.76 1726.18 1982.42 1487.63 1944.39C1249.08 1906.36 1028.59 1663.17 967.616 1421.07C906.642 1178.98 992.708 888.447 1194.95 782.342C1397.2 676.237 1599.39 785.82 1938.4 911.77ZM1938.4 911.77C2277.4 1037.72 2785.87 1242.77 2822.17 1386.9" stroke="#008340" stroke-opacity="0.08" stroke-width="2"/>
<path d="M1923 940.153C2239.4 1057.71 2713.98 1249.08 2747.86 1383.61C2781.74 1518.14 2345.13 1477.48 2085.63 1585.88C1826.14 1694.28 1724.93 1939.43 1502.28 1903.93C1279.64 1868.44 1073.85 1641.46 1016.94 1415.5C960.028 1189.55 1040.36 918.385 1229.12 819.354C1417.88 720.322 1606.59 822.6 1923 940.153ZM1923 940.153C2239.4 1057.71 2713.98 1249.08 2747.86 1383.61" stroke="#008340" stroke-opacity="0.08" stroke-width="2"/>
<path d="M1907.61 968.536C2201.41 1077.69 2642.08 1255.4 2673.55 1380.32C2705.01 1505.23 2299.58 1467.48 2058.62 1568.14C1817.66 1668.8 1723.68 1896.43 1516.94 1863.47C1310.2 1830.51 1119.11 1619.75 1066.26 1409.93C1013.42 1200.12 1088.01 948.323 1263.29 856.365C1438.57 764.408 1613.8 859.38 1907.61 968.536ZM1907.61 968.536C2201.41 1077.69 2642.08 1255.4 2673.55 1380.32" stroke="#008340" stroke-opacity="0.08" stroke-width="2"/>
<path d="M1892.21 996.919C2163.41 1097.68 2570.19 1261.72 2599.23 1377.02C2628.27 1492.33 2254.03 1457.49 2031.61 1550.4C1809.19 1643.31 1722.43 1853.44 1531.6 1823.01C1340.76 1792.59 1164.36 1598.04 1115.59 1404.36C1066.81 1210.69 1135.66 978.261 1297.46 893.377C1459.25 808.493 1621.01 896.159 1892.21 996.919ZM1892.21 996.919C2163.41 1097.68 2570.19 1261.72 2599.23 1377.02" stroke="#008340" stroke-opacity="0.08" stroke-width="2"/>
<path d="M1876.82 1025.3C2125.42 1117.67 2498.3 1268.03 2524.92 1373.73C2551.54 1479.43 2208.49 1447.49 2004.6 1532.66C1800.71 1617.83 1721.19 1810.45 1546.25 1782.56C1371.32 1754.67 1209.62 1576.33 1164.91 1398.79C1120.2 1221.26 1183.31 1008.2 1331.63 930.391C1479.94 852.58 1628.21 932.941 1876.82 1025.3ZM1876.82 1025.3C2125.42 1117.67 2498.3 1268.03 2524.92 1373.73" stroke="#008340" stroke-opacity="0.08" stroke-width="2"/>
<path d="M1861.42 1053.68C2087.42 1137.65 2426.4 1274.35 2450.61 1370.44C2474.81 1466.53 2162.94 1437.49 1977.59 1514.92C1792.23 1592.35 1719.94 1767.45 1560.91 1742.1C1401.88 1716.74 1254.88 1554.62 1214.23 1393.22C1173.58 1231.83 1230.96 1038.14 1365.79 967.399C1500.62 896.662 1635.42 969.717 1861.42 1053.68ZM1861.42 1053.68C2087.42 1137.65 2426.4 1274.35 2450.61 1370.44" stroke="#008340" stroke-opacity="0.08" stroke-width="2"/>
<path d="M1846.03 1082.07C2049.43 1157.64 2354.51 1280.67 2376.29 1367.15C2398.07 1453.63 2117.39 1427.5 1950.58 1497.18C1783.76 1566.87 1718.69 1724.46 1575.56 1701.64C1432.44 1678.82 1300.14 1532.91 1263.56 1387.65C1226.97 1242.4 1278.61 1068.08 1399.96 1004.41C1521.31 940.751 1642.62 1006.5 1846.03 1082.07ZM1846.03 1082.07C2049.43 1157.64 2354.51 1280.67 2376.29 1367.15" stroke="#008340" stroke-opacity="0.08" stroke-width="2"/>
<path d="M2301.98 1363.86C2321.34 1440.73 2071.85 1417.5 1923.56 1479.44C1775.28 1541.38 1717.45 1681.47 1590.22 1661.18C1462.99 1640.9 1345.4 1511.2 1312.88 1382.08C1280.36 1252.97 1326.26 1098.02 1434.13 1041.43C1541.99 984.837 1649.83 1043.28 1830.63 1110.45" stroke="#008340" stroke-opacity="0.08" stroke-width="2"/>
<path d="M1815.23 1138.84C1973.43 1197.61 2210.72 1293.3 2227.66 1360.57C2244.6 1427.83 2026.29 1407.5 1896.54 1461.7C1766.8 1515.9 1716.19 1638.47 1604.87 1620.73C1493.55 1602.98 1390.65 1489.49 1362.2 1376.51C1333.74 1263.54 1373.91 1127.95 1468.29 1078.44C1562.67 1028.92 1657.03 1080.06 1815.23 1138.84ZM1815.23 1138.84C1973.43 1197.61 2210.72 1293.3 2227.66 1360.57" stroke="#008340" stroke-opacity="0.08" stroke-width="2"/>
<path d="M1799.84 1167.22C1935.44 1217.6 2138.83 1299.62 2153.35 1357.27C2167.87 1414.93 1980.75 1397.5 1869.54 1443.96C1758.32 1490.42 1714.95 1595.48 1619.53 1580.27C1524.11 1565.06 1435.91 1467.78 1411.52 1370.94C1387.14 1274.11 1421.56 1157.89 1502.46 1115.45C1583.36 1073.01 1664.24 1116.84 1799.84 1167.22ZM1799.84 1167.22C1935.44 1217.6 2138.83 1299.62 2153.35 1357.27" stroke="#008340" stroke-opacity="0.08" stroke-width="2"/>
<path d="M1784.45 1195.61C1897.45 1237.59 2066.94 1305.94 2079.04 1353.98C2091.14 1402.03 1935.21 1387.51 1842.53 1426.22C1749.85 1464.94 1713.71 1552.49 1634.19 1539.81C1554.68 1527.14 1481.18 1446.07 1460.85 1365.38C1440.53 1284.68 1469.22 1187.83 1536.63 1152.46C1604.05 1117.1 1671.45 1153.62 1784.45 1195.61ZM1784.45 1195.61C1897.45 1237.59 2066.94 1305.94 2079.04 1353.98" stroke="#008340" stroke-opacity="0.08" stroke-width="2"/>
<path d="M1769.05 1223.99C1859.45 1257.58 1995.05 1312.26 2004.73 1350.69C2014.41 1389.13 1889.66 1377.51 1815.52 1408.49C1741.38 1439.46 1712.46 1509.5 1648.85 1499.36C1585.23 1489.22 1526.44 1424.37 1510.18 1359.81C1493.92 1295.25 1516.87 1217.77 1570.8 1189.48C1624.73 1161.18 1678.65 1190.41 1769.05 1223.99ZM1769.05 1223.99C1859.45 1257.58 1995.05 1312.26 2004.73 1350.69" stroke="#008340" stroke-opacity="0.08" stroke-width="2"/>
<path d="M1753.66 1252.37C1821.46 1277.56 1923.15 1318.57 1930.41 1347.4C1937.67 1376.23 1844.11 1367.52 1788.51 1390.74C1732.9 1413.97 1711.21 1466.5 1663.5 1458.9C1615.79 1451.29 1571.69 1402.65 1559.5 1354.23C1547.31 1305.82 1564.52 1247.71 1604.97 1226.49C1645.42 1205.27 1685.86 1227.18 1753.66 1252.37ZM1753.66 1252.37C1821.46 1277.56 1923.15 1318.57 1930.41 1347.4" stroke="#008340" stroke-opacity="0.08" stroke-width="2"/>
<path d="M1738.26 1280.76C1783.46 1297.55 1851.26 1324.89 1856.1 1344.11C1860.94 1363.33 1798.56 1357.52 1761.49 1373.01C1724.42 1388.49 1709.96 1423.51 1678.16 1418.44C1646.35 1413.37 1616.95 1380.95 1608.82 1348.67C1600.69 1316.39 1612.17 1277.65 1639.14 1263.5C1666.1 1249.35 1693.06 1263.97 1738.26 1280.76ZM1738.26 1280.76C1783.46 1297.55 1851.26 1324.89 1856.1 1344.11" stroke="#008340" stroke-opacity="0.08" stroke-width="2"/>
<path d="M1722.87 1309.14C1745.47 1317.54 1779.36 1331.21 1781.78 1340.82C1784.2 1350.42 1753.02 1347.52 1734.48 1355.26C1715.95 1363.01 1708.72 1380.52 1692.81 1377.98C1676.91 1375.45 1662.21 1359.23 1658.15 1343.09C1654.08 1326.95 1659.82 1307.59 1673.3 1300.51C1686.79 1293.44 1700.27 1300.74 1722.87 1309.14ZM1722.87 1309.14C1745.47 1317.54 1779.36 1331.21 1781.78 1340.82" stroke="#008340" stroke-opacity="0.08" stroke-width="2"/>
</svg>
