<svg width="1728" height="183" viewBox="0 0 1728 183" fill="none" xmlns="http://www.w3.org/2000/svg">
<path fill-rule="evenodd" clip-rule="evenodd" d="M72 47.1818L0 29.9091V86V183H1728V86V0H1727.17L1656 42.6818C1589.86 82.3521 1477.52 82.087 1348.04 81.7816C1336.58 81.7546 1324.98 81.7272 1313.27 81.7272C1225.59 81.7272 1131.51 72.1214 1038.82 62.658L1038.82 62.6578L1038.81 62.6576C979.277 56.5792 920.318 50.5594 864 47.1818C748.8 40.2727 633.599 55.4727 518.399 70.6727C489.599 74.4727 460.8 78.2727 432 81.7272C413.165 83.9865 394.33 85.3592 375.657 86H323.698C219.641 82.6007 125.754 60.0774 72 47.1818Z" fill="#F4F8FB"/>
</svg>
