<svg width="3539" height="3551" viewBox="0 0 3539 3551" fill="none" xmlns="http://www.w3.org/2000/svg">
<path d="M2120.11 946.398C2635.33 1191.65 3408.11 1590.91 3463.28 1871.58C3518.46 2152.24 2807.49 2067.42 2384.94 2293.57C1962.39 2519.73 1797.58 3031.17 1435.03 2957.12C1072.48 2883.06 737.379 2409.52 644.71 1938.12C552.042 1466.71 682.847 900.984 990.222 694.376C1297.6 487.768 1604.89 701.148 2120.11 946.398ZM2120.11 946.398C2635.33 1191.65 3408.11 1590.91 3463.28 1871.58" stroke="#BC3B39" stroke-opacity="0.04" stroke-width="2"/>
<path d="M2104.16 984.08C2595.96 1218.18 3333.62 1599.3 3386.28 1867.2C3438.95 2135.11 2760.3 2054.14 2356.95 2270.02C1953.6 2485.89 1796.29 2974.09 1450.22 2903.4C1104.15 2832.72 784.28 2380.7 695.824 1930.72C607.367 1480.75 732.226 940.73 1025.63 743.513C1319.03 546.296 1612.36 749.977 2104.16 984.08ZM2104.16 984.08C2595.96 1218.18 3333.62 1599.3 3386.28 1867.2" stroke="#BC3B39" stroke-opacity="0.04" stroke-width="2"/>
<path d="M2088.2 1021.76C2556.59 1244.72 3259.11 1607.69 3309.27 1862.83C3359.43 2117.98 2713.09 2040.87 2328.96 2246.47C1944.82 2452.06 1794.99 2917.01 1465.4 2849.69C1135.81 2782.37 831.174 2351.87 746.93 1923.33C662.686 1494.78 781.599 980.476 1061.03 792.651C1340.46 604.825 1619.82 798.807 2088.2 1021.76ZM2088.2 1021.76C2556.59 1244.72 3259.11 1607.69 3309.27 1862.83" stroke="#BC3B39" stroke-opacity="0.04" stroke-width="2"/>
<path d="M2072.25 1059.45C2517.21 1271.25 3184.61 1616.07 3232.26 1858.46C3279.91 2100.85 2665.9 2027.6 2300.96 2222.92C1936.03 2418.23 1793.7 2859.93 1480.59 2795.98C1167.48 2732.02 878.072 2323.05 798.04 1915.93C718.008 1508.81 830.976 1020.23 1096.44 841.791C1361.9 663.357 1627.29 847.639 2072.25 1059.45ZM2072.25 1059.45C2517.21 1271.25 3184.61 1616.07 3232.26 1858.46" stroke="#BC3B39" stroke-opacity="0.04" stroke-width="2"/>
<path d="M2056.3 1097.13C2477.84 1297.79 3110.11 1624.46 3155.26 1854.09C3200.4 2083.72 2618.7 2014.33 2272.97 2199.36C1927.25 2384.4 1792.41 2802.85 1495.78 2742.26C1199.15 2681.67 924.969 2294.23 849.149 1908.54C773.329 1522.84 880.352 1059.97 1131.84 890.928C1383.33 721.885 1634.75 896.469 2056.3 1097.13ZM2056.3 1097.13C2477.84 1297.79 3110.11 1624.46 3155.26 1854.09" stroke="#BC3B39" stroke-opacity="0.04" stroke-width="2"/>
<path d="M2040.34 1134.81C2438.47 1324.32 3035.62 1632.85 3078.25 1849.72C3120.88 2066.59 2571.5 2001.05 2244.98 2175.81C1918.46 2350.56 1791.11 2745.77 1510.96 2688.55C1230.81 2631.32 971.867 2265.41 900.26 1901.14C828.652 1536.87 929.729 1099.72 1167.25 940.066C1404.76 780.414 1642.22 945.299 2040.34 1134.81ZM2040.34 1134.81C2438.47 1324.32 3035.62 1632.85 3078.25 1849.72" stroke="#BC3B39" stroke-opacity="0.04" stroke-width="2"/>
<path d="M2024.4 1172.5C2399.1 1350.86 2961.12 1641.24 3001.25 1845.36C3041.37 2049.47 2524.31 1987.79 2217 2152.26C1909.69 2316.74 1789.83 2688.7 1526.16 2634.84C1262.48 2580.98 1018.77 2236.59 951.377 1893.75C883.982 1550.91 979.113 1139.47 1202.66 989.211C1426.2 838.951 1649.69 994.136 2024.4 1172.5ZM2024.4 1172.5C2399.1 1350.86 2961.12 1641.24 3001.25 1845.36" stroke="#BC3B39" stroke-opacity="0.04" stroke-width="2"/>
<path d="M2008.44 1210.18C2359.73 1377.4 2886.63 1649.63 2924.24 1840.99C2961.86 2032.35 2477.11 1974.52 2189.01 2128.71C1900.9 2282.91 1788.53 2631.62 1541.34 2581.13C1294.15 2530.64 1065.67 2207.77 1002.49 1886.36C939.304 1564.95 1028.49 1179.22 1238.06 1038.35C1447.64 897.482 1657.16 1042.97 2008.44 1210.18ZM2008.44 1210.18C2359.73 1377.4 2886.63 1649.63 2924.24 1840.99" stroke="#BC3B39" stroke-opacity="0.04" stroke-width="2"/>
<path d="M1992.49 1247.87C2320.35 1403.94 2812.12 1658.01 2847.23 1836.62C2882.34 2015.22 2429.91 1961.24 2161.01 2105.16C1892.12 2249.08 1787.24 2574.54 1556.53 2527.42C1325.81 2480.29 1112.57 2178.95 1053.59 1878.96C994.624 1578.98 1077.86 1218.97 1273.47 1087.49C1469.07 956.011 1664.62 1091.8 1992.49 1247.87ZM1992.49 1247.87C2320.35 1403.94 2812.12 1658.01 2847.23 1836.62" stroke="#BC3B39" stroke-opacity="0.04" stroke-width="2"/>
<path d="M1976.54 1285.55C2280.99 1430.47 2737.63 1666.4 2770.23 1832.24C2802.83 1998.09 2382.72 1947.97 2133.03 2081.61C1883.34 2215.24 1785.95 2517.46 1571.72 2473.7C1357.48 2429.94 1159.47 2150.12 1104.71 1871.57C1049.95 1593.01 1127.24 1258.71 1308.88 1136.63C1490.51 1014.54 1672.09 1140.63 1976.54 1285.55ZM1976.54 1285.55C2280.99 1430.47 2737.63 1666.4 2770.23 1832.24" stroke="#BC3B39" stroke-opacity="0.04" stroke-width="2"/>
<path d="M1960.58 1323.23C2241.61 1457 2663.13 1674.79 2693.22 1827.87C2723.32 1980.96 2335.52 1934.7 2105.03 2058.05C1874.55 2181.41 1784.66 2460.38 1586.9 2419.99C1389.15 2379.6 1206.36 2121.3 1155.82 1864.17C1105.27 1607.04 1176.62 1298.46 1344.28 1185.77C1511.94 1073.07 1679.55 1189.46 1960.58 1323.23ZM1960.58 1323.23C2241.61 1457 2663.13 1674.79 2693.22 1827.87" stroke="#BC3B39" stroke-opacity="0.04" stroke-width="2"/>
<path d="M1944.63 1360.92C2202.24 1483.54 2588.63 1683.18 2616.22 1823.51C2643.8 1963.84 2288.32 1921.43 2077.04 2034.5C1865.77 2147.58 1783.36 2403.3 1602.09 2366.28C1420.82 2329.25 1253.26 2092.48 1206.93 1856.78C1160.6 1621.08 1226 1338.21 1379.69 1234.91C1533.37 1131.6 1687.02 1238.29 1944.63 1360.92ZM1944.63 1360.92C2202.24 1483.54 2588.63 1683.18 2616.22 1823.51" stroke="#BC3B39" stroke-opacity="0.04" stroke-width="2"/>
<path d="M1928.68 1398.6C2162.87 1510.07 2514.13 1691.56 2539.21 1819.13C2564.29 1946.71 2241.12 1908.15 2049.05 2010.95C1856.98 2113.75 1782.07 2346.22 1617.28 2312.56C1452.48 2278.9 1300.16 2063.65 1258.04 1849.38C1215.92 1635.1 1275.37 1377.95 1415.09 1284.04C1554.81 1190.13 1694.48 1287.12 1928.68 1398.6ZM1928.68 1398.6C2162.87 1510.07 2514.13 1691.56 2539.21 1819.13" stroke="#BC3B39" stroke-opacity="0.04" stroke-width="2"/>
<path d="M1912.72 1436.28C2123.5 1536.61 2439.63 1699.95 2462.2 1814.76C2484.77 1929.58 2193.92 1894.88 2021.06 1987.4C1848.2 2079.92 1780.78 2289.14 1632.46 2258.85C1484.15 2228.55 1347.06 2034.83 1309.15 1841.99C1271.24 1649.14 1324.75 1417.7 1450.5 1333.18C1576.24 1248.66 1701.95 1335.95 1912.72 1436.28ZM1912.72 1436.28C2123.5 1536.61 2439.63 1699.95 2462.2 1814.76" stroke="#BC3B39" stroke-opacity="0.04" stroke-width="2"/>
<path d="M2385.2 1810.39C2405.26 1912.45 2146.73 1881.61 1993.07 1963.85C1839.42 2046.09 1779.49 2232.06 1647.65 2205.14C1515.82 2178.21 1393.96 2006.01 1360.26 1834.59C1326.56 1663.17 1374.13 1457.45 1485.9 1382.32C1597.67 1307.19 1709.42 1384.78 1896.77 1473.97" stroke="#BC3B39" stroke-opacity="0.04" stroke-width="2"/>
<path d="M1880.81 1511.65C2044.75 1589.68 2290.63 1716.72 2308.19 1806.02C2325.74 1895.33 2099.53 1868.34 1965.08 1940.3C1830.63 2012.25 1778.19 2174.99 1662.83 2151.42C1547.48 2127.86 1440.85 1977.19 1411.37 1827.2C1381.88 1677.2 1423.5 1497.2 1521.3 1431.46C1619.1 1365.72 1716.88 1433.61 1880.81 1511.65ZM1880.81 1511.65C2044.75 1589.68 2290.63 1716.72 2308.19 1806.02" stroke="#BC3B39" stroke-opacity="0.04" stroke-width="2"/>
<path d="M1864.86 1549.33C2005.38 1616.22 2216.14 1725.11 2231.18 1801.65C2246.23 1878.2 2052.33 1855.06 1937.09 1916.74C1821.85 1978.42 1776.9 2117.91 1678.02 2097.71C1579.15 2077.51 1487.75 1948.36 1462.48 1819.8C1437.21 1691.24 1472.88 1536.95 1556.71 1480.6C1640.54 1424.25 1724.35 1482.44 1864.86 1549.33ZM1864.86 1549.33C2005.38 1616.22 2216.14 1725.11 2231.18 1801.65" stroke="#BC3B39" stroke-opacity="0.04" stroke-width="2"/>
<path d="M1848.92 1587.02C1966.01 1642.76 2141.64 1733.5 2154.18 1797.29C2166.72 1861.07 2005.14 1841.8 1909.1 1893.19C1813.07 1944.59 1775.61 2060.83 1693.22 2044C1610.82 2027.17 1534.66 1919.55 1513.6 1812.41C1492.54 1705.27 1522.26 1576.7 1592.12 1529.74C1661.98 1482.78 1731.82 1531.28 1848.92 1587.02ZM1848.92 1587.02C1966.01 1642.76 2141.64 1733.5 2154.18 1797.29" stroke="#BC3B39" stroke-opacity="0.04" stroke-width="2"/>
<path d="M1832.96 1624.7C1926.64 1669.3 2067.14 1741.89 2077.17 1792.92C2087.21 1843.95 1957.94 1828.53 1881.11 1869.65C1804.28 1910.76 1774.32 2003.75 1708.4 1990.29C1642.48 1976.83 1581.55 1890.73 1564.71 1805.02C1547.86 1719.31 1571.64 1616.45 1627.53 1578.88C1683.41 1541.32 1739.28 1580.11 1832.96 1624.7ZM1832.96 1624.7C1926.64 1669.3 2067.14 1741.89 2077.17 1792.92" stroke="#BC3B39" stroke-opacity="0.04" stroke-width="2"/>
<path d="M1817.01 1662.38C1887.27 1695.83 1992.64 1750.27 2000.17 1788.54C2007.69 1826.82 1910.74 1815.25 1853.12 1846.09C1795.5 1876.93 1773.03 1946.67 1723.59 1936.57C1674.15 1926.47 1628.45 1861.9 1615.82 1797.62C1603.18 1733.33 1621.02 1656.19 1662.93 1628.02C1704.85 1599.84 1746.75 1628.94 1817.01 1662.38ZM1817.01 1662.38C1887.27 1695.83 1992.64 1750.27 2000.17 1788.54" stroke="#BC3B39" stroke-opacity="0.04" stroke-width="2"/>
<path d="M1801.06 1700.07C1847.89 1722.36 1918.15 1758.66 1923.16 1784.17C1928.18 1809.69 1863.54 1801.98 1825.13 1822.54C1786.72 1843.1 1771.73 1889.59 1738.78 1882.86C1705.82 1876.13 1675.35 1833.08 1666.93 1790.22C1658.5 1747.37 1670.39 1695.94 1698.34 1677.16C1726.28 1658.37 1754.22 1677.77 1801.06 1700.07ZM1801.06 1700.07C1847.89 1722.36 1918.15 1758.66 1923.16 1784.17" stroke="#BC3B39" stroke-opacity="0.04" stroke-width="2"/>
<path d="M1785.1 1737.75C1808.52 1748.9 1843.65 1767.05 1846.16 1779.8C1848.66 1792.56 1816.35 1788.7 1797.14 1798.98C1777.93 1809.26 1770.44 1832.51 1753.96 1829.15C1737.48 1825.78 1722.25 1804.26 1718.04 1782.83C1713.83 1761.4 1719.77 1735.69 1733.74 1726.29C1747.71 1716.9 1761.68 1726.6 1785.1 1737.75ZM1785.1 1737.75C1808.52 1748.9 1843.65 1767.05 1846.16 1779.8" stroke="#BC3B39" stroke-opacity="0.04" stroke-width="2"/>
</svg>
