<svg width="34" height="14" viewBox="0 0 34 14" fill="none" xmlns="http://www.w3.org/2000/svg">
<path fill-rule="evenodd" clip-rule="evenodd" d="M27.7832 0.576134C27.588 0.380872 27.2714 0.380872 27.0761 0.576134C26.8809 0.771396 26.8809 1.08798 27.0761 1.28324L32.2929 6.5L1 6.5C0.723858 6.5 0.5 6.72386 0.5 7C0.5 7.27614 0.723858 7.5 1 7.5L32.2923 7.5L27.0761 12.7161C26.8809 12.9114 26.8809 13.228 27.0761 13.4232C27.2714 13.6185 27.588 13.6185 27.7832 13.4232L33.8532 7.35324C33.947 7.25947 33.9997 7.1323 33.9997 6.99969C33.9997 6.86708 33.947 6.7399 33.8532 6.64613L27.7832 0.576134Z" fill="white"/>
</svg>
