<svg width="741" height="560" viewBox="0 0 741 560" fill="none" xmlns="http://www.w3.org/2000/svg">
<path fill-rule="evenodd" clip-rule="evenodd" d="M345.75 22.9516C413.541 23.8871 487.101 -17.3646 544.048 16.5639C601.126 50.5702 590.12 129.754 619.702 186.169C656.35 256.057 761.123 311.124 737.594 385.66C714.264 459.565 598.039 459.616 522.838 493.021C463.951 519.179 410.952 563.942 345.75 559.722C282.18 555.606 239.913 502.315 185.849 471.206C126.081 436.815 42.4583 426.922 12.6571 368.057C-17.718 308.057 13.2122 238.234 36.1372 175.484C58.8228 113.389 80.4198 41.9064 143.092 11.0306C204.293 -19.1207 276.37 21.9941 345.75 22.9516Z" fill="#C4C4C4"/>
</svg>
