<svg width="1729" height="565" viewBox="0 0 1729 565" fill="none" xmlns="http://www.w3.org/2000/svg">
<path fill-rule="evenodd" clip-rule="evenodd" d="M1585.81 55.5522C1628.54 28.6567 1678.7 5.77466 1728.36 0L1728.36 518.762C1728.36 518.762 1668.63 524.341 1586.67 527.304H1577.53C1493.46 530.092 1388.2 529.932 1300.05 518.458C1126.91 495.921 996.366 515.111 859.38 535.248C760.048 549.85 657.327 564.95 532.52 565H531.278C522.317 564.996 513.243 564.915 504.048 564.75C305.145 561.189 0.00384521 518.458 0.00384521 518.458L0.00372314 423H1539.44C1529.45 403.06 1516.26 384.428 1503.25 366.036C1475.94 327.437 1449.38 289.892 1454.58 243.516C1463.42 164.58 1518.56 97.8867 1585.81 55.5522ZM1404.36 527.32V527.304H1404L1404.36 527.32Z" fill="#F4F8FB"/>
</svg>
