<svg width="1728" height="566" viewBox="0 0 1728 566" fill="none" xmlns="http://www.w3.org/2000/svg">
<path fill-rule="evenodd" clip-rule="evenodd" d="M1728 373H0.00366211L0.00385913 519.458C0.00385913 519.458 305.145 562.189 504.048 565.751C513.243 565.915 522.317 565.996 531.278 566C531.692 566 532.106 566 532.519 566C657.327 565.95 760.048 550.85 859.38 536.248C996.366 516.111 1126.91 496.921 1300.05 519.458C1478.84 542.73 1728 519.458 1728 519.458L1728 373Z" fill="#FFFFFF"/>
<path fill-rule="evenodd" clip-rule="evenodd" d="M1727.44 0C1677.78 5.7749 1627.62 28.6567 1584.89 55.5519C1517.64 97.8864 1462.5 164.579 1453.66 243.516C1448.46 289.892 1475.02 327.436 1502.33 366.036C1517.26 387.137 1532.41 408.553 1542.72 431.899C1555.41 460.641 1561.5 493.863 1567.51 526.578C1567.59 527.019 1567.67 527.459 1567.75 527.899C1658.81 525.172 1727.44 518.762 1727.44 518.762L1727.44 0Z" fill="#F4F8FB"/>
</svg>
