<svg width="1728" height="585" viewBox="0 0 1728 585" fill="none" xmlns="http://www.w3.org/2000/svg">
<path fill-rule="evenodd" clip-rule="evenodd" d="M0 585H6.21991e-05L6.86645e-05 528L72.0001 540.367C144 552.733 288 577.465 432 583.648C447.061 584.294 462.122 584.738 477.182 585H546.484C652.322 583.276 758.161 574.187 864 565.098L864.111 565.089L864.112 565.088C1008.07 552.727 1152.04 540.365 1296 534.183C1440 528 1584 528 1656 528H1728L1728 427H0V585Z" fill="white"/>
<mask id="path-2-inside-1_1_12" fill="white">
<path fill-rule="evenodd" clip-rule="evenodd" d="M1585.68 55.5519C1628.33 28.6567 1678.42 5.77491 1728 0L1728 518.762C1728 518.762 1727.85 518.776 1727.56 518.803V528H1571.81V527.8C1570.73 527.834 1569.65 527.867 1568.56 527.899L1568.32 526.578C1562.33 493.863 1556.25 460.641 1543.58 431.899C1533.28 408.553 1518.16 387.137 1503.25 366.036C1475.99 327.436 1449.47 289.892 1454.65 243.516C1463.49 164.579 1518.53 97.8864 1585.68 55.5519Z"/>
</mask>
<path fill-rule="evenodd" clip-rule="evenodd" d="M1585.68 55.5519C1628.33 28.6567 1678.42 5.77491 1728 0L1728 518.762C1728 518.762 1727.85 518.776 1727.56 518.803V528H1571.81V527.8C1570.73 527.834 1569.65 527.867 1568.56 527.899L1568.32 526.578C1562.33 493.863 1556.25 460.641 1543.58 431.899C1533.28 408.553 1518.16 387.137 1503.25 366.036C1475.99 327.436 1449.47 289.892 1454.65 243.516C1463.49 164.579 1518.53 97.8864 1585.68 55.5519Z" fill="#F4F8FB"/>
<path d="M1728 0L1729 -2.05897e-06L1729 -1.12324L1727.88 -0.993285L1728 0ZM1585.68 55.5519L1585.14 54.706L1585.14 54.706L1585.68 55.5519ZM1728 518.762L1728.09 519.757L1729 519.673L1729 518.762L1728 518.762ZM1727.56 518.803L1727.47 517.807L1726.56 517.89V518.803H1727.56ZM1727.56 528V529H1728.56V528H1727.56ZM1571.81 528H1570.81V529H1571.81V528ZM1571.81 527.8H1572.81V526.768L1571.78 526.801L1571.81 527.8ZM1568.56 527.899L1567.58 528.079L1567.73 528.925L1568.59 528.899L1568.56 527.899ZM1568.32 526.578L1567.34 526.759L1567.34 526.759L1568.32 526.578ZM1543.58 431.899L1542.66 432.302L1542.66 432.302L1543.58 431.899ZM1503.25 366.036L1502.43 366.613L1502.43 366.613L1503.25 366.036ZM1454.65 243.516L1455.65 243.627L1455.65 243.627L1454.65 243.516ZM1727.88 -0.993285C1678.1 4.80568 1627.87 27.7696 1585.14 54.706L1586.21 56.3978C1628.8 29.5438 1678.74 6.74413 1728.11 0.993285L1727.88 -0.993285ZM1729 518.762L1729 -2.05897e-06L1727 2.05897e-06L1727 518.762L1729 518.762ZM1727.65 519.798C1727.79 519.785 1727.91 519.775 1727.98 519.768C1728.02 519.764 1728.05 519.762 1728.06 519.76C1728.07 519.759 1728.08 519.758 1728.09 519.758C1728.09 519.758 1728.09 519.758 1728.09 519.758C1728.09 519.757 1728.09 519.757 1728.09 519.757C1728.09 519.757 1728.09 519.757 1728.09 519.757C1728.09 519.757 1728.09 519.757 1728.09 519.757C1728.09 519.757 1728.09 519.757 1728.09 519.757C1728.09 519.757 1728.09 519.757 1728.09 519.757C1728.09 519.757 1728.09 519.757 1728 518.762C1727.91 517.766 1727.91 517.766 1727.91 517.766C1727.91 517.766 1727.91 517.766 1727.91 517.766C1727.91 517.766 1727.91 517.766 1727.91 517.766C1727.91 517.766 1727.91 517.766 1727.91 517.766C1727.91 517.766 1727.91 517.766 1727.91 517.766C1727.91 517.766 1727.91 517.766 1727.91 517.766C1727.9 517.766 1727.9 517.766 1727.9 517.767C1727.9 517.767 1727.89 517.768 1727.88 517.769C1727.86 517.77 1727.83 517.773 1727.8 517.776C1727.72 517.783 1727.61 517.793 1727.47 517.807L1727.65 519.798ZM1726.56 518.803V528H1728.56V518.803H1726.56ZM1727.56 527H1571.81V529H1727.56V527ZM1572.81 528V527.8H1570.81V528H1572.81ZM1568.59 528.899C1569.68 528.866 1570.76 528.833 1571.84 528.8L1571.78 526.801C1570.7 526.834 1569.62 526.867 1568.53 526.9L1568.59 528.899ZM1567.34 526.759L1567.58 528.079L1569.55 527.719L1569.3 526.398L1567.34 526.759ZM1542.66 432.302C1555.27 460.917 1561.34 494.017 1567.34 526.759L1569.3 526.398C1563.32 493.709 1557.22 460.365 1544.49 431.496L1542.66 432.302ZM1502.43 366.613C1517.35 387.729 1532.42 409.064 1542.66 432.302L1544.49 431.496C1534.15 408.042 1518.96 386.544 1504.07 365.459L1502.43 366.613ZM1453.66 243.405C1448.42 290.222 1475.22 328.083 1502.43 366.613L1504.07 365.459C1476.75 326.789 1450.51 289.561 1455.65 243.627L1453.66 243.405ZM1585.14 54.706C1517.84 97.1424 1462.54 164.069 1453.66 243.405L1455.65 243.627C1464.43 165.089 1519.23 98.6305 1586.21 56.3978L1585.14 54.706Z" fill="#F4F8FB" mask="url(#path-2-inside-1_1_12)"/>
</svg>
