<svg width="1728" height="600" viewBox="0 0 1728 600" fill="none" xmlns="http://www.w3.org/2000/svg">
<path d="M0 0H1728V534.691L1647.52 561.995C1574.51 586.766 1495.76 589.163 1421.37 568.879L1388.11 559.808C1327.61 543.311 1264.01 541.762 1202.78 555.294L1065.98 585.528C1022.65 595.104 977.994 597.157 933.966 591.595L542.014 542.083C503.229 537.183 463.925 538.189 425.44 545.066L250.765 576.277C164.881 591.623 76.3325 576.939 0 534.691V0Z" fill="#F4DE00"/>
<mask id="mask0_1_762" style="mask-type:alpha" maskUnits="userSpaceOnUse" x="0" y="0" width="1728" height="595">
<path d="M0 0H1728V534.691L1647.52 561.995C1574.51 586.766 1495.76 589.163 1421.37 568.879L1388.11 559.808C1327.61 543.311 1264.01 541.762 1202.78 555.294L1065.98 585.528C1022.65 595.104 977.994 597.157 933.966 591.595L542.014 542.083C503.229 537.183 463.925 538.189 425.44 545.066L250.765 576.277C164.881 591.623 76.3325 576.939 0 534.691V0Z" fill="#BC3B39"/>
</mask>
<g mask="url(#mask0_1_762)">
<rect x="817" width="623" height="629" fill="url(#paint0_linear_1_762)"/>
<g opacity="0.4">
<path opacity="0.05" d="M589.858 -412.463C633.83 -401.496 668.616 -367.903 681.107 -324.336L902.982 449.433C915.477 492.996 903.777 539.92 872.295 572.52L313.129 1151.55C281.647 1184.15 235.16 1197.49 191.183 1186.52L-589.858 991.787C-633.83 980.819 -668.616 947.227 -681.107 903.659L-902.982 129.89C-915.478 86.327 -903.777 39.4033 -872.295 6.80285L-313.129 -572.23C-281.647 -604.831 -235.16 -618.162 -191.183 -607.199L589.858 -412.463Z" stroke="white" stroke-width="5"/>
<path opacity="0.1" d="M539.3 -399.79C581.613 -390.792 615.917 -359.905 629.284 -318.759L866.722 411.997C880.093 453.139 870.494 498.292 841.547 530.44L327.413 1101.44C298.466 1133.59 254.564 1147.86 212.246 1138.87L-539.326 979.114C-581.64 970.116 -615.944 939.229 -629.311 898.083L-866.748 167.327C-880.119 126.186 -870.521 81.0323 -841.574 48.8839L-327.439 -522.12C-298.493 -554.269 -254.59 -568.535 -212.273 -559.542L539.3 -399.79Z" stroke="white" stroke-width="5"/>
<path opacity="0.14" d="M490.385 -384.485C530.958 -377.327 564.635 -349.069 578.726 -310.35L829.008 377.292C843.102 416.006 835.466 459.302 808.984 490.863L338.609 1051.43C312.126 1082.99 270.814 1098.03 230.237 1090.88L-490.42 963.808C-530.993 956.651 -564.67 928.392 -578.761 889.674L-829.043 202.031C-843.137 163.317 -835.501 120.021 -809.019 88.4603L-338.644 -472.111C-312.161 -503.672 -270.849 -518.709 -230.272 -511.556L490.385 -384.485Z" stroke="white" stroke-width="5"/>
<path opacity="0.19" d="M443.231 -366.647C481.99 -361.196 514.9 -335.484 529.562 -299.191L789.983 345.373C804.648 381.662 798.834 423.021 774.737 453.864L346.739 1001.68C322.642 1032.52 283.918 1048.17 245.156 1042.72L-443.264 945.969C-482.022 940.519 -514.933 914.806 -529.594 878.514L-790.016 233.949C-804.681 197.66 -798.867 156.301 -774.77 125.458L-346.771 -422.355C-322.674 -453.197 -283.95 -468.844 -245.188 -463.398L443.231 -366.647Z" stroke="white" stroke-width="5"/>
<path opacity="0.23" d="M397.948 -346.379C434.824 -342.5 466.833 -319.244 481.915 -285.367L749.791 316.291C764.875 350.164 760.738 389.514 738.943 419.513L351.83 952.328C330.035 982.326 293.888 998.421 257.009 994.546L-397.98 925.704C-434.856 921.825 -466.866 898.569 -481.947 864.692L-749.823 263.034C-764.907 229.161 -760.77 189.81 -738.975 159.812L-351.862 -373.003C-330.067 -403.002 -293.92 -419.096 -257.041 -415.222L397.948 -346.379Z" stroke="white" stroke-width="5"/>
<path opacity="0.28" d="M354.643 -323.795C389.578 -321.35 420.557 -300.454 435.908 -268.976L708.579 290.081C723.933 321.556 721.326 358.834 701.743 387.867L353.921 903.534C334.338 932.567 300.751 948.95 265.814 946.508L-354.679 903.119C-389.614 900.673 -420.593 879.777 -435.944 848.299L-708.615 289.242C-723.969 257.768 -721.361 220.489 -701.778 191.456L-353.956 -324.211C-334.373 -353.244 -300.786 -369.626 -265.849 -367.185L354.643 -323.795Z" stroke="white" stroke-width="5"/>
<path opacity="0.32" d="M313.429 -299.007C346.369 -297.854 376.194 -279.217 391.668 -250.113L666.506 266.782C681.982 295.882 680.754 331.032 663.288 358.984L353.063 855.447C335.597 883.399 304.543 899.911 271.601 898.762L-313.462 878.331C-346.402 877.178 -376.227 858.541 -391.701 829.437L-666.539 312.542C-682.015 283.442 -680.786 248.292 -663.32 220.34L-353.095 -276.123C-335.629 -304.074 -304.575 -320.587 -271.633 -319.438L313.429 -299.007Z" stroke="white" stroke-width="5"/>
<path opacity="0.37" d="M274.399 -272.135C305.299 -272.132 333.853 -255.647 349.303 -228.884L623.718 246.417C639.17 273.176 639.169 306.149 623.719 332.909L349.304 808.21C333.854 834.97 305.299 851.457 274.397 851.459L-274.433 851.458C-305.333 851.456 -333.887 834.97 -349.337 808.207L-623.753 332.906C-639.205 306.148 -639.204 273.175 -623.754 246.414L-349.339 -228.886C-333.889 -255.646 -305.334 -272.134 -274.432 -272.135L274.399 -272.135Z" stroke="white" stroke-width="5"/>
<path opacity="0.41" d="M237.651 -243.301C266.474 -244.305 293.645 -229.858 308.928 -205.398L580.375 229.007C595.66 253.464 596.733 284.22 583.193 309.684L342.71 761.966C329.171 787.43 303.073 803.739 274.249 804.747L-237.681 822.624C-266.504 823.628 -293.675 809.181 -308.958 784.721L-580.405 350.315C-595.69 325.859 -596.763 295.103 -583.223 269.639L-342.74 -182.644C-329.201 -208.108 -303.103 -224.417 -274.279 -225.424L237.651 -243.301Z" stroke="white" stroke-width="5"/>
<path opacity="0.46" d="M203.268 -212.633C229.983 -214.499 255.666 -201.972 270.641 -179.768L536.623 214.566C551.6 236.766 553.593 265.273 541.853 289.343L333.341 716.857C321.601 740.926 297.911 756.907 271.194 758.776L-203.3 791.956C-230.015 793.822 -255.698 781.295 -270.673 759.092L-536.656 364.757C-551.633 342.557 -553.625 314.05 -541.886 289.98L-333.373 -137.533C-321.634 -161.603 -297.943 -177.584 -271.227 -179.453L203.268 -212.633Z" stroke="white" stroke-width="5"/>
<path opacity="0.5" d="M171.336 -180.261C195.921 -182.843 220.018 -172.114 234.548 -152.114L492.624 203.097C507.155 223.095 509.912 249.329 499.857 271.911L321.274 673.016C311.219 695.599 289.879 711.105 265.293 713.69L-171.366 759.584C-195.951 762.166 -220.047 751.438 -234.577 731.437L-492.653 376.226C-507.185 356.229 -509.941 329.995 -499.887 307.412L-321.304 -93.693C-311.249 -116.276 -289.909 -131.781 -265.323 -134.367L171.336 -180.261Z" stroke="white" stroke-width="5"/>
<path opacity="0.55" d="M141.928 -146.32C164.367 -149.472 186.786 -140.414 200.737 -122.556L448.526 194.599C462.478 212.454 465.843 236.399 457.354 257.409L306.584 630.577C298.096 651.587 279.042 666.475 256.601 669.63L-141.958 725.643C-164.398 728.795 -186.816 719.737 -200.767 701.879L-448.556 384.724C-462.508 366.869 -465.873 342.924 -457.384 321.914L-306.615 -51.2545C-298.126 -72.2644 -279.072 -87.1518 -256.631 -90.3067L141.928 -146.32Z" stroke="white" stroke-width="5"/>
<path opacity="0.59" d="M115.113 -110.948C135.4 -114.524 156.056 -107.006 169.297 -91.2236L404.485 189.062C417.728 204.841 421.544 226.49 414.499 245.847L289.358 589.668C282.312 609.026 265.474 623.156 245.185 626.734L-115.143 690.27C-135.43 693.845 -156.086 686.327 -169.327 670.545L-404.515 390.26C-417.758 374.48 -421.574 352.832 -414.529 333.474L-289.388 -10.3466C-282.343 -29.7043 -265.504 -43.8345 -245.216 -47.4127L115.113 -110.948Z" stroke="white" stroke-width="5"/>
<path opacity="0.64" d="M90.9527 -74.2824C109.088 -78.1357 127.902 -72.0224 140.308 -58.2431L360.652 186.473C373.059 200.25 377.171 219.602 371.442 237.234L269.684 550.415C263.954 568.048 249.253 581.286 231.117 585.142L-90.9858 653.607C-109.121 657.46 -127.935 651.347 -140.341 637.567L-360.685 392.851C-373.092 379.074 -377.205 359.723 -371.475 342.09L-269.717 28.909C-263.988 11.2765 -249.286 -1.96191 -231.15 -5.81762L90.9527 -74.2824Z" stroke="white" stroke-width="5"/>
<path opacity="0.68" d="M69.5043 -36.4701C85.495 -40.4557 102.399 -35.6087 113.847 -23.7527L317.18 186.805C328.629 198.659 332.883 215.722 328.34 231.564L247.659 512.934C243.116 528.775 230.467 540.992 214.475 544.98L-69.5398 615.792C-85.5305 619.778 -102.434 614.931 -113.882 603.075L-317.216 392.517C-328.664 380.664 -332.918 363.6 -328.376 347.759L-247.694 66.3883C-243.152 50.5467 -230.502 38.3303 -214.511 34.3425L69.5043 -36.4701Z" stroke="white" stroke-width="5"/>
<path opacity="0.73" d="M50.8205 2.34846C64.6821 -1.62513 79.6117 2.09723 89.9848 12.1153L274.223 190.032C284.597 200.048 288.837 214.839 285.349 228.831L223.388 477.344C219.899 491.335 209.211 502.404 195.348 506.38L-50.8508 576.976C-64.7125 580.95 -79.6421 577.228 -90.0152 567.21L-274.253 389.293C-284.627 379.277 -288.868 364.485 -285.379 350.494L-223.418 101.981C-219.93 87.9894 -209.241 76.9203 -195.379 72.9448L50.8205 2.34846Z" stroke="white" stroke-width="5"/>
<path opacity="0.77" d="M34.9367 42.0225C46.692 38.204 59.5923 40.9461 68.7778 49.2174L231.922 196.113C241.108 204.383 245.183 216.927 242.614 229.016L196.97 443.751C194.401 455.841 185.576 465.643 173.82 469.463L-34.9677 537.302C-46.723 541.121 -59.6234 538.379 -68.8089 530.107L-231.953 383.212C-241.139 374.942 -245.214 362.398 -242.645 350.308L-197.001 135.573C-194.432 123.483 -185.607 113.682 -173.851 109.862L34.9367 42.0225Z" stroke="white" stroke-width="5"/>
<path opacity="0.82" d="M21.8902 82.404C31.5693 78.882 42.3927 80.7905 50.2832 87.412L190.426 205.006C198.317 211.626 202.076 221.954 200.287 232.098L168.519 412.262C166.731 422.405 159.666 430.825 149.987 434.348L-21.9238 496.919C-31.6029 500.441 -42.4264 498.532 -50.3168 491.911L-190.46 374.317C-198.351 367.697 -202.109 357.369 -200.321 347.225L-168.553 167.061C-166.765 156.918 -159.7 148.498 -150.021 144.974L21.8902 82.404Z" stroke="white" stroke-width="5"/>
<path opacity="0.86" d="M11.7125 123.346C19.3527 120.26 28.0595 121.483 34.553 126.557L149.882 216.662C156.376 221.734 159.669 229.887 158.523 238.047L138.154 382.977C137.007 391.137 131.594 398.066 123.954 401.153L-11.7443 455.979C-19.3844 459.065 -28.0913 457.841 -34.5847 452.767L-149.914 362.662C-156.408 357.59 -159.701 349.437 -158.554 341.277L-138.186 196.347C-137.039 188.187 -131.626 181.258 -123.985 178.171L11.7125 123.346Z" stroke="white" stroke-width="5"/>
<path opacity="0.91" d="M4.42204 164.694C10.0679 162.18 16.6261 162.87 21.626 166.503L110.429 231.021C115.429 234.654 118.111 240.678 117.465 246.824L105.991 355.989C105.345 362.135 101.469 367.47 95.8231 369.984L-4.45325 414.63C-10.0991 417.143 -16.6573 416.454 -21.6572 412.821L-110.46 348.302C-115.46 344.67 -118.142 338.646 -117.496 332.5L-106.022 223.335C-105.376 217.189 -101.5 211.853 -95.8543 209.339L4.42204 164.694Z" stroke="white" stroke-width="5"/>
<path opacity="0.95" d="M0.0360843 206.297C3.73923 204.491 8.12475 204.798 11.5405 207.102L72.2073 248.022C75.6231 250.326 77.5503 254.277 77.2629 258.387L72.1583 331.386C71.8709 335.496 69.4126 339.141 65.7094 340.948L-0.0620541 373.026C-3.7652 374.832 -8.15072 374.526 -11.5665 372.221L-72.2333 331.301C-75.6491 328.998 -77.5763 325.046 -77.2889 320.936L-72.1843 247.937C-71.8969 243.827 -69.4385 240.182 -65.7353 238.376L0.0360843 206.297Z" stroke="white" stroke-width="5"/>
<path d="M-1.44712 248.004C0.371816 247.037 2.56859 247.114 4.31563 248.205L35.3446 267.594C37.0917 268.686 38.1236 270.627 38.0517 272.685L36.7748 309.252C36.7029 311.311 35.5381 313.175 33.7191 314.142L1.41322 331.319C-0.405713 332.286 -2.60249 332.21 -4.34953 331.118L-35.3785 311.729C-37.1256 310.637 -38.1575 308.696 -38.0856 306.638L-36.8087 270.071C-36.7368 268.013 -35.572 266.148 -33.753 265.181L-1.44712 248.004Z" stroke="white" stroke-width="5"/>
</g>
</g>
<defs>
<linearGradient id="paint0_linear_1_762" x1="817" y1="285.671" x2="1439.98" y2="279.864" gradientUnits="userSpaceOnUse">
<stop stop-color="#F4DE00"/>
<stop offset="1" stop-color="#F1E7E7" stop-opacity="0"/>
<stop offset="1" stop-color="#F4DE00" stop-opacity="0"/>
</linearGradient>
</defs>
</svg>
