<svg width="428" height="291" viewBox="0 0 428 291" fill="none" xmlns="http://www.w3.org/2000/svg">
<mask id="mask0_2609_34962" style="mask-type:alpha" maskUnits="userSpaceOnUse" x="0" y="0" width="428" height="291">
<rect width="428" height="291" fill="url(#paint0_linear_2609_34962)"/>
</mask>
<g mask="url(#mask0_2609_34962)">
<g opacity="0.2">
<path opacity="0.05" d="M407.421 415.133C421.85 411.534 433.264 400.512 437.362 386.216L510.165 132.323C514.265 118.029 510.426 102.633 500.096 91.9356L316.62 -98.0593C306.29 -108.756 291.036 -113.131 276.606 -109.534L20.3278 -45.6359C5.89929 -42.0373 -5.51484 -31.0148 -9.61338 -16.7191L-82.4161 237.173C-86.5161 251.468 -82.6767 266.864 -72.3468 277.561L111.129 467.556C121.459 478.253 136.713 482.628 151.143 479.03L407.421 415.133Z" stroke="white" stroke-width="5"/>
<path opacity="0.1" d="M390.832 410.975C404.716 408.022 415.972 397.888 420.358 384.387L498.267 144.608C502.654 131.108 499.505 116.292 490.007 105.743L321.307 -81.6169C311.809 -92.1656 297.403 -96.8467 283.518 -93.8958L36.9085 -41.4773C23.0243 -38.525 11.7684 -28.3902 7.38234 -14.8892L-70.5268 224.89C-74.9142 238.389 -71.7645 253.205 -62.2665 263.754L106.434 451.114C115.932 461.663 130.337 466.344 144.223 463.393L390.832 410.975Z" stroke="white" stroke-width="5"/>
<path opacity="0.14" d="M374.782 405.954C388.095 403.605 399.146 394.333 403.769 381.628L485.893 155.996C490.517 143.293 488.012 129.087 479.322 118.731L324.981 -65.2063C316.291 -75.5623 302.735 -80.4965 289.421 -78.1495L52.9561 -36.4541C39.643 -34.1056 28.5928 -24.8334 23.9694 -12.1289L-58.1543 213.503C-62.7789 226.206 -60.2735 240.413 -51.5839 250.769L102.758 434.706C111.447 445.062 125.003 449.996 138.317 447.649L374.782 405.954Z" stroke="white" stroke-width="5"/>
<path opacity="0.19" d="M359.309 400.098C372.027 398.31 382.825 389.873 387.636 377.964L473.087 166.467C477.899 154.56 475.991 140.989 468.084 130.869L327.648 -48.8823C319.741 -59.0025 307.034 -64.1366 294.316 -62.3496L68.4282 -30.6031C55.7107 -28.8147 44.9119 -20.3779 40.1011 -8.46928L-45.3495 203.028C-50.1614 214.935 -48.2538 228.506 -40.347 238.627L100.09 418.377C107.997 428.498 120.703 433.632 133.422 431.845L359.309 400.098Z" stroke="white" stroke-width="5"/>
<path opacity="0.23" d="M344.452 393.451C356.552 392.179 367.055 384.548 372.004 373.432L459.9 176.013C464.85 164.899 463.492 151.987 456.341 142.144L329.32 -32.6862C322.168 -42.5294 310.308 -47.8104 298.206 -46.5391L83.2886 -23.9501C71.1886 -22.6774 60.6856 -15.0465 55.737 -3.93056L-32.1596 193.488C-37.1091 204.603 -35.7517 217.515 -28.6002 227.358L98.4211 402.187C105.573 412.031 117.433 417.312 129.534 416.04L344.452 393.451Z" stroke="white" stroke-width="5"/>
<path opacity="0.28" d="M330.242 386.04C341.705 385.237 351.87 378.381 356.907 368.052L446.377 184.612C451.415 174.284 450.56 162.052 444.134 152.526L330.005 -16.6771C323.579 -26.2035 312.559 -31.579 301.095 -30.7779L97.4962 -16.5407C86.0334 -15.7383 75.8684 -8.88191 70.8312 1.44694L-18.6387 184.887C-23.6768 195.215 -22.8211 207.447 -16.3955 216.973L97.7335 386.176C104.159 395.702 115.18 401.078 126.643 400.277L330.242 386.04Z" stroke="white" stroke-width="5"/>
<path opacity="0.32" d="M316.719 377.906C327.528 377.528 337.314 371.413 342.391 361.863L432.573 192.257C437.651 182.708 437.248 171.175 431.516 162.003L329.724 -0.898413C323.993 -10.07 313.804 -15.4883 302.994 -15.1113L111.021 -8.40728C100.213 -8.029 90.4263 -1.91375 85.3491 7.63614L-4.83198 177.242C-9.91001 186.79 -9.50693 198.324 -3.77587 207.496L98.0164 370.397C103.747 379.569 113.937 384.987 124.746 384.61L316.719 377.906Z" stroke="white" stroke-width="5"/>
<path opacity="0.37" d="M303.911 369.087C314.05 369.086 323.419 363.677 328.488 354.895L418.531 198.938C423.601 190.157 423.601 179.338 418.531 170.557L328.489 14.5996C323.419 5.81895 314.05 0.409047 303.91 0.408609L123.825 0.40878C113.686 0.409571 104.317 5.81894 99.2477 14.6004L9.20519 170.558C4.13501 179.339 4.1353 190.158 9.20482 198.938L99.2471 354.896C104.317 363.677 113.686 369.087 123.826 369.087L303.911 369.087Z" stroke="white" stroke-width="5"/>
<path opacity="0.41" d="M291.854 359.628C301.311 359.958 310.227 355.217 315.241 347.191L404.31 204.652C409.325 196.628 409.677 186.536 405.234 178.18L326.326 29.7755C321.883 21.4201 313.32 16.0687 303.862 15.738L135.885 9.87227C126.428 9.54275 117.513 14.2833 112.498 22.3092L23.4295 164.848C18.4142 172.873 18.0621 182.965 22.5047 191.32L101.413 339.725C105.856 348.08 114.419 353.432 123.877 353.762L291.854 359.628Z" stroke="white" stroke-width="5"/>
<path opacity="0.46" d="M280.573 349.564C289.338 350.177 297.766 346.066 302.679 338.781L389.955 209.39C394.869 202.106 395.523 192.752 391.671 184.854L323.253 44.5761C319.401 36.6782 311.627 31.4346 302.861 30.8212L147.168 19.9342C138.402 19.3219 129.975 23.4322 125.061 30.7178L37.7856 160.108C32.8714 167.393 32.2175 176.747 36.0696 184.645L104.488 324.922C108.34 332.82 116.113 338.064 124.879 338.677L280.573 349.564Z" stroke="white" stroke-width="5"/>
<path opacity="0.5" d="M270.094 338.942C278.161 339.789 286.068 336.269 290.835 329.706L375.516 213.153C380.285 206.591 381.189 197.983 377.89 190.573L319.292 58.9612C315.993 51.5512 308.991 46.4635 300.924 45.6152L157.645 30.5561C149.578 29.7089 141.672 33.2292 136.904 39.792L52.2229 156.345C47.4547 162.907 46.5502 171.515 49.8494 178.925L108.447 310.537C111.746 317.947 118.748 323.035 126.816 323.883L270.094 338.942Z" stroke="white" stroke-width="5"/>
<path opacity="0.55" d="M260.445 327.804C267.808 328.839 275.164 325.867 279.742 320.007L361.047 215.941C365.625 210.082 366.729 202.225 363.944 195.331L314.473 72.8853C311.687 65.9914 305.435 61.1065 298.072 60.0713L167.295 41.6919C159.932 40.6577 152.576 43.6297 147.998 49.4894L66.6927 153.556C62.1146 159.414 61.0106 167.271 63.7959 174.165L113.267 296.611C116.053 303.505 122.305 308.39 129.668 309.425L260.445 327.804Z" stroke="white" stroke-width="5"/>
<path opacity="0.59" d="M251.646 316.199C258.302 317.372 265.08 314.905 269.425 309.727L346.596 217.758C350.941 212.58 352.193 205.477 349.881 199.125L308.82 86.3093C306.508 79.9576 300.983 75.3211 294.326 74.147L176.093 53.2995C169.436 52.1263 162.659 54.5931 158.314 59.7716L81.1429 151.74C76.7977 156.918 75.5454 164.021 77.8572 170.373L118.919 283.189C121.231 289.541 126.756 294.177 133.413 295.351L251.646 316.199Z" stroke="white" stroke-width="5"/>
<path opacity="0.64" d="M243.718 304.168C249.668 305.432 255.842 303.426 259.912 298.905L332.213 218.608C336.284 214.087 337.633 207.738 335.753 201.952L302.364 99.1895C300.484 93.4038 295.66 89.06 289.709 87.7948L184.019 65.3299C178.069 64.0655 171.895 66.0714 167.824 70.5927L95.5243 150.89C91.4534 155.411 90.1039 161.76 91.9838 167.546L125.373 270.308C127.253 276.094 132.077 280.438 138.028 281.703L243.718 304.168Z" stroke="white" stroke-width="5"/>
<path opacity="0.68" d="M236.68 291.76C241.927 293.068 247.474 291.477 251.23 287.587L317.949 218.498C321.706 214.608 323.101 209.009 321.611 203.811L295.137 111.487C293.647 106.289 289.496 102.28 284.249 100.972L191.057 77.7366C185.81 76.4288 180.263 78.0193 176.507 81.9095L109.788 150.999C106.032 154.888 104.636 160.487 106.126 165.685L132.6 258.009C134.09 263.207 138.241 267.216 143.488 268.524L236.68 291.76Z" stroke="white" stroke-width="5"/>
<path opacity="0.73" d="M230.549 279.025C235.098 280.329 239.996 279.107 243.4 275.82L303.853 217.442C307.257 214.155 308.649 209.302 307.504 204.711L287.173 123.168C286.028 118.577 282.521 114.944 277.973 113.64L197.189 90.4756C192.64 89.1718 187.741 90.3932 184.338 93.6804L123.885 152.059C120.481 155.346 119.089 160.199 120.234 164.79L140.565 246.333C141.71 250.924 145.217 254.556 149.765 255.861L230.549 279.025Z" stroke="white" stroke-width="5"/>
<path opacity="0.77" d="M225.338 266.003C229.195 267.256 233.428 266.356 236.442 263.642L289.974 215.442C292.988 212.728 294.325 208.612 293.482 204.645L278.505 134.186C277.662 130.219 274.766 127.003 270.909 125.749L202.401 103.489C198.543 102.236 194.311 103.136 191.297 105.85L137.765 154.05C134.751 156.764 133.414 160.88 134.257 164.847L149.233 235.306C150.077 239.273 152.972 242.49 156.83 243.743L225.338 266.003Z" stroke="white" stroke-width="5"/>
<path opacity="0.82" d="M221.058 252.755C224.234 253.911 227.786 253.284 230.375 251.112L276.359 212.526C278.948 210.354 280.182 206.965 279.595 203.637L269.171 144.521C268.584 141.192 266.266 138.43 263.09 137.274L206.682 116.743C203.506 115.587 199.954 116.213 197.365 118.386L151.381 156.971C148.792 159.143 147.559 162.532 148.145 165.861L158.569 224.977C159.156 228.305 161.474 231.068 164.65 232.224L221.058 252.755Z" stroke="white" stroke-width="5"/>
<path opacity="0.86" d="M217.717 239.32C220.224 240.333 223.081 239.931 225.212 238.266L263.054 208.701C265.185 207.036 266.266 204.361 265.889 201.684L259.206 154.128C258.83 151.451 257.054 149.177 254.547 148.164L210.021 130.175C207.514 129.162 204.657 129.564 202.526 131.229L164.684 160.794C162.553 162.459 161.473 165.134 161.849 167.811L168.532 215.366C168.909 218.044 170.685 220.317 173.192 221.33L217.717 239.32Z" stroke="white" stroke-width="5"/>
<path opacity="0.91" d="M215.326 225.754C217.178 226.578 219.33 226.352 220.971 225.16L250.109 203.99C251.75 202.798 252.63 200.821 252.418 198.805L248.653 162.985C248.441 160.968 247.169 159.218 245.317 158.393L212.414 143.743C210.561 142.919 208.409 143.145 206.769 144.337L177.63 165.507C175.99 166.699 175.11 168.676 175.322 170.692L179.086 206.512C179.298 208.529 180.57 210.279 182.423 211.104L215.326 225.754Z" stroke="white" stroke-width="5"/>
<path opacity="0.95" d="M213.887 212.103C215.102 212.696 216.541 212.595 217.662 211.839L237.568 198.412C238.689 197.656 239.321 196.36 239.227 195.011L237.552 171.058C237.458 169.71 236.651 168.514 235.436 167.921L213.855 157.395C212.64 156.803 211.201 156.903 210.08 157.659L190.173 171.086C189.053 171.842 188.42 173.139 188.515 174.487L190.19 198.44C190.284 199.789 191.091 200.985 192.306 201.577L213.887 212.103Z" stroke="white" stroke-width="5"/>
<path d="M213.402 198.418C213.999 198.735 214.719 198.71 215.293 198.352L225.474 191.99C226.047 191.631 226.386 190.995 226.362 190.319L225.943 178.321C225.92 177.645 225.537 177.034 224.941 176.716L214.34 171.08C213.743 170.763 213.023 170.788 212.449 171.146L202.268 177.508C201.695 177.866 201.356 178.503 201.38 179.179L201.799 191.177C201.822 191.852 202.204 192.464 202.801 192.781L213.402 198.418Z" stroke="white" stroke-width="5"/>
</g>
</g>
<defs>
<linearGradient id="paint0_linear_2609_34962" x1="214" y1="0" x2="214" y2="291" gradientUnits="userSpaceOnUse">
<stop stop-color="#D9D9D9" stop-opacity="0"/>
<stop offset="1" stop-color="#D9D9D9"/>
</linearGradient>
</defs>
</svg>
