<svg width="2480" height="2486" viewBox="0 0 2480 2486" fill="none" xmlns="http://www.w3.org/2000/svg">
<g opacity="0.4">
<path opacity="0.05" d="M1829.86 540.537C1873.83 551.504 1908.62 585.097 1921.11 628.664L2142.98 1402.43C2155.48 1446 2143.78 1492.92 2112.29 1525.52L1553.13 2104.55C1521.65 2137.15 1475.16 2150.49 1431.18 2139.52L650.142 1944.79C606.17 1933.82 571.384 1900.23 558.893 1856.66L337.018 1082.89C324.522 1039.33 336.223 992.403 367.705 959.803L926.871 380.77C958.353 348.169 1004.84 334.838 1048.82 345.801L1829.86 540.537Z" stroke="white" stroke-width="5"/>
<path opacity="0.1" d="M1779.3 553.21C1821.61 562.208 1855.92 593.095 1869.28 634.241L2106.72 1365C2120.09 1406.14 2110.49 1451.29 2081.55 1483.44L1567.41 2054.44C1538.47 2086.59 1494.56 2100.86 1452.25 2091.87L700.674 1932.11C658.36 1923.12 624.056 1892.23 610.689 1851.08L373.252 1120.33C359.881 1079.19 369.479 1034.03 398.426 1001.88L912.561 430.879C941.507 398.731 985.41 384.465 1027.73 393.458L1779.3 553.21Z" stroke="white" stroke-width="5"/>
<path opacity="0.14" d="M1730.39 568.515C1770.96 575.673 1804.64 603.931 1818.73 642.65L2069.01 1330.29C2083.1 1369.01 2075.47 1412.3 2048.98 1443.86L1578.61 2004.43C1552.13 2035.99 1510.81 2051.03 1470.24 2043.88L749.58 1916.81C709.007 1909.65 675.33 1881.39 661.239 1842.67L410.957 1155.03C396.863 1116.32 404.499 1073.02 430.981 1041.46L901.356 480.889C927.839 449.328 969.151 434.291 1009.73 441.444L1730.39 568.515Z" stroke="white" stroke-width="5"/>
<path opacity="0.19" d="M1683.23 586.354C1721.99 591.804 1754.9 617.516 1769.56 653.809L2029.98 1298.37C2044.65 1334.66 2038.83 1376.02 2014.74 1406.86L1586.74 1954.68C1562.64 1985.52 1523.92 2001.17 1485.16 1995.72L796.736 1898.97C757.978 1893.52 725.067 1867.81 710.406 1831.51L449.984 1186.95C435.319 1150.66 441.133 1109.3 465.23 1078.46L893.229 530.646C917.326 499.803 956.05 484.156 994.812 489.602L1683.23 586.354Z" stroke="white" stroke-width="5"/>
<path opacity="0.23" d="M1637.95 606.621C1674.82 610.5 1706.83 633.756 1721.91 667.633L1989.79 1269.29C2004.87 1303.16 2000.74 1342.51 1978.94 1372.51L1591.83 1905.33C1570.03 1935.33 1533.89 1951.42 1497.01 1947.55L842.02 1878.7C805.144 1874.83 773.134 1851.57 758.053 1817.69L490.177 1216.03C475.093 1182.16 479.23 1142.81 501.025 1112.81L888.138 579.997C909.933 549.998 946.08 533.904 982.959 537.778L1637.95 606.621Z" stroke="white" stroke-width="5"/>
<path opacity="0.28" d="M1594.64 629.205C1629.58 631.65 1660.56 652.546 1675.91 684.024L1948.58 1243.08C1963.93 1274.56 1961.33 1311.83 1941.74 1340.87L1593.92 1856.53C1574.34 1885.57 1540.75 1901.95 1505.81 1899.51L885.321 1856.12C850.386 1853.67 819.407 1832.78 804.056 1801.3L531.385 1242.24C516.031 1210.77 518.639 1173.49 538.222 1144.46L886.044 628.789C905.627 599.756 939.214 583.373 974.151 585.815L1594.64 629.205Z" stroke="white" stroke-width="5"/>
<path opacity="0.32" d="M1553.43 653.993C1586.37 655.146 1616.19 673.783 1631.67 702.887L1906.51 1219.78C1921.98 1248.88 1920.75 1284.03 1903.29 1311.98L1593.06 1808.45C1575.6 1836.4 1544.54 1852.91 1511.6 1851.76L926.538 1831.33C893.598 1830.18 863.773 1811.54 848.299 1782.44L573.461 1265.54C557.985 1236.44 559.214 1201.29 576.68 1173.34L886.905 676.877C904.371 648.926 935.425 632.413 968.367 633.562L1553.43 653.993Z" stroke="white" stroke-width="5"/>
<path opacity="0.37" d="M1514.4 680.865C1545.3 680.868 1573.85 697.354 1589.3 724.116L1863.72 1199.42C1879.17 1226.18 1879.17 1259.15 1863.72 1285.91L1589.3 1761.21C1573.85 1787.97 1545.3 1804.46 1514.4 1804.46L965.567 1804.46C934.667 1804.46 906.113 1787.97 890.663 1761.21L616.247 1285.91C600.795 1259.15 600.796 1226.17 616.246 1199.41L890.661 724.114C906.111 697.354 934.666 680.866 965.568 680.865L1514.4 680.865Z" stroke="white" stroke-width="5"/>
<path opacity="0.41" d="M1477.65 709.699C1506.47 708.695 1533.64 723.142 1548.93 747.602L1820.37 1182.01C1835.66 1206.46 1836.73 1237.22 1823.19 1262.68L1582.71 1714.97C1569.17 1740.43 1543.07 1756.74 1514.25 1757.75L1002.32 1775.62C973.496 1776.63 946.325 1762.18 931.042 1737.72L659.595 1303.32C644.31 1278.86 643.237 1248.1 656.777 1222.64L897.26 770.356C910.799 744.892 936.897 728.583 965.721 727.576L1477.65 709.699Z" stroke="white" stroke-width="5"/>
<path opacity="0.46" d="M1443.27 740.367C1469.98 738.502 1495.67 751.028 1510.64 773.232L1776.62 1167.57C1791.6 1189.77 1793.59 1218.27 1781.85 1242.34L1573.34 1669.86C1561.6 1693.93 1537.91 1709.91 1511.19 1711.78L1036.7 1744.96C1009.99 1746.82 984.302 1734.3 969.327 1712.09L703.344 1317.76C688.367 1295.56 686.375 1267.05 698.114 1242.98L906.627 815.467C918.366 791.397 942.057 775.416 968.773 773.547L1443.27 740.367Z" stroke="white" stroke-width="5"/>
<path opacity="0.5" d="M1411.34 772.739C1435.92 770.157 1460.02 780.886 1474.55 800.886L1732.62 1156.1C1747.16 1176.09 1749.91 1202.33 1739.86 1224.91L1561.27 1626.02C1551.22 1648.6 1529.88 1664.1 1505.29 1666.69L1068.63 1712.58C1044.05 1715.17 1019.95 1704.44 1005.42 1684.44L747.347 1329.23C732.815 1309.23 730.059 1282.99 740.113 1260.41L918.696 859.307C928.751 836.724 950.091 821.219 974.677 818.633L1411.34 772.739Z" stroke="white" stroke-width="5"/>
<path opacity="0.55" d="M1381.93 806.68C1404.37 803.528 1426.79 812.586 1440.74 830.444L1688.53 1147.6C1702.48 1165.45 1705.84 1189.4 1697.35 1210.41L1546.58 1583.58C1538.1 1604.59 1519.04 1619.47 1496.6 1622.63L1098.04 1678.64C1075.6 1681.8 1053.18 1672.74 1039.23 1654.88L791.444 1337.72C777.492 1319.87 774.127 1295.92 782.616 1274.91L933.385 901.745C941.874 880.735 960.928 865.848 983.369 862.693L1381.93 806.68Z" stroke="white" stroke-width="5"/>
<path opacity="0.59" d="M1355.11 842.052C1375.4 838.476 1396.06 845.994 1409.3 861.777L1644.49 1142.06C1657.73 1157.84 1661.54 1179.49 1654.5 1198.85L1529.36 1542.67C1522.31 1562.03 1505.47 1576.16 1485.19 1579.73L1124.86 1643.27C1104.57 1646.85 1083.91 1639.33 1070.67 1623.55L835.485 1343.26C822.242 1327.48 818.426 1305.83 825.471 1286.47L950.612 942.653C957.657 923.296 974.496 909.166 994.784 905.587L1355.11 842.052Z" stroke="white" stroke-width="5"/>
<path opacity="0.64" d="M1330.95 878.718C1349.09 874.864 1367.9 880.978 1380.31 894.757L1600.65 1139.47C1613.06 1153.25 1617.17 1172.6 1611.44 1190.23L1509.68 1503.42C1503.95 1521.05 1489.25 1534.29 1471.12 1538.14L1149.01 1606.61C1130.88 1610.46 1112.06 1604.35 1099.66 1590.57L879.315 1345.85C866.908 1332.07 862.795 1312.72 868.525 1295.09L970.283 981.909C976.012 964.276 990.714 951.038 1008.85 947.182L1330.95 878.718Z" stroke="white" stroke-width="5"/>
<path opacity="0.68" d="M1309.5 916.53C1325.49 912.544 1342.4 917.391 1353.85 929.247L1557.18 1139.8C1568.63 1151.66 1572.88 1168.72 1568.34 1184.56L1487.66 1465.93C1483.12 1481.78 1470.47 1493.99 1454.48 1497.98L1170.46 1568.79C1154.47 1572.78 1137.57 1567.93 1126.12 1556.07L922.784 1345.52C911.336 1333.66 907.082 1316.6 911.624 1300.76L992.306 1019.39C996.848 1003.55 1009.5 991.33 1025.49 987.342L1309.5 916.53Z" stroke="white" stroke-width="5"/>
<path opacity="0.73" d="M1290.82 955.348C1304.68 951.375 1319.61 955.097 1329.98 965.115L1514.22 1143.03C1524.6 1153.05 1528.84 1167.84 1525.35 1181.83L1463.39 1430.34C1459.9 1444.34 1449.21 1455.4 1435.35 1459.38L1189.15 1529.98C1175.29 1533.95 1160.36 1530.23 1149.98 1520.21L965.747 1342.29C955.373 1332.28 951.132 1317.49 954.621 1303.49L1016.58 1054.98C1020.07 1040.99 1030.76 1029.92 1044.62 1025.94L1290.82 955.348Z" stroke="white" stroke-width="5"/>
<path opacity="0.77" d="M1274.94 995.023C1286.69 991.204 1299.59 993.946 1308.78 1002.22L1471.92 1149.11C1481.11 1157.38 1485.18 1169.93 1482.61 1182.02L1436.97 1396.75C1434.4 1408.84 1425.58 1418.64 1413.82 1422.46L1205.03 1490.3C1193.28 1494.12 1180.38 1491.38 1171.19 1483.11L1008.05 1336.21C998.861 1327.94 994.786 1315.4 997.355 1303.31L1043 1088.57C1045.57 1076.48 1054.39 1066.68 1066.15 1062.86L1274.94 995.023Z" stroke="white" stroke-width="5"/>
<path opacity="0.82" d="M1261.89 1035.4C1271.57 1031.88 1282.39 1033.79 1290.28 1040.41L1430.43 1158.01C1438.32 1164.63 1442.08 1174.95 1440.29 1185.1L1408.52 1365.26C1406.73 1375.41 1399.67 1383.82 1389.99 1387.35L1218.08 1449.92C1208.4 1453.44 1197.57 1451.53 1189.68 1444.91L1049.54 1327.32C1041.65 1320.7 1037.89 1310.37 1039.68 1300.23L1071.45 1120.06C1073.24 1109.92 1080.3 1101.5 1089.98 1097.97L1261.89 1035.4Z" stroke="white" stroke-width="5"/>
<path opacity="0.86" d="M1251.71 1076.35C1259.35 1073.26 1268.06 1074.48 1274.55 1079.56L1389.88 1169.66C1396.38 1174.73 1399.67 1182.89 1398.52 1191.05L1378.15 1335.98C1377.01 1344.14 1371.59 1351.07 1363.95 1354.15L1228.26 1408.98C1220.62 1412.06 1211.91 1410.84 1205.42 1405.77L1090.09 1315.66C1083.59 1310.59 1080.3 1302.44 1081.45 1294.28L1101.81 1149.35C1102.96 1141.19 1108.37 1134.26 1116.01 1131.17L1251.71 1076.35Z" stroke="white" stroke-width="5"/>
<path opacity="0.91" d="M1244.42 1117.69C1250.07 1115.18 1256.63 1115.87 1261.63 1119.5L1350.43 1184.02C1355.43 1187.65 1358.11 1193.68 1357.46 1199.82L1345.99 1308.99C1345.35 1315.14 1341.47 1320.47 1335.82 1322.98L1235.55 1367.63C1229.9 1370.14 1223.34 1369.45 1218.34 1365.82L1129.54 1301.3C1124.54 1297.67 1121.86 1291.65 1122.5 1285.5L1133.98 1176.33C1134.62 1170.19 1138.5 1164.85 1144.15 1162.34L1244.42 1117.69Z" stroke="white" stroke-width="5"/>
<path opacity="0.95" d="M1240.04 1159.3C1243.74 1157.49 1248.12 1157.8 1251.54 1160.1L1312.21 1201.02C1315.62 1203.33 1317.55 1207.28 1317.26 1211.39L1312.16 1284.39C1311.87 1288.5 1309.41 1292.14 1305.71 1293.95L1239.94 1326.03C1236.23 1327.83 1231.85 1327.53 1228.43 1325.22L1167.77 1284.3C1164.35 1282 1162.42 1278.05 1162.71 1273.94L1167.82 1200.94C1168.1 1196.83 1170.56 1193.18 1174.26 1191.38L1240.04 1159.3Z" stroke="white" stroke-width="5"/>
<path d="M1238.55 1201C1240.37 1200.04 1242.57 1200.11 1244.32 1201.21L1275.34 1220.59C1277.09 1221.69 1278.12 1223.63 1278.05 1225.69L1276.77 1262.25C1276.7 1264.31 1275.54 1266.17 1273.72 1267.14L1241.41 1284.32C1239.59 1285.29 1237.4 1285.21 1235.65 1284.12L1204.62 1264.73C1202.87 1263.64 1201.84 1261.7 1201.91 1259.64L1203.19 1223.07C1203.26 1221.01 1204.43 1219.15 1206.25 1218.18L1238.55 1201Z" stroke="white" stroke-width="5"/>
</g>
</svg>
