<svg width="814" height="816" viewBox="0 0 814 816" fill="none" xmlns="http://www.w3.org/2000/svg">
<g opacity="0.2">
<path opacity="0.05" d="M600.421 638.133C614.85 634.534 626.264 623.512 630.362 609.216L703.165 355.323C707.265 341.029 703.426 325.633 693.096 314.936L509.62 124.941C499.29 114.244 484.036 109.869 469.606 113.466L213.328 177.364C198.899 180.963 187.485 191.985 183.386 206.281L110.584 460.173C106.484 474.468 110.323 489.864 120.653 500.561L304.129 690.556C314.459 701.253 329.712 705.628 344.142 702.03L600.421 638.133Z" stroke="white" stroke-width="5"/>
<path opacity="0.1" d="M583.832 633.975C597.716 631.022 608.972 620.887 613.358 607.386L691.267 367.607C695.655 354.108 692.505 339.292 683.007 328.743L514.307 141.383C504.809 130.834 490.403 126.153 476.518 129.104L229.909 181.523C216.024 184.475 204.768 194.61 200.382 208.111L122.473 447.89C118.086 461.389 121.236 476.205 130.734 486.754L299.434 674.114C308.932 684.663 323.337 689.344 337.223 686.393L583.832 633.975Z" stroke="white" stroke-width="5"/>
<path opacity="0.14" d="M567.782 628.954C581.095 626.605 592.145 617.333 596.769 604.628L678.892 378.996C683.517 366.293 681.012 352.087 672.322 341.731L517.981 157.794C509.291 147.438 495.735 142.503 482.421 144.851L245.956 186.546C232.643 188.894 221.593 198.167 216.969 210.871L134.846 436.503C130.221 449.206 132.726 463.413 141.416 473.769L295.757 657.706C304.447 668.062 318.003 672.996 331.317 670.649L567.782 628.954Z" stroke="white" stroke-width="5"/>
<path opacity="0.19" d="M552.309 623.098C565.027 621.31 575.825 612.873 580.636 600.964L666.087 389.467C670.899 377.56 668.991 363.989 661.084 353.869L520.648 174.118C512.741 163.997 500.034 158.863 487.316 160.65L261.428 192.397C248.711 194.185 237.912 202.622 233.101 214.531L147.651 426.028C142.839 437.935 144.746 451.506 152.653 461.627L293.09 641.377C300.997 651.498 313.703 656.632 326.422 654.845L552.309 623.098Z" stroke="white" stroke-width="5"/>
<path opacity="0.23" d="M537.452 616.452C549.552 615.179 560.055 607.548 565.004 596.432L652.9 399.013C657.85 387.899 656.492 374.987 649.341 365.144L522.32 190.314C515.168 180.471 503.308 175.19 491.207 176.461L276.289 199.05C264.189 200.323 253.686 207.954 248.737 219.07L160.841 416.488C155.891 427.603 157.248 440.515 164.4 450.358L291.421 625.188C298.573 635.031 310.433 640.312 322.534 639.04L537.452 616.452Z" stroke="white" stroke-width="5"/>
<path opacity="0.28" d="M523.243 609.04C534.705 608.237 544.87 601.381 549.908 591.052L639.378 407.612C644.416 397.284 643.56 385.052 637.134 375.526L523.005 206.323C516.58 196.796 505.559 191.421 494.095 192.222L290.496 206.459C279.034 207.262 268.869 214.118 263.831 224.447L174.362 407.887C169.323 418.215 170.179 430.447 176.605 439.973L290.734 609.176C297.159 618.702 308.18 624.078 319.644 623.277L523.243 609.04Z" stroke="white" stroke-width="5"/>
<path opacity="0.32" d="M509.719 600.906C520.528 600.528 530.314 594.413 535.391 584.863L625.572 415.257C630.65 405.708 630.247 394.175 624.516 385.003L522.724 222.102C516.993 212.93 506.803 207.512 495.994 207.889L304.021 214.593C293.213 214.971 283.426 221.086 278.349 230.636L188.168 400.242C183.09 409.791 183.493 421.324 189.224 430.496L291.016 593.397C296.747 602.569 306.937 607.987 317.746 607.61L509.719 600.906Z" stroke="white" stroke-width="5"/>
<path opacity="0.37" d="M496.911 592.087C507.05 592.086 516.419 586.677 521.489 577.895L611.531 421.937C616.601 413.157 616.601 402.338 611.531 393.557L521.489 237.599C516.42 228.819 507.05 223.409 496.91 223.408L316.826 223.409C306.687 223.409 297.317 228.819 292.248 237.6L202.205 393.558C197.135 402.338 197.136 413.158 202.205 421.938L292.247 577.896C297.317 586.677 306.686 592.087 316.826 592.087L496.911 592.087Z" stroke="white" stroke-width="5"/>
<path opacity="0.41" d="M484.854 582.628C494.311 582.958 503.227 578.217 508.241 570.191L597.31 427.652C602.325 419.628 602.677 409.536 598.235 401.18L519.326 252.775C514.884 244.42 506.32 239.069 496.862 238.738L328.886 232.872C319.428 232.543 310.513 237.283 305.498 245.309L216.43 387.848C211.414 395.873 211.062 405.965 215.505 414.32L294.413 562.725C298.856 571.08 307.419 576.432 316.877 576.762L484.854 582.628Z" stroke="white" stroke-width="5"/>
<path opacity="0.46" d="M473.573 572.564C482.339 573.177 490.766 569.066 495.68 561.781L582.955 432.39C587.869 425.106 588.523 415.752 584.671 407.854L516.253 267.576C512.401 259.678 504.627 254.435 495.861 253.821L340.168 242.934C331.402 242.322 322.975 246.432 318.061 253.718L230.786 383.109C225.872 390.393 225.218 399.747 229.07 407.645L297.488 547.922C301.34 555.82 309.113 561.064 317.88 561.677L473.573 572.564Z" stroke="white" stroke-width="5"/>
<path opacity="0.5" d="M463.094 561.942C471.161 562.79 479.068 559.269 483.836 552.707L568.517 436.153C573.285 429.592 574.189 420.984 570.89 413.574L512.293 281.961C508.993 274.551 501.991 269.464 493.924 268.615L350.645 253.556C342.579 252.709 334.672 256.229 329.904 262.792L245.223 379.345C240.455 385.907 239.55 394.515 242.85 401.925L301.447 533.537C304.746 540.947 311.749 546.035 319.816 546.883L463.094 561.942Z" stroke="white" stroke-width="5"/>
<path opacity="0.55" d="M453.445 550.804C460.808 551.839 468.164 548.867 472.742 543.007L554.047 438.941C558.625 433.082 559.729 425.225 556.944 418.331L507.473 295.885C504.687 288.991 498.435 284.107 491.072 283.071L360.295 264.692C352.932 263.658 345.576 266.63 340.998 272.489L259.693 376.556C255.115 382.414 254.011 390.271 256.796 397.165L306.267 519.611C309.053 526.505 315.305 531.39 322.668 532.425L453.445 550.804Z" stroke="white" stroke-width="5"/>
<path opacity="0.59" d="M444.645 539.199C451.302 540.372 458.08 537.905 462.425 532.727L539.595 440.758C543.941 435.58 545.193 428.477 542.881 422.125L501.819 309.309C499.508 302.958 493.982 298.321 487.325 297.147L369.093 276.299C362.436 275.126 355.658 277.593 351.314 282.772L274.143 374.74C269.797 379.918 268.545 387.021 270.857 393.373L311.919 506.189C314.231 512.541 319.756 517.177 326.413 518.351L444.645 539.199Z" stroke="white" stroke-width="5"/>
<path opacity="0.64" d="M436.717 527.168C442.668 528.432 448.842 526.426 452.912 521.905L525.212 441.608C529.283 437.087 530.633 430.737 528.753 424.952L495.363 322.189C493.484 316.404 488.659 312.06 482.709 310.795L377.019 288.33C371.068 287.066 364.895 289.071 360.824 293.593L288.524 373.89C284.453 378.411 283.104 384.76 284.984 390.546L318.373 493.308C320.253 499.094 325.077 503.438 331.028 504.703L436.717 527.168Z" stroke="white" stroke-width="5"/>
<path opacity="0.68" d="M429.68 514.76C434.927 516.068 440.474 514.477 444.23 510.587L510.949 441.498C514.705 437.608 516.101 432.009 514.611 426.811L488.137 334.487C486.647 329.289 482.496 325.28 477.249 323.972L384.056 300.737C378.81 299.429 373.263 301.019 369.507 304.909L302.788 373.999C299.031 377.888 297.636 383.487 299.126 388.685L325.6 481.009C327.09 486.207 331.241 490.216 336.488 491.524L429.68 514.76Z" stroke="white" stroke-width="5"/>
<path opacity="0.73" d="M423.549 502.025C428.098 503.329 432.996 502.107 436.4 498.82L496.853 440.441C500.257 437.155 501.648 432.301 500.504 427.71L480.173 346.167C479.028 341.576 475.521 337.944 470.972 336.64L390.188 313.476C385.64 312.172 380.741 313.393 377.338 316.68L316.885 375.059C313.481 378.346 312.089 383.199 313.234 387.79L333.565 469.333C334.709 473.924 338.217 477.556 342.765 478.861L423.549 502.025Z" stroke="white" stroke-width="5"/>
<path opacity="0.77" d="M418.338 489.003C422.195 490.256 426.428 489.356 429.442 486.642L482.974 438.442C485.988 435.728 487.325 431.613 486.482 427.646L471.505 357.186C470.662 353.219 467.766 350.003 463.909 348.749L395.401 326.489C391.544 325.237 387.311 326.136 384.297 328.85L330.765 377.05C327.751 379.764 326.414 383.88 327.257 387.847L342.234 458.306C343.077 462.273 345.973 465.49 349.83 466.743L418.338 489.003Z" stroke="white" stroke-width="5"/>
<path opacity="0.82" d="M414.058 475.755C417.234 476.911 420.786 476.284 423.375 474.112L469.359 435.526C471.948 433.354 473.181 429.965 472.595 426.637L462.171 367.521C461.584 364.192 459.266 361.43 456.09 360.273L399.682 339.743C396.506 338.587 392.954 339.213 390.365 341.386L344.381 379.971C341.792 382.143 340.558 385.532 341.145 388.861L351.569 447.977C352.156 451.305 354.474 454.068 357.65 455.224L414.058 475.755Z" stroke="white" stroke-width="5"/>
<path opacity="0.86" d="M410.717 462.32C413.224 463.333 416.081 462.931 418.212 461.266L456.054 431.701C458.185 430.036 459.266 427.361 458.889 424.684L452.206 377.128C451.83 374.451 450.054 372.177 447.547 371.164L403.021 353.175C400.514 352.162 397.657 352.564 395.526 354.229L357.684 383.794C355.553 385.459 354.473 388.134 354.849 390.811L361.532 438.366C361.909 441.044 363.685 443.317 366.192 444.33L410.717 462.32Z" stroke="white" stroke-width="5"/>
<path opacity="0.91" d="M408.326 448.754C410.178 449.578 412.33 449.352 413.971 448.16L443.109 426.99C444.75 425.798 445.63 423.821 445.418 421.805L441.653 385.985C441.441 383.968 440.169 382.218 438.317 381.393L405.414 366.743C403.561 365.919 401.409 366.145 399.769 367.337L370.63 388.507C368.99 389.699 368.11 391.676 368.322 393.693L372.086 429.512C372.298 431.529 373.57 433.279 375.423 434.104L408.326 448.754Z" stroke="white" stroke-width="5"/>
<path opacity="0.95" d="M406.887 435.103C408.102 435.696 409.541 435.595 410.662 434.839L430.568 421.412C431.689 420.657 432.321 419.36 432.227 418.011L430.552 394.059C430.458 392.71 429.651 391.514 428.436 390.921L406.855 380.395C405.639 379.803 404.2 379.904 403.08 380.66L383.173 394.087C382.053 394.842 381.42 396.139 381.515 397.488L383.19 421.44C383.284 422.789 384.09 423.985 385.306 424.578L406.887 435.103Z" stroke="white" stroke-width="5"/>
<path d="M406.402 421.418C406.998 421.735 407.719 421.71 408.292 421.351L418.474 414.989C419.047 414.631 419.386 413.994 419.362 413.319L418.943 401.321C418.919 400.645 418.537 400.033 417.94 399.716L407.34 394.08C406.743 393.762 406.022 393.788 405.449 394.146L395.268 400.508C394.695 400.866 394.356 401.503 394.38 402.178L394.799 414.177C394.822 414.852 395.204 415.464 395.801 415.781L406.402 421.418Z" stroke="white" stroke-width="5"/>
</g>
</svg>
