<svg width="1728" height="124" viewBox="0 0 1728 124" fill="none" xmlns="http://www.w3.org/2000/svg">
<path fill-rule="evenodd" clip-rule="evenodd" d="M1728 57.8667L1728 123.367L1630 123.367C1553 123.367 1441 123.367 1296 123.367C1188 123.367 1058 123.367 948 123.367C909 123.367 920 123.367 880.5 123.367C726.5 123.367 572 123.367 432 123.367C284 123.367 174 123.367 96.9999 123.367L-2.86511e-05 123.367L-3.64433e-05 57.8668L72 45.5003C144 33.1337 288 8.40228 432 2.219C576 -3.9627 720 8.40222 864 20.7687L864.111 20.7782C1008.07 33.14 1152.04 45.5018 1296 51.6834C1440 57.8667 1584 57.8667 1656 57.8667L1728 57.8667Z" fill="#15284C"/>
</svg>
