<svg width="32" height="32" viewBox="0 0 32 32" fill="none" xmlns="http://www.w3.org/2000/svg">
<g clip-path="url(#clip0_212_233)">
<path d="M10.3036 15.4122L4.53138 18.8784C4.5111 18.8905 4.49563 18.9097 4.48768 18.9324L0.454857 30.4642C0.297976 30.9129 0.766755 31.3209 1.17043 31.0872L7.96084 27.1552C7.98574 27.1408 8.00346 27.1161 8.00953 27.0873L10.4516 15.523C10.4702 15.4355 10.3788 15.3672 10.3036 15.4122Z" fill="#7AADD3"/>
<path d="M15.851 31.6782L8.06441 27.1694C8.02614 27.1472 8.00639 27.102 8.01572 27.0578L10.4696 15.4381C10.4843 15.3681 10.5623 15.3346 10.621 15.3731L15.9537 18.8665C15.9826 18.8854 16 18.9182 16 18.9534V31.5885C16 31.6671 15.9176 31.7167 15.851 31.6782Z" fill="#CADEED"/>
<path d="M15.851 31.6782L8.06441 27.1694C8.02614 27.1472 8.00639 27.102 8.01572 27.0578L10.4696 15.4381C10.4843 15.3681 10.5623 15.3346 10.621 15.3731L15.9537 18.8665C15.9826 18.8854 16 18.9182 16 18.9534V31.5885C16 31.6671 15.9176 31.7167 15.851 31.6782Z" fill="#7AADD3"/>
<path d="M15.851 31.6782L8.06441 27.1694C8.02614 27.1472 8.00639 27.102 8.01572 27.0578L10.4696 15.4381C10.4843 15.3681 10.5623 15.3346 10.621 15.3731L15.9537 18.8665C15.9826 18.8854 16 18.9182 16 18.9534V31.5885C16 31.6671 15.9176 31.7167 15.851 31.6782Z" fill="black" fill-opacity="0.1"/>
<path d="M23.9356 27.1694L16.149 31.6782C16.0824 31.7167 16 31.6671 16 31.5885V18.9534C16 18.9182 16.0175 18.8854 16.0464 18.8665L21.379 15.3731C21.4377 15.3346 21.5157 15.3681 21.5304 15.4381L23.9843 27.0578C23.9936 27.102 23.9739 27.1472 23.9356 27.1694Z" fill="#7AADD3"/>
<path d="M27.4686 18.8784L21.6964 15.4122C21.6212 15.3672 21.5298 15.4355 21.5483 15.523L23.9905 27.0873C23.9965 27.1161 24.0142 27.1408 24.0391 27.1552L30.8295 31.0872C31.2333 31.3209 31.702 30.9129 31.5451 30.4642L27.5123 18.9324C27.5044 18.9097 27.4889 18.8905 27.4686 18.8784Z" fill="#CADEED"/>
<path d="M27.4686 18.8784L21.6964 15.4122C21.6212 15.3672 21.5298 15.4355 21.5483 15.523L23.9905 27.0873C23.9965 27.1161 24.0142 27.1408 24.0391 27.1552L30.8295 31.0872C31.2333 31.3209 31.702 30.9129 31.5451 30.4642L27.5123 18.9324C27.5044 18.9097 27.4889 18.8905 27.4686 18.8784Z" fill="#7AADD3"/>
<path d="M27.4686 18.8784L21.6964 15.4122C21.6212 15.3672 21.5298 15.4355 21.5483 15.523L23.9905 27.0873C23.9965 27.1161 24.0142 27.1408 24.0391 27.1552L30.8295 31.0872C31.2333 31.3209 31.702 30.9129 31.5451 30.4642L27.5123 18.9324C27.5044 18.9097 27.4889 18.8905 27.4686 18.8784Z" fill="black" fill-opacity="0.1"/>
<path d="M29.4879 30.1862L25 17.353L27.765 18.8779C27.7875 18.8903 27.8045 18.911 27.8126 18.9358L31.5679 30.441C31.7159 30.8946 31.2352 31.2924 30.8366 31.0463L29.5306 30.2395C29.5107 30.2274 29.4957 30.2085 29.4879 30.1862Z" fill="#CADEED"/>
<path d="M29.4879 30.1862L25 17.353L27.765 18.8779C27.7875 18.8903 27.8045 18.911 27.8126 18.9358L31.5679 30.441C31.7159 30.8946 31.2352 31.2924 30.8366 31.0463L29.5306 30.2395C29.5107 30.2274 29.4957 30.2085 29.4879 30.1862Z" fill="#7AADD3"/>
<path d="M29.4879 30.1862L25 17.353L27.765 18.8779C27.7875 18.8903 27.8045 18.911 27.8126 18.9358L31.5679 30.441C31.7159 30.8946 31.2352 31.2924 30.8366 31.0463L29.5306 30.2395C29.5107 30.2274 29.4957 30.2085 29.4879 30.1862Z" fill="black" fill-opacity="0.2"/>
<path fill-rule="evenodd" clip-rule="evenodd" d="M10.9397 15.0749L15.2392 22.2661C15.5905 22.8536 16.4163 22.8653 16.7831 22.2877L20.4628 16.4936C22.645 13.0576 24.6908 9.06593 23.5186 5.14214C22.7279 2.49569 20.7276 -0.00167419 15.9935 8.42135e-07C9.95642 0.00214115 8.44087 3.72609 8.24473 6.89672C8.06285 9.83708 9.43948 12.5657 10.9397 15.0749ZM20.566 8.47059C20.566 11.0696 18.5193 13.1765 15.9945 13.1765C13.4698 13.1765 11.4231 11.0696 11.4231 8.47059C11.4231 5.8716 13.4698 3.76471 15.9945 3.76471C18.5193 3.76471 20.566 5.8716 20.566 8.47059ZM15.9945 11.2941C17.5094 11.2941 18.7374 10.03 18.7374 8.47059C18.7374 6.9112 17.5094 5.64706 15.9945 5.64706C14.4798 5.64706 13.2517 6.9112 13.2517 8.47059C13.2517 10.03 14.4798 11.2941 15.9945 11.2941Z" fill="#15284C"/>
<path fill-rule="evenodd" clip-rule="evenodd" d="M10.9397 15.0749L15.2392 22.2661C15.5905 22.8536 16.4163 22.8653 16.7831 22.2877L20.4628 16.4936C22.645 13.0576 24.6908 9.06593 23.5186 5.14214C22.7279 2.49569 20.7276 -0.00167419 15.9935 8.42135e-07C9.95642 0.00214115 8.44087 3.72609 8.24473 6.89672C8.06285 9.83708 9.43948 12.5657 10.9397 15.0749ZM20.566 8.47059C20.566 11.0696 18.5193 13.1765 15.9945 13.1765C13.4698 13.1765 11.4231 11.0696 11.4231 8.47059C11.4231 5.8716 13.4698 3.76471 15.9945 3.76471C18.5193 3.76471 20.566 5.8716 20.566 8.47059ZM15.9945 11.2941C17.5094 11.2941 18.7374 10.03 18.7374 8.47059C18.7374 6.9112 17.5094 5.64706 15.9945 5.64706C14.4798 5.64706 13.2517 6.9112 13.2517 8.47059C13.2517 10.03 14.4798 11.2941 15.9945 11.2941Z" fill="white" fill-opacity="0.2"/>
<path d="M16 11.294C17.5149 11.294 18.7429 10.0299 18.7429 8.4705C18.7429 6.91111 17.5149 5.64697 16 5.64697C16 5.64697 17.834 7.23673 17.834 8.4705C17.834 9.70429 16 11.294 16 11.294Z" fill="#7AADD3"/>
<path d="M16 11.294C17.5149 11.294 18.7429 10.0299 18.7429 8.4705C18.7429 6.91111 17.5149 5.64697 16 5.64697C16 5.64697 17.834 7.23673 17.834 8.4705C17.834 9.70429 16 11.294 16 11.294Z" fill="#15284C"/>
<path d="M23.6039 10.0768C24.1661 7.15722 24.7045 -0.00272386 16.4572 7.77407e-07C16.4572 7.77407e-07 22.4133 0.320001 21.9429 8C21.6242 13.2018 16.9143 22.1176 16.9143 22.1176L20.5714 16.4706L22.7289 12.399C23.1183 11.6641 23.4457 10.898 23.6039 10.0768Z" fill="#7AADD3"/>
<path d="M23.6039 10.0768C24.1661 7.15722 24.7045 -0.00272386 16.4572 7.77407e-07C16.4572 7.77407e-07 22.4133 0.320001 21.9429 8C21.6242 13.2018 16.9143 22.1176 16.9143 22.1176L20.5714 16.4706L22.7289 12.399C23.1183 11.6641 23.4457 10.898 23.6039 10.0768Z" fill="#15284C"/>
</g>
<defs>
<clipPath id="clip0_212_233">
<rect width="32" height="32" fill="white"/>
</clipPath>
</defs>
</svg>
