<svg width="20" height="20" viewBox="0 0 20 20" fill="none" xmlns="http://www.w3.org/2000/svg">
<path fill-rule="evenodd" clip-rule="evenodd" d="M9.99603 0C7.28175 0 6.94048 0.0119048 5.87302 0.0595238C4.80952 0.107143 4.08333 0.277778 3.44841 0.523809C2.78968 0.777777 2.23413 1.12302 1.67857 1.67857C1.12302 2.23413 0.781746 2.79365 0.523809 3.44841C0.277778 4.08333 0.107143 4.80952 0.0595238 5.87698C0.0119048 6.94047 0 7.28174 0 9.99603C0 12.7103 0.0119048 13.0516 0.0595238 14.119C0.107143 15.1825 0.277778 15.9087 0.523809 16.5476C0.777778 17.2063 1.12302 17.7619 1.67857 18.3174C2.23413 18.873 2.79365 19.2143 3.44841 19.4722C4.08333 19.7182 4.80952 19.8889 5.87698 19.9365C6.94444 19.9841 7.28175 19.996 10 19.996C12.7183 19.996 13.0556 19.9841 14.123 19.9365C15.1865 19.8889 15.9127 19.7182 16.5516 19.4722C17.2103 19.2182 17.7659 18.873 18.3214 18.3174C18.877 17.7619 19.2183 17.2024 19.4762 16.5476C19.7222 15.9127 19.8929 15.1865 19.9405 14.119C19.9881 13.0516 20 12.7143 20 9.99603C20 7.27777 19.9881 6.94047 19.9405 5.87301C19.8929 4.80952 19.7222 4.08333 19.4762 3.44444C19.2222 2.78571 18.877 2.23016 18.3214 1.6746C17.7659 1.11905 17.2064 0.777777 16.5516 0.519841C15.9167 0.273809 15.1905 0.103175 14.123 0.0555555C13.0516 0.0119048 12.7103 0 9.99603 0ZM9.99595 4.86503C7.16262 4.86503 4.86103 7.16265 4.86103 9.99994C4.86103 12.8372 7.15865 15.1349 9.99595 15.1349C12.8332 15.1349 15.1309 12.8372 15.1309 9.99994C15.1309 7.16265 12.8332 4.86503 9.99595 4.86503ZM9.99595 13.3293C8.15468 13.3293 6.66262 11.8372 6.66262 9.99598C6.66262 8.15471 8.15468 6.66265 9.99595 6.66265C11.8372 6.66265 13.3293 8.15471 13.3293 9.99598C13.3293 11.8372 11.8372 13.3293 9.99595 13.3293ZM16.5317 4.65871C16.5317 5.32058 15.9952 5.85713 15.3333 5.85713C14.6715 5.85713 14.1349 5.32058 14.1349 4.65871C14.1349 3.99685 14.6715 3.4603 15.3333 3.4603C15.9952 3.4603 16.5317 3.99685 16.5317 4.65871Z" fill="#15284C"/>
</svg>
