<svg width="40" height="40" viewBox="0 0 40 40" fill="none" xmlns="http://www.w3.org/2000/svg">
<rect width="40" height="40" rx="20" fill="white"/>
<path fill-rule="evenodd" clip-rule="evenodd" d="M19.996 10C17.2817 10 16.9405 10.0119 15.873 10.0595C14.8095 10.1071 14.0833 10.2778 13.4484 10.5238C12.7897 10.7778 12.2341 11.123 11.6786 11.6786C11.123 12.2341 10.7817 12.7936 10.5238 13.4484C10.2778 14.0833 10.1071 14.8095 10.0595 15.877C10.0119 16.9405 10 17.2817 10 19.996C10 22.7103 10.0119 23.0516 10.0595 24.119C10.1071 25.1825 10.2778 25.9087 10.5238 26.5476C10.7778 27.2063 11.123 27.7619 11.6786 28.3174C12.2341 28.873 12.7937 29.2143 13.4484 29.4722C14.0833 29.7182 14.8095 29.8889 15.877 29.9365C16.9444 29.9841 17.2817 29.996 20 29.996C22.7183 29.996 23.0556 29.9841 24.123 29.9365C25.1865 29.8889 25.9127 29.7182 26.5516 29.4722C27.2103 29.2182 27.7659 28.873 28.3214 28.3174C28.877 27.7619 29.2183 27.2024 29.4762 26.5476C29.7222 25.9127 29.8929 25.1865 29.9405 24.119C29.9881 23.0516 30 22.7143 30 19.996C30 17.2778 29.9881 16.9405 29.9405 15.873C29.8929 14.8095 29.7222 14.0833 29.4762 13.4444C29.2222 12.7857 28.877 12.2302 28.3214 11.6746C27.7659 11.119 27.2064 10.7778 26.5516 10.5198C25.9167 10.2738 25.1905 10.1032 24.123 10.0556C23.0516 10.0119 22.7103 10 19.996 10ZM19.9959 14.865C17.1626 14.865 14.861 17.1626 14.861 19.9999C14.861 22.8372 17.1586 25.1349 19.9959 25.1349C22.8332 25.1349 25.1309 22.8372 25.1309 19.9999C25.1309 17.1626 22.8332 14.865 19.9959 14.865ZM19.9959 23.3293C18.1547 23.3293 16.6626 21.8372 16.6626 19.996C16.6626 18.1547 18.1547 16.6626 19.9959 16.6626C21.8372 16.6626 23.3293 18.1547 23.3293 19.996C23.3293 21.8372 21.8372 23.3293 19.9959 23.3293ZM26.5317 14.6587C26.5317 15.3206 25.9952 15.8571 25.3333 15.8571C24.6715 15.8571 24.1349 15.3206 24.1349 14.6587C24.1349 13.9968 24.6715 13.4603 25.3333 13.4603C25.9952 13.4603 26.5317 13.9968 26.5317 14.6587Z" fill="#15284C"/>
</svg>
