<svg width="20" height="18" viewBox="0 0 20 18" fill="none" xmlns="http://www.w3.org/2000/svg">
<path d="M6.27501 17.3327C13.8272 17.3327 17.9566 10.9191 17.9566 5.36061C17.9566 5.17736 17.9566 4.99411 17.9481 4.81959C18.7484 4.22623 19.4466 3.48452 20 2.63809C19.2678 2.96968 18.4759 3.19656 17.6415 3.30127C18.493 2.77771 19.1401 1.95746 19.4466 0.971426C18.6547 1.45136 17.7778 1.8004 16.8412 1.99237C16.092 1.17212 15.0277 0.666016 13.8442 0.666016C11.5794 0.666016 9.74032 2.55083 9.74032 4.87195C9.74032 5.20354 9.77437 5.5264 9.851 5.83181C6.43678 5.65729 3.41422 3.9819 1.38782 1.4339C1.03874 2.05345 0.834398 2.77771 0.834398 3.5456C0.834398 5.00284 1.55811 6.29429 2.66496 7.04472C1.99234 7.02727 1.36228 6.8353 0.808855 6.52116C0.808855 6.53862 0.808855 6.55607 0.808855 6.57352C0.808855 8.6154 2.22222 10.3082 4.10387 10.7009C3.7633 10.7969 3.39719 10.8493 3.02256 10.8493C2.75862 10.8493 2.50319 10.8231 2.24777 10.7707C2.76714 12.4461 4.28267 13.659 6.07918 13.6939C4.67433 14.8196 2.90336 15.4915 0.97914 15.4915C0.647084 15.4915 0.323542 15.474 0 15.4304C1.79651 16.6346 3.95913 17.3327 6.27501 17.3327Z" fill="#15284C"/>
</svg>
