<svg width="40" height="40" viewBox="0 0 40 40" fill="none" xmlns="http://www.w3.org/2000/svg">
<rect width="40" height="40" rx="20" fill="white"/>
<path d="M16.275 28.3327C23.8272 28.3327 27.9566 21.9191 27.9566 16.3606C27.9566 16.1774 27.9566 15.9941 27.9481 15.8196C28.7484 15.2262 29.4466 14.4845 30 13.6381C29.2678 13.9697 28.4759 14.1966 27.6415 14.3013C28.493 13.7777 29.1401 12.9575 29.4466 11.9714C28.6547 12.4514 27.7778 12.8004 26.8412 12.9924C26.092 12.1721 25.0277 11.666 23.8442 11.666C21.5794 11.666 19.7403 13.5508 19.7403 15.8719C19.7403 16.2035 19.7744 16.5264 19.851 16.8318C16.4368 16.6573 13.4142 14.9819 11.3878 12.4339C11.0387 13.0535 10.8344 13.7777 10.8344 14.5456C10.8344 16.0028 11.5581 17.2943 12.665 18.0447C11.9923 18.0273 11.3623 17.8353 10.8089 17.5212C10.8089 17.5386 10.8089 17.5561 10.8089 17.5735C10.8089 19.6154 12.2222 21.3082 14.1039 21.7009C13.7633 21.7969 13.3972 21.8493 13.0226 21.8493C12.7586 21.8493 12.5032 21.8231 12.2478 21.7707C12.7671 23.4461 14.2827 24.659 16.0792 24.6939C14.6743 25.8196 12.9034 26.4915 10.9791 26.4915C10.6471 26.4915 10.3235 26.474 10 26.4304C11.7965 27.6346 13.9591 28.3327 16.275 28.3327Z" fill="#15284C"/>
</svg>
