<svg width="428" height="291" viewBox="0 0 428 291" fill="none" xmlns="http://www.w3.org/2000/svg">
<mask id="mask0_1_548" style="mask-type:alpha" maskUnits="userSpaceOnUse" x="0" y="0" width="428" height="291">
<rect width="428" height="291" transform="matrix(1 0 0 -1 0 291)" fill="url(#paint0_linear_1_548)"/>
</mask>
<g mask="url(#mask0_1_548)">
<path d="M3 279.035C9.40224 278.542 19.7965 275.018 33.7308 276.664C47.6651 278.311 54.8205 287.104 69.8846 286.939C84.9487 286.774 90.9744 275.051 106.038 275.874C121.103 276.697 127.128 292.455 142.192 290.891C157.256 289.327 163.282 269.683 178.346 268.366C193.41 267.048 199.436 285.721 214.5 284.568C229.564 283.415 235.59 261.763 250.654 262.833C265.718 263.903 271.744 288.635 286.808 289.705C301.872 290.776 307.897 267.806 322.962 267.97C338.026 268.135 344.051 291.154 359.115 290.496C374.179 289.837 381.335 267.197 395.269 264.809C409.204 262.421 419.598 276.072 426 279.035" stroke="white" stroke-opacity="0.12" stroke-width="2" stroke-linecap="round"/>
<path d="M3 16.2406C9.40224 15.7466 19.7965 12.2229 33.7308 13.8695C47.6651 15.5161 54.8205 24.3088 69.8846 24.1442C84.9487 23.9795 90.9744 12.2558 106.038 13.0791C121.103 13.9024 127.128 29.6602 142.192 28.096C157.256 26.5317 163.282 6.88796 178.346 5.57069C193.41 4.25342 199.436 22.9257 214.5 21.7731C229.564 20.6205 235.59 -1.03211 250.654 0.0381701C265.718 1.10845 271.744 25.8401 286.808 26.9104C301.872 27.9807 307.897 5.01085 322.962 5.17551C338.026 5.34017 344.051 28.3594 359.115 27.7008C374.179 27.0421 381.335 4.40162 395.269 2.01407C409.204 -0.373476 419.598 13.2767 426 16.2406" stroke="white" stroke-opacity="0.12" stroke-width="2" stroke-linecap="round"/>
<path d="M3 30.0721C9.40224 29.5781 19.7965 26.0544 33.7308 27.701C47.6651 29.3476 54.8205 38.1404 69.8846 37.9757C84.9487 37.811 90.9744 26.0874 106.038 26.9107C121.103 27.7339 127.128 43.4918 142.192 41.9275C157.256 40.3632 163.282 20.7195 178.346 19.4022C193.41 18.085 199.436 36.7572 214.5 35.6046C229.564 34.452 235.59 12.7994 250.654 13.8697C265.718 14.94 271.744 39.6717 286.808 40.742C301.872 41.8122 307.897 18.8424 322.962 19.0071C338.026 19.1717 344.051 42.191 359.115 41.5323C374.179 40.8737 381.335 18.2332 395.269 15.8456C409.204 13.4581 419.598 27.1082 426 30.0721" stroke="white" stroke-opacity="0.12" stroke-width="2" stroke-linecap="round"/>
<path d="M3 43.9012C9.40224 43.4072 19.7965 39.8835 33.7308 41.5301C47.6651 43.1767 54.8205 51.9695 69.8846 51.8048C84.9487 51.6401 90.9744 39.9165 106.038 40.7398C121.103 41.5631 127.128 57.3209 142.192 55.7566C157.256 54.1923 163.282 34.5486 178.346 33.2313C193.41 31.9141 199.436 50.5863 214.5 49.4337C229.564 48.2811 235.59 26.6285 250.654 27.6988C265.718 28.7691 271.744 53.5008 286.808 54.5711C301.872 55.6413 307.897 32.6715 322.962 32.8362C338.026 33.0008 344.051 56.0201 359.115 55.3614C374.179 54.7028 381.335 32.0623 395.269 29.6747C409.204 27.2872 419.598 40.9373 426 43.9012" stroke="white" stroke-opacity="0.12" stroke-width="2" stroke-linecap="round"/>
<path d="M3 57.7327C9.40224 57.2388 19.7965 53.7151 33.7308 55.3617C47.6651 57.0082 54.8205 65.801 69.8846 65.6363C84.9487 65.4717 90.9744 53.748 106.038 54.5713C121.103 55.3946 127.128 71.1524 142.192 69.5881C157.256 68.0239 163.282 48.3801 178.346 47.0629C193.41 45.7456 199.436 64.4179 214.5 63.2653C229.564 62.1127 235.59 40.4601 250.654 41.5304C265.718 42.6006 271.744 67.3323 286.808 68.4026C301.872 69.4729 307.897 46.503 322.962 46.6677C338.026 46.8324 344.051 69.8516 359.115 69.193C374.179 68.5343 381.335 45.8938 395.269 43.5063C409.204 41.1187 419.598 54.7689 426 57.7327" stroke="white" stroke-opacity="0.12" stroke-width="2" stroke-linecap="round"/>
<path d="M3 71.5662C9.40224 71.0723 19.7965 67.5486 33.7308 69.1952C47.6651 70.8417 54.8205 79.6345 69.8846 79.4698C84.9487 79.3052 90.9744 67.5815 106.038 68.4048C121.103 69.2281 127.128 84.9859 142.192 83.4216C157.256 81.8574 163.282 62.2136 178.346 60.8964C193.41 59.5791 199.436 78.2514 214.5 77.0988C229.564 75.9462 235.59 54.2936 250.654 55.3639C265.718 56.4341 271.744 81.1658 286.808 82.2361C301.872 83.3064 307.897 60.3365 322.962 60.5012C338.026 60.6659 344.051 83.6851 359.115 83.0265C374.179 82.3678 381.335 59.7273 395.269 57.3398C409.204 54.9522 419.598 68.6024 426 71.5662" stroke="white" stroke-opacity="0.12" stroke-width="2" stroke-linecap="round"/>
<path d="M3 85.3958C9.40224 84.9019 19.7965 81.3782 33.7308 83.0247C47.6651 84.6713 54.8205 93.4641 69.8846 93.2994C84.9487 93.1348 90.9744 81.4111 106.038 82.2344C121.103 83.0577 127.128 98.8155 142.192 97.2512C157.256 95.687 163.282 76.0432 178.346 74.726C193.41 73.4087 199.436 92.081 214.5 90.9284C229.564 89.7757 235.59 68.1232 250.654 69.1934C265.718 70.2637 271.744 94.9954 286.808 96.0657C301.872 97.136 307.897 74.1661 322.962 74.3308C338.026 74.4954 344.051 97.5147 359.115 96.8561C374.179 96.1974 381.335 73.5569 395.269 71.1693C409.204 68.7818 419.598 82.432 426 85.3958" stroke="white" stroke-opacity="0.12" stroke-width="2" stroke-linecap="round"/>
<path d="M3 99.2269C9.40224 98.7329 19.7965 95.2092 33.7308 96.8558C47.6651 98.5024 54.8205 107.295 69.8846 107.13C84.9487 106.966 90.9744 95.2422 106.038 96.0654C121.103 96.8887 127.128 112.647 142.192 111.082C157.256 109.518 163.282 89.8743 178.346 88.557C193.41 87.2398 199.436 105.912 214.5 104.759C229.564 103.607 235.59 81.9542 250.654 83.0245C265.718 84.0948 271.744 108.826 286.808 109.897C301.872 110.967 307.897 87.9972 322.962 88.1618C338.026 88.3265 344.051 111.346 359.115 110.687C374.179 110.028 381.335 87.3879 395.269 85.0004C409.204 82.6129 419.598 96.263 426 99.2269" stroke="white" stroke-opacity="0.12" stroke-width="2" stroke-linecap="round"/>
<path d="M3 113.058C9.40224 112.564 19.7965 109.041 33.7308 110.687C47.6651 112.334 54.8205 121.127 69.8846 120.962C84.9487 120.797 90.9744 109.074 106.038 109.897C121.103 110.72 127.128 126.478 142.192 124.914C157.256 123.35 163.282 103.706 178.346 102.389C193.41 101.071 199.436 119.744 214.5 118.591C229.564 117.438 235.59 95.7858 250.654 96.856C265.718 97.9263 271.744 122.658 286.808 123.728C301.872 124.799 307.897 101.829 322.962 101.993C338.026 102.158 344.051 125.177 359.115 124.519C374.179 123.86 381.335 101.219 395.269 98.8319C409.204 96.4444 419.598 110.095 426 113.058" stroke="white" stroke-opacity="0.12" stroke-width="2" stroke-linecap="round"/>
<path d="M3 126.89C9.40224 126.396 19.7965 122.872 33.7308 124.519C47.6651 126.165 54.8205 134.958 69.8846 134.794C84.9487 134.629 90.9744 122.905 106.038 123.729C121.103 124.552 127.128 140.31 142.192 138.745C157.256 137.181 163.282 117.537 178.346 116.22C193.41 114.903 199.436 133.575 214.5 132.422C229.564 131.27 235.59 109.617 250.654 110.688C265.718 111.758 271.744 136.49 286.808 137.56C301.872 138.63 307.897 115.66 322.962 115.825C338.026 115.99 344.051 139.009 359.115 138.35C374.179 137.692 381.335 115.051 395.269 112.663C409.204 110.276 419.598 123.926 426 126.89" stroke="white" stroke-opacity="0.12" stroke-width="2" stroke-linecap="round"/>
<path d="M3 140.723C9.40224 140.229 19.7965 136.706 33.7308 138.352C47.6651 139.999 54.8205 148.792 69.8846 148.627C84.9487 148.462 90.9744 136.739 106.038 137.562C121.103 138.385 127.128 154.143 142.192 152.579C157.256 151.015 163.282 131.371 178.346 130.054C193.41 128.736 199.436 147.409 214.5 146.256C229.564 145.103 235.59 123.451 250.654 124.521C265.718 125.591 271.744 150.323 286.808 151.393C301.872 152.464 307.897 129.494 322.962 129.658C338.026 129.823 344.051 152.842 359.115 152.184C374.179 151.525 381.335 128.885 395.269 126.497C409.204 124.109 419.598 137.76 426 140.723" stroke="white" stroke-opacity="0.12" stroke-width="2" stroke-linecap="round"/>
<path d="M3 154.555C9.40224 154.061 19.7965 150.537 33.7308 152.183C47.6651 153.83 54.8205 162.623 69.8846 162.458C84.9487 162.293 90.9744 150.57 106.038 151.393C121.103 152.216 127.128 167.974 142.192 166.41C157.256 164.846 163.282 145.202 178.346 143.885C193.41 142.567 199.436 161.24 214.5 160.087C229.564 158.934 235.59 137.282 250.654 138.352C265.718 139.422 271.744 164.154 286.808 165.224C301.872 166.295 307.897 143.325 322.962 143.489C338.026 143.654 344.051 166.673 359.115 166.015C374.179 165.356 381.335 142.716 395.269 140.328C409.204 137.94 419.598 151.591 426 154.555" stroke="white" stroke-opacity="0.12" stroke-width="2" stroke-linecap="round"/>
<path d="M3 168.386C9.40224 167.892 19.7965 164.368 33.7308 166.015C47.6651 167.662 54.8205 176.454 69.8846 176.29C84.9487 176.125 90.9744 164.401 106.038 165.225C121.103 166.048 127.128 181.806 142.192 180.241C157.256 178.677 163.282 159.033 178.346 157.716C193.41 156.399 199.436 175.071 214.5 173.919C229.564 172.766 235.59 151.113 250.654 152.184C265.718 153.254 271.744 177.986 286.808 179.056C301.872 180.126 307.897 157.156 322.962 157.321C338.026 157.486 344.051 180.505 359.115 179.846C374.179 179.188 381.335 156.547 395.269 154.16C409.204 151.772 419.598 165.422 426 168.386" stroke="white" stroke-opacity="0.12" stroke-width="2" stroke-linecap="round"/>
<path d="M3 182.216C9.40224 181.722 19.7965 178.198 33.7308 179.845C47.6651 181.491 54.8205 190.284 69.8846 190.119C84.9487 189.955 90.9744 178.231 106.038 179.054C121.103 179.878 127.128 195.635 142.192 194.071C157.256 192.507 163.282 172.863 178.346 171.546C193.41 170.229 199.436 188.901 214.5 187.748C229.564 186.596 235.59 164.943 250.654 166.013C265.718 167.084 271.744 191.815 286.808 192.886C301.872 193.956 307.897 170.986 322.962 171.151C338.026 171.315 344.051 194.335 359.115 193.676C374.179 193.017 381.335 170.377 395.269 167.989C409.204 165.602 419.598 179.252 426 182.216" stroke="white" stroke-opacity="0.12" stroke-width="2" stroke-linecap="round"/>
<path d="M3 196.049C9.40224 195.555 19.7965 192.031 33.7308 193.678C47.6651 195.325 54.8205 204.117 69.8846 203.953C84.9487 203.788 90.9744 192.064 106.038 192.888C121.103 193.711 127.128 209.469 142.192 207.905C157.256 206.34 163.282 186.697 178.346 185.379C193.41 184.062 199.436 202.734 214.5 201.582C229.564 200.429 235.59 178.776 250.654 179.847C265.718 180.917 271.744 205.649 286.808 206.719C301.872 207.789 307.897 184.819 322.962 184.984C338.026 185.149 344.051 208.168 359.115 207.509C374.179 206.851 381.335 184.21 395.269 181.823C409.204 179.435 419.598 193.085 426 196.049" stroke="white" stroke-opacity="0.12" stroke-width="2" stroke-linecap="round"/>
<path d="M3 209.88C9.40224 209.386 19.7965 205.863 33.7308 207.509C47.6651 209.156 54.8205 217.948 69.8846 217.784C84.9487 217.619 90.9744 205.895 106.038 206.719C121.103 207.542 127.128 223.3 142.192 221.736C157.256 220.171 163.282 200.528 178.346 199.21C193.41 197.893 199.436 216.565 214.5 215.413C229.564 214.26 235.59 192.608 250.654 193.678C265.718 194.748 271.744 219.48 286.808 220.55C301.872 221.62 307.897 198.651 322.962 198.815C338.026 198.98 344.051 221.999 359.115 221.34C374.179 220.682 381.335 198.041 395.269 195.654C409.204 193.266 419.598 206.916 426 209.88" stroke="white" stroke-opacity="0.12" stroke-width="2" stroke-linecap="round"/>
<path d="M3 223.71C9.40224 223.216 19.7965 219.692 33.7308 221.339C47.6651 222.985 54.8205 231.778 69.8846 231.613C84.9487 231.449 90.9744 219.725 106.038 220.548C121.103 221.372 127.128 237.129 142.192 235.565C157.256 234.001 163.282 214.357 178.346 213.04C193.41 211.723 199.436 230.395 214.5 229.242C229.564 228.09 235.59 206.437 250.654 207.507C265.718 208.578 271.744 233.309 286.808 234.38C301.872 235.45 307.897 212.48 322.962 212.645C338.026 212.809 344.051 235.829 359.115 235.17C374.179 234.511 381.335 211.871 395.269 209.483C409.204 207.096 419.598 220.746 426 223.71" stroke="white" stroke-opacity="0.12" stroke-width="2" stroke-linecap="round"/>
<path d="M3 237.541C9.40224 237.047 19.7965 233.524 33.7308 235.17C47.6651 236.817 54.8205 245.61 69.8846 245.445C84.9487 245.28 90.9744 233.557 106.038 234.38C121.103 235.203 127.128 250.961 142.192 249.397C157.256 247.832 163.282 228.189 178.346 226.871C193.41 225.554 199.436 244.226 214.5 243.074C229.564 241.921 235.59 220.269 250.654 221.339C265.718 222.409 271.744 247.141 286.808 248.211C301.872 249.281 307.897 226.312 322.962 226.476C338.026 226.641 344.051 249.66 359.115 249.002C374.179 248.343 381.335 225.702 395.269 223.315C409.204 220.927 419.598 234.577 426 237.541" stroke="white" stroke-opacity="0.12" stroke-width="2" stroke-linecap="round"/>
<path d="M3 251.373C9.40224 250.879 19.7965 247.355 33.7308 249.002C47.6651 250.648 54.8205 259.441 69.8846 259.276C84.9487 259.112 90.9744 247.388 106.038 248.211C121.103 249.035 127.128 264.793 142.192 263.228C157.256 261.664 163.282 242.02 178.346 240.703C193.41 239.386 199.436 258.058 214.5 256.905C229.564 255.753 235.59 234.1 250.654 235.17C265.718 236.241 271.744 260.972 286.808 262.043C301.872 263.113 307.897 240.143 322.962 240.308C338.026 240.472 344.051 263.492 359.115 262.833C374.179 262.174 381.335 239.534 395.269 237.146C409.204 234.759 419.598 248.409 426 251.373" stroke="white" stroke-opacity="0.12" stroke-width="2" stroke-linecap="round"/>
<path d="M3 265.202C9.40224 264.708 19.7965 261.184 33.7308 262.831C47.6651 264.477 54.8205 273.27 69.8846 273.106C84.9487 272.941 90.9744 261.217 106.038 262.041C121.103 262.864 127.128 278.622 142.192 277.057C157.256 275.493 163.282 255.849 178.346 254.532C193.41 253.215 199.436 271.887 214.5 270.735C229.564 269.582 235.59 247.929 250.654 249C265.718 250.07 271.744 274.802 286.808 275.872C301.872 276.942 307.897 253.972 322.962 254.137C338.026 254.302 344.051 277.321 359.115 276.662C374.179 276.004 381.335 253.363 395.269 250.975C409.204 248.588 419.598 262.238 426 265.202" stroke="white" stroke-opacity="0.12" stroke-width="2" stroke-linecap="round"/>
</g>
<defs>
<linearGradient id="paint0_linear_1_548" x1="214" y1="0" x2="214" y2="291" gradientUnits="userSpaceOnUse">
<stop stop-color="#D9D9D9"/>
<stop offset="1" stop-color="#D9D9D9" stop-opacity="0"/>
</linearGradient>
</defs>
</svg>
