<svg width="428" height="600" viewBox="0 0 428 600" fill="none" xmlns="http://www.w3.org/2000/svg">
<mask id="mask0_1_3" style="mask-type:alpha" maskUnits="userSpaceOnUse" x="0" y="0" width="428" height="600">
<path fill-rule="evenodd" clip-rule="evenodd" d="M2.87656e-05 563.821L17.8334 574.876C35.6667 585.932 71.3334 608.042 107 596.987C142.667 585.932 178.333 569.349 214 574.876C249.667 580.404 289.612 596.987 325.278 596.987C360.945 596.987 392.333 599.634 410.167 571.996L428 544.358L428 -1.33282e-05L410.167 -1.05137e-05C392.333 -7.69924e-06 356.667 -2.07022e-06 321 3.55878e-06C285.333 9.18779e-06 249.667 1.48168e-05 214 2.04458e-05C178.333 2.60748e-05 142.667 3.17038e-05 107 3.73328e-05C71.3334 4.29618e-05 35.6667 4.85908e-05 17.8333 5.14053e-05L1.38043e-05 5.42198e-05L2.87656e-05 563.821Z" fill="white"/>
</mask>
<g mask="url(#mask0_1_3)">
<rect width="428" height="278" transform="matrix(1 0 0 -1 0 600)" fill="#BC3B39"/>
<rect width="428" height="85" transform="matrix(1 0 0 -1 0 322)" fill="url(#paint0_linear_1_3)"/>
<mask id="mask1_1_3" style="mask-type:alpha" maskUnits="userSpaceOnUse" x="0" y="309" width="428" height="291">
<rect width="428" height="291" transform="matrix(1 0 0 -1 0 600)" fill="url(#paint1_linear_1_3)"/>
</mask>
<g mask="url(#mask1_1_3)">
<path d="M3 588.035C9.40224 587.542 19.7965 584.018 33.7308 585.664C47.6651 587.311 54.8205 596.104 69.8846 595.939C84.9487 595.774 90.9744 584.051 106.038 584.874C121.103 585.697 127.128 601.455 142.192 599.891C157.256 598.327 163.282 578.683 178.346 577.366C193.41 576.048 199.436 594.721 214.5 593.568C229.564 592.415 235.59 570.763 250.654 571.833C265.718 572.903 271.744 597.635 286.808 598.705C301.872 599.776 307.897 576.806 322.962 576.97C338.026 577.135 344.051 600.154 359.115 599.496C374.179 598.837 381.335 576.197 395.269 573.809C409.204 571.421 419.598 585.072 426 588.035" stroke="white" stroke-opacity="0.12" stroke-width="2" stroke-linecap="round"/>
<path d="M3 325.241C9.40224 324.747 19.7965 321.223 33.7308 322.869C47.6651 324.516 54.8205 333.309 69.8846 333.144C84.9487 332.98 90.9744 321.256 106.038 322.079C121.103 322.902 127.128 338.66 142.192 337.096C157.256 335.532 163.282 315.888 178.346 314.571C193.41 313.253 199.436 331.926 214.5 330.773C229.564 329.62 235.59 307.968 250.654 309.038C265.718 310.108 271.744 334.84 286.808 335.91C301.872 336.981 307.897 314.011 322.962 314.176C338.026 314.34 344.051 337.359 359.115 336.701C374.179 336.042 381.335 313.402 395.269 311.014C409.204 308.627 419.598 322.277 426 325.241" stroke="white" stroke-opacity="0.12" stroke-width="2" stroke-linecap="round"/>
<path d="M3 339.072C9.40224 338.578 19.7965 335.054 33.7308 336.701C47.6651 338.347 54.8205 347.14 69.8846 346.976C84.9487 346.811 90.9744 335.087 106.038 335.911C121.103 336.734 127.128 352.492 142.192 350.927C157.256 349.363 163.282 329.719 178.346 328.402C193.41 327.085 199.436 345.757 214.5 344.604C229.564 343.452 235.59 321.799 250.654 322.87C265.718 323.94 271.744 348.672 286.808 349.742C301.872 350.812 307.897 327.842 322.962 328.007C338.026 328.172 344.051 351.191 359.115 350.532C374.179 349.874 381.335 327.233 395.269 324.845C409.204 322.458 419.598 336.108 426 339.072" stroke="white" stroke-opacity="0.12" stroke-width="2" stroke-linecap="round"/>
<path d="M3 352.901C9.40224 352.407 19.7965 348.884 33.7308 350.53C47.6651 352.177 54.8205 360.97 69.8846 360.805C84.9487 360.64 90.9744 348.917 106.038 349.74C121.103 350.563 127.128 366.321 142.192 364.757C157.256 363.193 163.282 343.549 178.346 342.232C193.41 340.914 199.436 359.587 214.5 358.434C229.564 357.281 235.59 335.629 250.654 336.699C265.718 337.769 271.744 362.501 286.808 363.571C301.872 364.642 307.897 341.672 322.962 341.836C338.026 342.001 344.051 365.02 359.115 364.362C374.179 363.703 381.335 341.062 395.269 338.675C409.204 336.287 419.598 349.938 426 352.901" stroke="white" stroke-opacity="0.12" stroke-width="2" stroke-linecap="round"/>
<path d="M3 366.733C9.40224 366.239 19.7965 362.715 33.7308 364.362C47.6651 366.008 54.8205 374.801 69.8846 374.636C84.9487 374.472 90.9744 362.748 106.038 363.571C121.103 364.395 127.128 380.152 142.192 378.588C157.256 377.024 163.282 357.38 178.346 356.063C193.41 354.746 199.436 373.418 214.5 372.265C229.564 371.113 235.59 349.46 250.654 350.53C265.718 351.601 271.744 376.332 286.808 377.403C301.872 378.473 307.897 355.503 322.962 355.668C338.026 355.832 344.051 378.852 359.115 378.193C374.179 377.534 381.335 354.894 395.269 352.506C409.204 350.119 419.598 363.769 426 366.733" stroke="white" stroke-opacity="0.12" stroke-width="2" stroke-linecap="round"/>
<path d="M3 380.566C9.40224 380.072 19.7965 376.549 33.7308 378.195C47.6651 379.842 54.8205 388.634 69.8846 388.47C84.9487 388.305 90.9744 376.581 106.038 377.405C121.103 378.228 127.128 393.986 142.192 392.422C157.256 390.857 163.282 371.214 178.346 369.896C193.41 368.579 199.436 387.251 214.5 386.099C229.564 384.946 235.59 363.294 250.654 364.364C265.718 365.434 271.744 390.166 286.808 391.236C301.872 392.306 307.897 369.337 322.962 369.501C338.026 369.666 344.051 392.685 359.115 392.026C374.179 391.368 381.335 368.727 395.269 366.34C409.204 363.952 419.598 377.602 426 380.566" stroke="white" stroke-opacity="0.12" stroke-width="2" stroke-linecap="round"/>
<path d="M3 394.396C9.40224 393.902 19.7965 390.378 33.7308 392.025C47.6651 393.671 54.8205 402.464 69.8846 402.299C84.9487 402.135 90.9744 390.411 106.038 391.234C121.103 392.057 127.128 407.815 142.192 406.251C157.256 404.687 163.282 385.043 178.346 383.726C193.41 382.409 199.436 401.081 214.5 399.928C229.564 398.776 235.59 377.123 250.654 378.193C265.718 379.264 271.744 403.995 286.808 405.066C301.872 406.136 307.897 383.166 322.962 383.331C338.026 383.495 344.051 406.515 359.115 405.856C374.179 405.197 381.335 382.557 395.269 380.169C409.204 377.782 419.598 391.432 426 394.396" stroke="white" stroke-opacity="0.12" stroke-width="2" stroke-linecap="round"/>
<path d="M3 408.227C9.40224 407.733 19.7965 404.209 33.7308 405.856C47.6651 407.503 54.8205 416.295 69.8846 416.131C84.9487 415.966 90.9744 404.242 106.038 405.066C121.103 405.889 127.128 421.647 142.192 420.082C157.256 418.518 163.282 398.874 178.346 397.557C193.41 396.24 199.436 414.912 214.5 413.76C229.564 412.607 235.59 390.954 250.654 392.025C265.718 393.095 271.744 417.827 286.808 418.897C301.872 419.967 307.897 396.997 322.962 397.162C338.026 397.327 344.051 420.346 359.115 419.687C374.179 419.029 381.335 396.388 395.269 394.001C409.204 391.613 419.598 405.263 426 408.227" stroke="white" stroke-opacity="0.12" stroke-width="2" stroke-linecap="round"/>
<path d="M3 422.058C9.40224 421.564 19.7965 418.041 33.7308 419.687C47.6651 421.334 54.8205 430.127 69.8846 429.962C84.9487 429.797 90.9744 418.074 106.038 418.897C121.103 419.72 127.128 435.478 142.192 433.914C157.256 432.35 163.282 412.706 178.346 411.389C193.41 410.071 199.436 428.744 214.5 427.591C229.564 426.438 235.59 404.786 250.654 405.856C265.718 406.926 271.744 431.658 286.808 432.728C301.872 433.799 307.897 410.829 322.962 410.993C338.026 411.158 344.051 434.177 359.115 433.519C374.179 432.86 381.335 410.22 395.269 407.832C409.204 405.444 419.598 419.095 426 422.058" stroke="white" stroke-opacity="0.12" stroke-width="2" stroke-linecap="round"/>
<path d="M3 435.89C9.40224 435.396 19.7965 431.872 33.7308 433.519C47.6651 435.165 54.8205 443.958 69.8846 443.793C84.9487 443.629 90.9744 431.905 106.038 432.728C121.103 433.552 127.128 449.31 142.192 447.745C157.256 446.181 163.282 426.537 178.346 425.22C193.41 423.903 199.436 442.575 214.5 441.422C229.564 440.27 235.59 418.617 250.654 419.688C265.718 420.758 271.744 445.489 286.808 446.56C301.872 447.63 307.897 424.66 322.962 424.825C338.026 424.99 344.051 448.009 359.115 447.35C374.179 446.691 381.335 424.051 395.269 421.663C409.204 419.276 419.598 432.926 426 435.89" stroke="white" stroke-opacity="0.12" stroke-width="2" stroke-linecap="round"/>
<path d="M3 449.723C9.40224 449.229 19.7965 445.706 33.7308 447.352C47.6651 448.999 54.8205 457.792 69.8846 457.627C84.9487 457.462 90.9744 445.739 106.038 446.562C121.103 447.385 127.128 463.143 142.192 461.579C157.256 460.014 163.282 440.371 178.346 439.053C193.41 437.736 199.436 456.408 214.5 455.256C229.564 454.103 235.59 432.451 250.654 433.521C265.718 434.591 271.744 459.323 286.808 460.393C301.872 461.463 307.897 438.494 322.962 438.658C338.026 438.823 344.051 461.842 359.115 461.184C374.179 460.525 381.335 437.884 395.269 435.497C409.204 433.109 419.598 446.759 426 449.723" stroke="white" stroke-opacity="0.12" stroke-width="2" stroke-linecap="round"/>
<path d="M3 463.555C9.40224 463.061 19.7965 459.537 33.7308 461.184C47.6651 462.83 54.8205 471.623 69.8846 471.458C84.9487 471.294 90.9744 459.57 106.038 460.393C121.103 461.217 127.128 476.974 142.192 475.41C157.256 473.846 163.282 454.202 178.346 452.885C193.41 451.568 199.436 470.24 214.5 469.087C229.564 467.935 235.59 446.282 250.654 447.352C265.718 448.423 271.744 473.154 286.808 474.225C301.872 475.295 307.897 452.325 322.962 452.49C338.026 452.654 344.051 475.674 359.115 475.015C374.179 474.356 381.335 451.716 395.269 449.328C409.204 446.941 419.598 460.591 426 463.555" stroke="white" stroke-opacity="0.12" stroke-width="2" stroke-linecap="round"/>
<path d="M3 477.386C9.40224 476.892 19.7965 473.368 33.7308 475.015C47.6651 476.662 54.8205 485.454 69.8846 485.29C84.9487 485.125 90.9744 473.401 106.038 474.225C121.103 475.048 127.128 490.806 142.192 489.242C157.256 487.677 163.282 468.034 178.346 466.716C193.41 465.399 199.436 484.071 214.5 482.919C229.564 481.766 235.59 460.113 250.654 461.184C265.718 462.254 271.744 486.986 286.808 488.056C301.872 489.126 307.897 466.156 322.962 466.321C338.026 466.486 344.051 489.505 359.115 488.846C374.179 488.188 381.335 465.547 395.269 463.16C409.204 460.772 419.598 474.422 426 477.386" stroke="white" stroke-opacity="0.12" stroke-width="2" stroke-linecap="round"/>
<path d="M3 491.216C9.40224 490.722 19.7965 487.198 33.7308 488.844C47.6651 490.491 54.8205 499.284 69.8846 499.119C84.9487 498.955 90.9744 487.231 106.038 488.054C121.103 488.877 127.128 504.635 142.192 503.071C157.256 501.507 163.282 481.863 178.346 480.546C193.41 479.228 199.436 497.901 214.5 496.748C229.564 495.595 235.59 473.943 250.654 475.013C265.718 476.083 271.744 500.815 286.808 501.885C301.872 502.956 307.897 479.986 322.962 480.151C338.026 480.315 344.051 503.334 359.115 502.676C374.179 502.017 381.335 479.377 395.269 476.989C409.204 474.602 419.598 488.252 426 491.216" stroke="white" stroke-opacity="0.12" stroke-width="2" stroke-linecap="round"/>
<path d="M3 505.049C9.40224 504.555 19.7965 501.031 33.7308 502.678C47.6651 504.324 54.8205 513.117 69.8846 512.953C84.9487 512.788 90.9744 501.064 106.038 501.888C121.103 502.711 127.128 518.469 142.192 516.904C157.256 515.34 163.282 495.696 178.346 494.379C193.41 493.062 199.436 511.734 214.5 510.582C229.564 509.429 235.59 487.776 250.654 488.847C265.718 489.917 271.744 514.649 286.808 515.719C301.872 516.789 307.897 493.819 322.962 493.984C338.026 494.149 344.051 517.168 359.115 516.509C374.179 515.851 381.335 493.21 395.269 490.822C409.204 488.435 419.598 502.085 426 505.049" stroke="white" stroke-opacity="0.12" stroke-width="2" stroke-linecap="round"/>
<path d="M3 518.88C9.40224 518.386 19.7965 514.863 33.7308 516.509C47.6651 518.156 54.8205 526.949 69.8846 526.784C84.9487 526.619 90.9744 514.896 106.038 515.719C121.103 516.542 127.128 532.3 142.192 530.736C157.256 529.172 163.282 509.528 178.346 508.211C193.41 506.893 199.436 525.566 214.5 524.413C229.564 523.26 235.59 501.608 250.654 502.678C265.718 503.748 271.744 528.48 286.808 529.55C301.872 530.621 307.897 507.651 322.962 507.815C338.026 507.98 344.051 530.999 359.115 530.341C374.179 529.682 381.335 507.041 395.269 504.654C409.204 502.266 419.598 515.917 426 518.88" stroke="white" stroke-opacity="0.12" stroke-width="2" stroke-linecap="round"/>
<path d="M3 532.71C9.40224 532.216 19.7965 528.692 33.7308 530.339C47.6651 531.985 54.8205 540.778 69.8846 540.613C84.9487 540.449 90.9744 528.725 106.038 529.548C121.103 530.372 127.128 546.129 142.192 544.565C157.256 543.001 163.282 523.357 178.346 522.04C193.41 520.723 199.436 539.395 214.5 538.242C229.564 537.09 235.59 515.437 250.654 516.507C265.718 517.578 271.744 542.309 286.808 543.38C301.872 544.45 307.897 521.48 322.962 521.645C338.026 521.809 344.051 544.829 359.115 544.17C374.179 543.511 381.335 520.871 395.269 518.483C409.204 516.096 419.598 529.746 426 532.71" stroke="white" stroke-opacity="0.12" stroke-width="2" stroke-linecap="round"/>
<path d="M3 546.541C9.40224 546.047 19.7965 542.524 33.7308 544.17C47.6651 545.817 54.8205 554.609 69.8846 554.445C84.9487 554.28 90.9744 542.556 106.038 543.38C121.103 544.203 127.128 559.961 142.192 558.397C157.256 556.832 163.282 537.189 178.346 535.871C193.41 534.554 199.436 553.226 214.5 552.074C229.564 550.921 235.59 529.269 250.654 530.339C265.718 531.409 271.744 556.141 286.808 557.211C301.872 558.281 307.897 535.312 322.962 535.476C338.026 535.641 344.051 558.66 359.115 558.001C374.179 557.343 381.335 534.702 395.269 532.315C409.204 529.927 419.598 543.577 426 546.541" stroke="white" stroke-opacity="0.12" stroke-width="2" stroke-linecap="round"/>
<path d="M3 560.373C9.40224 559.879 19.7965 556.355 33.7308 558.002C47.6651 559.648 54.8205 568.441 69.8846 568.276C84.9487 568.112 90.9744 556.388 106.038 557.211C121.103 558.034 127.128 573.792 142.192 572.228C157.256 570.664 163.282 551.02 178.346 549.703C193.41 548.386 199.436 567.058 214.5 565.905C229.564 564.753 235.59 543.1 250.654 544.17C265.718 545.241 271.744 569.972 286.808 571.042C301.872 572.113 307.897 549.143 322.962 549.308C338.026 549.472 344.051 572.491 359.115 571.833C374.179 571.174 381.335 548.534 395.269 546.146C409.204 543.759 419.598 557.409 426 560.373" stroke="white" stroke-opacity="0.12" stroke-width="2" stroke-linecap="round"/>
<path d="M3 574.202C9.40224 573.708 19.7965 570.184 33.7308 571.831C47.6651 573.478 54.8205 582.27 69.8846 582.106C84.9487 581.941 90.9744 570.217 106.038 571.041C121.103 571.864 127.128 587.622 142.192 586.057C157.256 584.493 163.282 564.849 178.346 563.532C193.41 562.215 199.436 580.887 214.5 579.735C229.564 578.582 235.59 556.929 250.654 558C265.718 559.07 271.744 583.802 286.808 584.872C301.872 585.942 307.897 562.972 322.962 563.137C338.026 563.302 344.051 586.321 359.115 585.662C374.179 585.004 381.335 562.363 395.269 559.976C409.204 557.588 419.598 571.238 426 574.202" stroke="white" stroke-opacity="0.12" stroke-width="2" stroke-linecap="round"/>
</g>
</g>
<defs>
<linearGradient id="paint0_linear_1_3" x1="214" y1="0" x2="214" y2="85" gradientUnits="userSpaceOnUse">
<stop stop-color="#BC3B39"/>
<stop offset="1" stop-color="#BC3B39" stop-opacity="0"/>
</linearGradient>
<linearGradient id="paint1_linear_1_3" x1="214" y1="0" x2="214" y2="291" gradientUnits="userSpaceOnUse">
<stop stop-color="#D9D9D9"/>
<stop offset="1" stop-color="#D9D9D9" stop-opacity="0"/>
</linearGradient>
</defs>
</svg>
