<svg width="1080" height="704" viewBox="0 0 1080 704" fill="none" xmlns="http://www.w3.org/2000/svg">
<mask id="mask0_1_4" style="mask-type:alpha" maskUnits="userSpaceOnUse" x="0" y="0" width="1080" height="704">
<path fill-rule="evenodd" clip-rule="evenodd" d="M0.00445557 41.31C175.794 53.8841 351.584 65.6615 527.374 59.3577C711.251 52.7622 895.128 26.3819 987.066 13.191L1079 0V41.2299V304.537V399.463V662.77V704L987.066 690.809C895.128 677.618 711.251 651.238 527.374 644.642C351.584 638.338 175.794 650.116 0.00445557 662.69V41.31Z" fill="url(#paint0_linear_1_4)"/>
</mask>
<g mask="url(#mask0_1_4)">
<g opacity="0.2">
<path opacity="0.05" d="M450.507 -639.495C-107.021 -876.152 -750.835 -616.034 -987.491 -58.5062C-1224.15 499.022 -964.03 1142.84 -406.502 1379.49C151.026 1616.15 794.84 1356.03 1031.5 798.503C1268.15 240.975 1008.04 -402.839 450.507 -639.495Z" stroke="white" stroke-width="11" stroke-linecap="round" stroke-dasharray="11 55"/>
<path opacity="0.1" d="M497.261 -562.731C-17.87 -825.203 -648.243 -620.383 -910.715 -105.251C-1173.19 409.88 -968.367 1040.25 -453.236 1302.73C61.8957 1565.2 692.268 1360.38 954.741 845.246C1217.21 330.114 1012.39 -300.258 497.261 -562.731Z" stroke="white" stroke-width="11" stroke-linecap="round" stroke-dasharray="42 38"/>
<path opacity="0.14" d="M-718.886 -297.106C-1087.32 112.08 -1054.28 742.466 -645.095 1110.9C-235.909 1479.33 394.477 1446.3 762.91 1037.11C1131.34 627.922 1098.31 -2.46334 689.119 -370.897C279.933 -739.33 -350.453 -706.293 -718.886 -297.106Z" stroke="white" stroke-width="10" stroke-linecap="round" stroke-dasharray="43 54"/>
<path opacity="0.19" d="M121.011 -571.939C-399.208 -626.616 -865.253 -249.22 -919.93 270.999C-974.607 791.217 -597.212 1257.26 -76.993 1311.94C443.226 1366.62 909.271 989.221 963.948 469.002C1018.63 -51.2164 641.229 -517.262 121.011 -571.939Z" stroke="white" stroke-width="10" stroke-linecap="round" stroke-dasharray="52 18"/>
<path opacity="0.23" d="M-40.5816 -525.088C-534.928 -490.52 -907.652 -61.7504 -873.084 432.596C-838.516 926.942 -409.746 1299.67 84.6004 1265.1C578.947 1230.53 951.67 801.76 917.102 307.414C882.534 -186.932 453.765 -559.656 -40.5816 -525.088Z" stroke="white" stroke-width="10" stroke-linecap="round" stroke-dasharray="24 52"/>
<path opacity="0.28" d="M783.668 741.492C988.836 320.836 814.148 -186.494 393.492 -391.662C-27.1642 -596.83 -534.494 -422.142 -739.662 -1.48591C-944.83 419.17 -770.142 926.5 -349.486 1131.67C71.1701 1336.84 578.5 1162.15 783.668 741.492Z" stroke="white" stroke-width="10" stroke-linecap="round" stroke-dasharray="19 22"/>
<path opacity="0.32" d="M-717.492 71.2171C-882.503 479.634 -685.184 944.489 -276.767 1109.5C131.65 1274.51 596.505 1077.19 761.517 668.775C926.528 260.358 729.208 -204.497 320.791 -369.508C-87.6255 -534.519 -552.481 -337.2 -717.492 71.2171Z" stroke="white" stroke-width="9" stroke-linecap="round" stroke-dasharray="50 26"/>
<path opacity="0.37" d="M384.516 1023.98C745.7 823.77 876.197 368.672 675.99 7.4884C475.782 -353.696 20.6843 -484.193 -340.5 -283.985C-701.684 -83.7777 -832.181 371.32 -631.973 732.504C-431.766 1093.69 23.332 1224.19 384.516 1023.98Z" stroke="white" stroke-width="9" stroke-linecap="round" stroke-dasharray="28 25"/>
<path opacity="0.41" d="M-605.246 64.0668C-774.208 410.489 -630.347 828.291 -283.925 997.252C62.4978 1166.21 480.299 1022.35 649.261 675.931C818.222 329.508 674.362 -88.2932 327.939 -257.255C-18.4833 -426.216 -436.285 -282.356 -605.246 64.0668Z" stroke="white" stroke-width="9" stroke-linecap="round" stroke-dasharray="31 26"/>
<path opacity="0.46" d="M336.187 936.785C649.213 763.272 762.31 368.854 588.797 55.8277C415.284 -257.198 20.866 -370.296 -292.16 -196.783C-605.186 -23.2696 -718.284 371.148 -544.771 684.174C-371.257 997.201 23.1606 1110.3 336.187 936.785Z" stroke="white" stroke-width="8" stroke-linecap="round" stroke-dasharray="16 28"/>
<path opacity="0.5" d="M-449.363 738.277C-245.968 998.611 129.959 1044.77 390.294 841.374C650.628 637.979 696.786 262.051 493.39 1.71705C289.995 -258.617 -85.9321 -304.775 -346.266 -101.38C-606.601 102.016 -652.759 477.943 -449.363 738.277Z" stroke="white" stroke-width="8" stroke-linecap="round" stroke-dasharray="26 25"/>
<path opacity="0.55" d="M-522.237 436.827C-485.33 737.408 -211.742 951.158 88.8386 914.251C389.419 877.344 603.17 603.757 566.263 303.176C529.356 2.59498 255.768 -211.155 -44.8124 -174.248C-345.393 -137.342 -559.143 136.246 -522.237 436.827Z" stroke="white" stroke-width="8" stroke-linecap="round" stroke-dasharray="32 11"/>
<path opacity="0.59" d="M-180.745 825.392C70.7606 937.37 365.422 824.26 477.4 572.754C589.377 321.248 476.267 26.5864 224.762 -85.3912C-26.7442 -197.369 -321.406 -84.2588 -433.383 167.247C-545.361 418.753 -432.251 713.414 -180.745 825.392Z" stroke="white" stroke-width="8" stroke-linecap="round" stroke-dasharray="27 36"/>
<path opacity="0.64" d="M-181.669 -29.7429C-402.44 82.7454 -490.22 352.905 -377.732 573.676C-265.244 794.446 4.91603 882.227 225.687 769.738C446.457 657.25 534.237 387.09 421.749 166.32C309.261 -54.4509 39.1013 -142.231 -181.669 -29.7429Z" stroke="white" stroke-width="7" stroke-linecap="round" stroke-dasharray="23 19"/>
<path opacity="0.68" d="M91.2575 762.732C308.157 724.487 452.986 517.65 414.74 300.751C376.495 83.8507 169.659 -60.9775 -47.241 -22.7322C-264.141 15.5131 -408.969 222.349 -370.724 439.249C-332.478 656.149 -125.642 800.977 91.2575 762.732Z" stroke="white" stroke-width="7" stroke-linecap="round" stroke-dasharray="38 23"/>
<path opacity="0.73" d="M34.1927 21.2633C-158.405 14.5377 -319.989 165.217 -326.714 357.815C-333.44 550.412 -182.761 711.996 9.83689 718.722C202.435 725.447 364.018 574.768 370.744 382.17C377.47 189.573 226.79 27.989 34.1927 21.2633Z" stroke="white" stroke-width="7" stroke-linecap="round" stroke-dasharray="11 35"/>
<path opacity="0.77" d="M73.9489 664.547C236.624 635.863 345.245 480.736 316.561 318.061C287.877 155.386 132.75 46.7649 -29.925 75.4489C-192.6 104.133 -301.221 259.26 -272.537 421.935C-243.853 584.61 -88.726 693.231 73.9489 664.547Z" stroke="white" stroke-width="6" stroke-linecap="round" stroke-dasharray="48 12"/>
<path opacity="0.82" d="M271.094 361.302C266.29 223.732 150.873 116.104 13.3032 120.908C-124.267 125.712 -231.895 241.129 -227.091 378.699C-222.287 516.269 -106.87 623.897 30.7002 619.093C168.27 614.289 275.898 498.872 271.094 361.302Z" stroke="white" stroke-width="6" stroke-linecap="round" stroke-dasharray="33 31"/>
<path opacity="0.86" d="M15.0521 170.729C-95.0037 174.573 -181.106 266.906 -177.263 376.962C-173.42 487.018 -81.0861 573.12 28.9697 569.277C139.026 565.434 225.128 473.1 221.285 363.044C217.442 252.989 125.108 166.886 15.0521 170.729Z" stroke="white" stroke-width="6" stroke-linecap="round" stroke-dasharray="21 23"/>
<path opacity="0.91" d="M-85.5649 266.119C-142.938 325.531 -141.286 420.204 -81.8739 477.578C-22.462 534.951 72.2112 533.298 129.585 473.887C186.958 414.475 185.305 319.802 125.894 262.428C66.4817 205.055 -28.1915 206.707 -85.5649 266.119Z" stroke="white" stroke-width="6" stroke-linecap="round" stroke-dasharray="39 33"/>
<path opacity="0.95" d="M42.7406 467.522C96.5989 456.074 130.979 403.133 119.531 349.275C108.083 295.416 55.1423 261.036 1.28402 272.484C-52.5742 283.932 -86.9546 336.873 -75.5067 390.731C-64.0588 444.59 -11.1176 478.97 42.7406 467.522Z" stroke="white" stroke-width="5" stroke-linecap="round" stroke-dasharray="38 12"/>
<path d="M-26.7534 380.367C-21.0294 407.296 5.44116 424.487 32.3703 418.763C59.2994 413.039 76.4896 386.568 70.7656 359.639C65.0417 332.71 38.5711 315.52 11.642 321.244C-15.2871 326.968 -32.4773 353.438 -26.7534 380.367Z" stroke="white" stroke-width="5" stroke-linecap="round" stroke-dasharray="36 22"/>
</g>
</g>
<defs>
<linearGradient id="paint0_linear_1_4" x1="1079" y1="352" x2="0.00433752" y2="352" gradientUnits="userSpaceOnUse">
<stop stop-color="#BC3B39"/>
<stop offset="1" stop-color="#BC3B39" stop-opacity="0"/>
</linearGradient>
</defs>
</svg>
