<svg width="428" height="374" viewBox="0 0 428 374" fill="none" xmlns="http://www.w3.org/2000/svg">
<mask id="mask0_1_33" style="mask-type:alpha" maskUnits="userSpaceOnUse" x="0" y="0" width="428" height="374">
<rect x="428" y="374" width="428" height="373.333" transform="rotate(-180 428 374)" fill="url(#paint0_linear_1_33)"/>
</mask>
<g mask="url(#mask0_1_33)">
<g opacity="0.1">
<path opacity="0.05" d="M506.921 -642.079C125.801 -803.855 -314.303 -626.041 -476.079 -244.921C-637.855 136.199 -460.042 576.304 -78.9214 738.08C302.199 899.855 742.303 722.042 904.079 340.922C1065.85 -40.1986 888.041 -480.303 506.921 -642.079Z" stroke="white" stroke-width="11" stroke-linecap="round" stroke-dasharray="11 55"/>
<path opacity="0.1" d="M538.881 -589.605C186.743 -769.028 -244.173 -629.015 -423.597 -276.877C-603.02 75.2615 -463.007 506.178 -110.869 685.601C241.269 865.024 672.185 725.011 851.609 372.873C1031.03 20.7346 891.019 -410.181 538.881 -589.605Z" stroke="white" stroke-width="11" stroke-linecap="round" stroke-dasharray="42 38"/>
<path opacity="0.14" d="M-292.464 -408.025C-544.321 -128.31 -521.737 302.615 -242.022 554.472C37.694 806.329 468.619 783.745 720.476 504.03C972.333 224.314 949.749 -206.611 670.033 -458.468C390.318 -710.325 -40.6068 -687.741 -292.464 -408.025Z" stroke="white" stroke-width="10" stroke-linecap="round" stroke-dasharray="43 54"/>
<path opacity="0.19" d="M281.68 -595.899C-73.9356 -633.275 -392.519 -375.292 -429.896 -19.6757C-467.273 335.94 -209.289 654.524 146.327 691.9C501.943 729.277 820.526 471.293 857.903 115.677C895.28 -239.938 637.296 -558.522 281.68 -595.899Z" stroke="white" stroke-width="10" stroke-linecap="round" stroke-dasharray="52 18"/>
<path opacity="0.23" d="M171.217 -563.871C-166.712 -540.241 -421.502 -247.138 -397.872 90.7916C-374.242 428.721 -81.1393 683.511 256.79 659.881C594.72 636.251 849.51 343.148 825.88 5.21849C802.25 -332.711 509.147 -587.501 171.217 -563.871Z" stroke="white" stroke-width="10" stroke-linecap="round" stroke-dasharray="24 52"/>
<path opacity="0.28" d="M734.665 301.949C874.915 14.3932 755.501 -332.412 467.945 -472.663C180.389 -612.913 -166.417 -493.498 -306.667 -205.943C-446.918 81.6134 -327.503 428.419 -39.9469 568.669C247.609 708.92 594.415 589.505 734.665 301.949Z" stroke="white" stroke-width="10" stroke-linecap="round" stroke-dasharray="19 22"/>
<path opacity="0.32" d="M-291.512 -156.243C-404.312 122.947 -269.426 440.717 9.76311 553.517C288.953 666.316 606.723 531.431 719.523 252.241C832.322 -26.948 697.437 -344.718 418.248 -457.518C139.058 -570.318 -178.712 -435.432 -291.512 -156.243Z" stroke="white" stroke-width="9" stroke-linecap="round" stroke-dasharray="50 26"/>
<path opacity="0.37" d="M461.81 495.054C708.711 358.194 797.918 47.0941 661.058 -199.807C524.198 -446.709 213.098 -535.915 -33.8033 -399.056C-280.705 -262.196 -369.911 48.904 -233.051 295.806C-96.1918 542.707 214.908 631.913 461.81 495.054Z" stroke="white" stroke-width="9" stroke-linecap="round" stroke-dasharray="28 25"/>
<path opacity="0.41" d="M-214.782 -161.131C-330.282 75.6793 -231.94 361.284 4.8704 476.784C241.681 592.285 527.286 493.943 642.786 257.132C758.286 20.3215 659.945 -265.283 423.134 -380.783C186.323 -496.284 -99.2812 -397.942 -214.782 -161.131Z" stroke="white" stroke-width="9" stroke-linecap="round" stroke-dasharray="31 26"/>
<path opacity="0.46" d="M428.772 435.45C642.753 316.838 720.065 47.2186 601.453 -166.763C482.842 -380.744 213.222 -458.056 -0.759432 -339.445C-214.741 -220.833 -292.053 48.7871 -173.441 262.768C-54.8295 476.75 214.79 554.062 428.772 435.45Z" stroke="white" stroke-width="8" stroke-linecap="round" stroke-dasharray="16 28"/>
<path opacity="0.5" d="M-108.223 299.752C30.8159 477.714 287.796 509.267 465.757 370.228C643.719 231.189 675.272 -25.791 536.233 -203.753C397.194 -381.714 140.215 -413.268 -37.7472 -274.229C-215.709 -135.19 -247.262 121.79 -108.223 299.752Z" stroke="white" stroke-width="8" stroke-linecap="round" stroke-dasharray="26 25"/>
<path opacity="0.55" d="M-158.038 93.6828C-132.809 299.157 54.2131 445.274 259.687 420.045C465.161 394.816 611.278 207.794 586.049 2.32043C560.82 -203.153 373.798 -349.271 168.325 -324.042C-37.1493 -298.813 -183.267 -111.791 -158.038 93.6828Z" stroke="white" stroke-width="8" stroke-linecap="round" stroke-dasharray="32 11"/>
<path opacity="0.59" d="M75.4027 359.303C247.329 435.85 448.757 358.529 525.304 186.602C601.85 14.6757 524.53 -186.752 352.603 -263.298C180.676 -339.845 -20.7514 -262.524 -97.2981 -90.5977C-173.845 81.329 -96.524 282.756 75.4027 359.303Z" stroke="white" stroke-width="8" stroke-linecap="round" stroke-dasharray="27 36"/>
<path opacity="0.64" d="M74.7713 -225.258C-76.1451 -148.362 -136.151 36.3161 -59.255 187.233C17.6408 338.149 202.319 398.155 353.236 321.259C504.152 244.363 564.158 59.6848 487.262 -91.2317C410.366 -242.148 225.688 -302.154 74.7713 -225.258Z" stroke="white" stroke-width="7" stroke-linecap="round" stroke-dasharray="23 19"/>
<path opacity="0.68" d="M261.341 316.469C409.612 290.325 508.615 148.934 482.471 0.663863C456.327 -147.607 314.936 -246.61 166.665 -220.465C18.3949 -194.321 -80.6081 -52.9305 -54.464 95.34C-28.3199 243.61 113.071 342.613 261.341 316.469Z" stroke="white" stroke-width="7" stroke-linecap="round" stroke-dasharray="38 23"/>
<path opacity="0.73" d="M222.333 -190.392C90.6756 -194.989 -19.7813 -91.9867 -24.3789 39.6711C-28.9764 171.329 74.0262 281.786 205.684 286.383C337.342 290.981 447.799 187.978 452.396 56.3205C456.994 -75.3373 353.991 -185.794 222.333 -190.392Z" stroke="white" stroke-width="7" stroke-linecap="round" stroke-dasharray="11 35"/>
<path opacity="0.77" d="M249.509 249.35C360.712 229.742 434.964 123.699 415.356 12.4963C395.748 -98.7065 289.705 -172.959 178.502 -153.351C67.2993 -133.743 -6.95291 -27.6994 12.6552 83.5034C32.2632 194.706 138.306 268.959 249.509 249.35Z" stroke="white" stroke-width="6" stroke-linecap="round" stroke-dasharray="48 12"/>
<path opacity="0.82" d="M384.274 42.0556C380.99 -51.9856 302.093 -125.559 208.051 -122.275C114.01 -118.991 40.4366 -40.0933 43.7206 53.948C47.0046 147.989 125.902 221.563 219.944 218.279C313.985 214.995 387.558 136.097 384.274 42.0556Z" stroke="white" stroke-width="6" stroke-linecap="round" stroke-dasharray="33 31"/>
<path opacity="0.86" d="M209.248 -88.2177C134.015 -85.5905 75.1562 -22.4723 77.7834 52.7607C80.4106 127.994 143.529 186.852 218.762 184.225C293.995 181.598 352.854 118.48 350.226 43.2468C347.599 -31.9862 284.481 -90.8449 209.248 -88.2177Z" stroke="white" stroke-width="6" stroke-linecap="round" stroke-dasharray="21 23"/>
<path opacity="0.91" d="M140.467 -23.0111C101.247 17.6022 102.377 82.3198 142.99 121.54C183.603 160.759 248.321 159.63 287.541 119.016C326.761 78.4032 325.631 13.6856 285.018 -25.5342C244.404 -64.7541 179.687 -63.6244 140.467 -23.0111Z" stroke="white" stroke-width="6" stroke-linecap="round" stroke-dasharray="39 33"/>
<path opacity="0.95" d="M228.175 114.667C264.992 106.841 288.494 70.6514 280.668 33.8345C272.843 -2.98247 236.653 -26.4845 199.836 -18.6588C163.019 -10.8332 139.517 25.3568 147.343 62.1738C155.168 98.9907 191.358 122.493 228.175 114.667Z" stroke="white" stroke-width="5" stroke-linecap="round" stroke-dasharray="38 12"/>
<path d="M180.669 55.0875C184.581 73.496 202.676 85.247 221.085 81.3342C239.493 77.4214 251.244 59.3264 247.332 40.9179C243.419 22.5094 225.324 10.7584 206.915 14.6712C188.507 18.5841 176.756 36.6791 180.669 55.0875Z" stroke="white" stroke-width="5" stroke-linecap="round" stroke-dasharray="36 22"/>
</g>
</g>
<defs>
<linearGradient id="paint0_linear_1_33" x1="642" y1="374" x2="642" y2="747.333" gradientUnits="userSpaceOnUse">
<stop stop-color="#CADEED"/>
<stop offset="0.8125" stop-color="#CADEED"/>
<stop offset="1" stop-color="#CADEED" stop-opacity="0"/>
</linearGradient>
</defs>
</svg>
