<svg width="1328" height="500" viewBox="0 0 1328 500" fill="none" xmlns="http://www.w3.org/2000/svg">
    <path fill-rule="evenodd" clip-rule="evenodd"
        d="M23.8072 26.9589C10.6064 27.1718 0 37.9146 0 51.117V476C0 489.255 10.7452 500 24 500H55.3333C110.667 500 221.333 500 332 496.418C442.638 492.836 553.276 485.674 663.914 478.512L664 478.507C774.667 471.342 885.333 464.178 996 467.759C1106.67 471.342 1217.33 485.67 1272.67 492.835L1300.92 496.493C1315.28 498.353 1328 487.17 1328 472.692V34.7451C1328 20.866 1316.38 9.86396 1302.53 10.7305C1237.71 14.7848 1063.01 25.1585 940.632 27.2508C838.687 28.9935 756.061 20.8122 676.845 12.9689C568.142 2.2062 465.86 -7.92191 328.889 9.10265C220.83 22.5333 79.3197 26.0636 23.8072 26.9589Z"
        fill="#D9D9D9" />
</svg>