<svg width="700" height="400" viewBox="0 0 700 400" fill="none" xmlns="http://www.w3.org/2000/svg">
    <path fill-rule="evenodd" clip-rule="evenodd"
        d="M11.8456 21.5841C5.25984 21.7417 0 27.1116 0 33.6993V388C0 394.627 5.37259 400 12 400H29.1667C58.3333 400 116.667 400 175 397.134C233.318 394.269 291.637 388.539 349.955 382.81L350 382.805C408.333 377.073 466.667 371.342 525 374.208C583.333 377.073 641.667 388.536 670.833 394.268L685.686 397.187C693.1 398.644 700 392.968 700 385.412V20.5491C700 13.4471 693.922 7.8862 686.852 8.55793C652.912 11.7825 560.497 20.1222 495.815 21.8007C442.079 23.1948 398.526 16.6498 356.771 10.3751C299.472 1.76496 245.559 -6.33753 173.36 7.28212C115.939 18.1138 40.5984 20.8962 11.8456 21.5841Z"
        fill="#D9D9D9" />
</svg>