<svg width="931" height="440" viewBox="0 0 931 440" fill="none" xmlns="http://www.w3.org/2000/svg">
    <path fill-rule="evenodd" clip-rule="evenodd"
        d="M11.8522 23.8159C5.25872 23.9333 0 29.3023 0 35.8968V428C0 434.627 5.37258 440 12 440H38.7917C77.5833 440 155.167 440 232.75 436.848C310.313 433.696 387.877 427.393 465.44 421.091L465.5 421.086C543.083 414.781 620.667 408.477 698.25 411.628C775.833 414.781 853.417 427.39 892.208 433.695L917.075 437.737C924.375 438.923 931 433.288 931 425.892V21.0496C931 14.03 925.088 8.49711 918.091 9.05228C877.292 12.2891 748.565 22.0678 659.434 23.9807C587.965 25.5143 530.04 18.3148 474.505 11.4126C398.298 1.94145 326.593 -6.97128 230.569 8.01033C151.437 20.3562 46.7157 23.1956 11.8522 23.8159Z"
        fill="#D9D9D9" />
</svg>