<svg width="1488" height="575" viewBox="0 0 1488 575" fill="none" xmlns="http://www.w3.org/2000/svg">
<path fill-rule="evenodd" clip-rule="evenodd" d="M39.6649 30.7676C17.6673 31.1987 0 49.1078 0 71.1096V535C0 557.091 17.9086 575 40 575H62C124 575 248 575 372 570.88C495.968 566.762 619.936 558.525 743.904 550.289L744 550.283C868 542.043 992 533.805 1116 537.923C1240 542.043 1364 558.521 1426 566.761L1442.73 568.984C1466.7 572.17 1488 553.517 1488 529.333V53.28C1488 30.1206 1468.44 11.7806 1445.33 13.2396C1363.9 18.3797 1182.98 29.0745 1053.96 31.3385C939.734 33.3425 847.153 23.9341 758.392 14.9143C636.592 2.53713 521.987 -9.1102 368.514 10.4681C255.129 24.9319 108.875 29.4112 39.6649 30.7676Z" fill="#D9D9D9"/>
</svg>
