<svg width="386" height="280" viewBox="0 0 386 280" fill="none" xmlns="http://www.w3.org/2000/svg">
<path fill-rule="evenodd" clip-rule="evenodd" d="M15.7978 14.7559C7.03752 15.1535 0 22.3197 0 31.0891V264C0 272.837 7.24678 280 16.0833 280V280C32.1667 280 64.3333 280 96.5 277.994C128.658 275.988 160.817 271.978 192.975 267.967L193 267.964C225.167 263.951 257.333 259.94 289.5 261.945C321.667 263.951 353.833 271.975 369.917 275.988V275.988C378.088 278.026 386 271.845 386 263.424V23.2693C386 13.6287 377.557 6.15706 367.979 7.25838C344.697 9.93561 303.58 14.2665 273.407 15.2605C243.775 16.2364 219.759 11.6549 196.734 7.26259C165.138 1.23547 135.408 -4.43627 95.5958 5.09749C68.9199 11.4853 35.2304 13.8739 15.7978 14.7559Z" fill="#D9D9D9"/>
</svg>
