<svg width="712" height="558" viewBox="0 0 712 558" fill="none" xmlns="http://www.w3.org/2000/svg">
<path fill-rule="evenodd" clip-rule="evenodd" d="M196.5 18.8325C113.053 41.2701 69.8191 134.874 46.5696 218.068C23.203 301.68 11.1397 404.644 71.162 467.326C128.022 526.706 226.772 474.217 307.4 490.456C376.788 504.431 433.368 573.231 501.508 553.998C580.101 531.814 640.202 464.693 669.138 388.351C700.815 304.774 724.268 194.65 661.988 130.594C600.827 67.689 494.203 141.144 408.859 120.653C329.493 101.597 275.347 -2.36851 196.5 18.8325Z" fill="#FCF7F7"/>
<path fill-rule="evenodd" clip-rule="evenodd" d="M478.288 498.332C407.03 530.682 333.752 562.231 260.657 549.419C185.724 536.285 130.753 487.564 88.8839 430.079C41.5184 365.046 -29.568 286.38 13.3361 209.848C56.5487 132.766 179.007 162.414 261.308 122.51C329.832 89.2859 370.598 1.75922 444.377 0.855627C525.489 -0.137781 585.451 58.251 629.416 118.002C678.982 185.364 734.088 266.121 700.941 349.54C668.357 431.541 562.724 460 478.288 498.332Z" fill="#C4C4C4"/>
</svg>
