<svg width="1081" height="707" viewBox="0 0 1081 707" fill="none" xmlns="http://www.w3.org/2000/svg">
<path d="M1080 29.9451C1063.67 31.1401 1037.15 39.6648 1001.61 35.6813C966.067 31.6978 947.814 10.426 909.388 10.8244C870.962 11.2227 855.592 39.5851 817.166 37.5934C778.74 35.6016 763.37 -2.52033 724.944 1.26398C686.518 5.0483 671.148 52.5713 632.722 55.7581C594.296 58.9449 578.925 13.7721 540.5 16.5606C502.074 19.349 486.703 71.7319 448.277 69.1426C409.851 66.5533 394.481 6.72136 356.055 4.13209C317.629 1.54283 302.259 57.1125 263.833 56.7141C225.407 56.3158 210.037 0.626625 171.611 2.22002C133.185 3.81341 114.932 58.5864 79.3885 64.3624C43.8445 70.1385 17.3306 37.1154 0.999611 29.9451" stroke="white" stroke-opacity="0.2" stroke-width="2" stroke-linecap="round"/>
<path d="M1080 665.713C1063.67 666.908 1037.15 675.432 1001.61 671.449C966.067 667.465 947.814 646.194 909.388 646.592C870.962 646.99 855.592 675.353 817.166 673.361C778.74 671.369 763.37 633.247 724.944 637.032C686.518 640.816 671.148 688.339 632.722 691.526C594.296 694.713 578.925 649.54 540.5 652.328C502.074 655.117 486.703 707.5 448.277 704.91C409.851 702.321 394.481 642.489 356.055 639.9C317.629 637.31 302.259 692.88 263.833 692.482C225.407 692.083 210.037 636.394 171.611 637.988C133.185 639.581 114.932 694.354 79.3885 700.13C43.8445 705.906 17.3306 672.883 0.999611 665.713" stroke="white" stroke-opacity="0.2" stroke-width="2" stroke-linecap="round"/>
<path d="M1080 632.248C1063.67 633.443 1037.15 641.967 1001.61 637.984C966.067 634 947.814 612.729 909.388 613.127C870.962 613.525 855.592 641.888 817.166 639.896C778.74 637.904 763.37 599.782 724.944 603.567C686.518 607.351 671.148 654.874 632.722 658.061C594.296 661.247 578.925 616.075 540.5 618.863C502.074 621.652 486.703 674.034 448.277 671.445C409.851 668.856 394.481 609.024 356.055 606.435C317.629 603.845 302.259 659.415 263.833 659.017C225.407 658.618 210.037 602.929 171.611 604.523C133.185 606.116 114.932 660.889 79.3885 666.665C43.8445 672.441 17.3306 639.418 0.999611 632.248" stroke="white" stroke-opacity="0.2" stroke-width="2" stroke-linecap="round"/>
<path d="M1080 598.787C1063.67 599.982 1037.15 608.506 1001.61 604.523C966.067 600.539 947.814 579.268 909.388 579.666C870.962 580.064 855.592 608.427 817.166 606.435C778.74 604.443 763.37 566.321 724.944 570.106C686.518 573.89 671.148 621.413 632.722 624.6C594.296 627.786 578.925 582.614 540.5 585.402C502.074 588.191 486.703 640.573 448.277 637.984C409.851 635.395 394.481 575.563 356.055 572.974C317.629 570.384 302.259 625.954 263.833 625.556C225.407 625.157 210.037 569.468 171.611 571.062C133.185 572.655 114.932 627.428 79.3885 633.204C43.8445 638.98 17.3306 605.957 0.999611 598.787" stroke="white" stroke-opacity="0.2" stroke-width="2" stroke-linecap="round"/>
<path d="M1080 565.326C1063.67 566.521 1037.15 575.045 1001.61 571.062C966.067 567.078 947.814 545.806 909.388 546.205C870.962 546.603 855.592 574.966 817.166 572.974C778.74 570.982 763.37 532.86 724.944 536.644C686.518 540.429 671.148 587.952 632.722 591.139C594.296 594.325 578.925 549.153 540.5 551.941C502.074 554.73 486.703 607.112 448.277 604.523C409.851 601.934 394.481 542.102 356.055 539.513C317.629 536.923 302.259 592.493 263.833 592.095C225.407 591.696 210.037 536.007 171.611 537.601C133.185 539.194 114.932 593.967 79.3885 599.743C43.8445 605.519 17.3306 572.496 0.999611 565.326" stroke="white" stroke-opacity="0.2" stroke-width="2" stroke-linecap="round"/>
<path d="M1080 531.865C1063.67 533.06 1037.15 541.584 1001.61 537.601C966.067 533.617 947.814 512.345 909.388 512.744C870.962 513.142 855.592 541.505 817.166 539.513C778.74 537.521 763.37 499.399 724.944 503.183C686.518 506.968 671.148 554.491 632.722 557.678C594.296 560.864 578.925 515.692 540.5 518.48C502.074 521.269 486.703 573.651 448.277 571.062C409.851 568.473 394.481 508.641 356.055 506.052C317.629 503.462 302.259 559.032 263.833 558.634C225.407 558.235 210.037 502.546 171.611 504.14C133.185 505.733 114.932 560.506 79.3885 566.282C43.8445 572.058 17.3306 539.035 0.999611 531.865" stroke="white" stroke-opacity="0.2" stroke-width="2" stroke-linecap="round"/>
<path d="M1080 498.404C1063.67 499.599 1037.15 508.123 1001.61 504.14C966.067 500.156 947.814 478.884 909.388 479.283C870.962 479.681 855.592 508.044 817.166 506.052C778.74 504.06 763.37 465.938 724.944 469.722C686.518 473.507 671.148 521.03 632.722 524.217C594.296 527.403 578.925 482.231 540.5 485.019C502.074 487.807 486.703 540.19 448.277 537.601C409.851 535.012 394.481 475.18 356.055 472.591C317.629 470.001 302.259 525.571 263.833 525.173C225.407 524.774 210.037 469.085 171.611 470.678C133.185 472.272 114.932 527.045 79.3885 532.821C43.8445 538.597 17.3306 505.574 0.999611 498.404" stroke="white" stroke-opacity="0.2" stroke-width="2" stroke-linecap="round"/>
<path d="M1080 464.943C1063.67 466.138 1037.15 474.662 1001.61 470.679C966.067 466.695 947.814 445.423 909.388 445.822C870.962 446.22 855.592 474.583 817.166 472.591C778.74 470.599 763.37 432.477 724.944 436.261C686.518 440.046 671.148 487.569 632.722 490.756C594.296 493.942 578.925 448.77 540.5 451.558C502.074 454.346 486.703 506.729 448.277 504.14C409.851 501.551 394.481 441.719 356.055 439.13C317.629 436.54 302.259 492.11 263.833 491.712C225.407 491.313 210.037 435.624 171.611 437.217C133.185 438.811 114.932 493.584 79.3885 499.36C43.8445 505.136 17.3306 472.113 0.999611 464.943" stroke="white" stroke-opacity="0.2" stroke-width="2" stroke-linecap="round"/>
<path d="M1080 431.477C1063.67 432.672 1037.15 441.197 1001.61 437.214C966.067 433.23 947.814 411.958 909.388 412.357C870.962 412.755 855.592 441.117 817.166 439.126C778.74 437.134 763.37 399.012 724.944 402.796C686.518 406.581 671.148 454.104 632.722 457.29C594.296 460.477 578.925 415.304 540.5 418.093C502.074 420.881 486.703 473.264 448.277 470.675C409.851 468.086 394.481 408.254 356.055 405.664C317.629 403.075 302.259 458.645 263.833 458.246C225.407 457.848 210.037 402.159 171.611 403.752C133.185 405.346 114.932 460.119 79.3885 465.895C43.8445 471.671 17.3306 438.648 0.999611 431.477" stroke="white" stroke-opacity="0.2" stroke-width="2" stroke-linecap="round"/>
<path d="M1080 398.02C1063.67 399.216 1037.15 407.74 1001.61 403.757C966.067 399.773 947.814 378.501 909.388 378.9C870.962 379.298 855.592 407.661 817.166 405.669C778.74 403.677 763.37 365.555 724.944 369.339C686.518 373.124 671.148 420.647 632.722 423.833C594.296 427.02 578.925 381.848 540.5 384.636C502.074 387.424 486.703 439.807 448.277 437.218C409.851 434.629 394.481 374.797 356.055 372.207C317.629 369.618 302.259 425.188 263.833 424.79C225.407 424.391 210.037 368.702 171.611 370.295C133.185 371.889 114.932 426.662 79.3885 432.438C43.8445 438.214 17.3306 405.191 0.999611 398.02" stroke="white" stroke-opacity="0.2" stroke-width="2" stroke-linecap="round"/>
<path d="M1080 364.559C1063.67 365.754 1037.15 374.279 1001.61 370.296C966.067 366.312 947.814 345.04 909.388 345.439C870.962 345.837 855.592 374.199 817.166 372.208C778.74 370.216 763.37 332.094 724.944 335.878C686.518 339.663 671.148 387.186 632.722 390.372C594.296 393.559 578.925 348.386 540.5 351.175C502.074 353.963 486.703 406.346 448.277 403.757C409.851 401.168 394.481 341.336 356.055 338.746C317.629 336.157 302.259 391.727 263.833 391.328C225.407 390.93 210.037 335.241 171.611 336.834C133.185 338.428 114.932 393.201 79.3885 398.977C43.8445 404.753 17.3306 371.73 0.999611 364.559" stroke="white" stroke-opacity="0.2" stroke-width="2" stroke-linecap="round"/>
<path d="M1080 331.094C1063.67 332.289 1037.15 340.814 1001.61 336.831C966.067 332.847 947.814 311.575 909.388 311.974C870.962 312.372 855.592 340.734 817.166 338.743C778.74 336.751 763.37 298.629 724.944 302.413C686.518 306.198 671.148 353.721 632.722 356.907C594.296 360.094 578.925 314.921 540.5 317.71C502.074 320.498 486.703 372.881 448.277 370.292C409.851 367.703 394.481 307.871 356.055 305.281C317.629 302.692 302.259 358.262 263.833 357.863C225.407 357.465 210.037 301.776 171.611 303.369C133.185 304.963 114.932 359.736 79.3885 365.512C43.8445 371.288 17.3306 338.265 0.999611 331.094" stroke="white" stroke-opacity="0.2" stroke-width="2" stroke-linecap="round"/>
<path d="M1080 297.637C1063.67 298.832 1037.15 307.357 1001.61 303.374C966.067 299.39 947.814 278.118 909.388 278.517C870.962 278.915 855.592 307.277 817.166 305.286C778.74 303.294 763.37 265.172 724.944 268.956C686.518 272.741 671.148 320.264 632.722 323.45C594.296 326.637 578.925 281.464 540.5 284.253C502.074 287.041 486.703 339.424 448.277 336.835C409.851 334.246 394.481 274.414 356.055 271.824C317.629 269.235 302.259 324.805 263.833 324.406C225.407 324.008 210.037 268.319 171.611 269.912C133.185 271.506 114.932 326.279 79.3885 332.055C43.8445 337.831 17.3306 304.808 0.999611 297.637" stroke="white" stroke-opacity="0.2" stroke-width="2" stroke-linecap="round"/>
<path d="M1080 264.172C1063.67 265.367 1037.15 273.892 1001.61 269.909C966.067 265.925 947.814 244.653 909.388 245.052C870.962 245.45 855.592 273.812 817.166 271.821C778.74 269.829 763.37 231.707 724.944 235.491C686.518 239.275 671.148 286.798 632.722 289.985C594.296 293.172 578.925 247.999 540.5 250.788C502.074 253.576 486.703 305.959 448.277 303.37C409.851 300.781 394.481 240.949 356.055 238.359C317.629 235.77 302.259 291.34 263.833 290.941C225.407 290.543 210.037 234.854 171.611 236.447C133.185 238.041 114.932 292.814 79.3885 298.59C43.8445 304.366 17.3306 271.343 0.999611 264.172" stroke="white" stroke-opacity="0.2" stroke-width="2" stroke-linecap="round"/>
<path d="M1080 230.711C1063.67 231.906 1037.15 240.431 1001.61 236.447C966.067 232.464 947.814 211.192 909.388 211.591C870.962 211.989 855.592 240.351 817.166 238.36C778.74 236.368 763.37 198.246 724.944 202.03C686.518 205.814 671.148 253.337 632.722 256.524C594.296 259.711 578.925 214.538 540.5 217.327C502.074 220.115 486.703 272.498 448.277 269.909C409.851 267.32 394.481 207.488 356.055 204.898C317.629 202.309 302.259 257.879 263.833 257.48C225.407 257.082 210.037 201.393 171.611 202.986C133.185 204.58 114.932 259.353 79.3885 265.129C43.8445 270.905 17.3306 237.882 0.999611 230.711" stroke="white" stroke-opacity="0.2" stroke-width="2" stroke-linecap="round"/>
<path d="M1080 197.254C1063.67 198.449 1037.15 206.974 1001.61 202.99C966.067 199.007 947.814 177.735 909.388 178.134C870.963 178.532 855.592 206.894 817.166 204.903C778.74 202.911 763.37 164.789 724.944 168.573C686.518 172.357 671.148 219.88 632.722 223.067C594.296 226.254 578.926 181.081 540.5 183.87C502.074 186.658 486.703 239.041 448.277 236.452C409.851 233.863 394.481 174.031 356.055 171.441C317.629 168.852 302.259 224.422 263.833 224.023C225.407 223.625 210.037 167.936 171.611 169.529C133.185 171.123 114.933 225.896 79.3886 231.672C43.8446 237.448 17.3307 204.425 0.999649 197.254" stroke="white" stroke-opacity="0.2" stroke-width="2" stroke-linecap="round"/>
<path d="M1080 163.789C1063.67 164.984 1037.15 173.509 1001.61 169.525C966.067 165.542 947.814 144.27 909.388 144.668C870.962 145.067 855.592 173.429 817.166 171.438C778.74 169.446 763.37 131.324 724.944 135.108C686.518 138.892 671.148 186.415 632.722 189.602C594.296 192.789 578.925 147.616 540.5 150.405C502.074 153.193 486.703 205.576 448.277 202.987C409.851 200.397 394.481 140.565 356.055 137.976C317.629 135.387 302.259 190.957 263.833 190.558C225.407 190.16 210.037 134.471 171.611 136.064C133.185 137.658 114.932 192.43 79.3885 198.207C43.8445 203.983 17.3306 170.959 0.999611 163.789" stroke="white" stroke-opacity="0.2" stroke-width="2" stroke-linecap="round"/>
<path d="M1080 130.328C1063.67 131.523 1037.15 140.048 1001.61 136.064C966.067 132.081 947.814 110.809 909.388 111.207C870.962 111.606 855.592 139.968 817.166 137.976C778.74 135.985 763.37 97.8628 724.944 101.647C686.518 105.431 671.148 152.954 632.722 156.141C594.296 159.328 578.925 114.155 540.5 116.944C502.074 119.732 486.703 172.115 448.277 169.526C409.851 166.936 394.481 107.104 356.055 104.515C317.629 101.926 302.259 157.496 263.833 157.097C225.407 156.699 210.037 101.01 171.611 102.603C133.185 104.197 114.932 158.969 79.3885 164.746C43.8445 170.522 17.3306 137.498 0.999611 130.328" stroke="white" stroke-opacity="0.2" stroke-width="2" stroke-linecap="round"/>
<path d="M1080 96.8671C1063.67 98.0622 1037.15 106.587 1001.61 102.603C966.067 98.6199 947.814 77.3481 909.388 77.7464C870.962 78.1448 855.592 106.507 817.166 104.515C778.74 102.524 763.37 64.4017 724.944 68.186C686.518 71.9704 671.148 119.493 632.722 122.68C594.296 125.867 578.925 80.6942 540.5 83.4826C502.074 86.2711 486.703 138.654 448.277 136.065C409.851 133.475 394.481 73.6434 356.055 71.0542C317.629 68.4649 302.259 124.035 263.833 123.636C225.407 123.238 210.037 67.5487 171.611 69.1421C133.185 70.7355 114.932 125.508 79.3885 131.284C43.8445 137.061 17.3306 104.037 0.999611 96.8671" stroke="white" stroke-opacity="0.2" stroke-width="2" stroke-linecap="round"/>
<path d="M1080 63.4081C1063.67 64.6032 1037.15 73.1278 1001.61 69.1444C966.067 65.1609 947.814 43.889 909.388 44.2874C870.962 44.6857 855.592 73.0482 817.166 71.0564C778.74 69.0647 763.37 30.9427 724.944 34.727C686.518 38.5113 671.148 86.0343 632.722 89.2211C594.296 92.4079 578.925 47.2352 540.5 50.0236C502.074 52.8121 486.703 105.195 448.277 102.606C409.851 100.016 394.481 40.1844 356.055 37.5951C317.629 35.0059 302.259 90.5755 263.833 90.1772C225.407 89.7788 210.037 34.0897 171.611 35.6831C133.185 37.2765 114.932 92.0494 79.3885 97.8255C43.8445 103.602 17.3306 70.5784 0.999611 63.4081" stroke="white" stroke-opacity="0.2" stroke-width="2" stroke-linecap="round"/>
</svg>
