<svg width="425" height="354" viewBox="0 0 425 354" fill="none" xmlns="http://www.w3.org/2000/svg">
<path d="M1 15.4475C7.40224 16.044 17.7965 20.2989 31.7308 18.3106C45.6651 16.3223 52.8205 5.70484 67.8846 5.90367C82.9487 6.1025 88.9744 20.2592 104.038 19.265C119.103 18.2709 125.128 -0.757117 140.192 1.13176C155.256 3.02064 161.282 26.741 176.346 28.3316C191.41 29.9223 197.436 7.37501 212.5 8.76682C227.564 10.1586 233.59 36.3047 248.654 35.0123C263.718 33.7199 269.744 3.85573 284.808 2.56334C299.872 1.27094 305.897 29.0077 320.962 28.8088C336.026 28.61 342.051 0.813636 357.115 1.60895C372.179 2.40427 379.335 29.7433 393.269 32.6264C407.204 35.5094 417.598 19.0264 424 15.4475" stroke="white" stroke-opacity="0.08" stroke-width="2" stroke-linecap="round"/>
<path d="M1 332.779C7.40224 333.376 17.7965 337.631 31.7308 335.642C45.6651 333.654 52.8205 323.037 67.8846 323.235C82.9487 323.434 88.9744 337.591 104.038 336.597C119.103 335.603 125.128 316.575 140.192 318.464C155.256 320.352 161.282 344.073 176.346 345.663C191.41 347.254 197.436 324.707 212.5 326.099C227.564 327.49 233.59 353.636 248.654 352.344C263.718 351.052 269.744 321.187 284.808 319.895C299.872 318.603 305.897 346.339 320.962 346.141C336.026 345.942 342.051 318.145 357.115 318.941C372.179 319.736 379.335 347.075 393.269 349.958C407.204 352.841 417.598 336.358 424 332.779" stroke="white" stroke-opacity="0.08" stroke-width="2" stroke-linecap="round"/>
<path d="M1 316.078C7.40224 316.674 17.7965 320.929 31.7308 318.941C45.6651 316.953 52.8205 306.335 67.8846 306.534C82.9487 306.733 88.9744 320.89 104.038 319.896C119.103 318.901 125.128 299.873 140.192 301.762C155.256 303.651 161.282 327.372 176.346 328.962C191.41 330.553 197.436 308.006 212.5 309.397C227.564 310.789 233.59 336.935 248.654 335.643C263.718 334.35 269.744 304.486 284.808 303.194C299.872 301.901 305.897 329.638 320.962 329.439C336.026 329.241 342.051 301.444 357.115 302.239C372.179 303.035 379.335 330.374 393.269 333.257C407.204 336.14 417.598 319.657 424 316.078" stroke="white" stroke-opacity="0.08" stroke-width="2" stroke-linecap="round"/>
<path d="M1 299.377C7.40224 299.973 17.7965 304.228 31.7308 302.24C45.6651 300.252 52.8205 289.634 67.8846 289.833C82.9487 290.032 88.9744 304.188 104.038 303.194C119.103 302.2 125.128 283.172 140.192 285.061C155.256 286.95 161.282 310.67 176.346 312.261C191.41 313.852 197.436 291.304 212.5 292.696C227.564 294.088 233.59 320.234 248.654 318.942C263.718 317.649 269.744 287.785 284.808 286.493C299.872 285.2 305.897 312.937 320.962 312.738C336.026 312.539 342.051 284.743 357.115 285.538C372.179 286.334 379.335 313.673 393.269 316.556C407.204 319.439 417.598 302.956 424 299.377" stroke="white" stroke-opacity="0.08" stroke-width="2" stroke-linecap="round"/>
<path d="M1 282.676C7.40224 283.272 17.7965 287.527 31.7308 285.539C45.6651 283.55 52.8205 272.933 67.8846 273.132C82.9487 273.331 88.9744 287.487 104.038 286.493C119.103 285.499 125.128 266.471 140.192 268.36C155.256 270.249 161.282 293.969 176.346 295.56C191.41 297.15 197.436 274.603 212.5 275.995C227.564 277.387 233.59 303.533 248.654 302.24C263.718 300.948 269.744 271.084 284.808 269.791C299.872 268.499 305.897 296.236 320.962 296.037C336.026 295.838 342.051 268.042 357.115 268.837C372.179 269.632 379.335 296.971 393.269 299.854C407.204 302.737 417.598 286.254 424 282.676" stroke="white" stroke-opacity="0.08" stroke-width="2" stroke-linecap="round"/>
<path d="M1 265.972C7.40224 266.569 17.7965 270.824 31.7308 268.835C45.6651 266.847 52.8205 256.23 67.8846 256.428C82.9487 256.627 88.9744 270.784 104.038 269.79C119.103 268.796 125.128 249.768 140.192 251.656C155.256 253.545 161.282 277.266 176.346 278.856C191.41 280.447 197.436 257.9 212.5 259.292C227.564 260.683 233.59 286.829 248.654 285.537C263.718 284.245 269.744 254.38 284.808 253.088C299.872 251.796 305.897 279.532 320.962 279.334C336.026 279.135 342.051 251.338 357.115 252.134C372.179 252.929 379.335 280.268 393.269 283.151C407.204 286.034 417.598 269.551 424 265.972" stroke="white" stroke-opacity="0.08" stroke-width="2" stroke-linecap="round"/>
<path d="M1 249.271C7.40224 249.867 17.7965 254.122 31.7308 252.134C45.6651 250.146 52.8205 239.528 67.8846 239.727C82.9487 239.926 88.9744 254.083 104.038 253.089C119.103 252.094 125.128 233.066 140.192 234.955C155.256 236.844 161.282 260.565 176.346 262.155C191.41 263.746 197.436 241.199 212.5 242.59C227.564 243.982 233.59 270.128 248.654 268.836C263.718 267.543 269.744 237.679 284.808 236.387C299.872 235.094 305.897 262.831 320.962 262.632C336.026 262.434 342.051 234.637 357.115 235.432C372.179 236.228 379.335 263.567 393.269 266.45C407.204 269.333 417.598 252.85 424 249.271" stroke="white" stroke-opacity="0.08" stroke-width="2" stroke-linecap="round"/>
<path d="M1 232.57C7.40224 233.166 17.7965 237.421 31.7308 235.433C45.6651 233.445 52.8205 222.827 67.8846 223.026C82.9487 223.225 88.9744 237.381 104.038 236.387C119.103 235.393 125.128 216.365 140.192 218.254C155.256 220.143 161.282 243.863 176.346 245.454C191.41 247.045 197.436 224.497 212.5 225.889C227.564 227.281 233.59 253.427 248.654 252.135C263.718 250.842 269.744 220.978 284.808 219.686C299.872 218.393 305.897 246.13 320.962 245.931C336.026 245.732 342.051 217.936 357.115 218.731C372.179 219.527 379.335 246.866 393.269 249.749C407.204 252.632 417.598 236.149 424 232.57" stroke="white" stroke-opacity="0.08" stroke-width="2" stroke-linecap="round"/>
<path d="M1 215.869C7.40224 216.465 17.7965 220.72 31.7308 218.732C45.6651 216.743 52.8205 206.126 67.8846 206.325C82.9487 206.524 88.9744 220.68 104.038 219.686C119.103 218.692 125.128 199.664 140.192 201.553C155.256 203.442 161.282 227.162 176.346 228.753C191.41 230.343 197.436 207.796 212.5 209.188C227.564 210.58 233.59 236.726 248.654 235.433C263.718 234.141 269.744 204.277 284.808 202.984C299.872 201.692 305.897 229.429 320.962 229.23C336.026 229.031 342.051 201.235 357.115 202.03C372.179 202.825 379.335 230.164 393.269 233.047C407.204 235.93 417.598 219.447 424 215.869" stroke="white" stroke-opacity="0.08" stroke-width="2" stroke-linecap="round"/>
<path d="M1 199.167C7.40224 199.764 17.7965 204.019 31.7308 202.03C45.6651 200.042 52.8205 189.425 67.8846 189.623C82.9487 189.822 88.9744 203.979 104.038 202.985C119.103 201.991 125.128 182.963 140.192 184.852C155.256 186.74 161.282 210.461 176.346 212.051C191.41 213.642 197.436 191.095 212.5 192.487C227.564 193.878 233.59 220.025 248.654 218.732C263.718 217.44 269.744 187.576 284.808 186.283C299.872 184.991 305.897 212.727 320.962 212.529C336.026 212.33 342.051 184.533 357.115 185.329C372.179 186.124 379.335 213.463 393.269 216.346C407.204 219.229 417.598 202.746 424 199.167" stroke="white" stroke-opacity="0.08" stroke-width="2" stroke-linecap="round"/>
<path d="M1 182.464C7.40224 183.06 17.7965 187.315 31.7308 185.327C45.6651 183.339 52.8205 172.721 67.8846 172.92C82.9487 173.119 88.9744 187.276 104.038 186.282C119.103 185.287 125.128 166.259 140.192 168.148C155.256 170.037 161.282 193.757 176.346 195.348C191.41 196.939 197.436 174.392 212.5 175.783C227.564 177.175 233.59 203.321 248.654 202.029C263.718 200.736 269.744 170.872 284.808 169.58C299.872 168.287 305.897 196.024 320.962 195.825C336.026 195.626 342.051 167.83 357.115 168.625C372.179 169.421 379.335 196.76 393.269 199.643C407.204 202.526 417.598 186.043 424 182.464" stroke="white" stroke-opacity="0.08" stroke-width="2" stroke-linecap="round"/>
<path d="M1 165.763C7.40224 166.359 17.7965 170.614 31.7308 168.626C45.6651 166.638 52.8205 156.02 67.8846 156.219C82.9487 156.418 88.9744 170.574 104.038 169.58C119.103 168.586 125.128 149.558 140.192 151.447C155.256 153.336 161.282 177.056 176.346 178.647C191.41 180.238 197.436 157.69 212.5 159.082C227.564 160.474 233.59 186.62 248.654 185.328C263.718 184.035 269.744 154.171 284.808 152.879C299.872 151.586 305.897 179.323 320.962 179.124C336.026 178.925 342.051 151.129 357.115 151.924C372.179 152.72 379.335 180.059 393.269 182.942C407.204 185.825 417.598 169.342 424 165.763" stroke="white" stroke-opacity="0.08" stroke-width="2" stroke-linecap="round"/>
<path d="M1 149.062C7.40224 149.658 17.7965 153.913 31.7308 151.925C45.6651 149.936 52.8205 139.319 67.8846 139.518C82.9487 139.717 88.9744 153.873 104.038 152.879C119.103 151.885 125.128 132.857 140.192 134.746C155.256 136.635 161.282 160.355 176.346 161.946C191.41 163.536 197.436 140.989 212.5 142.381C227.564 143.773 233.59 169.919 248.654 168.626C263.718 167.334 269.744 137.47 284.808 136.177C299.872 134.885 305.897 162.622 320.962 162.423C336.026 162.224 342.051 134.428 357.115 135.223C372.179 136.018 379.335 163.357 393.269 166.24C407.204 169.123 417.598 152.64 424 149.062" stroke="white" stroke-opacity="0.08" stroke-width="2" stroke-linecap="round"/>
<path d="M1 132.36C7.40224 132.957 17.7965 137.212 31.7308 135.223C45.6651 133.235 52.8205 122.618 67.8846 122.816C82.9487 123.015 88.9744 137.172 104.038 136.178C119.103 135.184 125.128 116.156 140.192 118.045C155.256 119.933 161.282 143.654 176.346 145.244C191.41 146.835 197.436 124.288 212.5 125.68C227.564 127.071 233.59 153.217 248.654 151.925C263.718 150.633 269.744 120.769 284.808 119.476C299.872 118.184 305.897 145.92 320.962 145.722C336.026 145.523 342.051 117.726 357.115 118.522C372.179 119.317 379.335 146.656 393.269 149.539C407.204 152.422 417.598 135.939 424 132.36" stroke="white" stroke-opacity="0.08" stroke-width="2" stroke-linecap="round"/>
<path d="M1 115.657C7.40224 116.253 17.7965 120.508 31.7308 118.52C45.6651 116.532 52.8205 105.914 67.8846 106.113C82.9487 106.312 88.9744 120.469 104.038 119.474C119.103 118.48 125.128 99.4524 140.192 101.341C155.256 103.23 161.282 126.95 176.346 128.541C191.41 130.132 197.436 107.584 212.5 108.976C227.564 110.368 233.59 136.514 248.654 135.222C263.718 133.929 269.744 104.065 284.808 102.773C299.872 101.48 305.897 129.217 320.962 129.018C336.026 128.819 342.051 101.023 357.115 101.818C372.179 102.614 379.335 129.953 393.269 132.836C407.204 135.719 417.598 119.236 424 115.657" stroke="white" stroke-opacity="0.08" stroke-width="2" stroke-linecap="round"/>
<path d="M1 98.9557C7.40224 99.5522 17.7965 103.807 31.7308 101.819C45.6651 99.8306 52.8205 89.2131 67.8846 89.4119C82.9487 89.6107 88.9744 103.767 104.038 102.773C119.103 101.779 125.128 82.7511 140.192 84.64C155.256 86.5289 161.282 110.249 176.346 111.84C191.41 113.431 197.436 90.8833 212.5 92.2751C227.564 93.6669 233.59 119.813 248.654 118.521C263.718 117.228 269.744 87.364 284.808 86.0716C299.872 84.7792 305.897 112.516 320.962 112.317C336.026 112.118 342.051 84.3219 357.115 85.1172C372.179 85.9125 379.335 113.252 393.269 116.135C407.204 119.018 417.598 102.535 424 98.9557" stroke="white" stroke-opacity="0.08" stroke-width="2" stroke-linecap="round"/>
<path d="M1 82.2545C7.40224 82.851 17.7965 87.1059 31.7308 85.1176C45.6651 83.1294 52.8205 72.5119 67.8846 72.7107C82.9487 72.9095 88.9744 87.0662 104.038 86.072C119.103 85.0779 125.128 66.0499 140.192 67.9388C155.256 69.8277 161.282 93.548 176.346 95.1387C191.41 96.7293 197.436 74.182 212.5 75.5738C227.564 76.9656 233.59 103.112 248.654 101.819C263.718 100.527 269.744 70.6627 284.808 69.3703C299.872 68.078 305.897 95.8147 320.962 95.6158C336.026 95.417 342.051 67.6207 357.115 68.416C372.179 69.2113 379.335 96.5503 393.269 99.4334C407.204 102.316 417.598 85.8334 424 82.2545" stroke="white" stroke-opacity="0.08" stroke-width="2" stroke-linecap="round"/>
<path d="M1 65.5533C7.40224 66.1497 17.7965 70.4047 31.7308 68.4164C45.6651 66.4281 52.8205 55.8106 67.8846 56.0094C82.9487 56.2083 88.9744 70.3649 104.038 69.3708C119.103 68.3766 125.128 49.3487 140.192 51.2375C155.256 53.1264 161.282 76.8468 176.346 78.4374C191.41 80.028 197.436 57.4808 212.5 58.8726C227.564 60.2644 233.59 86.4105 248.654 85.1181C263.718 83.8257 269.744 53.9615 284.808 52.6691C299.872 51.3767 305.897 79.1134 320.962 78.9146C336.026 78.7158 342.051 50.9194 357.115 51.7147C372.179 52.51 379.335 79.8491 393.269 82.7321C407.204 85.6152 417.598 69.1322 424 65.5533" stroke="white" stroke-opacity="0.08" stroke-width="2" stroke-linecap="round"/>
<path d="M1 48.852C7.40224 49.4485 17.7965 53.7035 31.7308 51.7152C45.6651 49.7269 52.8205 39.1094 67.8846 39.3082C82.9487 39.507 88.9744 53.6637 104.038 52.6696C119.103 51.6754 125.128 32.6474 140.192 34.5363C155.256 36.4252 161.282 60.1455 176.346 61.7362C191.41 63.3268 197.436 40.7796 212.5 42.1714C227.564 43.5632 233.59 69.7092 248.654 68.4169C263.718 67.1245 269.744 37.2603 284.808 35.9679C299.872 34.6755 305.897 62.4122 320.962 62.2134C336.026 62.0145 342.051 34.2182 357.115 35.0135C372.179 35.8088 379.335 63.1479 393.269 66.0309C407.204 68.9139 417.598 52.431 424 48.852" stroke="white" stroke-opacity="0.08" stroke-width="2" stroke-linecap="round"/>
<path d="M1 32.1508C7.40224 32.7473 17.7965 37.0022 31.7308 35.0139C45.6651 33.0256 52.8205 22.4081 67.8846 22.607C82.9487 22.8058 88.9744 36.9625 104.038 35.9683C119.103 34.9742 125.128 15.9462 140.192 17.8351C155.256 19.724 161.282 43.4443 176.346 45.0349C191.41 46.6256 197.436 24.0783 212.5 25.4701C227.564 26.8619 233.59 53.008 248.654 51.7156C263.718 50.4232 269.744 20.559 284.808 19.2666C299.872 17.9743 305.897 45.711 320.962 45.5121C336.026 45.3133 342.051 17.5169 357.115 18.3123C372.179 19.1076 379.335 46.4466 393.269 49.3297C407.204 52.2127 417.598 35.7297 424 32.1508" stroke="white" stroke-opacity="0.08" stroke-width="2" stroke-linecap="round"/>
</svg>
