<svg width="428" height="374" viewBox="0 0 428 374" fill="none" xmlns="http://www.w3.org/2000/svg">
<mask id="mask0_2609_39136" style="mask-type:alpha" maskUnits="userSpaceOnUse" x="0" y="0" width="428" height="374">
<rect x="428" y="374" width="428" height="373.333" transform="rotate(-180 428 374)" fill="url(#paint0_linear_2609_39136)"/>
</mask>
<g mask="url(#mask0_2609_39136)">
<g opacity="0.2">
<path opacity="0.05" d="M432.604 108.868C448.864 112.923 461.726 125.344 466.345 141.454L548.385 427.561C553.005 443.669 548.678 461.019 537.038 473.073L330.282 687.176C318.641 699.23 301.452 704.159 285.191 700.106L-3.60484 628.1C-19.8641 624.045 -32.7265 611.624 -37.3451 595.515L-119.385 309.407C-124.005 293.3 -119.679 275.949 -108.038 263.895L98.7178 49.7927C110.358 37.7384 127.547 32.8091 143.808 36.8626L432.604 108.868Z" stroke="white" stroke-width="5"/>
<path opacity="0.1" d="M413.911 113.553C429.557 116.88 442.241 128.301 447.184 143.515L534.978 413.718C539.922 428.93 536.373 445.626 525.67 457.513L335.564 668.647C324.861 680.534 308.628 685.809 292.981 682.484L15.0806 623.414C-0.565187 620.087 -13.2493 608.666 -18.1919 593.452L-105.986 323.249C-110.93 308.037 -107.381 291.341 -96.678 279.454L93.4274 68.3205C104.131 56.4333 120.364 51.1583 136.011 54.4835L413.911 113.553Z" stroke="white" stroke-width="5"/>
<path opacity="0.14" d="M395.825 119.212C410.827 121.859 423.279 132.308 428.489 146.624L521.033 400.886C526.244 415.2 523.421 431.209 513.629 442.879L339.704 650.155C329.912 661.825 314.636 667.385 299.633 664.74L33.1639 617.754C18.1616 615.108 5.70929 604.659 0.49923 590.343L-92.0445 336.081C-97.256 321.767 -94.4327 305.758 -84.6404 294.088L89.2844 86.812C99.0767 75.1421 114.352 69.5818 129.356 72.2266L395.825 119.212Z" stroke="white" stroke-width="5"/>
<path opacity="0.19" d="M378.388 125.809C392.719 127.825 404.888 137.332 410.31 150.752L506.603 389.084C512.025 402.502 509.875 417.795 500.965 429.2L342.709 631.758C333.799 643.162 319.481 648.948 305.148 646.934L50.5994 611.16C36.2681 609.144 24.0992 599.637 18.678 586.217L-77.6149 347.884C-83.0374 334.466 -80.8877 319.173 -71.9776 307.769L86.2783 105.211C95.1883 93.8065 109.507 88.0209 123.839 90.0346L378.388 125.809Z" stroke="white" stroke-width="5"/>
<path opacity="0.23" d="M361.645 133.3C375.28 134.735 387.116 143.334 392.693 155.86L491.742 378.328C497.319 390.853 495.79 405.403 487.731 416.495L344.593 613.508C336.534 624.6 323.168 630.551 309.532 629.119L67.3444 603.663C53.7091 602.229 41.8734 593.63 36.2969 581.104L-62.7523 358.636C-68.3299 346.111 -66.8002 331.561 -58.7413 320.469L84.3969 123.456C92.4558 112.364 105.821 106.413 119.458 107.845L361.645 133.3Z" stroke="white" stroke-width="5"/>
<path opacity="0.28" d="M345.633 141.653C358.551 142.557 370.005 150.283 375.682 161.923L476.504 368.639C482.181 380.276 481.217 394.06 473.976 404.796L345.366 595.468C338.125 606.203 325.706 612.261 312.788 611.358L83.3555 595.314C70.4383 594.41 58.9835 586.683 53.3072 575.044L-47.5151 368.328C-53.1924 356.69 -52.2281 342.906 -44.9872 332.171L83.6229 141.499C90.8638 130.764 103.283 124.706 116.201 125.609L345.633 141.653Z" stroke="white" stroke-width="5"/>
<path opacity="0.32" d="M330.394 150.817C342.574 151.243 353.602 158.134 359.323 168.896L460.947 360.022C466.669 370.782 466.215 383.779 459.757 394.114L345.049 577.685C338.591 588.021 327.108 594.127 314.927 593.702L98.5958 586.147C86.4161 585.721 75.3879 578.83 69.6665 568.068L-31.9571 376.942C-37.6795 366.182 -37.2253 353.185 -30.767 342.85L83.941 159.278C90.3992 148.943 101.882 142.837 114.062 143.262L330.394 150.817Z" stroke="white" stroke-width="5"/>
<path opacity="0.37" d="M315.962 160.757C327.387 160.757 337.945 166.853 343.658 176.749L445.126 352.495C450.839 362.39 450.839 374.582 445.126 384.476L343.659 560.223C337.946 570.117 327.388 576.214 315.961 576.214L113.027 576.214C101.601 576.213 91.0432 570.117 85.3305 560.222L-16.1369 384.475C-21.8504 374.581 -21.8501 362.389 -16.1373 352.494L85.3298 176.748C91.0426 166.853 101.601 160.757 113.027 160.756L315.962 160.757Z" stroke="white" stroke-width="5"/>
<path opacity="0.41" d="M302.374 171.416C313.031 171.045 323.078 176.387 328.729 185.431L429.099 346.056C434.75 355.099 435.147 366.472 430.141 375.887L341.22 543.122C336.214 552.538 326.564 558.568 315.906 558.941L126.616 565.551C115.959 565.922 105.912 560.58 100.261 551.536L-0.108862 390.911C-5.7605 381.868 -6.15731 370.496 -1.15095 361.08L87.7695 193.845C92.7758 184.429 102.426 178.399 113.084 178.026L302.374 171.416Z" stroke="white" stroke-width="5"/>
<path opacity="0.46" d="M289.661 182.757C299.539 182.067 309.036 186.699 314.573 194.909L412.922 340.717C418.46 348.926 419.196 359.466 414.856 368.366L337.756 526.443C333.416 535.343 324.656 541.252 314.777 541.943L139.329 554.212C129.451 554.901 119.954 550.27 114.417 542.06L16.0681 396.251C10.5303 388.043 9.79357 377.502 14.1344 368.602L91.2335 210.525C95.5743 201.625 104.334 195.716 114.213 195.025L289.661 182.757Z" stroke="white" stroke-width="5"/>
<path opacity="0.5" d="M277.853 194.725C286.944 193.77 295.854 197.737 301.226 205.132L396.652 336.474C402.025 343.868 403.044 353.569 399.327 361.919L333.294 510.231C329.576 518.581 321.686 524.314 312.595 525.27L151.136 542.24C142.046 543.195 133.136 539.228 127.763 531.832L32.3379 400.49C26.9647 393.096 25.9454 383.396 29.6632 375.045L95.6958 226.734C99.4136 218.384 107.304 212.65 116.395 211.694L277.853 194.725Z" stroke="white" stroke-width="5"/>
<path opacity="0.55" d="M266.979 207.277C275.277 206.111 283.566 209.46 288.724 216.063L380.346 333.334C385.505 339.936 386.749 348.79 383.611 356.559L327.862 494.541C324.724 502.309 317.678 507.814 309.381 508.981L162.01 529.692C153.713 530.858 145.424 527.508 140.265 520.905L48.6431 403.635C43.4842 397.032 42.2401 388.179 45.3788 380.41L101.127 242.428C104.266 234.659 111.311 229.155 119.609 227.988L266.979 207.277Z" stroke="white" stroke-width="5"/>
<path opacity="0.59" d="M257.064 220.356C264.565 219.034 272.203 221.814 277.099 227.649L364.061 331.287C368.958 337.122 370.369 345.126 367.764 352.284L321.492 479.414C318.887 486.572 312.661 491.797 305.159 493.12L171.925 516.613C164.423 517.935 156.786 515.155 151.89 509.319L64.927 405.682C60.0305 399.847 58.6193 391.842 61.2245 384.685L107.496 257.554C110.101 250.397 116.328 245.172 123.829 243.849L257.064 220.356Z" stroke="white" stroke-width="5"/>
<path opacity="0.64" d="M248.13 233.913C254.836 232.488 261.793 234.749 266.38 239.844L347.854 330.329C352.441 335.423 353.962 342.579 351.844 349.099L314.218 464.9C312.099 471.42 306.663 476.315 299.957 477.74L180.857 503.056C174.152 504.48 167.195 502.22 162.608 497.125L81.1336 406.639C76.5462 401.545 75.0254 394.39 77.1438 387.87L114.77 272.069C116.888 265.549 122.324 260.654 129.03 259.228L248.13 233.913Z" stroke="white" stroke-width="5"/>
<path opacity="0.68" d="M240.199 247.896C246.112 246.422 252.362 248.214 256.595 252.598L331.779 330.453C336.013 334.836 337.585 341.146 335.906 347.003L306.073 451.042C304.394 456.9 299.716 461.417 293.803 462.891L188.786 489.075C182.874 490.549 176.624 488.756 172.39 484.372L97.2063 406.517C92.973 402.134 91.4001 395.825 93.0797 389.967L122.912 285.928C124.592 280.071 129.269 275.554 135.182 274.079L240.199 247.896Z" stroke="white" stroke-width="5"/>
<path opacity="0.73" d="M233.291 262.247C238.417 260.778 243.937 262.154 247.772 265.858L315.896 331.644C319.732 335.348 321.3 340.817 320.01 345.991L297.099 437.88C295.809 443.054 291.857 447.147 286.731 448.617L195.697 474.72C190.572 476.189 185.051 474.813 181.216 471.109L113.092 405.323C109.257 401.619 107.689 396.15 108.978 390.976L131.889 299.087C133.179 293.913 137.131 289.82 142.257 288.35L233.291 262.247Z" stroke="white" stroke-width="5"/>
<path opacity="0.77" d="M227.418 276.92C231.765 275.508 236.535 276.522 239.931 279.58L300.255 333.896C303.652 336.954 305.159 341.592 304.208 346.062L287.331 425.462C286.381 429.933 283.118 433.557 278.771 434.97L201.57 460.054C197.224 461.465 192.454 460.452 189.057 457.393L128.733 403.077C125.337 400.02 123.83 395.381 124.78 390.911L141.657 311.511C142.607 307.041 145.87 303.417 150.217 302.004L227.418 276.92Z" stroke="white" stroke-width="5"/>
<path opacity="0.82" d="M222.596 291.848C226.175 290.546 230.177 291.251 233.094 293.7L284.913 337.181C287.831 339.629 289.221 343.448 288.56 347.198L276.813 413.815C276.152 417.566 273.54 420.679 269.961 421.982L206.395 445.118C202.816 446.42 198.814 445.715 195.897 443.266L144.078 399.785C141.16 397.337 139.77 393.518 140.432 389.768L152.178 323.151C152.839 319.4 155.452 316.287 159.031 314.984L222.596 291.848Z" stroke="white" stroke-width="5"/>
<path opacity="0.86" d="M218.83 306.988C221.655 305.847 224.875 306.3 227.276 308.176L269.92 341.493C272.321 343.368 273.539 346.383 273.115 349.4L265.583 402.989C265.159 406.006 263.157 408.568 260.332 409.71L210.157 429.982C207.332 431.123 204.113 430.671 201.712 428.795L159.068 395.478C156.667 393.602 155.449 390.588 155.873 387.571L163.404 333.981C163.828 330.964 165.83 328.402 168.655 327.261L218.83 306.988Z" stroke="white" stroke-width="5"/>
<path opacity="0.91" d="M216.136 322.276C218.223 321.347 220.648 321.602 222.497 322.945L255.333 346.802C257.181 348.145 258.173 350.372 257.934 352.645L253.692 393.009C253.453 395.282 252.02 397.255 249.932 398.184L212.854 414.692C210.766 415.622 208.341 415.367 206.493 414.023L173.657 390.167C171.808 388.824 170.817 386.596 171.056 384.324L175.298 343.959C175.537 341.687 176.97 339.714 179.058 338.784L216.136 322.276Z" stroke="white" stroke-width="5"/>
<path opacity="0.95" d="M214.514 337.659C215.883 336.991 217.505 337.104 218.768 337.956L241.2 353.087C242.463 353.939 243.176 355.4 243.069 356.919L241.182 383.911C241.076 385.431 240.167 386.779 238.797 387.447L214.478 399.308C213.109 399.976 211.487 399.862 210.224 399.01L187.792 383.88C186.529 383.028 185.816 381.567 185.923 380.047L187.81 353.055C187.916 351.536 188.825 350.188 190.195 349.52L214.514 337.659Z" stroke="white" stroke-width="5"/>
<path d="M213.967 353.081C214.639 352.723 215.452 352.752 216.098 353.155L227.571 360.325C228.217 360.728 228.598 361.446 228.572 362.207L228.1 375.728C228.073 376.489 227.642 377.178 226.97 377.536L215.025 383.888C214.352 384.245 213.54 384.217 212.894 383.813L201.42 376.644C200.774 376.24 200.393 375.522 200.42 374.761L200.892 361.241C200.918 360.479 201.349 359.79 202.022 359.432L213.967 353.081Z" stroke="white" stroke-width="5"/>
</g>
</g>
<defs>
<linearGradient id="paint0_linear_2609_39136" x1="642" y1="374" x2="642" y2="747.333" gradientUnits="userSpaceOnUse">
<stop stop-color="#CADEED"/>
<stop offset="0.8125" stop-color="#CADEED"/>
<stop offset="1" stop-color="#CADEED" stop-opacity="0"/>
</linearGradient>
</defs>
</svg>
