<svg width="1079" height="704" viewBox="0 0 1079 704" fill="none" xmlns="http://www.w3.org/2000/svg">
<mask id="mask0_2609_34132" style="mask-type:alpha" maskUnits="userSpaceOnUse" x="0" y="0" width="1080" height="704">
<path fill-rule="evenodd" clip-rule="evenodd" d="M0.000976562 41.31C175.791 53.8841 351.58 65.6615 527.37 59.3577C711.247 52.7622 895.124 26.3819 987.062 13.191L1079 0V41.2299V304.537V399.463V662.77V704L987.062 690.809C895.124 677.618 711.247 651.238 527.37 644.642C351.58 638.338 175.791 650.116 0.000976562 662.69V41.31Z" fill="url(#paint0_linear_2609_34132)"/>
</mask>
<g mask="url(#mask0_2609_34132)">
<g opacity="0.4">
<path opacity="0.05" d="M1668.86 -350.463C1712.83 -339.496 1747.62 -305.903 1760.11 -262.336L1981.98 511.433C1994.48 554.996 1982.78 601.92 1951.3 634.52L1392.13 1213.55C1360.65 1246.15 1314.16 1259.49 1270.18 1248.52L489.143 1053.79C445.171 1042.82 410.385 1009.23 397.894 965.659L176.019 191.89C163.524 148.327 175.224 101.403 206.706 68.8028L765.872 -510.23C797.354 -542.831 843.841 -556.162 887.818 -545.199L1668.86 -350.463Z" stroke="white" stroke-width="5"/>
<path opacity="0.1" d="M1618.3 -337.79C1660.61 -328.792 1694.92 -297.905 1708.29 -256.759L1945.72 473.997C1959.09 515.138 1949.49 560.292 1920.55 592.44L1406.41 1163.44C1377.47 1195.59 1333.56 1209.86 1291.25 1200.87L539.675 1041.11C497.361 1032.12 463.057 1001.23 449.69 960.083L212.253 229.327C198.881 188.185 208.48 143.032 237.427 110.884L751.562 -460.121C780.508 -492.269 824.411 -506.535 866.728 -497.542L1618.3 -337.79Z" stroke="white" stroke-width="5"/>
<path opacity="0.14" d="M1569.39 -322.485C1609.96 -315.327 1643.64 -287.069 1657.73 -248.35L1908.01 439.292C1922.1 478.006 1914.47 521.302 1887.98 552.863L1417.61 1113.43C1391.13 1144.99 1349.81 1160.03 1309.24 1152.88L588.581 1025.81C548.008 1018.65 514.331 990.392 500.24 951.674L249.958 264.031C235.864 225.317 243.5 182.021 269.982 150.46L740.357 -410.111C766.84 -441.672 808.152 -456.709 848.729 -449.556L1569.39 -322.485Z" stroke="white" stroke-width="5"/>
<path opacity="0.19" d="M1522.23 -304.646C1560.99 -299.196 1593.9 -273.484 1608.56 -237.191L1868.98 407.374C1883.65 443.662 1877.84 485.022 1853.74 515.864L1425.74 1063.68C1401.64 1094.52 1362.92 1110.17 1324.16 1104.72L635.737 1007.97C596.979 1002.52 564.068 976.807 549.407 940.514L288.985 295.949C274.32 259.661 280.134 218.301 304.231 187.459L732.23 -360.354C756.327 -391.197 795.051 -406.844 833.813 -401.398L1522.23 -304.646Z" stroke="white" stroke-width="5"/>
<path opacity="0.23" d="M1476.95 -284.379C1513.83 -280.5 1545.83 -257.244 1560.92 -223.367L1828.79 378.291C1843.88 412.164 1839.74 451.514 1817.94 481.513L1430.83 1014.33C1409.04 1044.33 1372.89 1060.42 1336.01 1056.55L681.021 987.704C644.145 983.825 612.136 960.569 597.054 926.692L329.178 325.034C314.094 291.161 318.231 251.81 340.026 221.812L727.139 -311.003C748.934 -341.002 785.081 -357.096 821.96 -353.222L1476.95 -284.379Z" stroke="white" stroke-width="5"/>
<path opacity="0.28" d="M1433.64 -261.795C1468.58 -259.35 1499.56 -238.454 1514.91 -206.976L1787.58 352.081C1802.93 383.556 1800.33 420.834 1780.74 449.867L1432.92 965.534C1413.34 994.567 1379.75 1010.95 1344.81 1008.51L724.322 965.119C689.387 962.673 658.408 941.777 643.057 910.299L370.386 351.242C355.032 319.768 357.64 282.489 377.223 253.456L725.045 -262.211C744.628 -291.244 778.215 -307.626 813.152 -305.185L1433.64 -261.795Z" stroke="white" stroke-width="5"/>
<path opacity="0.32" d="M1392.43 -237.007C1425.37 -235.854 1455.2 -217.217 1470.67 -188.113L1745.51 328.782C1760.98 357.882 1759.75 393.032 1742.29 420.984L1432.06 917.447C1414.6 945.399 1383.54 961.911 1350.6 960.762L765.539 940.331C732.6 939.178 702.774 920.541 687.301 891.437L412.463 374.542C396.987 345.442 398.215 310.292 415.681 282.34L725.906 -214.123C743.372 -242.074 774.426 -258.587 807.368 -257.438L1392.43 -237.007Z" stroke="white" stroke-width="5"/>
<path opacity="0.37" d="M1353.4 -210.135C1384.3 -210.132 1412.85 -193.647 1428.3 -166.884L1702.72 308.417C1718.17 335.176 1718.17 368.149 1702.72 394.909L1428.31 870.21C1412.86 896.97 1384.3 913.457 1353.4 913.459L804.568 913.458C773.668 913.456 745.114 896.97 729.664 870.207L455.248 394.906C439.796 368.148 439.797 335.175 455.247 308.414L729.662 -166.886C745.112 -193.646 773.667 -210.134 804.569 -210.135L1353.4 -210.135Z" stroke="white" stroke-width="5"/>
<path opacity="0.41" d="M1316.65 -181.301C1345.47 -182.305 1372.65 -167.858 1387.93 -143.398L1659.38 291.007C1674.66 315.464 1675.73 346.22 1662.19 371.684L1421.71 823.966C1408.17 849.43 1382.07 865.739 1353.25 866.747L841.32 884.624C812.497 885.628 785.326 871.181 770.043 846.721L498.596 412.315C483.311 387.859 482.238 357.103 495.778 331.639L736.26 -120.644C749.8 -146.108 775.898 -162.417 804.722 -163.424L1316.65 -181.301Z" stroke="white" stroke-width="5"/>
<path opacity="0.46" d="M1282.27 -150.633C1308.98 -152.499 1334.67 -139.972 1349.64 -117.768L1615.62 276.566C1630.6 298.766 1632.59 327.273 1620.85 351.343L1412.34 778.857C1400.6 802.926 1376.91 818.907 1350.2 820.776L875.701 853.956C848.986 855.822 823.303 843.295 808.327 821.092L542.345 426.757C527.368 404.557 525.376 376.05 537.115 351.98L745.628 -75.5335C757.367 -99.6031 781.058 -115.584 807.774 -117.453L1282.27 -150.633Z" stroke="white" stroke-width="5"/>
<path opacity="0.5" d="M1250.34 -118.261C1274.92 -120.843 1299.02 -110.114 1313.55 -90.1136L1571.63 265.097C1586.16 285.095 1588.91 311.329 1578.86 333.911L1400.28 735.016C1390.22 757.599 1368.88 773.105 1344.29 775.69L907.635 821.584C883.051 824.166 858.954 813.438 844.424 793.437L586.348 438.226C571.816 418.229 569.06 391.995 579.114 369.412L757.698 -31.693C767.752 -54.2759 789.092 -69.7813 813.678 -72.3665L1250.34 -118.261Z" stroke="white" stroke-width="5"/>
<path opacity="0.55" d="M1220.93 -84.3202C1243.37 -87.4721 1265.79 -78.4144 1279.74 -60.5563L1527.53 256.599C1541.48 274.454 1544.84 298.399 1536.36 319.409L1385.59 692.577C1377.1 713.587 1358.04 728.475 1335.6 731.63L937.043 787.643C914.603 790.795 892.185 781.737 878.234 763.879L630.445 446.724C616.493 428.869 613.128 404.924 621.617 383.914L772.387 10.7455C780.875 -10.2644 799.929 -25.1518 822.37 -28.3067L1220.93 -84.3202Z" stroke="white" stroke-width="5"/>
<path opacity="0.59" d="M1194.11 -48.9481C1214.4 -52.5237 1235.06 -45.0057 1248.3 -29.2236L1483.49 251.062C1496.73 266.841 1500.55 288.49 1493.5 307.847L1368.36 651.668C1361.31 671.026 1344.47 685.156 1324.19 688.734L963.858 752.27C943.571 755.845 922.915 748.327 909.674 732.545L674.486 452.26C661.243 436.48 657.427 414.832 664.472 395.474L789.613 51.6534C796.658 32.2957 813.497 18.1655 833.785 14.5873L1194.11 -48.9481Z" stroke="white" stroke-width="5"/>
<path opacity="0.64" d="M1169.95 -12.2824C1188.09 -16.1357 1206.9 -10.0224 1219.31 3.75688L1439.65 248.473C1452.06 262.25 1456.17 281.602 1450.44 299.234L1348.68 612.415C1342.96 630.048 1328.25 643.286 1310.12 647.142L988.015 715.607C969.88 719.46 951.065 713.347 938.659 699.567L718.316 454.851C705.909 441.074 701.796 421.723 707.525 404.09L809.284 90.909C815.013 73.2765 829.715 60.0381 847.851 56.1824L1169.95 -12.2824Z" stroke="white" stroke-width="5"/>
<path opacity="0.68" d="M1148.51 25.5299C1164.5 21.5443 1181.4 26.3913 1192.85 38.2473L1396.18 248.805C1407.63 260.659 1411.88 277.722 1407.34 293.564L1326.66 574.934C1322.12 590.775 1309.47 602.992 1293.48 606.98L1009.46 677.792C993.471 681.778 976.567 676.931 965.119 665.075L761.785 454.517C750.337 442.664 746.083 425.6 750.625 409.759L831.307 128.388C835.849 112.547 848.499 100.33 864.49 96.3425L1148.51 25.5299Z" stroke="white" stroke-width="5"/>
<path opacity="0.73" d="M1129.82 64.3485C1143.68 60.3749 1158.61 64.0972 1168.99 74.1153L1353.22 252.032C1363.6 262.048 1367.84 276.839 1364.35 290.831L1302.39 539.344C1298.9 553.335 1288.21 564.404 1274.35 568.38L1028.15 638.976C1014.29 642.95 999.359 639.228 988.986 629.21L804.748 451.293C794.374 441.277 790.133 426.485 793.621 412.494L855.583 163.981C859.071 149.989 869.76 138.92 883.622 134.945L1129.82 64.3485Z" stroke="white" stroke-width="5"/>
<path opacity="0.77" d="M1113.94 104.023C1125.69 100.204 1138.59 102.946 1147.78 111.217L1310.92 258.113C1320.11 266.383 1324.18 278.927 1321.61 291.016L1275.97 505.751C1273.4 517.841 1264.58 527.643 1252.82 531.463L1044.03 599.302C1032.28 603.121 1019.38 600.379 1010.19 592.107L847.048 445.212C837.862 436.942 833.787 424.398 836.357 412.308L882 197.573C884.57 185.483 893.395 175.682 905.15 171.862L1113.94 104.023Z" stroke="white" stroke-width="5"/>
<path opacity="0.82" d="M1100.89 144.404C1110.57 140.882 1121.39 142.79 1129.28 149.412L1269.43 267.006C1277.32 273.626 1281.08 283.954 1279.29 294.098L1247.52 474.262C1245.73 484.405 1238.67 492.825 1228.99 496.348L1057.08 558.919C1047.4 562.441 1036.57 560.532 1028.68 553.911L888.541 436.317C880.651 429.697 876.892 419.369 878.68 409.225L910.448 229.061C912.237 218.918 919.301 210.498 928.981 206.974L1100.89 144.404Z" stroke="white" stroke-width="5"/>
<path opacity="0.86" d="M1090.71 185.346C1098.35 182.26 1107.06 183.483 1113.55 188.557L1228.88 278.662C1235.38 283.734 1238.67 291.887 1237.52 300.047L1217.15 444.977C1216.01 453.137 1210.59 460.066 1202.95 463.153L1067.26 517.979C1059.62 521.065 1050.91 519.841 1044.42 514.767L929.087 424.662C922.593 419.59 919.3 411.437 920.447 403.277L940.815 258.347C941.962 250.187 947.375 243.258 955.015 240.171L1090.71 185.346Z" stroke="white" stroke-width="5"/>
<path opacity="0.91" d="M1083.42 226.694C1089.07 224.18 1095.63 224.87 1100.63 228.503L1189.43 293.021C1194.43 296.654 1197.11 302.678 1196.47 308.824L1184.99 417.989C1184.35 424.135 1180.47 429.47 1174.82 431.984L1074.55 476.63C1068.9 479.143 1062.34 478.454 1057.34 474.821L968.541 410.302C963.541 406.67 960.859 400.646 961.505 394.5L972.978 285.335C973.624 279.189 977.5 273.853 983.146 271.339L1083.42 226.694Z" stroke="white" stroke-width="5"/>
<path opacity="0.95" d="M1079.04 268.297C1082.74 266.491 1087.13 266.798 1090.54 269.102L1151.21 310.022C1154.62 312.326 1156.55 316.277 1156.26 320.387L1151.16 393.386C1150.87 397.496 1148.41 401.141 1144.71 402.948L1078.94 435.026C1075.24 436.832 1070.85 436.526 1067.43 434.221L1006.77 393.301C1003.35 390.998 1001.42 387.046 1001.71 382.936L1006.82 309.937C1007.1 305.827 1009.56 302.182 1013.27 300.376L1079.04 268.297Z" stroke="white" stroke-width="5"/>
<path d="M1077.55 310.004C1079.37 309.037 1081.57 309.114 1083.32 310.205L1114.35 329.594C1116.09 330.686 1117.12 332.627 1117.05 334.685L1115.78 371.252C1115.7 373.311 1114.54 375.175 1112.72 376.142L1080.41 393.319C1078.6 394.286 1076.4 394.21 1074.65 393.118L1043.62 373.729C1041.88 372.637 1040.84 370.696 1040.92 368.638L1042.19 332.071C1042.26 330.013 1043.43 328.148 1045.25 327.181L1077.55 310.004Z" stroke="white" stroke-width="5"/>
</g>
</g>
<defs>
<linearGradient id="paint0_linear_2609_34132" x1="1079" y1="352" x2="0.00110265" y2="352" gradientUnits="userSpaceOnUse">
<stop stop-color="#BC3B39"/>
<stop offset="1" stop-color="#BC3B39" stop-opacity="0"/>
</linearGradient>
</defs>
</svg>
