<svg width="428" height="43" viewBox="0 0 428 43" fill="none" xmlns="http://www.w3.org/2000/svg">
<path fill-rule="evenodd" clip-rule="evenodd" d="M327.683 16.4056C361.055 18 393.448 18 410.167 18H428L428 0V43H0V0L3.05176e-05 18.0001L17.8334 14.13L17.8412 14.1283L17.8472 14.127C20.0729 13.644 22.576 13.1009 25.322 12.5163C44.5834 8.41583 75.7917 2.27863 107 0.58548C111.458 0.343658 115.917 0.192535 120.375 0.120758C151.583 -0.381653 182.792 3.00424 214 6.3905L214.028 6.39346L214.135 6.40509H214.135C218.556 6.88477 222.978 7.36444 227.399 7.84039C258.599 11.1989 289.8 14.3723 321 16.065C323.229 16.186 325.458 16.2993 327.683 16.4056Z" fill="#F0FAF5"/>
</svg>
